<?xml version="1.0" encoding="utf-8" ?>
<svg baseProfile="full" height="300mm" version="1.1" viewBox="0,0,200,300" width="200mm" xmlns="http://www.w3.org/2000/svg" xmlns:ev="http://www.w3.org/2001/xml-events" xmlns:xlink="http://www.w3.org/1999/xlink"><defs /><rect fill="#222222" height="300" width="200" x="0" y="0" /><text fill="#FFFFFF" style="font-size:12px; font-family:Arial; font-weight:bold;" x="10" y="20">Over 10km Runs</text><text fill="#FFFFFF" style="font-size:4px; font-family:Arial" x="10" y="280">ATHLETE</text><text fill="#FFFFFF" style="font-size:9px; font-family:Arial" x="10" y="290">safeoy</text><text fill="#FFFFFF" style="font-size:4px; font-family:Arial" x="120" y="280">STATISTICS</text><text fill="#FFFFFF" style="font-size:3px; font-family:Arial" x="120" y="285">Number: 6</text><text fill="#FFFFFF" style="font-size:3px; font-family:Arial" x="120" y="290">Weekly: 1.2</text><text fill="#FFFFFF" style="font-size:3px; font-family:Arial" x="141" y="285">Total: 58.9 km</text><text fill="#FFFFFF" style="font-size:3px; font-family:Arial" x="141" y="290">Avg: 9.8 km</text><text fill="#FFFFFF" style="font-size:3px; font-family:Arial" x="167" y="285">Min: 2.2 km</text><text fill="#FFFFFF" style="font-size:3px; font-family:Arial" x="167" y="290">Max: 12.5 km</text><polyline fill="none" points="85.87610619462794,58.99255503130553 85.85840707964962,59.20424559917592 85.9115044248174,59.300468527158955 85.98230088490527,59.531403408182086 85.9292035397375,59.76233808265533 85.94690265483223,60.05100613544346 85.82300884951837,60.47438536255504 85.78761061944533,60.78229709183506 85.78761061944533,61.20567512018897 85.75221238937229,61.3403861655097 85.75221238937229,61.64829686238954 85.82300884951837,62.225628429689095 85.76991150440881,62.41807199869072 85.82300884951837,62.57202675061126 85.69911504426273,62.86069166321249 85.69911504426273,62.93766891877749 85.69911504426273,63.18784484083881 85.76991150440881,63.26482199886232 85.76991150440881,63.361043414173764 85.75221238937229,63.47650906517811 85.80530973454006,63.5534861372289 85.87610619462794,64.03459231757734 85.82300884951837,64.13081344608509 85.82300884951837,64.32325559563469 85.73451327427756,64.4964534076571 85.78761061944533,64.70813946462295 85.75221238937229,64.82360451346904 85.75221238937229,64.93906951075769 85.69911504426273,65.2662200559862 86.0,65.8242994415632 85.98230088490527,65.93976399151143 86.0,66.03598441036593 85.73451327427756,66.61330617082422 85.76991150440881,66.84423451367184 85.75221238937229,66.94045459563495 85.89380530972267,67.38306651092716 85.8407079645549,67.80643372025224 85.71681415924104,68.15282455725537 85.681415929168,68.61467828410969 85.57522123889066,68.96106803730072 85.61061946902191,69.03804347496771 85.69911504426273,68.9995557590155 85.66371681413148,69.07653118517192 85.71681415924104,69.17275043565314 85.80530973454006,69.24972581019392 85.76991150440881,69.38443266051763 85.85840707964962,69.80779658984102 85.62831858400023,69.8847717752069 84.69026548671536,70.03872207706445 83.75221238937229,70.26964735783986 82.5663716814015,70.4813286839053 81.73451327433577,70.67376610253996 81.62831858405843,70.76998475805158 81.39823008846724,70.82771593418147 81.02654867252568,70.9046908156306 80.70796460175188,70.9046908156306 79.27433628315339,71.28956487879623 78.35398230084684,71.42427066543314 77.80530973442364,71.55897638184251 77.5221238937811,71.57822004990885 76.86725663713878,71.69368202800979 76.76106194686145,71.73216934260563 76.17699115048163,71.82838760399318 76.07079646020429,71.84763125191967 75.85840707964962,71.82838760399318 75.16814159293426,71.92460582945205 74.93805309728486,72.00158038406516 73.66371681413148,72.1555294245336 73.55752212385414,72.21326029098418 73.46902654867154,72.29023475962458 73.02654867252568,72.54040162418096 72.88495575223351,72.67510675867379 71.75221238937229,72.84829897114832 70.79646017693449,72.90602968282474 70.53097345132846,72.9445168168022 70.08849557524081,72.9445168168022 69.25663716817508,73.00224750701454 68.61946902651107,73.11770884868747 68.30088495579548,73.04073462662927 67.71681415929925,72.79056824653526 67.29203539824812,72.75208108965307 66.83185840706574,72.55964521912392 66.65486725658411,72.52115802784101 65.91150442475919,72.55964521912392 65.82300884957658,72.54040162418096 64.97345132747432,72.61737599535263 64.46017699112417,72.63661958451848 64.19469026545994,72.55964521912392 63.380530973372515,72.55964521912392 62.23008849553298,72.46342723011912 62.12389380525565,72.48267083082465 61.91150442475919,72.42494002450258 61.07964601769345,72.50191443001677 59.41592920356197,72.2325039103307 58.63716814154759,72.25174752817838 58.38938053091988,72.21326029098418 58.28318584070075,72.2325039103307 57.78761061944533,72.21326029098418 56.81415929202922,72.07855491574446 56.601769911532756,72.07855491574446 55.71681415924104,72.04006765279337 55.48672566370806,71.98233674759103 55.2035398229491,72.00158038406516 54.938053097284865,71.94384947026265 54.530973451328464,71.77065665148257 54.30088495579548,71.75141299773532 54.21238938049646,71.77065665148257 54.03539823007304,72.02082401915686 53.85840707964962,72.40569641950424 53.71681415929925,72.63661958451848 53.55752212385414,72.73283750907285 53.1150442478247,72.75208108965307 52.26548672572244,72.73283750907285 51.50442477874458,72.63661958451848 50.5663716813433,72.63661958451848 50.1592920353869,72.57888881262625 50.070796460146084,72.50191443001677 49.55752212385414,71.78990030371642 49.45132743357681,71.75141299773532 49.25663716811687,71.75141299773532 49.06194690259872,71.80914395452419 48.831858407123946,71.82838760399318 48.0884955751244,71.78990030371642 47.85840707964962,71.73216934260563 47.48672566364985,71.78990030371642 47.168141592876054,71.77065665148257 47.07964601763524,71.80914395452419 46.26548672566423,71.73216934260563 46.0,71.73216934260563 45.699115044262726,71.61670738164685 44.778761061956175,71.53973271236464 44.300884955737274,71.44351434349664 43.840707964554895,71.308808566886 43.25663716811687,71.27032118925126 43.07964601763524,71.15485902190267 42.44247787602944,71.02015309479611 41.69911504420452,70.94317824777681 41.592920353927184,70.9046908156306 41.238938053080346,70.86620337779459 41.02654867252568,70.78922848484945 40.814159292087425,70.78922848484945 40.03539823007304,70.67376610253996 39.64601769915316,70.57754741109966 39.433628318598494,70.67376610253996 39.1150442478247,70.71225356899959 39.00884955743095,70.69300983646826 38.15929203532869,70.55830366855662 37.98230088496348,70.42359743035922 37.78761061944533,70.36586616392015 37.32743362837937,70.30813488457352 36.83185840706574,70.19267228715762 35.911504424817394,70.11569719358522 35.15044247789774,69.923259359246 34.60176991147455,69.94250314917008 34.23008849553298,69.80779658984102 33.45132743369322,69.65384615036601 33.00884955748916,69.61535852613451 32.67256637167884,69.49989561914117 31.78761061944533,69.4229203191353 31.610619469021913,69.32670116182999 31.50442477874458,69.13426273976802 31.50442477874458,68.92258030989615 31.592920353927184,68.61467828410969 28.60176991147455,68.92258030989615 27.96460176986875,68.80711709323805 27.13274336286122,68.74938546554768 26.831858407123946,68.67240994190797 26.4778761062189,68.63392217144428 26.035398230073042,68.49921492979047 25.29203539818991,68.38375152387016 25.203539823007304,68.34526371044922 24.17699115036521,68.24904415177298 24.088495575182606,68.2105563182995 23.55752212385414,68.13358063409396 23.34513274335768,68.05660492691095 22.991150442510843,68.03736099654634 22.796460176934488,67.97962919683778 22.353982300905045,67.96038526072516 21.82300884957658,67.86416555868345 21.59292035398539,67.86416555868345 20.991150442452636,67.74870186895714 20.67256637167884,67.67172604707594 20.14159292029217,67.67172604707594 19.592920353927184,67.59475020231912 19.1150442478247,67.59475020231912 18.353982300905045,67.51777433461393 18.17699115042342,67.53701830365753 17.929203539795708,67.51777433461393 17.823008849518374,67.5562622713478 17.59292035398539,67.49853036410059 17.168141592876054,67.51777433461393 16.743362831883132,67.59475020231912 16.61946902651107,67.5562622713478 16.05309734516777,67.49853036410059 15.946902654890437,67.46004241876653 15.292035398248117,67.42155446768447 15.061946902656928,67.3445785483782 14.0,67.36382253035845 14.442477876029443,67.26760260612355 14.707964601751883,67.09440665214788 14.831858407065738,66.92121058209159 14.938053097343072,66.92121058209159 14.973451327474322,67.03667464174214 15.061946902656928,67.01743063537288 15.061946902656928,66.92121058209159 14.973451327474322,66.97894261834153 15.026548672525678,67.0559186466271 15.115044247766491,67.0559186466271 15.132743362803012,66.97894261834153 15.061946902656928,66.94045459563495 15.008849557489157,67.01743063537288 14.938053097343072,67.19062664093508 14.884955752175301,67.4792863921175 14.938053097343072,68.38375152387016 15.008849557489157,68.6916538249352 14.973451327474322,68.86484870803542 15.026548672525678,69.40367649051768 15.008849557489157,69.75006518579903 15.044247787620407,70.50057243219635 15.026548672525678,70.61603489200934 15.168141592934262,71.50124536911608 15.150442477839533,72.05931128497468 15.185840707970783,72.3479655959818 15.150442477839533,72.67510675867379 15.168141592934262,73.15619595108728 15.115044247766491,73.3678749120154 15.203539822949097,74.50324092415394 15.185840707970783,74.77264907595236 15.203539822949097,75.31146453681868 15.168141592934262,75.40768146511982 15.185840707970783,76.44682200789975 15.345132743299473,76.69698484771652 15.433628318540286,76.7547146994475 15.522123893839307,76.71622813308204 15.504424778744578,76.60076839952671 15.415929203561973,76.56228181025654 15.345132743299473,76.60076839952671 15.238938053080346,76.62001169206633 15.185840707970783,76.67774156101223 15.097345132671762,76.71622813308204 15.044247787620407,76.79320126007951 14.955752212379593,76.81244453827094 14.831858407065738,76.63925498312165 14.814159292029217,76.54303851345321 14.867256637196988,76.46606531187717 15.061946902656928,76.40833539566665 15.168141592934262,76.40833539566665 15.451327433576807,76.25438888935605 15.64601769921137,76.19665892589546 15.929203539853916,76.02346895796654 17.115044247708283,75.46541160493507 17.504424778802786,75.31146453681868 17.59292035398539,75.2344909683743 18.070796460087877,74.98432671248156 18.63716814154759,74.77264907595236 18.814159292087425,74.65718847389508 18.955752212379593,74.61870159505634 19.168141592876054,74.61870159505634 19.716814159299247,74.52248437292292 20.01769911509473,74.50324092415394 20.566371681401506,74.52248437292292 21.008849557489157,74.50324092415394 21.50442477868637,74.5802147105278 22.106194690277334,74.59945815349056 23.168141592934262,74.73416221437219 23.716814159299247,74.77264907595236 24.035398230073042,74.86886620499718 24.318584070773795,74.84962278202875 24.40707964601461,74.90735304656846 24.495575221197214,74.88810962646676 24.584070796438027,74.94583988236263 24.63716814154759,75.06130035544629 24.725663716788404,75.13827397552086 24.84955752210226,75.31146453681868 25.168141592934262,75.50389835765236 26.46017699112417,75.98498228263634 26.584070796496235,76.00422562104359 26.67256637167884,75.98498228263634 26.955752212321386,76.04271229346341 27.256637168116868,76.04271229346341 28.19469026545994,76.31211883998185 28.300884955737274,76.27363220769621 28.40707964601461,76.31211883998185 28.530973451328464,76.31211883998185 28.867256637196988,76.38909208744008 29.309734513342846,76.56228181025654 29.39823008852545,76.54303851345321 29.840707964554895,76.69698484771652 29.96460176986875,76.69698484771652 30.088495575182606,76.71622813308204 30.17699115036521,76.77395798050566 30.44247787608765,76.79320126007951 31.592920353927184,77.0818502821785 32.30088495567907,77.31276926770806 32.584070796496235,77.37049898180703 33.57522123889066,77.69763378486095 34.44247787608765,77.90930902500986 35.681415929168,78.27492948579311 35.76991150440881,78.27492948579311 36.38938053091988,78.48660425299022 36.92035398230655,78.5828199989046 37.62831858411664,78.79449451378605 38.778761061956175,79.02541196867242 39.38053097343072,79.08314130014332 40.14159292035038,79.12162751398864 41.415929203503765,79.29481540518464 42.28318584070075,79.37178776401561 42.51327433629194,79.37178776401561 43.57522123894887,79.50648933686898 43.82300884957658,79.50648933686898 43.929203539853916,79.56421856081579 44.24778761062771,79.5834616326174 44.548672566364985,79.67967697010317 45.168141592876054,79.69892003329005 45.53982300887583,79.7566492142796 45.858407079591416,79.83362143556587 46.973451327416115,79.96832276758505 47.30973451328464,79.96832276758505 47.92920353979571,80.06453796177811 48.60176991147455,80.10302402939124 49.13274336286122,80.21848219794629 50.19469026551815,80.33394031484204 50.318584070773795,80.31469729890523 51.29203539824812,80.46864138606179 52.12389380525565,80.54561339522479 52.336283185810316,80.58409939122794 52.40707964601461,80.66107136597566 53.238938053080346,80.75728630219237 53.55752212385414,80.75728630219237 53.87610619462794,80.69955734473479 54.07079646020429,80.73804331783322 54.19469026540173,80.79577226664696 54.38938053097809,80.8150152467424 54.61946902656928,80.87274417838489 55.026548672583885,80.87274417838489 55.46902654861333,80.91123012565367 56.03539823007304,80.8150152467424 56.12389380525565,80.77652928516909 56.77876106189797,80.89198715270322 57.09734513272997,80.8342582253681 57.53982300881762,80.85350120261137 58.725663716788404,80.94971606714535 58.90265486721182,81.00744496869447 59.469026548671536,80.96895903581753 60.088495575182606,81.00744496869447" stroke="#4dd2ff" stroke-linecap="round" stroke-linejoin="round" stroke-width="0.5"><title>2023-04-01 11.2km</title></polyline><polyline fill="none" points="185.98141215957003,67.3827717903041 185.96282431908185,67.56466748603998 185.9907060797559,67.67582584666525 185.98141215957003,67.74656293784938 186.0,67.96887926988711 185.97211823932594,68.02951093357115 185.97211823932594,68.16087944520405 185.93494255840778,68.26193205990421 185.9163547179196,68.38319509815483 185.95353039889596,68.45393182041153 185.90706079773372,68.62572084942803 185.9163547179196,68.78740444270079 185.88847295724554,68.8985618012739 185.90706079773372,69.10066585621826 185.87917903705966,69.15119182290073 185.88847295724554,69.39371620098973 185.90706079773372,69.46445239624154 185.89776687748963,69.5756091999865 185.9163547179196,69.67666076071328 185.89776687748963,69.77771224614844 185.88847295724554,70.10107649365091 185.86059119662968,70.19202254937409 185.8420033561415,70.36380937715148 185.8420033561415,70.57601633464219 185.93494255840778,70.77811789028056 185.9907060797559,71.12168984382151 185.64683103136485,71.1924251379969 185.5353039886686,71.23284528953081 185.41448302567005,71.24295032554073 185.12637149862712,71.31368555648078 184.9869626952568,71.36421069887729 184.95908093458274,71.40463079924666 184.8382599715842,71.4248408449057 184.62449980637757,71.43494586658926 184.0482767522917,71.55620606832235 183.92745578929316,71.56631108022702 183.73228346457472,71.66736115798267 183.56499290047213,71.71788616864069 183.33264489483554,71.72799116852548 183.1188847295707,71.78862115193624 182.78430360142374,71.83914611743239 181.7247966955183,72.06145574204857 181.22292500321055,72.15240048346459 181.13927972118836,72.17261041772872 180.90693171549356,72.20292531347513 180.8604621143313,72.22313524020137 180.721053310961,72.22313524020137 180.50729314575437,72.25345012464823 180.4050600231858,72.29386996005633 180.07047889503883,72.28376500232116 179.8660126500763,72.34439473735983 179.62437072419561,72.33428978343 179.50354976119706,72.364604643044 179.06673551053973,72.38481454567227 179.0016780688893,72.415129393994 178.7879179037409,72.43533928912075 178.17451916873688,72.47575907032297 178.10016780684236,72.46565412612836 177.7655866786954,72.46565412612836 177.5332386730588,72.49596895639843 177.09642442234326,72.51617883946892 176.9941912998329,72.53638871956355 176.68749193236,72.50607389832294 176.57596488966374,72.51617883946892 176.2042080805404,72.51617883946892 175.71163030853495,72.56670353398658 175.32128565892344,72.5768084706433 174.8937653285102,72.60712327608053 174.6521234026295,72.6172282096959 174.2710726733203,72.59701834167936 173.51826513488777,72.59701834167936 173.46250161353964,72.58691340653604 173.3323867303552,72.50607389832294 173.22085968760075,72.49596895639843 172.99780560215004,72.53638871956355 172.68181231443305,72.51617883946892 172.5609913514345,72.52628377988731 172.31005550536793,72.43533928912075 171.9382986963028,72.38481454567227 171.73383245128207,72.37470959472557 171.61301148828352,72.39491949585499 171.43642700399505,72.4050244453174 171.18549115787027,72.35449969057663 171.13902155670803,72.364604643044 170.98102491284953,72.35449969057663 170.9345553117455,72.33428978343 170.73008906672476,72.30397491702752 170.60926810378442,72.31407987322746 170.2282173744752,72.27366004386568 169.80069704400375,72.26355508463894 169.59623079898302,72.18271538371482 169.54976119787898,72.15240048346459 169.3824706337764,72.14229551521566 169.32670711242827,72.11198060589959 169.01071382471127,72.0210358373879 168.82483542017872,71.93009100790368 168.65754485607613,71.86946108769189 168.48096037178766,71.83914611743239 168.38802116946317,71.87956607628439 168.2950819671969,72.0210358373879 168.08132180199027,72.0412457912098 168.02555828064214,72.06145574204857 167.84897379629547,72.07156071632198 167.8210920356214,72.11198060589959 167.7560345940292,72.14229551521566 167.41215954563813,72.19282034900243 167.2820446624537,72.20292531347513 167.08687233767705,72.26355508463894 167.02181489608483,72.26355508463894 166.95675745449262,72.18271538371482 166.8917000129004,72.15240048346459 166.69652768818196,72.15240048346459 166.64076416677563,72.07156071632198 166.51994320383528,72.05135076701117 166.37124048016267,71.99072090099071 166.1946559958742,71.97051093963819 166.09242287336383,71.91998602307285 165.92513230926124,71.89977605118474 165.5719633406261,71.94019599195599 165.1723247708287,71.93009100790368 165.00503420678433,71.88967106409837 164.83774364268174,71.88967106409837 164.68904091906734,71.83914611743239 164.59610171680106,71.82904112585675 164.1778753065737,71.74820116600313 164.0198786627152,71.76841116048308 163.8711759390426,71.84925110828044 163.3321285659331,71.75830616363237 163.22060152317863,71.76841116048308 162.9324899961357,71.73809616763174 162.6257906286628,71.68757116451161 162.37485478247982,71.67746616162185 161.82651348906802,71.5865211018172 161.70569252612768,71.5865211018172 161.6127533238614,71.6168361285163 161.3060539563303,71.55620606832235 160.9993545888574,71.52589102805359 160.78559442365076,71.45515590775176 160.49748289660783,71.43494586658926 160.2930166515871,71.35410567191866 159.9026720020338,71.26316039529047 159.2706854265998,71.20253017702635 159.22421582549578,71.1823200982326 159.11268878274132,71.20253017702635 158.69446237251395,71.11158479878941 158.55505356908543,71.06105956230022 158.359881244367,71.05095451275702 158.24835420161253,71.03074441137869 157.84871563187335,70.99032419962168 157.8022460307111,70.97011408923572 157.74648250936298,70.9600090328895 157.6535433070967,70.97011408923572 157.46766490250593,70.92969385941251 157.35613785980968,70.93979891798517 157.30037433846155,70.90948373997526 157.1052020136849,70.87916855518415 157.01226281136042,70.84885336360458 156.9564992900705,70.84885336360458 156.85426616750192,70.81853816526564 156.65909384278348,70.80843309765623 156.28733703371836,70.74780267612368 156.12004646961577,70.74780267612368 155.88769846392097,70.6770671500999 155.618174777308,70.65685699300957 155.320769330021,70.57601633464219 155.22783012781292,70.5861214195611 154.99548212211812,70.5355959873923 154.90254291985184,70.5558061624979 154.6980766748893,70.5052807190441 154.5493739511585,70.49517562808614 154.44714082870632,70.46486035069393 154.28914418484783,70.44465016199683 154.17761714209337,70.41433487333416 153.86162385437638,70.3739144778956 153.65715760941384,70.29307365089335 153.49916096555535,70.28296854411019 153.19246159802424,70.2324429990258 152.96940751257353,70.21223277569516 152.81141086871503,70.18191743507487 152.69988382596057,70.18191743507487 152.62553246418247,70.20212766291661 152.5232993416721,70.17181232004077 152.41177229897585,70.17181232004077 151.9749580482603,70.09097137258505 151.86343100556405,70.05055088079826 151.48238027625484,70.01013037694065 151.31508971209405,70.02023550403828 151.14779914804967,69.98992012051895 150.93403898284305,70.02023550403828 150.39499160961714,69.95960473022569 150.24628888606094,69.96970986106317 150.17193752422463,69.93939446623699 150.05111656122608,69.95960473022569 149.9674712792039,69.94949959861697 149.86523815669352,69.95960473022569 149.8094746353454,69.96970986106317 149.77229895442724,69.98992012051895 149.5585387891624,69.98992012051895 148.70349812827772,69.85855338029069 148.54550148441922,69.81813281923678 148.43397444172297,69.80802767707792 148.28527171810856,69.82823796062439 148.23880211694632,69.80802767707792 148.08080547308782,69.80802767707792 147.8670453078812,69.77771224614844 147.72763650445268,69.76760710097733 147.52317025943194,69.70697621422005 147.42093713697977,69.70697621422005 146.854008003138,69.63624014543166 146.45436943334062,69.62613498976134 146.26849102880806,69.59581951815926 145.93390990060288,69.50487306268042 145.3855686071911,69.43413688850706 145.33909900608705,69.40382137399138 145.27404156443663,69.27245406614384 145.04169355880003,69.19161258269014 144.93946043628966,69.19161258269014 144.89299083518563,69.20171777075302 144.80934555310523,69.27245406614384 144.71640635083895,69.28255924819678 144.07512585516088,69.18150739386328 143.91712921130238,69.19161258269014 143.75913256744388,69.15119182290073 143.61972376401536,69.15119182290073 143.3502000774606,69.07035026717494 143.10855815152172,69.05013987072016 142.69033174129436,68.95919304938434 142.53233509743586,68.94908784324798 142.4951594165177,68.91877222032053 142.47657157608774,68.87835137922957 142.53233509743586,68.5751946870223 142.53233509743586,68.51456326725747 142.5044533367618,68.46403706342971 142.2813992513111,68.42361608682404 142.09552084677853,68.34277409745118 141.8910546017578,68.35287934874941 141.77952755900333,68.37308984911942 141.68658835679526,68.34277409745118 141.4263585904264,68.37308984911942 141.36130114883417,68.37308984911942 141.30553762742784,68.34277409745118 141.00813218019903,68.34277409745118 140.90589905768866,68.37308984911942 140.8594294565264,68.37308984911942 140.6363753711339,68.41351084078633 140.2460307215224,68.63582607964781 140.1809732799884,68.69645744520676 140.0136827158858,68.74698356246518 139.96721311478177,68.77729922378057 139.90215567313135,68.86824616706872 139.84639215178322,69.19161258269014 139.7906286304351,69.28255924819678 139.67910158773884,69.38361102724593 139.6326319865766,69.4139265462436 139.45604750222992,69.40382137399138 139.35381437977776,69.4139265462436 139.29805085837143,69.43413688850706 138.97276365041034,69.43413688850706 138.75900348520372,69.40382137399138 138.66606428293744,69.43413688850706 138.29430747387232,69.40382137399138 138.1456047501997,69.42403171776823 137.95043242548127,69.52508339141059 137.62514521746198,69.52508339141059 137.57867561635794,69.51497822741658 137.49503033433575,69.46445239624154 137.40209113201126,69.51497822741658 137.35562153090723,69.49476789721666 137.30915192974498,69.51497822741658 137.16044920613058,69.52508339141059 137.08609784429427,69.46445239624154 137.03033432294615,69.46445239624154 136.79798631725134,69.4846627309962 136.6678714340669,69.50487306268042 136.6028139925329,69.52508339141059 136.5098747902084,69.6059246760924 136.38905382726807,69.81813281923678 136.2961146250018,70.0707611281905 136.2961146250018,70.24254810952698 136.35187814634992,70.34359917341499 136.46340518910438,70.44465016199683 136.6678714340669,70.5355959873923 136.71434103522915,70.5861214195611 136.71434103522915,70.68717222748819 136.6864592745551,70.73769760323921 136.6678714340669,70.79832802928286 136.54705047118478,70.93979891798517 136.42622950818622,71.03074441137869 136.25893894414185,71.10147975299333 136.03588485863293,71.10147975299333 135.80353685299633,71.02063935957995 135.63624628883554,70.99032419962168 135.54330708662746,70.94990397583024 134.65109074482461,70.66696207194036 134.502388021152,70.57601633464219 134.44662449980387,70.49517562808614 134.39086097839754,70.46486035069393 134.33509745704941,70.3739144778956 134.28862785594538,70.35370427567977 134.186394733435,70.32338896665897 133.69381696137134,70.25265321932966 133.59158383891918,70.22233788773883 133.4893507164088,70.1617072042427 133.4242932748166,70.17181232004077 133.15476958820364,70.0707611281905 133.03394862520508,70.01013037694065 132.68077965662815,69.87876365627744 132.6343100555241,69.8383431012553 132.38337420934113,69.75750195507862 132.0859687620541,69.71708136390953 131.69562411255902,69.71708136390953 131.51903962827055,69.74739680840867 131.3889247450279,69.74739680840867 131.27739770233165,69.77771224614844 131.2495159416576,69.81813281923678 131.04504969663685,69.72718651283503 130.89634697302245,69.69687106380297 130.55247192457318,69.72718651283503 130.34800567961065,69.71708136390953 130.0784819929977,69.66655560801883 129.03756292758044,69.64634530038165 128.86097844329197,69.61602983330522 128.70298179937527,69.6059246760924 128.38698851165827,69.63624014543166 127.9037046598387,69.6059246760924 127.68065057438798,69.61602983330522 127.63418097322574,69.6059246760924 127.53194785077358,69.63624014543166 127.35536336648511,69.59581951815926 127.1230153607903,69.5756091999865 126.82560991350329,69.6059246760924 126.6583193494007,69.5756091999865 126.53749838646036,69.59581951815926 126.37950174260186,69.58571435944032 126.26797469990561,69.61602983330522 125.75680908735376,69.5553988788306 125.27352523559239,69.54529371707758 125.22705563443014,69.56550403976871 125.11552859173389,69.5553988788306 124.96682586806128,69.53518855461152 124.92035626689903,69.50487306268042 124.4835420162417,69.50487306268042 124.11178520717658,69.47455756398995 123.85155544080772,69.49476789721666 123.47979863168439,69.4846627309962 122.81063637533225,69.5553988788306 122.57828836969566,69.52508339141059 122.32735252351267,69.53518855461152 122.26229508197866,69.51497822741658 122.10429843812017,69.53518855461152 121.93700787395937,69.51497822741658 121.72324770875275,69.45434722777281 121.38866658060579,69.43413688850706 120.54291983990697,69.44424205850373 120.23622047243407,69.43413688850706 120.18045695108594,69.44424205850373 119.7436427003704,69.39371620098973 119.65070349810412,69.4139265462436 119.55776429583784,69.39371620098973 119.26965276879491,69.42403171776823 118.70272363495314,69.43413688850706 118.64696011360502,69.4139265462436 118.53543307085056,69.42403171776823 118.41461210791022,69.40382137399138 117.8848586549284,69.38361102724593 117.44804440427106,69.42403171776823 117.18781463790219,69.49476789721666 116.45359493995784,69.5553988788306 115.63572995993309,69.6564504545895 115.49632115656277,69.70697621422005 115.34761843294837,69.71708136390953 114.51116561249364,69.91918419927242 114.2416419259389,69.96970986106317 114.20446624496253,69.98992012051895 114.17658448428847,70.03034063038649 114.17658448428847,70.12128673353436 114.1579966438585,70.1617072042427 114.11152704275446,70.18191743507487 114.06505744159222,70.1617072042427 114.0,70.1617072042427" stroke="#4dd2ff" stroke-linecap="round" stroke-linejoin="round" stroke-width="0.5"><title>2023-03-18 12.0km</title></polyline><polyline fill="none" points="86.0,139.7782306666195 85.35802469140617,139.6305668479181 85.27160493831616,139.6305668479181 85.20987654326018,139.60371886786015 85.06172839511419,139.6305668479181 84.86419753090013,139.7379587280593 84.765432098764,139.8453505442012 84.70370370376622,139.9661662607832 84.43209876550827,140.3286129244225 84.35802469140617,140.36888473092404 84.19753086427227,140.529971866883 83.97530864202417,140.6105153808312 83.87654320988804,140.7179066767858 83.74074074078817,140.7984501066967 83.54320987657411,140.99980852399312 83.35802469134796,141.28170993005915 83.32098765438423,141.42937239525781 83.19753086427227,141.46964395567193 83.33333333337214,141.61730626685312 83.16049382719211,141.55018704950635 83.02469135809224,141.59045858292666 82.9876543210703,141.79181611488457 82.95061728399014,141.84551141876727 82.95061728399014,141.9126305260579 83.00000000005821,142.06029247409606 82.96296296297805,142.275073273413 82.97530864202417,142.6106677596399 82.92592592595611,142.89256664499408 82.97530864202417,143.09392272154219 83.00000000005821,143.56375269169803 82.9135802469682,144.02015777518682 82.8395061728661,144.24835988330597 82.88888888899237,144.4497144445486 82.81481481489027,144.79872848425293 82.79012345679803,145.1074711096444 82.80246913584415,145.55044873498264 82.7654320988222,145.698107701377 82.80246913584415,145.9800017557427 82.7654320988222,146.22162487986498 82.7654320988222,146.44982419956068 82.87654320994625,146.89279852443724 82.77777777786832,147.12099699406826 82.77777777786832,147.3223483448528 82.71604938275414,147.4565824537276 82.72839506174205,147.9935178891028 82.71604938275414,148.07405806642782 82.6790123457904,148.1277514979447 82.66666666674428,148.06063470602385 82.66666666674428,148.14117485334282 82.6049382716883,148.02036461890384 82.5308641975862,148.03378798226186 82.50617283955216,148.1680215610977 82.50617283955216,148.7720714283205 82.43209876545006,149.45665882980393 82.4567901234841,150.3962843616464 82.3827160494402,150.67817106573784 82.39506172842812,150.7989795182075 82.33333333337214,151.14798125927337 82.35802469140617,151.7654442222847 82.3086419753381,152.71848072949797 82.34567901236005,152.7721727771277 82.32098765438423,152.8258648087358 82.29629629635019,153.52385976396909 82.20987654326018,153.99366253853077 82.20987654326018,154.93326441347017 82.11111111118225,155.7252107605891 82.13580246915808,155.77890191237384 82.11111111118225,156.20843055100704 82.1481481482042,157.06748475714994 82.08641975314822,157.84599909461394 82.09876543213613,157.9802253646485 82.08641975314822,158.12787414625927 82.02469135803403,158.2486776048172 81.95061728399014,159.01376429568336 81.90123456792207,159.1345671605377 81.90123456792207,159.25536994441063 81.85185185191222,159.49697526924137 81.81481481483206,160.02045236206322 81.85185185191222,160.2754791129264 82.00000000005821,160.30232401305693 82.04938271606807,160.3291689092148 82.04938271606807,160.3962811321544 81.97530864202417,160.3962811321544 82.01234567904612,160.3291689092148 82.04938271606807,160.38285868953972 82.01234567904612,160.1949443884805 82.09876543213613,159.92649504708243 82.18518518522615,159.83253768311988 82.18518518522615,159.7654252503562 82.09876543213613,159.45670773759775 82.02469135803403,159.4030176813976 81.88888888893416,159.44328522504657 81.82716049387818,159.4298627114622 81.87654320994625,159.4701302491303 82.29629629635019,159.4298627114622 82.39506172842812,159.4030176813976 82.93827160494402,159.4298627114622 83.22222222224809,159.36275012875558 83.35802469134796,159.30906004458666 83.51851851859828,159.32248256712046 83.66666666668607,159.26879247096076 83.9135802469682,159.24194741685642 84.12345679017017,159.25536994441063 84.18518518522615,159.2016798282275 84.18518518522615,159.1345671605377 84.2222222223063,159.0674544678186 84.03703703708015,159.09429954792722 83.85185185191222,159.09429954792722 83.71604938275414,159.04060938376642 83.65432098769816,159.00034175017208 83.61728395067621,158.9198064559605 83.56790123460814,158.63793264285778 83.49382716056425,158.62451006936317 83.43209876545006,158.58424234276754 83.29629629635019,158.5708197652275 82.79012345679803,158.63793264285778 82.48148148151813,158.71846806303074 82.40740740741603,158.77215832311776 82.19753086421406,158.7990034471586 82.13580246915808,158.83927112574747 82.07407407416031,158.86611623984936 82.02469135803403,158.7990034471586 81.93827160500223,158.75873575962032 81.87654320994625,158.78558088564023 81.80246913584415,158.75873575962032 81.7654320988222,158.7050454954733 81.61728395067621,158.69162292697 81.34567901241826,158.77215832311776 81.01234567904612,158.82584856724134 80.43209876550827,158.85269368330773 79.87654320988804,158.93322900746716 79.55555555556202,158.93322900746716 79.2222222223063,158.97349665607908 78.67901234567398,159.12114462400496 78.35802469140617,159.14798969606636 78.29629629635019,159.1345671605377 78.18518518522615,159.04060938376642 77.8395061728661,158.9600741075701 77.02469135803403,158.9198064559605 76.95061728393193,158.93322900746716 76.49382716050604,158.9198064559605 76.09876543213613,158.94665155802795 75.87654320994625,158.93322900746716 75.19753086421406,158.85269368330773 75.04938271606807,158.86611623984936 74.85185185191222,158.83927112574747 74.6913580247201,158.85269368330773 74.32098765438423,158.81242600771657 74.18518518522615,158.75873575962032 74.02469135809224,158.75873575962032 73.87654320994625,158.7453131950606 73.71604938275414,158.7990034471586 73.55555555562023,158.7453131950606 73.08641975309001,158.77215832311776 72.93827160500223,158.81242600771657 72.4567901234841,158.7990034471586 71.82716049387818,158.9198064559605 71.50617283955216,158.90638390342065 71.37037037039408,158.93322900746716 71.17283950623823,158.90638390342065 69.27160493831616,158.94665155802795 68.93827160500223,158.90638390342065 67.8395061728661,158.94665155802795 66.41975308652036,158.8795387953578 66.18518518522615,158.90638390342065 65.46913580253022,158.8795387953578 65.23456790129421,158.86611623984936 64.96296296297805,158.73189062955498 64.48148148157634,158.73189062955498 64.34567901236005,158.69162292697 64.0617283951724,158.7050454954733 64.0,158.75873575962032 63.913580246968195,158.77215832311776 63.70370370376622,158.78558088564023 62.728395061800256,158.61108749480627 62.41975308646215,158.62451006936317 61.92592592595611,158.5708197652275 61.79012345679803,158.58424234276754 61.55555555562023,158.55739718672703 61.09876543213613,158.61108749480627 60.87654320988804,158.55739718672703 60.59259259264218,158.55739718672703 60.46913580253022,158.5708197652275 60.308641975338105,158.54397460720793 60.16049382719211,158.5708197652275 59.75308641977608,158.5708197652275 59.60493827163009,158.5976649193035 59.17283950623823,158.5305520266702 58.975308642024174,158.46343910908035 58.6913580247201,158.31579060239892 58.33333333337214,158.34263579442631 58.19753086421406,158.39632616647577 57.32098765432602,158.30236800486455 56.70370370376622,158.23525500233518 56.03703703713836,158.1144515347114 55.30864197539631,158.03391584465862 55.185185185226146,157.9802253646485 54.95061728399014,157.9668027421576 54.12345679017017,157.8728443566215 53.90123456798028,157.91311224212404 53.54320987657411,157.80573119410838 53.049382716126274,157.73861800665327 52.62962962966412,157.65808214865683 52.20987654326018,157.6312368546205 51.72839506174205,157.53727829418494 51.1481481482042,157.4835876662255 50.44444444455439,157.40305169427302 50.320987654384226,157.44331968473853 50.259259259328246,157.57754625465896 50.43209876550827,157.6983500821516 50.493827160506044,157.6983500821516 50.54320987663232,157.73861800665327 50.506172839552164,157.7923085586226 50.35802469140617,157.80573119410838 50.320987654384226,157.85942172612704 50.049382716126274,157.83257646214042 49.92592592595611,157.8728443566215 49.86419753090013,157.85942172612704 49.80246913584415,157.88626698612643 49.6913580247201,158.00707060666173 49.493827160506044,158.1144515347114 49.296296296291985,158.10102892221767 49.13580246921629,158.03391584465862 48.98765432101209,157.80573119410838 48.98765432101209,157.71177272463683 49.17283950623823,157.85942172612704 49.4567901234841,157.8728443566215 49.518518518598285,157.91311224212404 49.580246913596056,157.89968961461273 49.81481481489027,158.18156458227895 49.901234567922074,158.22183239881997 50.111111111124046,158.19498718879186 50.23456790129421,158.10102892221767 50.333333333430346,157.81915382861916 50.35802469140617,157.68492743861862 50.28395061730407,157.64465950212616 50.16049382725032,157.41647435876075 50.02469135809224,157.36278369481442 49.87654320994625,157.34936102631036 49.62962962972233,157.26882499438943 49.432098765450064,157.2419796424074 49.370370370394085,157.25540231892955 48.80246913584415,157.17486624499725 48.49382716056425,157.1480208790308 47.46913580253022,156.85272158948646 47.111111111124046,156.7856080470956 46.41975308646215,156.54399908761843 46.34567901236005,156.55742181607638 46.234567901236005,156.50373089620552 45.75308641983429,156.3829262680083 45.51851851854008,156.28896705676743 44.60493827163009,156.06078019693086 43.93827160500223,155.8728613895364 43.87654320988804,155.83259304820967 43.74074074078817,155.819170265735 43.27160493825795,155.61782840896922 42.88888888893416,155.5372916033084 42.29629629635019,155.2419896745123 41.74074074078817,155.12118420057232 41.41975308646215,155.08091569125827 41.234567901236005,155.0406471729366 41.16049382719211,155.00037864562182 40.246913580282126,154.8527273018408 40.01234567904612,154.77219015425362 39.93827160494402,154.75876729282027 39.6913580247201,154.58427000322263 39.40740740741603,154.47688697176636 39.28395061730407,154.39634965623554 39.16049382719211,154.4097725446627 38.74074074078817,154.3023894092621 38.246913580282126,154.27554361541115 37.82716049387818,154.20842911326326 37.567901234608144,154.20842911326326 36.80246913584415,154.1547374935908 36.62962962966412,154.18158330542792 36.41975308646215,154.1413145861734 36.08641975314822,154.16816040001868 35.913580246968195,154.18158330542792 35.48148148157634,154.31581230467418 35.41975308646215,154.31581230467418 35.22222222224809,154.39634965623554 35.01234567904612,154.4097725446627 34.80246913584415,154.58427000322263 34.44444444443798,154.75876729282027 34.29629629635019,154.78561301466834 34.19753086421406,154.87957300968992 33.7654320988222,155.08091569125827 33.444444444496185,155.2688353244157 32.87654320994625,155.51044599339366 32.66666666674428,155.57756001062808 32.59259259264218,155.56413720920682 32.456790123542305,155.61782840896922 32.382716049440205,155.73863355001959 32.320987654384226,155.73863355001959 31.530864197586197,156.16816228460812 31.13580246915808,156.26212155884423 31.08641975314822,156.30238980424474 31.049382716068067,156.43661722389515 31.049382716068067,156.3695035265264 31.08641975314822,156.31581255068886 31.20987654326018,156.2755443083006 31.246913580282126,156.22185330445063 31.172839506180026,156.22185330445063 31.111111111182254,156.24869880836923 31.111111111182254,156.329235296158 31.160493827192113,156.3829262680083 31.296296296350192,156.3695035265264 31.370370370452292,156.4097717479308 30.74074074078817,156.5305763581564 30.49382716056425,156.50373089620552 30.41975308646215,156.5305763581564 29.580246913654264,156.51715362766117 28.790123456856236,156.4097717479308 28.16049382725032,156.22185330445063 27.987654321070295,156.1547395271482 28.037037037021946,156.1144712487585 28.0740740741021,155.9533980452834 28.037037037021946,155.80574748231447 27.975308642024174,155.75205633848964 27.54320987657411,155.52386879886035 27.444444444496185,155.41648632727447 27.259259259328246,155.29568097030278 27.111111111182254,155.2688353244157 27.061728395114187,155.2419896745123 27.000000000058208,155.22856684809085 26.75308641983429,155.12118420057232 26.34567901241826,155.00037864562182 26.283950617304072,155.02722433151212 26.13580246915808,155.00037864562182 25.839506172924303,155.02722433151212 24.975308641965967,155.0406471729366 24.753086419776082,155.02722433151212 24.46913580247201,154.9869558011851 24.320987654384226,155.00037864562182 23.913580246968195,154.96011010931397 23.629629629664123,154.9869558011851 23.580246913654264,155.02722433151212 23.54320987657411,155.2419896745123 23.432098765450064,155.36279506751453 22.56790123466635,155.36279506751453 22.60493827163009,155.41648632727447 22.444444444496185,155.29568097030278 22.40740740741603,155.41648632727447 22.320987654384226,155.41648632727447 22.172839506238233,155.32252661217353 22.037037037080154,155.28225814783946 21.864197530958336,155.29568097030278 21.864197530958336,155.34937225005706 20.308641975338105,154.58427000322263 20.395061728428118,154.69165297065047 20.444444444496185,154.91984156401304 20.185185185226146,154.93326441347017 20.049382716068067,154.9869558011851 19.987654321012087,154.9466872618941 19.839506172866095,154.97353295572975 19.61728395067621,155.8460158296366 19.67901234573219,155.02722433151212 19.61728395067621,155.05407001337153 19.555555555562023,155.01380148905446 19.530864197586197,155.08091569125827 19.320987654384226,155.1480298684328 19.246913580282126,155.22856684809085 19.111111111182254,155.21514402063622 18.962962962978054,155.22856684809085 18.88888888893416,155.21514402063622 18.55555555562023,155.28225814783946 18.308641975396313,155.42990913974063 18.09876543219434,155.4836003795208 18.02469135809224,155.4836003795208 17.703703703766223,155.57756001062808 17.567901234608144,155.6446740028623 17.34567901236005,155.57756001062808 17.1481481482042,155.60440561051655 16.938271605002228,155.55071440673782 16.432098765450064,155.60440561051655 16.308641975338105,155.56413720920682 16.123456790170167,155.61782840896922 16.000000000058208,155.55071440673782 16.0740740741021,155.55071440673782 16.037037037021946,155.49702318696654 16.000000000058208,155.55071440673782 15.93827160494402,155.49702318696654 16.000000000058208,155.51044599339366 16.049382716068067,155.47017757104186 16.111111111124046,155.49702318696654 16.197530864272267,155.47017757104186 16.246913580282126,155.44333195118816 16.40740740747424,155.40306351384788 16.48148148157634,155.36279506751453 16.493827160506044,155.28225814783946 16.456790123484097,155.22856684809085 16.259259259328246,155.1882983627729 16.061728395172395,155.25541249998787 15.925925925956108,155.22856684809085 15.876543209946249,155.2688353244157 15.592592592642177,155.34937225005706 15.320987654384226,155.29568097030278 15.172839506238233,155.30910379174748 15.123456790111959,155.2688353244157 14.802469135785941,155.1480298684328 14.60493827163009,154.96011010931397 14.456790123484097,154.86615015628922 14.333333333430346,154.70507583704602 14.172839506180026,154.39634965623554 14.123456790170167,154.35608098494413 14.08641975314822,154.1278916777519 14.0,153.95339377726486 14.037037037080154,153.7654727723857 14.01234567904612,153.63124336328474 14.197530864214059,153.00036380100937 14.345679012418259,152.7587497667264 14.444444444496185,152.66478866591933 14.814814814832062,152.43659721709264 14.925925925956108,152.35605898969516 15.000000000058208,152.34263594832737 15.444444444496185,152.15471326372062 15.518518518540077,151.9667903831869 15.395061728428118,151.92652116900717 15.271604938316159,151.95336731277348 15.296296296291985,151.89967502122454 15.617283950618003,151.7654442222847 15.864197530900128,151.71175187469635 16.000000000058208,151.63121332334413 16.197530864272267,151.56409783636627 16.60493827163009,151.2553662743885 16.61728395067621,151.17482751907664 16.666666666744277,151.14798125927337 16.80246913584415,150.93321103707422 16.962962962978054,150.75871004305372 17.037037037080154,150.57078570664453 17.08641975314822,150.5170930030872 17.12345679011196,150.3962843616464 17.111111111182254,150.3157452223386 17.12345679011196,150.16809004011157 17.20987654326018,150.074127588392 17.19753086421406,150.00701152150577 17.1481481482042,149.95331864996115 17.2222222223063,149.84593285887968 17.27160493831616,149.8190864011267 17.49382716056425,149.91304898582166 17.580246913654264,149.91304898582166 17.654320987698156,149.9398954296048 17.72839506174205,149.91304898582166 17.975308642024174,149.92647220820072 18.123456790170167,149.89962576242397 18.308641975396313,149.92647220820072 18.518518518598285,150.1278204239643 18.66666666668607,149.9935883051221 18.728395061800256,149.49692859595234 18.81481481489027,149.3090029435698 18.925925925956108,149.20161676853604 18.851851851854008,149.1076538128691 18.246913580282126,148.7720714283205 18.148148148145992,148.7318015001656 18.049382716068067,148.74522481058375 17.913580246968195,148.7854947357264 17.580246913654264,148.7318015001656 17.604938271688297,148.61099166174245 17.555555555562023,148.55729837418767 17.530864197586197,148.38279507921834 17.395061728428118,148.08748142581317" stroke="#4dd2ff" stroke-linecap="round" stroke-linejoin="round" stroke-width="0.5"><title>2023-02-25 12.5km</title></polyline><polyline fill="none" points="186.0,165.6586686493829 181.4742857143283,164.76388985244557 178.59428571164608,165.2112792674452 172.01142857037485,162.52694227406755 167.89714285731316,158.5004345336929 167.89714285731316,150.89480142761022 155.5542857144028,143.73654970061034 145.2685714289546,140.1574206352234 144.44571428373456,140.60481188539416 142.80000000074506,138.8152466849424 139.91999999806285,138.8152466849424 137.03999999910593,140.1574206352234 132.9257142841816,139.26263803523034 130.04571428522468,139.71002935105935 123.05142857134342,136.1308978847228 121.8171428591013,136.57828943431377 122.64000000059605,137.920463884715 123.4628571420908,137.0256809508428 119.3485714290291,134.3413313506171 117.29142857156694,134.78872303385288 115.64571428671479,136.57828943431377 114.41142857074738,137.920463884715 114.0,140.1574206352234" stroke="#4dd2ff" stroke-linecap="round" stroke-linejoin="round" stroke-width="0.5"><title>2022-10-26 2.2km</title></polyline><polyline fill="none" points="86.0,238.43048457830446 85.88723570853472,238.43048457830446 84.64682850427926,237.6334509786102 84.53406421281397,236.5911751058884 84.36491777584888,236.3459335321677 82.95536413462833,235.85545016516699 82.61707126069814,235.54889791226014 81.48942834767513,235.1810350578744 80.92560689104721,234.813172039052 80.30540328891948,235.24234554503346 79.06499608443119,235.05841406993568 78.27564604533836,234.50661939760903 77.99373531714082,234.5679299349431 77.71182458871044,234.44530885567656 77.20438527781516,233.89351377187995 76.86609240411781,233.28040768916253 76.47141738422215,233.1577864176943 76.18950665625744,233.28040768916253 74.6671887235716,232.789922493801 74.32889584964141,232.91254381998442 73.20125293638557,231.6863297346281 72.58104933402501,230.88928959879559 71.84808144089766,230.1535595568712 71.39702427573502,229.9083160632872 70.72043852764182,229.7856942890212 69.87470634281635,229.17258514364948 68.2960062646307,228.498164555931 67.45027407957241,227.76243237464223 66.20986687531695,227.27194388827775 64.57478465139866,225.98441021930194 63.3343774471432,225.6778542866814 62.714173845015466,225.43260945839575 60.7971808926668,224.08376159501495 60.23335943603888,224.08376159501495 59.66953797964379,223.5319595587207 59.61315583391115,223.77720495394897 59.7259201251436,224.08376159501495 59.5003915426787,224.75818580330815 59.55677368817851,224.20638421957847 59.04933437728323,223.65458226547344 57.696162881562486,222.98015715216752 57.30148786213249,222.489665813162 55.891934220679104,221.386059230892 54.764291307423264,220.7116322569782 54.48238057945855,220.09851634624647 54.08770555956289,219.73064658022486 53.24197337520309,219.3627766497084 51.88880187924951,218.38178936386248 49.40798747050576,217.0329299349687 48.618637431412935,215.929316029069 48.111198120517656,215.50013244344154 45.68676585750654,214.58045257697813 45.40485512907617,214.33520443894668 44.051683633355424,213.78339586069342 42.924040720332414,212.92502622533357 41.9655442442745,212.55715325009078 41.45810493337922,212.61846542410785 39.541111981030554,213.23158691229764 38.977290524635464,213.1702747840318 37.285826154984534,212.49584107164992 36.6656225528568,212.0053434788133 36.44009396992624,212.066655693925 35.650743930833414,211.69878233462805 34.74862960050814,211.14697198715294 34.35395458084531,210.77909821656067 31.591229443904012,209.6141635235981 30.91464369627647,209.4915387229994 28.0955364133697,208.4492271800409 27.644479248207062,209.12366421171464 26.91151135461405,209.67547591694165 26.742364917648956,210.22728725196794 26.46045418921858,210.41122428129893 25.22004698496312,210.77909821656067 24.430696945870295,211.45353333716048 24.261550508905202,212.066655693925 24.994518402498215,215.929316029069 24.76898981980048,217.5234245286556 24.599843382835388,217.7686717158649 24.317932654405013,217.82998350134585 21.611589663429186,217.64604813151527 19.863743148045614,217.27817726833746 18.736100234789774,216.84899438673165 17.94675019569695,216.11325178295374 16.086139389080927,215.25488457950996 15.635082223918289,215.56144439795753 14.451057165162638,216.11325178295374 14.0,216.72637066524476 14.0,217.40080090775155 14.563821456162259,218.7496597331483 16.19890368031338,221.14081312256167 16.537196554243565,221.07950158399763 17.157400156371295,220.466385947424 17.89036805019714,219.97589310910553 18.56695379782468,219.91458148381207 19.807361002312973,220.22113956487738 20.20203602174297,220.0372047298588 20.82223962410353,220.22113956487738 21.667971808696166,221.14081312256167 22.288175410823897,223.28671409044182 23.07752544991672,224.94211958220694 24.487079091602936,226.96538843546296 24.487079091602936,227.70112132991198 25.389193421928212,228.00767650810303 27.53171495697461,229.47913977352437 28.71574001549743,229.6630724965944 29.899765074253082,229.29520700930152 31.027407987276092,228.43685356591595 31.534847298404202,227.76243237464223 31.98590446356684,227.5171881680144 33.84651527018286,228.74340847000713 34.6922474547755,229.47913977352437 34.86139389174059,229.8470051785116 34.466718872310594,232.054194152297 34.6922474547755,232.72861182392808 34.80501174624078,234.13875607697992 35.594361785333604,235.54889791226014 36.6656225528568,236.5911751058884 37.84964761137962,236.65248548786622 39.31558339833282,236.16200230375398 41.23257635044865,234.87448255362688 41.57086922437884,234.50661939760903 42.1910728267394,234.2613772021723 43.2623335942626,235.42627697915304 44.108065779320896,236.65248548786622 44.22083007055335,236.8977269702591 43.99530148762278,237.8173818779178 44.615505089983344,239.47275811992586 44.89741581841372,239.5340682871174 46.306969459634274,239.22751740552485 47.82928739208728,239.35013777180575 49.802662490168586,240.0858595862519 51.21221613138914,240.82158074260224 52.73453406407498,241.2507511130534 53.01644479227252,241.5573012405075 53.2983555207029,242.2317111188895 53.24197337520309,242.78350060805678 53.5238841031678,243.6418390775798 53.636648394400254,244.8067255676142 53.58026624890044,245.97161040775245 53.86217697733082,246.52339738764567 54.48238057945855,246.95256478281226 54.87705559912138,246.89125516853528 55.384494909550995,246.52339738764567 56.004698511911556,245.29720359609928 56.23022709460929,243.70314893405885 56.79404855147004,242.72219068318373 57.075959279434755,241.8025412603165 57.075959279434755,240.7602706712787 57.41425215359777,240.0858595862519 57.52701644459739,239.35013777180575 57.41425215359777,238.85965619661147 57.80892717279494,237.8786921685096 58.654659357853234,237.2655890568276 59.274862959980965,237.20427872042637 59.7259201251436,236.8977269702591 60.85356303839944,236.8364166066749 61.1918559120968,236.5298647194286 61.24823805782944,235.79413972364273 61.86844165995717,234.13875607697992 62.26311667962,232.36074770789128 62.601409553550184,231.62501898244955 62.601409553550184,230.95060040586395 61.75567736895755,230.27618127613096 61.13547376659699,229.41782885661814 59.7259201251436,228.498164555931 59.16209866874851,228.3755425713025 58.711041503585875,227.88505445054034 58.654659357853234,227.39456603734288 58.48551292065531,226.72014399123145 58.99295223178342,225.98441021930194 59.274862959980965,224.45162941358285 58.0344557557255,223.16409132885747 57.583398590562865,222.91884575068252 56.79404855147004,221.99917418166297 56.0610806576442,221.32474771072157 55.15896632731892,220.77294382289983 54.14408770529553,219.73064658022486 53.35473766620271,219.3627766497084 52.28347689891234,218.56572456914 51.77603758801706,218.4431011035922 51.494126859586686,218.07523059705272 49.91542678140104,217.27817726833746 47.77290524658747,215.6227563478751 46.927173061762005,215.31619655247778 44.164447924587876,213.66077168204356 41.909162098541856,212.61846542410785 41.45810493337922,212.61846542410785 40.44322631135583,212.7410897583468 39.76664056372829,212.92502622533357 38.80814408767037,213.0476505138795 36.778386844089255,212.25059231172781 35.42521534836851,211.39222107623937 35.03054032870568,211.33090881077806 34.015661706915125,211.57615784503287 33.11354737658985,211.51484559325036 31.36570086143911,210.71778590534814 29.22317932639271,209.98203781543998 28.490211433032528,209.92072544491384 26.685982772149146,210.28859959950205 25.33281127619557,210.65647358977003 24.430696945870295,211.02434741531033 24.036021925974637,211.51484559325036 23.923257634975016,212.066655693925 24.994518402498215,215.80669217021205 24.71260767406784,217.70735992590198 24.14878621767275,218.4431011035922 23.47220046981238,220.1598279577447 23.246671887114644,221.07950158399763 23.190289741614833,222.85753434477374 23.923257634975016,224.8194970675395 24.938136256765574,225.92309904191643 25.389193421928212,226.96538843546296 25.78386844159104,227.45587710483233 25.671104150125757,227.63981028052513 24.487079091602936,228.00767650810303 22.570086139254272,229.11127420404227 22.34455755678937,230.1535595568712 22.00626468262635,230.5827354946523 22.175411119591445,231.37977592769312 23.133907595882192,232.54467978648609 23.810493343742564,233.70958199503366 25.107282693730667,237.02034768409794 25.16366483946331,238.2465538161341 24.599843382835388,239.96323932957603 24.036021925974637,240.515030340699 23.52858261531219,240.7602706712787 21.83711824566126,240.94420087122126 18.905246671754867,241.0668209817377 18.4541895063594,241.6186112522846 18.397807360859588,242.59957081946777 18.51057165232487,243.58052921656054 19.187157400185242,244.00969814736163 20.371182458708063,244.50017665122868 21.667971808696166,245.4811327813659 23.359436178347096,246.03292009048164 23.754111198009923,246.27815877558896 24.14878621767275,247.25911278504645 25.050900547998026,248.7918510825839 25.050900547998026,249.15970784885576 25.27642913069576,249.77280209382297 25.727486295858398,250.01803966402076 26.4040720439516,250.99898921279237 27.418950665276498,251.42815427249297 28.321064996067435,251.5507728200173 28.997650743694976,251.42815427249297 29.78700078302063,251.1216078242869 30.91464369627647,249.95673027826706 31.929522317601368,247.62697023706278 33.05716523085721,246.58470702933846 33.16992952208966,246.40077809087234 33.0007830853574,246.27815877558896 33.56460454175249,245.78768133214908 34.015661706915125,245.72637163108448 34.74862960050814,245.29720359609928 36.44009396992624,244.868035337131 38.01879404857755,244.07100797630847 38.977290524635464,242.90612044435693 39.597494126763195,241.8025412603165 39.99216914619319,241.0668209817377 39.99216914619319,240.515030340699 40.44322631135583,239.7793089101906 41.74001566157676,239.59537844988517 42.52936570066959,239.84061905462295 42.980422866065055,239.84061905462295 44.164447924587876,239.47275811992586 44.615505089983344,239.5340682871174 45.12294440064579,239.35013777180575 46.81440877052955,239.16620721534127 48.3931088487152,239.47275811992586 48.90054815984331,239.90192919434048 50.0845732181333,240.20847982476698 50.47924823802896,240.63765051518567 51.945184024982154,241.49599122419022 53.129209083504975,241.49599122419022 53.91855912283063,241.128131030011 54.70790916192345,240.02454946027137 55.328112764051184,237.8173818779178 55.15896632731892,235.91676060203463 55.27173061855137,235.11972456617514 55.948316366411746,233.95482435490703 57.019577133702114,233.03516512806527 57.639780735829845,232.238126299344 57.639780735829845,231.19584358861903 57.30148786213249,230.4601138208527 56.004698511911556,228.927341357572 54.87705559912138,228.55947554123122 54.256851996760815,228.0689875301905 53.35473766620271,226.84276622254401 52.79091620980762,225.0034308328759 51.945184024982154,224.20638421957847 51.32498042262159,223.89982762403088 50.53563038352877,223.96113895223243 49.802662490168586,224.20638421957847 49.52075176197104,224.45162941358285 47.82928739208728,225.18736455676844 47.32184808142483,225.3099870167207 45.51761942054145,225.43260945839575 44.84103367268108,225.37129823985742 44.33359436155297,225.18736455676844 43.4878621767275,224.32900682569016 41.852779952809215,221.63130526599707 39.93578700069338,219.91458148381207 39.20281910710037,219.48539997829357 38.469851213507354,218.6270362951327 37.51135473744944,217.09424177510664 37.342208300717175,216.11325178295374 37.17306186351925,215.80669217021205 37.22944400901906,215.25488457950996 37.0602975722868,215.132260620303 36.60924040689133,214.9483246470336 35.650743930833414,215.37750852073077 34.63586530927569,215.50013244344154 33.90289741568267,215.74538023403147 33.62098668748513,216.11325178295374 32.888018793892115,218.99490655469708 32.324197337497026,220.65032068645814 32.831636648392305,223.34802546427818 32.43696162872948,226.29096603760263 32.94440093962476,227.39456603734288 33.56460454175249,228.0689875301905 34.07204385264777,228.3755425713025 35.03054032870568,229.54045068577398 35.03054032870568,230.1535595568712 34.86139389174059,231.07322200632188 34.29757243557833,232.11550487246132 34.41033672657795,233.58696078771027 34.6922474547755,234.38399830908747 35.48159749386832,235.1810350578744 35.650743930833414,235.79413972364273 36.158183241961524,236.3459335321677 36.834768989821896,236.77510623825947 38.75176194193773,236.46855432825396 39.4283476897981,236.16200230375398 40.217697729123756,235.7328292776947 41.62725137034431,234.5679299349431 42.30383711820468,234.38399830908747 43.43148003122769,235.85545016516699 43.88253719639033,236.4072439323645 44.164447924587876,237.8786921685096 44.671887235483155,238.7983459791867 45.06656225537881,239.22751740552485 45.6303837117739,239.10489702085033 45.799530148738995,239.22751740552485 46.25058731390163,239.16620721534127 46.25058731390163,239.22751740552485 46.58888018783182,239.16620721534127 47.20908378995955,239.35013777180575 48.618637431412935,239.41144794825232 49.63351605297066,239.90192919434048 51.494126859586686,240.88289080915274 51.88880187924951,241.1894410738023 52.509005481377244,241.3120611476479 52.84729835530743,241.37337117776042 53.97494126833044,240.94420087122126 54.53876272519119,240.33110004483024 54.764291307423264,239.47275811992586 55.328112764051184,238.67572553042555 55.44087705551647,237.6334509786102 55.21534847281873,235.67151882709004 55.44087705551647,234.75186151982052 56.0610806576442,233.89351377187995 57.019577133702114,233.2190970556694 57.86530931852758,232.36074770789128 58.93657008581795,232.54467978648609 60.402505873003975,233.40302894217893 61.41738449479453,233.2190970556694 61.586530931759626,232.48336909810314 62.43226311658509,231.07322200632188 62.43226311658509,230.76666797080543 61.92482380568981,230.27618127613096 60.23335943603888,228.86603039962938 59.21848081424832,228.498164555931 58.654659357853234,228.0689875301905 58.82380579481833,227.27194388827775 58.37274862965569,226.84276622254401 58.31636648369022,226.5975217416999 59.10571652278304,225.98441021930194 59.782302270876244,224.32900682569016 60.06421299907379,224.1450729095377 60.34612372727133,224.20638421957847 60.85356303839944,223.96113895223243 61.75567736895755,224.57425198314013 62.26311667962,224.6968745344784 62.93970242724754,225.24867578910198 63.5599060296081,225.37129823985742 64.23649177746847,225.6165430865367 64.6311667971313,225.98441021930194 65.70242756442167,226.29096603760263 66.0971025840845,226.9040773314191 66.83007047744468,227.5171881680144 68.80344557552598,228.6820974983275 69.14173844945617,229.04996325983666 69.70555990585126,229.11127420404227 70.26938136247918,229.41782885661814 71.17149569280446,229.54045068577398 71.22787783876993,229.6630724965944 71.79169929493219,229.9696269434644 72.01722787786275,230.33749212906696 72.52466718875803,230.39880297734635 72.86296006245539,230.21487041877117 72.80657791695558,230.4601138208527 72.91934220818803,230.5827354946523 73.20125293638557,230.5827354946523 73.93422082997859,230.95060040586395 74.94909945200197,232.054194152297 77.37353171478026,233.1577864176943 77.48629600624554,233.70958199503366 77.99373531714082,234.2000666419044 79.7979639780242,234.813172039052 80.7000783085823,234.5679299349431 81.09475332777947,234.87448255362688 82.10963194980286,235.24234554503346 83.35003915405832,235.91676060203463" stroke="#4dd2ff" stroke-linecap="round" stroke-linejoin="round" stroke-width="0.5"><title>2022-10-25 10.5km</title></polyline><polyline fill="none" points="186.0,222.2128037251823 185.92684413737152,222.1968946460256 185.35622840881115,221.97416741335473 184.90266206051456,221.86280370988243 184.66856330016162,221.8468946046487 184.40520219464088,222.053712880268 184.25889046944212,222.26053095550742 184.24425929691643,222.3878035176458 184.21499695180682,222.45143977021507 184.02479170897277,222.705984590968 183.98089819139568,222.81734785457957 183.9516358463443,222.84916591926594 183.71753708593315,222.99234715152124 183.5127006705734,223.05598322389415 183.0883966673864,223.27870932793303 182.56167445640313,223.48552621644922 182.41536273114616,223.5809800974239 182.2544198333635,223.75597876838583 182.21052631584462,223.88325043894292 182.1958951432607,223.99461308846367 182.02032107289415,224.0741578025627 182.04958341806196,224.28097392052587 181.91790286527248,224.5036987465719 181.93253403773997,224.75824112039118 181.844747002644,224.86960331350565 181.8301158301183,224.94914770156902 181.8154846575344,225.0764186608576 181.844747002644,225.18778068800748 181.8154846575344,225.45823108353943 181.8301158301183,225.6332282157673 181.7715911399573,225.87186043758993 181.80085348512512,225.95140445228026 181.69843527738703,226.25367143773474 181.68380410480313,226.54002923979715 181.69843527738703,226.63548175514734 181.63991058728425,226.9695652227383 181.72769762238022,227.1763785359508 181.75695996748982,227.46273510043102 181.72769762238022,227.78090861052624 181.69843527738703,227.8445432556764 181.66917293233564,228.05135572134168 181.69843527738703,228.21044209708634 181.63991058728425,228.3536197339272 181.59601706970716,228.8467864147824 181.52286120702047,229.11723217550025 181.52286120702047,229.22859209509625 181.61064824223286,229.3399519565719 181.71306644997094,229.61039709266333 181.71306644997094,229.72175675501057 181.7715911399573,230.27855419562547 181.72769762238022,230.4694558410265 181.75695996748982,230.6285404151422 181.72769762238022,230.67626576428302 181.74232879496412,230.75580798911687 181.71306644997094,231.10579342640995 181.75695996748982,231.24896912176337 181.80085348512512,231.29669433223899 181.8301158301183,231.39214472116146 181.80085348512512,231.63077050677384 181.8154846575344,231.75803748340695 181.74232879496412,231.99666286009597 181.75695996748982,232.31482961427537 181.71306644997094,232.44209618319292 181.74232879496412,232.5216377502511 181.74232879496412,232.87162029334286 181.69843527738703,233.12615269166417 181.71306644997094,233.30114353953104 181.63991058728425,233.77839057757228 181.66917293233564,234.0170136966044 181.62527941475855,234.11246286956884 181.65454175980994,234.16018744006578 181.59601706970716,234.33517744056007 181.62527941475855,234.44653463894792 181.58138589718146,234.55789177927363 181.56675472465577,234.65334071050165 181.61064824223286,234.732881453936 181.63991058728425,234.92377911721996 181.61064824223286,235.1146766099264 181.56675472465577,235.14649284207553 181.59601706970716,235.14649284207553 181.34728713677032,235.00331975992594 181.11318837635918,235.1783090695535 180.86445844342234,235.21012529225845 180.73277789063286,235.27375772346568 180.6742532006465,235.3373901356972 180.5572038203245,235.41693062434206 180.49867913027992,235.41693062434206 180.38162975001615,235.46465490326227 180.23531802475918,235.46465490326227 180.05974395445082,235.48056299387827 179.81101402151398,235.56010342919035 179.63543995120563,235.65555191246676 179.47449705348117,235.65555191246676 179.3428165006917,235.70327613811241 178.99166836007498,235.73509228261537 178.69904490956105,235.7987245573604 178.42105263157282,236.02143736978178 178.4795773216756,235.9259890500398 178.36252794147003,235.9259890500398 178.34789676888613,235.89417293398583 178.18695387116168,235.95780516134982 177.83580573060317,235.98962126791594 177.77728104044218,236.02143736978178 177.6017069700756,236.02143736978178 177.17740296688862,236.13279368887015 177.03109124163166,236.08506955920893 176.24100792524405,236.32369010080583 175.87522861210164,236.37141417710518 175.39239991869545,236.48277031374164 175.31924405606696,236.46686229776242 175.2168258483871,236.49867832848395 175.1875635033357,236.5304943545052 175.04125177813694,236.57821838460222 174.58768542978214,236.62594240404724 174.26579963421682,236.70548241275537 174.16338142659515,236.76911439841206 174.09022556390846,236.73729840794113 173.9146514936583,236.78502239185036 173.72444625076605,236.76911439841206 173.4903474903549,236.83274636509304 173.38792928261682,236.83274636509304 173.30014224752085,236.88047032765462 172.87583824433386,236.9441022611427 172.77342003659578,236.97591822080722 172.714895346493,237.13499794786912 172.6563706563902,237.16681387905555 172.58321479376173,237.16681387905555 171.96870554762427,237.27816960094788 171.54440154437907,237.43724910289166 171.4273521641735,237.43724910289166 171.28104043897474,237.51678880947293 170.9737858158769,237.580420553335 170.84210526320385,237.59632848635374 170.72505588294007,237.54860468376137 170.49095712258713,237.54860468376137 169.7740296687698,237.65996020656894 169.13025807763916,237.65996020656894 168.85226579965092,237.69177605955338 168.1207071733079,237.8508552534331 167.94513310305774,237.83494733939006 167.87197724042926,237.8667631662829 167.34525502944598,237.9303948059387 167.14041861408623,237.97811852319865 166.8039016459952,238.0099343288166 166.71611461084103,237.9303948059387 166.55517171305837,237.94630271288042 166.36496647028252,237.9303948059387 166.0284495021915,237.83494733939006 165.92603129445342,237.83494733939006 165.72119487909367,237.80313150770962 165.29689087579027,237.8826710780122 165.09205446048873,237.8190394241392 164.8140621825005,237.80313150770962 164.66775045724353,237.8508552534331 164.56533224956365,237.91448689778917 164.47754521440947,237.9303948059387 164.3312334891525,238.02584222979203 164.14102824631846,238.07356592574797 164.06787238368997,238.12128961103735 163.83377362327883,238.1531053953513 163.77524893317604,238.1053817171778 163.5411501727649,238.1531053953513 163.48262548266212,238.12128961103735 163.21926437714137,238.13719750379096 163.1461085145711,238.12128961103735 162.7071733388002,238.1531053953513 162.53159926849185,238.12128961103735 161.99024588498287,238.1053817171778 161.52204836416058,237.99402642657515 161.27331843122374,237.83494733939006 161.21479374112096,237.83494733939006 160.84901442797855,237.580420553335 160.5710221499903,237.4849729303678 160.11745580169372,237.38952526474895 160.05893111159094,237.3418014159397 159.94188173138537,237.32589346397435 159.8102011786541,237.3577093667409 159.56147124571726,237.24635368635063 159.13716724247206,237.3099855108303 158.9176996545284,237.3099855108303 158.77138792932965,237.3418014159397 158.25929689087206,237.3099855108303 158.1129851656151,237.3418014159397 157.99593578546774,237.32589346397435 157.93741109536495,237.3099855108303 157.87888640520396,237.2622616442386 157.7325746800052,237.24635368635063 157.7325746800052,237.21453776698036 157.57163178216433,237.24635368635063 157.45458240195876,237.23044572725485 156.95712253602687,237.10318201193877 156.81081081082812,237.10318201193877 156.67913025809685,237.0713660712354 156.4157691525761,237.0713660712354 156.29871977242874,237.03955012583174 155.88904694170924,237.03955012583174 155.75736638897797,236.9918261988205 155.611054663721,237.0077341756696 155.33306238567457,236.9441022611427 155.2160130055272,236.86456234128855 154.95265190000646,236.89637831279833 154.89412720996188,236.92819427957875 154.64539727702504,237.3099855108303 154.51371672429377,237.56451261912298 154.4112985166139,237.64405227827956 154.13330623856746,237.67586813369417 153.88457630563062,237.65996020656894 153.5041658199625,237.7076839842921 153.31396057712846,237.69177605955338 153.22617354203248,237.72359190783754 152.83113188378047,237.65996020656894 152.43609022564488,237.64405227827956 152.3044096728554,237.59632848635374 151.76305628940463,237.59632848635374 151.63137573667336,237.56451261912298 151.4850640114164,237.469064989069 151.29485876858234,237.19862980555627 151.0900223532226,236.83274636509304 150.87055476527894,236.81683837516175 150.50477545219474,236.88047032765462 150.2267831742065,236.89637831279833 149.65616744564613,236.83274636509304 149.53911806544056,236.86456234128855 149.07092054456007,236.75320640376594 148.939239991887,236.70548241275537 148.86608412925852,236.5941263922723 148.85145295673283,236.5145863420912 148.80755943921395,236.46686229776242 148.66124771389877,236.5145863420912 148.38325543591054,236.5145863420912 147.92968908761395,236.41913824276708 147.7687461898313,236.41913824276708 147.66632798215142,236.37141417710518 147.44686039420776,236.22824191616382 146.9347693558666,236.1009776035935 146.61288356030127,236.08506955920893 146.5104653526214,236.1009776035935 146.42267831746722,236.14870172970404 146.27636659221025,236.3077820729959 146.23247307457495,236.32369010080583 146.11542369436938,236.27596601381083 145.6325950010796,236.3077820729959 145.50091444829013,236.24414994991093 145.2521845153533,236.212333881238 144.54988823417807,236.1964258451335 144.4035765088047,236.16460976935923 144.3889453363372,236.18051780785026 144.21337126602884,236.08506955920893 143.1452956715948,235.91008099257306 142.94045925629325,235.9259890500398 142.80877870356198,235.98962126791594 142.54541759809945,236.00552931943093 142.42836821783567,235.95780516134982 142.25279414758552,235.97371321525134 141.76996545417933,235.89417293398583 141.72607193660224,235.91008099257306 141.57976021134527,235.7987245573604 141.4773420036654,235.78281649043493 141.31639910588274,235.71918421093142 140.99451331031742,235.67145998885098 140.93598862021463,235.62373575608945 140.58484047959791,235.52828725865402 140.11664295877563,235.4964710833301 139.97033123351866,235.41693062434206 139.75086364563322,235.3851144324144 139.67770778300473,235.41693062434206 139.58992074785056,235.40102252895304 139.4143466775422,235.41693062434206 139.09246088191867,235.35329823577194 138.9461491566617,235.35329823577194 138.84373094904004,235.32148203441466 138.5803698435775,235.30557393193885 138.37553342821775,235.22603340185015 138.112172322697,235.24194151023403 137.2928266613162,235.05104413132358 137.02946555579547,235.01922788491356 136.73684210528154,234.92377911721996 136.1077016866766,234.82833030691836 135.88823409879114,234.76469774296856 135.75655354605988,234.79651402732998 135.6833976833732,234.76469774296856 135.42003657791065,234.732881453936 135.2883560252376,234.68515701142314 135.1859378174995,234.68515701142314 135.03962609230075,234.65334071050165 134.98110140213976,234.6692488615663 134.8201585044153,234.6215244048508 134.67384677915834,234.6215244048508 134.4690103637986,234.58970809444145 134.3812233286444,234.5419836199435 134.23491160332924,234.52607545943465 134.14712456817506,234.5419836199435 133.9569193253992,234.51016729770345 133.81060760008404,234.51016729770345 133.44482828694163,234.4306264713232 133.25462304410757,234.44653463894792 133.00589311117074,234.4306264713232 132.7132696606568,234.35108561534435 132.65474497055402,234.3669937889208 132.20117862225743,234.2556365490309 132.01097337936517,234.2556365490309 131.8646616541664,234.20791199989617 131.5427758586593,234.17609562784492 131.44035765092121,234.12837106089864 130.94289778504753,234.08064648335858 130.2844950213912,233.93747268654988 129.3773623247398,233.85793164686766 129.23105059948284,233.826115222706 128.9969518390717,233.6988494786201 128.67506604350638,233.63521657814272 128.5726478358265,233.63521657814272 128.33854907541536,233.58749189032824 128.1776061775745,233.6034001208027 127.69477748428471,233.57158365871874 127.22657996346243,233.47613424397423 126.99248120305128,233.47613424397423 126.96321885794168,233.46022600405558 126.71448892500484,233.44431776294368 126.56817719980609,233.46022600405558 126.27555374929216,233.396593032463 126.18776671413798,233.4125012771401 126.0560861613485,233.36477653955808 125.6610445031547,233.396593032463 125.36842105269898,233.34886829131574 125.17821580980672,233.36477653955808 125.13432229228783,233.33296004188014 124.75391180656152,233.38068478657806 124.16866490553366,233.36477653955808 123.99309083528351,233.4125012771401 123.36395041662036,233.33296004188014 123.01280227600364,233.33296004188014 122.88112172321416,233.30114353953104 122.7787035155925,233.30114353953104 122.7787035155925,233.28523528654478 122.67628530785441,233.28523528654478 122.29587482224451,233.2375105205283 122.25198130460922,233.20569400391832 122.16419426951325,233.22160226281267 121.78378378384514,233.18978574385983 121.44726681575412,233.1102444256394 121.34484860801604,233.1420609564957 121.0814875025535,233.07842789009737 120.86201991472626,233.07842789009737 120.40845356642967,232.96706997825822 120.40845356642967,232.9352534213831 120.42308473889716,232.95116170038818 120.39382239384577,232.96706997825822 120.2475106685888,232.9352534213831 119.77931314782472,232.96706997825822 119.61837024998385,232.95116170038818 119.51595204230398,232.88752857713553 119.38427148957271,232.87162029334286 118.88681162369903,232.85571200837148 118.53566348314052,232.7443539803935 118.36008941277396,232.76026227367402 118.03820361720864,232.66481249633944 117.65779313154053,232.63299589436792 117.16033326560864,232.5057294392318 117.07254623045446,232.44209618319292 117.02865271287737,232.33073793952644 116.95549685024889,232.2830129601789 116.75066043488914,232.2034713042376 116.60434870969038,232.18756296951324 116.45803698437521,232.12392961865407 116.34098760416964,232.13983795816603 116.1507823613938,232.2511963013676 115.85815891087987,232.26710463137715 115.08270676690154,232.1716546335665 115.02418207691517,232.13983795816603 114.73155862634303,232.07620459311875 114.30725462309783,232.04438790347194 114.19020524283405,231.99666286009597 114.0,231.99666286009597" stroke="#4dd2ff" stroke-linecap="round" stroke-linejoin="round" stroke-width="0.5"><title>2022-10-21 10.5km</title></polyline></svg>