<?xml version="1.0" encoding="utf-8" ?>
<svg baseProfile="full" height="300mm" version="1.1" viewBox="0,0,200,300" width="200mm" xmlns="http://www.w3.org/2000/svg" xmlns:ev="http://www.w3.org/2001/xml-events" xmlns:xlink="http://www.w3.org/1999/xlink"><defs /><rect fill="#222222" height="300" width="200" x="0" y="0" /><text fill="#FFFFFF" style="font-size:12px; font-family:Arial; font-weight:bold;" x="10" y="20">Over 10km Runs</text><text fill="#FFFFFF" style="font-size:4px; font-family:Arial" x="10" y="280">ATHLETE</text><text fill="#FFFFFF" style="font-size:9px; font-family:Arial" x="10" y="290">Sunny</text><text fill="#FFFFFF" style="font-size:4px; font-family:Arial" x="120" y="280">STATISTICS</text><text fill="#FFFFFF" style="font-size:3px; font-family:Arial" x="120" y="285">Number: 9</text><text fill="#FFFFFF" style="font-size:3px; font-family:Arial" x="120" y="290">Weekly: 1.1</text><text fill="#FFFFFF" style="font-size:3px; font-family:Arial" x="141" y="285">Total: 75.3 km</text><text fill="#FFFFFF" style="font-size:3px; font-family:Arial" x="141" y="290">Avg: 8.4 km</text><text fill="#FFFFFF" style="font-size:3px; font-family:Arial" x="167" y="285">Min: 2.2 km</text><text fill="#FFFFFF" style="font-size:3px; font-family:Arial" x="167" y="290">Max: 12.5 km</text><polyline fill="none" points="67.0,75.61053740419447 66.23943661991507,74.7834981289925 63.672535211313516,73.54293829086237 61.86619718326256,73.54293829086237 60.91549295792356,73.02603803086095 60.059859154745936,72.30237734294496 59.774647887796164,71.78547662054189 59.774647887796164,71.26857570535503 59.67957746516913,70.75167459750082 59.394366197288036,70.44153384037782 55.97183098597452,68.68406823941041 53.309859154745936,67.75364437268581 52.26408450724557,68.06378573097754 51.12323943665251,67.96040528581943 49.507042253389955,67.34012245340273 48.17605633800849,67.13336144783534 46.2746478873305,65.68603354436345 46.0845070425421,65.06574969459325 45.51408450724557,64.65222697413992 44.658450704067945,64.23870413016994 44.088028168771416,64.23870413016994 42.85211267648265,63.82518116279971 42.47183098597452,63.411658072378486 41.045774647500366,62.58461152133532 39.5246478873305,60.93051693949383 37.908450704067945,59.89670682384167 36.86267605656758,59.586563638877124 34.105633802711964,57.31217816239223 33.15492957737297,56.79527185228653 32.10915492940694,55.968221354996786 31.538732394576073,55.658077291212976 30.397887323983014,55.45131454360671 30.017605633940548,55.24455176491756 28.40140845067799,54.83102611557115 27.450704225338995,53.79721145227086 25.92957746470347,53.07354072970338 23.647887323983014,51.316053116112016 23.077464789152145,51.109289721003734 22.12676056334749,50.38561759528238 20.225352112669498,49.45518145011738 19.08450704207644,49.04165407421533 16.137323943898082,47.18077935592737 14.901408450677991,46.14695898885839 13.950704225338995,45.526666398509406 13.0,44.38946259592194" stroke="#4dd2ff" stroke-linecap="round" stroke-linejoin="round" stroke-width="0.5"><title>2023-06-04 4.7km</title></polyline><polyline fill="none" points="73.0,63.824510420279694 73.2059103907668,63.84316627327644 73.56625357479788,63.88047797503532 73.63489037175896,63.93644551729085 73.72068636800395,63.95510136197845 73.80648236413253,63.93644551729085 73.9609151572804,63.824510420279694 74.08102955186041,63.78719871015346 74.42421353666577,63.749886994439294 74.61296472826507,63.805854565885966 74.9218303145608,63.805854565885966 75.2135367015726,63.749886994439294 75.3164918969851,63.76854285299487 75.52240228786832,63.69391941050708 75.91706387035083,63.69391941050708 76.02001906576334,63.73123113453039 76.34604385122657,63.71257527320995 76.55195424210979,63.749886994439294 76.72354623442516,63.69391941050708 77.04957102006301,63.65660768093949 77.70162059098948,63.69391941050708 78.18207816965878,63.60064007612527 78.38798856048379,63.43273718674027 78.5767397521413,63.33945775512257 79.05719733075239,63.32080186464009 79.14299332699738,63.264834184825304 79.53765490942169,63.13424288331589 79.72640610102098,63.19021059226361 80.10390848421957,62.94768376305001 80.44709246896673,62.89171599988185 80.63584366062423,62.76112450385699 80.96186844614567,62.74246857027174 81.13346043846104,62.59322105180763 81.2878932316089,62.51859725918621 81.52812202094356,62.49994130754203 81.57959961867891,62.44397344440222 82.42040038132109,62.276069779720274 82.60915157292038,62.10816600256658 83.1067683508154,61.88429412464029 83.22688274539541,61.90295012210845 83.43279313627863,61.865638125746045 83.74165872257436,61.716390084897284 83.91325071494794,61.697734073517495 84.13632030505687,61.60445399583841 84.41086749278475,61.455205799342366 84.59961868438404,61.38058166774863 84.87416587228654,61.231333337855176 85.50905624398729,60.9514924796531 85.74928503338015,60.783587814701605 85.8179218302248,60.69030739662412 85.9895138227148,60.63433912911569 86.59008579602232,60.11196802937775 86.69304099137662,60.13062415884633 87.00190657767234,60.01868736121105 87.5338417540188,60.05599963264831 87.96282173495274,59.83212592068594 88.20305052428739,59.68287666821561 88.32316491892561,59.66422050545225 88.3918017159449,59.58959584032709 88.58055290754419,59.51497115292295 88.73498570069205,59.40303408024192 88.95805529068457,59.32840933724947 89.47283126792172,59.12319117951847 89.66158245952101,59.0112539317488 90.00476644426817,58.936629072064534 90.41658722591819,58.8060355141788 90.69113441376248,58.67544188820466 91.0,58.582160685095005 91.06863679696107,58.52619194659928 91.1887511916575,58.50753569761582 91.68636796949431,58.339629394511576 92.20114394661505,58.320973131631035 92.69876072451007,58.22769179655006 92.78455672069686,58.26500433473848 92.95614871307043,58.28366060179542 93.0247855099733,58.339629394511576 93.4022878932301,58.48887944727903 93.5052430886426,58.67544188820466 93.57387988560367,58.638129411119735 93.91706387035083,58.638129411119735 94.29456625354942,58.582160685095005 94.48331744514871,58.638129411119735 94.56911344139371,58.638129411119735 95.06673021923052,58.47022319557436 95.22116301237838,58.37694191603805 95.4270734032616,58.37694191603805 95.51286939939018,58.320973131631035 96.23355576745234,58.28366060179542 96.69685414677951,58.13441042670456 97.09151572926203,58.11575414854451 97.17731172544882,58.09709786904568 97.2631077215774,58.04112902212364 97.86367969494313,57.9478475828073 98.24118207819993,57.77994090449647 98.49857006670209,57.70531567800208 98.96186844608746,57.64934674356482 99.06482364161639,57.66800305643119 99.25357483321568,57.59337779659836 99.5624404194532,57.57472147818771 99.66539561492391,57.53740883713181 99.97426120116143,57.53740883713181 100.06005719729,57.55606515832187 100.145853193535,57.518752514530206 100.2316491897218,57.518752514530206 100.45471877977252,57.53740883713181 100.6263107722043,57.68665936788602 100.7292659675586,57.85456610874098 100.88369876064826,57.966503873467445 100.91801715927431,58.05978530578432 101.1067683508154,58.28366060179542 101.63870352716185,58.619473170503625 101.65586272638757,58.712754359745304 101.82745471876115,58.8620041901886 101.8789323164965,58.936629072064534 102.08484270737972,58.9179728536983 102.46234509057831,58.54484819415666 102.78836987609975,58.17172297880461 102.99428026686655,58.022472737022326 103.1315538608469,57.98516016268695 103.2173498570337,57.91053499736881 103.30314585322049,57.89187870254682 103.56053384172264,58.078441588106216 103.68064823647728,58.04112902212364 103.76644423260586,57.966503873467445 104.26406101044267,57.87322240631329 104.45281220210018,57.89187870254682 104.8646329838084,57.835909809800796 105.17349857010413,57.87322240631329 105.44804575789021,57.835909809800796 105.48236415628344,57.74262829399959 105.41372735943878,57.66800305643119 105.51668255485129,57.313532874235534 105.7225929456763,57.294876534928335 106.15157292666845,57.33218921208754 106.56339370826026,57.27622019426781 106.87225929455599,57.35084554858622 107.0781696854392,57.313532874235534 107.59294566250173,57.33218921208754 107.93612964724889,57.294876534928335 108.17635843658354,57.313532874235534 108.26215443282854,57.294876534928335 108.75977121072356,57.313532874235534 108.96568160149036,57.25756385222485 109.12011439469643,57.313532874235534 109.41182078170823,57.35084554858622 109.65204957104288,57.42547088065476 109.97807435656432,57.48143986516516 111.09342230693437,57.966503873467445 111.38512869406259,58.15306670345308 111.6081982840551,58.37694191603805 111.6939942803001,58.52619194659928 111.65967588179046,58.843347966263536 111.71115347952582,58.936629072064534 111.89990467112511,58.97394150469336 112.05433746427298,59.085878769139526 112.74070543376729,59.272440765445936 113.1353670162498,59.347065525100334 113.80457578646019,59.42169026247575 114.50810295523843,59.40303408024192 114.61105815065093,59.42169026247575 114.79980934225023,59.384377896552905 115.09151572932024,59.384377896552905 115.81220209720777,59.29109695748775 116.20686367969029,59.19781598361442 116.1210676835617,59.16050358438224 116.03527168731671,59.179159784674994 116.06959008582635,59.06722256190551 116.15538608207135,59.02991014321742 116.37845567212207,58.99259771891229 116.75595805532066,58.843347966263536 117.03050524304854,58.65678565035341 117.3736892277957,58.48887944727903 117.44232602481497,58.41425443199114 117.54528122028569,58.37694191603805 117.61391801718855,58.30231686736806 118.09437559579965,58.13441042670456 117.99142040044535,58.11575414854451 117.73403241188498,58.19037925275916 117.6482364156982,58.22769179655006 117.44232602481497,58.43291068787221 117.69971401337534,58.358285655936925 117.88846520503284,58.22769179655006 118.00857959961286,58.24634806632821 118.30028598662466,58.17172297880461 118.35176358436001,58.05978530578432 119.79313632036792,57.2389075087558 120.34223069594009,56.99637491752219 120.61677788372617,56.84712397545809 120.82268827460939,56.79115484924114 121.59485224029049,56.45533982932102 122.14394661586266,56.17549363547005 122.53860819828697,56.0635550704028 122.9504289799952,56.04489863802155 123.48236415634165,56.138180786016164 123.89418493804988,56.082211501387064 125.04385128698777,56.212806479408755 125.85033365112031,56.306088564830134 126.05624404200353,56.3620577994443 126.3307912297314,56.3620577994443 126.41658722591819,56.41802702154382 126.8112488084007,56.492652631524834 127.0,56.492652631524834" stroke="#4dd2ff" stroke-linecap="round" stroke-linejoin="round" stroke-width="0.5"><title>2023-05-21 5.5km</title></polyline><polyline fill="none" points="187.0,51.13153145967226 186.88716417911928,50.991313052611076 186.4035820895224,50.903676505724434 186.04895522387233,50.93873112840811 185.8877611940843,51.00884035805939 185.72656716412166,51.11400416336255 185.58149253728334,51.254222497242154 185.42029850749532,51.46454984144657 185.09791044774465,51.780040504963836 184.90447761194082,52.02542183964397 184.2113432835322,52.46360215761524 183.88895522383973,52.72650995654112 183.7116417910438,52.95436314458493 183.6794029850862,53.11210753010528 183.48597014922416,53.269851809804095 183.37313432834344,53.62039427482523 183.32477611937793,53.69050270515436 183.30865671642823,53.77813821363088 183.32477611937793,53.883300780755235 183.29253731342033,54.07609869830776 183.29253731342033,54.26889645787014 183.24417910445482,54.496748151796055 183.17970149259781,54.58438335992105 183.1313432835741,54.96997788771114 183.17970149259781,55.05761291953968 183.24417910445482,55.3730987636809 183.26029850746272,55.65353026990488 183.30865671642823,55.82879979154677 183.2280597014469,56.1092307545041 183.24417910445482,56.21439227940573 183.1958208954893,56.40718828632089 183.1635820895317,56.84536044156994 183.1152238805662,56.95052163739456 183.0991044776165,57.14331704094366 183.01850746263517,57.47632691124454 182.93791044777026,57.68664869174245 182.97014925366966,57.87944349195459 182.93791044777026,58.07223813417659 182.98626865673577,58.352666422579205 182.95402985071996,58.475353693647776 182.97014925366966,58.68567458090547 182.92179104470415,59.001155559162726 182.95402985071996,59.12384249201568 182.88955223880475,59.526956249421346 182.93791044777026,60.368234909372404 182.92179104470415,60.57855410425691 182.97014925366966,60.981665368919494 182.90567164181266,61.75283282007149 182.85731343278894,61.92809779732488 182.84119402983924,62.24357442735345 182.77671641786583,63.260107357476954 182.80895522388164,63.523003090012935 182.72835820895853,64.46942529492662 182.6477611939772,64.81995107130206 182.6961194029427,65.03026628649968 182.66388059704332,65.20552882218908 182.66388059704332,65.45089615278994 182.6316417910275,65.55605350187398 182.34149253729265,65.59110594110098 182.0835820895154,65.67873701638018 181.87402985070366,65.69626322750992 181.59999999997672,65.78389426361537 181.21313432836905,65.83647286963242 181.13253731338773,65.88905146386242 180.81014925369527,65.95915623790643 180.72955223877216,66.01173480473517 180.3265671642148,66.09936572334846 180.10089552239515,66.18699660929269 179.8107462686603,66.25710129455547 179.18208955222508,66.30967979482375 177.90865671640495,66.60762440761027 177.42507462686626,66.64267669018591 177.1188059701235,66.73030737377121 176.45791044773068,66.83546415105229 175.16835820896085,67.11588199390098 174.9749253730988,67.13340809800138 174.66865671641426,67.25609079001879 174.47522388055222,67.29114297598426 173.94328358210623,67.36124733228644 173.8465671641752,67.3962995026086 173.39522388065234,67.43135166773573 173.21791044774,67.48392990553111 173.00835820892826,67.44887774827657 172.52477611938957,67.55403420436778 172.2023880596971,67.53650813159766 171.99283582088538,67.58908634593536 171.70268656715052,67.57156027581368 171.21910447761184,67.7117688003782 171.0095522388001,67.69424273936602 170.4292537313304,68.02723767521093 170.31641791050788,68.13239387280191 169.9456716417917,68.22002400155179 169.54268656717613,68.25507604396262 169.17194029845996,68.32518011300999 168.75283582083648,68.32518011300999 168.2692537312978,68.41281016997527 167.49552238802426,68.39528416120447 166.38328358205035,68.60559618042316 166.0931343283155,68.55301819322631 165.89970149256987,68.50044019432971 165.72238805971574,68.377758151124 165.4805970149464,68.32518011300999 165.20656716416124,68.34270612701948 164.61014925374184,68.30765409769083 164.30388059699908,68.3602321397193 164.11044776119525,68.43033617749461 163.67522388056386,68.71075211957213 163.2399999999907,68.85095996533346 163.07880597008625,68.97364176178235 162.65970149246277,69.00869369188149 162.35343283583643,69.07879753642192 162.2567164179054,69.04374561674194 161.91820895514684,69.04374561674194 161.30567164177774,69.07879753642192 160.77373134321533,69.04374561674194 160.0967164178728,69.09632349429012 159.58089552231831,69.04374561674194 159.4197014925303,68.9035378858971 159.29074626869988,68.74580408883048 159.22626865666825,68.50044019432971 159.21014925366035,68.29012808107655 159.22626865666825,68.18497195397504 159.11343283578753,68.07981577984174 158.9522388059413,67.99218559885048 158.21074626862537,67.90455538521928 158.11402985069435,67.86950329063984 157.48537313431734,67.83445119083626 157.2758208954474,67.78187303131563 157.06626865669386,67.7993990858231 156.95343283581315,67.76434697555669 156.7600000000093,67.78187303131563 156.30865671637002,67.67671667710238 155.53492537309648,67.62413848232245 155.43820895522367,67.58908634593536 154.5032835821039,67.57156027581368 154.18089552241145,67.51898205754696 153.71343283582246,67.36124733228644 153.53611940296832,67.3261951567838 153.4232835820876,67.34372124518268 153.31044776114868,67.3261951567838 153.22985074622557,67.37877341813873 153.16537313431036,67.46640382753685 153.08477611944545,67.64166454851511 153.05253731337143,67.81692513897724 152.9235820894828,67.97465955876396 152.8591044776258,68.13239387280191 152.69791044772137,68.25507604396262 152.58507462684065,68.2726020631817 151.50507462682435,68.25507604396262 150.90865671640495,68.18497195397504 149.81253731343895,68.14991990117414 149.6191044775769,68.09734181214299 149.45791044773068,67.88702933859895 149.31283582089236,67.74682091847353 149.21611940296134,67.60661241479102 149.13552238803823,67.53650813159766 149.08716417907272,67.44887774827657 148.9904477611999,67.3962995026086 148.65194029844133,67.41382558578334 148.3617910447647,67.48392990553111 147.410746268637,67.34372124518268 146.99164179095533,67.43135166773573 146.8626865671249,67.43135166773573 146.3468656715704,67.37877341813873 145.7826865671086,67.27361688368546 145.60537313431269,67.27361688368546 145.39582089550095,67.22103859884373 144.54149253724609,67.13340809800138 143.81611940287985,66.99319922877476 142.9295522387256,66.85299027603469 142.84895522380248,66.76535963808419 142.81671641784487,66.69525510427775 141.8656716417754,66.59009826435067 141.43044776114402,66.48494137742091 140.47940298501635,66.36225828330498 140.39880597009324,66.3272059589799 140.01194029842736,66.30967979482375 139.83462686563144,66.37978444357577 139.73791044770041,66.39731060244958 139.43164179101586,66.29215362937248 138.80298507452244,66.25710129455547 138.6095522387186,66.15194425884692 138.33552238804987,66.06431335983507 137.02985074621392,65.85399906901876 136.64298507454805,65.80142046693072 136.44955223874422,65.80142046693072 135.93373134324793,65.71378943737363 135.49850746261654,65.7488418530993 135.12776119395858,65.6261583751475 134.6602985074278,65.52100105740828 134.096119402966,65.43336992336845 133.70925373124192,65.39831746062555 133.33850746258395,65.29316004103748 133.0,65.2756337999017" stroke="#4dd2ff" stroke-linecap="round" stroke-linejoin="round" stroke-width="0.5"><title>2023-04-22 6.2km</title></polyline><polyline fill="none" points="66.89380530978087,141.82380023643782 66.9336283186567,141.89596743241418 66.98672566370806,142.06916859318153 66.94690265483223,142.24236959904374 66.96017699118238,142.4588706386421 66.86725663719699,142.7764050589758 66.8407079646131,143.00733885593945 66.8407079646131,143.3248723771976 66.81415929208742,143.42590566117724 66.81415929208742,143.65683868384804 66.86725663719699,144.0898373593227 66.82743362832116,144.23417003607028 66.86725663719699,144.34963610001432 66.7743362832116,144.56613478445797 66.7743362832116,144.62386772612808 66.7743362832116,144.81149966767407 66.82743362832116,144.86923253620625 66.82743362832116,144.9413985976862 66.81415929208742,145.02799783594673 66.85398230090505,145.08573063997028 66.90707964601461,145.4465602752316 66.86725663719699,145.5187261216197 66.86725663719699,145.66305773377826 66.80088495573727,145.7929560927878 66.8407079646131,145.9517206355231 66.81415929208742,146.03831942215038 66.81415929208742,146.12491817011323 66.7743362832116,146.3702810790419 67.0,146.78884061821736 66.98672566370806,146.8754390306858 67.0,146.9476043448376 66.80088495573727,147.38059566516313 66.82743362832116,147.5537919223134 66.81415929208742,147.62595698377118 66.92035398230655,147.9579159202549 66.88053097343072,148.2754413272487 66.78761061950354,148.53523445499013 66.76106194686145,148.88162475013814 66.681415929168,149.14141706502414 66.70796460181009,149.19914864328166 66.7743362832116,149.17028285631386 66.74778761062771,149.22801442592754 66.78761061950354,149.3001788637921 66.85398230090505,149.35791039469768 66.82743362832116,149.45894053243683 66.89380530978087,149.77646347942937 66.72123893804383,149.83419486845378 66.01769911509473,149.94965759485785 65.31415929202922,150.1228515554394 64.42477876105113,150.28161254998122 63.800884955737274,150.42594061396085 63.721238938043825,150.49810460559092 63.548672566364985,150.5414029876847 63.26991150440881,150.59913414876792 63.030973451328464,150.59913414876792 61.95575221237959,150.8877896961494 61.26548672566423,150.98881903612346 60.85398230084684,151.08984832343413 60.64159292035038,151.10428107448388 60.15044247789774,151.1908775580523 60.07079646020429,151.2197430439992 59.63274336286122,151.29190674005076 59.55309734516777,151.30633947599563 59.39380530978087,151.29190674005076 58.87610619474435,151.36407040913764 58.703539823007304,151.42180132509384 57.74778761062771,151.5372631054488 57.66814159293426,151.58056125529401 57.601769911532756,151.63829210677068 57.26991150440881,151.8259172551916 57.163716814189684,151.92694610606122 56.314159292087425,152.05684026540257 55.59734513272997,152.10013829916716 55.39823008852545,152.12900364965026 55.066371681459714,152.12900364965026 54.44247787614586,152.17230166730587 53.96460176992696,152.25889767357148 53.72566371684661,152.20116700702056 53.28761061950354,152.01354222196096 52.969026548729744,151.98467685429205 52.623893805313855,151.84034995139518 52.491150442452636,151.81148455792572 51.933628318598494,151.84034995139518 51.86725663719699,151.8259172551916 51.2300884956494,151.883648033574 50.84513274341589,151.8980807254411 50.646017699094955,151.84034995139518 50.03539823007304,151.84034995139518 49.17256637167884,151.76818645963795 49.09292035398539,151.782619160178 48.933628318598494,151.73932105542917 48.30973451328464,151.79705185956846 47.06194690265693,151.59499396978936 46.47787610616069,151.60942668317875 46.29203539824812,151.58056125529401 46.21238938055467,151.59499396978936 45.8407079646131,151.58056125529401 45.11061946902191,151.47953222386423 44.95132743369322,151.47953222386423 44.28761061944533,151.45066677665454 44.1150442478247,151.40736859774916 43.90265486721182,151.42180132509384 43.703539823007304,151.37850313974195 43.39823008852545,151.2486085256678 43.22566371684661,151.2341757853428 43.1592920353869,151.2486085256678 43.026548672583885,151.4362340514199 42.893805309722666,151.7248883516877 42.78761061950354,151.8980807254411 42.66814159293426,151.97024416885688 42.336283185868524,151.98467685429205 41.69911504432093,151.97024416885688 41.128318584058434,151.8980807254411 40.42477876105113,151.8980807254411 40.11946902656928,151.85478264652193 40.05309734516777,151.79705185956846 39.66814159293426,151.26304126482864 39.588495575182606,151.2341757853428 39.44247787608765,151.2341757853428 39.296460176992696,151.27747400294174 39.12389380537206,151.29190674005076 38.566371681401506,151.26304126482864 38.39380530978087,151.2197430439992 38.11504424776649,151.26304126482864 37.876106194686145,151.2486085256678 37.80973451322643,151.27747400294174 37.199115044262726,151.2197430439992 37.00000000005821,151.2197430439992 36.774336283211596,151.13314657329465 36.084070796496235,151.07541557132208 35.72566371684661,151.00325179466745 35.38053097348893,150.90222246221674 34.94247787608765,150.8733569289907 34.80973451328464,150.78676030348288 34.33185840706574,150.68573085815297 33.774336283211596,150.62799972288485 33.69469026551815,150.59913414876792 33.429203539853916,150.57026857038727 33.26991150440881,150.51253740068933 33.11061946908012,150.51253740068933 32.526548672583885,150.42594061396085 32.234513274393976,150.35377659538062 32.07522123894887,150.42594061396085 31.836283185868524,150.45480621379102 31.756637168116868,150.44037341441435 31.119469026569277,150.33934378846607 30.986725663766265,150.2383141098253 30.840707964613102,150.19501565999235 30.49557522131363,150.15171720048238 30.123893805313855,150.06512025241682 29.4336283186567,150.00738893223752 28.86283185845241,149.8630605564831 28.451327433635015,149.8774933989189 28.17256637167884,149.77646347942937 27.58849557529902,149.6610006498231 27.256637168116868,149.6321349316422 27.004424778802786,149.54553775140084 26.340707964613102,149.48780627640372 26.20796460181009,149.415641908432 26.128318584058434,149.27131309188553 26.128318584058434,149.1125512694707 26.19469026545994,148.88162475013814 23.951327433635015,149.1125512694707 23.473451327416115,149.02595385698078 22.849557522160467,148.98265513620572 22.623893805372063,148.92492349348322 22.35840707970783,148.8960576656391 22.026548672583885,148.79502723438782 21.469026548671536,148.7084296799585 21.40265486727003,148.67956381989643 20.632743362803012,148.60739915088925 20.566371681401506,148.57853327576595 20.168141592934262,148.52080151262635 20.008849557547364,148.46306973222818 19.743362831883132,148.44863678446563 19.59734513272997,148.4053379346733 19.265486725664232,148.39090498258884 18.867256637196988,148.31874020605756 18.694690265518147,148.31874020605756 18.243362831883132,148.23214243876282 18.004424778802786,148.17441057236283 17.606194690277334,148.17441057236283 17.19469026545994,148.11667868879158 16.83628318592673,148.11667868879158 16.26548672572244,148.05894678801997 16.132743362803012,148.07337976479903 15.946902654890437,148.05894678801997 15.86725663713878,148.08781274055946 15.694690265518147,148.0445138101204 15.376106194686145,148.05894678801997 15.057522123970557,148.11667868879158 14.964601769926958,148.08781274055946 14.539823008875828,148.0445138101204 14.46017699118238,148.01564785113442 13.969026548729744,147.98678188781196 13.796460176992696,147.92904994833225 13.0,147.94348293481744 13.331858407065738,147.87131799163762 13.530973451328464,147.74142102616315 13.623893805313855,147.61152397362457 13.703539823007304,147.61152397362457 13.730088495649397,147.69812201835157 13.796460176992696,147.68368901357462 13.796460176992696,147.61152397362457 13.730088495649397,147.6548230008193 13.76991150440881,147.71255502202257 13.836283185868524,147.71255502202257 13.849557522160467,147.6548230008193 13.796460176992696,147.62595698377118 13.756637168175075,147.68368901357462 13.703539823007304,147.8135860177572 13.663716814189684,148.030080831144 13.703539823007304,148.7084296799585 13.756637168175075,148.93935640575364 13.730088495649397,149.0692525680788 13.76991150440881,149.47337340493686 13.756637168175075,149.73316492639424 13.78318584075896,150.29604536120314 13.76991150440881,150.38264220605197 13.876106194744352,151.04655006389658 13.862831858394202,151.46509950078325 13.889380530978087,151.68159023404587 13.862831858394202,151.92694610606122 13.876106194744352,152.28776300036407 13.836283185868524,152.44652222107106 13.90265486727003,153.2980467301677 13.889380530978087,153.5001028440165 13.90265486727003,153.90421443966625 13.876106194744352,153.97637713588483 13.889380530978087,154.7557325429807 14.008849557489157,154.94335467283963 14.07522123894887,154.98665206164878 14.141592920408584,154.95778713685286 14.128318584058434,154.8711923367082 14.061946902656928,154.842327394741 14.008849557489157,154.8711923367082 13.929203539853916,154.88562480610562 13.889380530978087,154.92892220780777 13.823008849576581,154.95778713685286 13.78318584075896,155.01551698210824 13.716814159299247,155.0299494407518 13.623893805313855,154.90005727438256 13.61061946908012,154.82789492214215 13.650442477897741,154.77016502096376 13.796460176992696,154.7268675837986 13.876106194744352,154.7268675837986 14.088495575240813,154.61140770406928 14.234513274393976,154.5681102314702 14.446902654890437,154.43821775553806 15.336283185810316,154.01967474076082 15.628318584116641,153.90421443966625 15.694690265518147,153.84648426334024 16.053097345109563,153.65886107140977 16.4778761062189,153.5001028440165 16.61061946908012,153.4135073924699 16.716814159357455,153.3846422333445 16.876106194686145,153.3846422333445 17.28761061950354,153.3124793167517 17.51327433635015,153.2980467301677 17.924778761109337,153.3124793167517 18.256637168175075,153.2980467301677 18.628318584058434,153.35577706995537 19.079646017751656,153.3702096521738 19.876106194744352,153.47123769782775 20.28761061950354,153.5001028440165 20.526548672583885,153.5722656907892 20.738938053138554,153.5578331235738 20.80530973454006,153.60113082197495 20.871681415941566,153.58669825689867 20.938053097343072,153.62999594882422 20.9778761062189,153.71659130362968 21.044247787620407,153.7743215186929 21.137168141605798,153.90421443966625 21.376106194744352,154.0485398052988 22.34513274335768,154.40935274903313 22.43805309740128,154.4237852528313 22.504424778802786,154.40935274903313 22.716814159299247,154.45265025715344 22.94247787608765,154.45265025715344 23.646017699094955,154.654705167035 23.72566371684661,154.62584019282076 23.80530973454006,154.654705167035 23.89823008852545,154.654705167035 24.15044247789774,154.71243510262866 24.482300885021687,154.842327394741 24.548672566423193,154.82789492214215 24.88053097348893,154.94335467283963 24.973451327416115,154.94335467283963 25.066371681401506,154.95778713685286 25.132743362803012,155.00108452243148 25.331858407065738,155.01551698210824 26.19469026545994,155.2320037486934 26.725663716788404,155.4051929878333 26.93805309740128,155.44849027341115 27.681415929226205,155.6938413757016 28.331858407123946,155.8525978058169 29.261061946861446,156.12681315139343 29.32743362832116,156.12681315139343 29.792035398248117,156.28556922679127 30.19026548677357,156.3577310362307 30.721238938102033,156.51648692239542 31.584070796496235,156.68967501356383 32.03539823013125,156.73297201216337 32.606194690277334,156.761836672551 33.56194690265693,156.891727590948 34.21238938055467,156.94945686006395 34.38495575223351,156.94945686006395 35.181415929226205,157.0504830396967 35.36725663719699,157.0504830396967 35.44690265489044,157.09377995766408 35.68584070797078,157.10821226151893 35.911504424817394,157.18037376462598 36.376106194686145,157.19480606201978 36.65486725664232,157.23810294775467 36.893805309722666,157.29583211372665 37.73008849559119,157.39685811274103 37.98230088496348,157.39685811274103 38.44690265489044,157.46901950839674 38.951327433635015,157.49788405909203 39.34955752216047,157.58447768550832 40.14601769915316,157.6710712731874 40.238938053080346,157.65663901122753 40.969026548729744,157.77209707659495 41.59292035398539,157.82982608347083 41.75221238937229,157.85869058046956 41.80530973454006,157.91641956153035 42.429203539853916,157.9885807637038 42.66814159293426,157.9885807637038 42.90707964601461,157.94528404560697 43.05309734516777,157.97414852543443 43.146017699094955,158.0174452370411 43.29203539824812,158.03187747210904 43.46460176992696,158.07517417085182 43.76991150446702,158.07517417085182 44.101769911532756,158.10403863129613 44.526548672583885,158.03187747210904 44.59292035398539,158.00301300092542 45.08407079643803,158.0896064015833 45.32300884957658,158.04630970607104 45.65486725664232,158.0607419390144 46.54424778762041,158.13290308741853 46.676991150481626,158.17619976357673 47.101769911532756,158.1473353139154" stroke="#4dd2ff" stroke-linecap="round" stroke-linejoin="round" stroke-width="0.5"><title>2023-04-01 11.2km</title></polyline><polyline fill="none" points="126.97207498384523,148.10235029447358 126.99301874596858,148.18584840239782 126.98603749193717,148.23898352638207 127.0,148.40597944988258 126.97905623787665,148.45152374514873 126.97905623787665,148.55020298169984 126.95113122172188,148.62611002172343 126.93716871362994,148.71719839509024 126.96509372981382,148.7703332419551 126.93018745962763,148.8993748975263 126.93716871362994,149.02082571818755 126.91622495150659,149.1043230734067 126.93018745962763,149.25613627124403 126.90924369747518,149.29408953535312 126.91622495150659,149.47626500630577 126.93018745962763,149.52939945730031 126.92320620556711,149.6128963957526 126.93716871362994,149.68880264407198 126.92320620556711,149.76470883582806 126.91622495150659,150.00760826945043 126.89528118941234,150.0759236308295 126.88131868132041,150.20496363291022 126.88131868132041,150.3643657628054 126.95113122172188,150.51617708325648 126.99301874596858,150.77425580892304 126.73471234648605,150.82738958306436 126.65093729802174,150.85775172727153 126.56018099546782,150.86534226191725 126.34376212023199,150.9184759885611 126.23904330964433,150.95642863350076 126.21809954752098,150.98679073927633 126.12734324499615,151.0019717887626 125.96677440209896,151.00956231264718 125.5339366516273,151.10064855532983 125.44318034907337,151.1082390718584 125.29657401426812,151.1841442062214 125.170911441528,151.22209675220802 124.99638009053888,151.2296872597144 124.83581124761258,151.2752302928202 124.58448610216146,151.3131828048863 123.7886231415905,151.48017369001172 123.41163542342838,151.54848806413065 123.34880413705832,151.56366902993614 123.1742727860692,151.5864404744134 123.13936651585391,151.60162143456546 123.03464770523715,151.60162143456546 122.87407886233996,151.62439287055167 122.79728506787797,151.65475477729342 122.54595992245595,151.647164301452 122.39237233359017,151.69270714799495 122.21085972854053,151.68511667499843 122.1201034260157,151.70788809232909 121.7919844861317,151.72306903438584 121.74311570782447,151.74584044323274 121.58254686492728,151.76102137965063 121.12178409827175,151.79138324567612 121.0659340659331,151.7837927799992 120.81460892051109,151.7837927799992 120.64007756952196,151.806564175291 120.31195862960885,151.8217451026503 120.23516483517596,151.83692602776864 120.0047834518482,151.81415463926533 119.9210084033839,151.8217451026503 119.641758241778,151.8217451026503 119.2717517776473,151.85969741115696 118.97853910794947,151.86728787117318 118.65740142209688,151.8900592478094 118.47588881707634,151.8976497055337 118.18965740143904,151.88246878948848 117.62417582416674,151.88246878948848 117.58228829994914,151.87487833060732 117.4845507433929,151.81415463926533 117.4007756948995,151.806564175291 117.23322559794178,151.83692602776864 116.9958629605826,151.8217451026503 116.90510665802867,151.8293355654896 116.71661279897671,151.76102137965063 116.43736263737082,151.72306903438584 116.28377504847595,151.7154785636376 116.19301874595112,151.7306595045593 116.0603749192087,151.73824997418706 115.87188106012763,151.7002976204385 115.83697478991235,151.70788809232909 115.71829347123276,151.7002976204385 115.68338720104657,151.68511667499843 115.52979961215169,151.66234525256732 115.43904330962687,151.66993572726642 115.15281189401867,151.6395738250576 114.83167420816608,151.6319833480884 114.6780866192712,151.57125951198395 114.64318034908501,151.54848806413065 114.517517776374,151.54089758038026 114.4756302521273,151.5181261257094 114.23826761476812,151.4498117312396 114.09864253396518,151.38149729096767 113.97297996125417,151.33595430533023 113.84033613448264,151.3131828048863 113.77052359408117,151.34354480435286 113.7007110536797,151.4498117312396 113.5401422107534,151.4649927117498 113.4982546865358,151.48017369001172 113.36561085973517,151.4877641782805 113.34466709761182,151.5181261257094 113.2957983193628,151.54089758038026 113.03749191988027,151.57884999350063 112.93975436329492,151.5864404744134 112.79314802846056,151.6319833480884 112.74427925018244,151.6319833480884 112.69541047190432,151.57125951198395 112.6465416936262,151.54848806413065 112.49993535879184,151.54848806413065 112.45804783454514,151.4877641782805 112.36729153202032,151.4725832011609 112.25559146737214,151.42704025623243 112.12294764060061,151.4118592700761 112.04615384616773,151.37390679476812 111.92049127345672,151.35872580069554 111.65520361991366,151.38908778658515 111.35500969618442,151.38149729096767 111.22934712347342,151.3511353027934 111.10368455076241,151.3511353027934 110.99198448611423,151.3131828048863 110.92217194571276,151.3055923036154 110.60801551392069,151.24486827301007 110.4893341952411,151.26004928405746 110.37763413056382,151.32077330560423 109.97272139627603,151.25245877882116 109.88894634778262,151.26004928405746 109.67252747254679,151.23727776663873 109.44214608921902,151.19932522632007 109.25365223013796,151.19173471655085 108.84175824176054,151.1234201032712 108.75100193923572,151.1234201032712 108.68118939886335,151.14619164611213 108.45080801550648,151.10064855532983 108.22042663220782,151.077877002288 108.05985778928152,151.0247433587574 107.84343891404569,151.00956231264718 107.68985132515081,150.9488381056508 107.39663865545299,150.8805233295061 106.92191338073462,150.83498011998017 106.88700711054844,150.81979904560285 106.80323206205503,150.83498011998017 106.48907563026296,150.7666652675034 106.3843568196462,150.72871255187783 106.23775048481184,150.72112200707488 106.15397543631843,150.70594091573003 105.8537815126183,150.67557872628822 105.81887524240301,150.66039762817672 105.77698771818541,150.65280707825877 105.70717517775483,150.66039762817672 105.56755009695189,150.63003542515798 105.48377504845848,150.63762597675668 105.44188752424088,150.61485432025802 105.29528118940652,150.5920826586589 105.22546864897595,150.56931099196663 105.18358112475835,150.56931099196663 105.10678733029636,150.54653932019573 104.9601809954911,150.53894876181585 104.68093083388521,150.49340539959667 104.5552682611451,150.49340539959667 104.38073691015597,150.4402714513053 104.17828054301208,150.42509031810914 103.95488041371573,150.3643657628054 103.88506787334336,150.3719563341947 103.71053652232513,150.33400347158022 103.64072398192366,150.34918461830966 103.48713639305788,150.31123174722597 103.3754363283806,150.30364117130375 103.29864253394771,150.28086944015377 103.17996121526812,150.26568828322343 103.09618616677471,150.24291654359695 102.85882352941553,150.21255421618116 102.70523594054976,150.151829534203 102.58655462187016,150.14423894639913 102.3561732385424,150.10628599896881 102.18862314158469,150.09110481601965 102.0699418229051,150.0683330373795 101.98616677441169,150.0683330373795 101.93031674210215,150.08351422371197 101.85352294766926,150.06074244336924 101.76974789917585,150.06074244336924 101.44162895929185,150.00001767091453 101.35785391082754,149.96965527111752 101.07162249516114,149.93929286226194 100.94595992242103,149.94688346533076 100.82029734973912,149.9241116544581 100.65972850681283,149.94688346533076 100.25481577246683,149.90133983849228 100.14311570784776,149.90893044436962 100.08726567550912,149.88615862500592 99.99650937298429,149.90133983849228 99.93367808661424,149.89374923204014 99.85688429218135,149.90133983849228 99.81499676793464,149.90893044436962 99.78707175177988,149.9241116544581 99.62650290885358,149.9241116544581 98.9842275371775,149.82543374851957 98.86554621849791,149.79507129669219 98.7817711700045,149.78748068231653 98.67007110538543,149.80266191049304 98.63516483517014,149.78748068231653 98.51648351649055,149.78748068231653 98.35591467356426,149.76470883582806 98.2511958629766,149.7571182191823 98.09760827408172,149.7115745075207 98.02081447964883,149.7115745075207 97.59495798320859,149.6584401515138 97.29476405947935,149.6508495269809 97.1551389786764,149.62807764994795 96.90381383322529,149.55976198828284 96.49191984487697,149.50662755312078 96.45701357466169,149.48385564385535 96.40814479635446,149.38517731153843 96.23361344536534,149.32445213646133 96.15681965093245,149.32445213646133 96.12191338074626,149.33204278532503 96.05908209437621,149.38517731153843 95.98926955397474,149.39276795589103 95.50756302522495,149.31686148702283 95.38888170654536,149.32445213646133 95.27020038786577,149.29408953535312 95.16548157724901,149.29408953535312 94.96302521007601,149.23336430598283 94.78151260502636,149.21818299299775 94.4673561732343,149.14986705651245 94.3486748545547,149.1422763940718 94.32074983837083,149.11950440337387 94.306787330308,149.08914174119127 94.3486748545547,148.86142148639192 94.3486748545547,148.81587737434165 94.32773109243135,148.7779239320953 94.16018099544453,148.74756116812205 94.0205559146707,148.6868356130144 93.86696832580492,148.69442630937556 93.78319327731151,148.70960770042439 93.71338073691004,148.6868356130144 93.51790562379756,148.70960770042439 93.46903684551944,148.70960770042439 93.42714932127274,148.6868356130144 93.20374919200549,148.6868356130144 93.1269553975435,148.70960770042439 93.09204912735731,148.70960770042439 92.9244990304287,148.73997047571174 92.63128636070178,148.90696557804768 92.58241758245276,148.95250964938168 92.45675500971265,148.9904630266028 92.42184873952647,149.01323504614265 92.37297996121924,149.08155107423227 92.33109243697254,149.32445213646133 92.28920491275494,149.39276795589103 92.20542986429064,149.46867436819593 92.17052359407535,149.4914462808374 92.03787976730382,149.48385564385535 91.96108597287093,149.4914462808374 91.91919844862423,149.50662755312078 91.67485455720453,149.50662755312078 91.51428571427823,149.48385564385535 91.44447317390586,149.50662755312078 91.16522301229998,149.48385564385535 91.0535229476518,149.49903691727377 90.90691661281744,149.57494325040898 90.66257272139774,149.57494325040898 90.62766645121155,149.56735261962604 90.5648351648415,149.52939945730031 90.49502262444003,149.56735261962604 90.46011635425384,149.55217135640123 90.42521008403855,149.56735261962604 90.31351001939038,149.57494325040898 90.25765998708084,149.52939945730031 90.21577246283414,149.52939945730031 90.0412411118159,149.54458072394482 89.94350355525967,149.55976198828284 89.89463477701065,149.57494325040898 89.82482223658008,149.63566827617615 89.73406593408436,149.79507129669219 89.66425339365378,149.98483647214744 89.66425339365378,150.11387658957392 89.70614091790048,150.18978246468032 89.78991596639389,150.26568828322343 89.94350355525967,150.33400347158022 89.97840982547496,150.3719563341947 89.97840982547496,150.4478620170339 89.9574660633807,150.48581483725138 89.94350355525967,150.53135820286116 89.85274725276395,150.63762597675668 89.76199095023912,150.70594091573003 89.63632837752812,150.75907472550898 89.4687782805413,150.75907472550898 89.29424692955217,150.6983503692245 89.16858435681206,150.67557872628822 89.0987718164397,150.64521652779513 88.42857142857974,150.43268088499462 88.31687136393157,150.3643657628054 88.27498383968486,150.30364117130375 88.23309631543816,150.28086944015377 88.19120879119146,150.21255421618116 88.15630252100527,150.19737304909358 88.07950872657239,150.17460129418032 87.70950226244167,150.12146717964788 87.63270846800879,150.09869540778163 87.5559146735468,150.05315184879146 87.50704589529778,150.06074244336924 87.30458952812478,149.98483647214744 87.21383322557085,149.93929286226194 86.948545572086,149.84061497102084 86.91363930187072,149.81025252372638 86.72514544278965,149.74952760199812 86.5017453134933,149.7191651275498 86.20853264382458,149.7191651275498 86.07588881708216,149.74193698423187 85.97815126049682,149.74193698423187 85.89437621203251,149.76470883582806 85.87343244990916,149.79507129669219 85.71984486101428,149.72675574701134 85.6081447963661,149.70398388693138 85.34983839688357,149.72675574701134 85.1962508080178,149.7191651275498 84.9937944408448,149.68121202178008 84.21189398833667,149.66603077550099 84.07925016159425,149.64325890186592 83.96056884291465,149.63566827617615 83.72320620555547,149.6584401515138 83.36018099545618,149.63566827617615 83.19263089849846,149.64325890186592 83.15772462831228,149.63566827617615 83.08093083387939,149.6584401515138 82.94828700710787,149.62807764994795 82.77375565611874,149.6128963957526 82.55035552685149,149.63566827617615 82.42469295411138,149.6128963957526 82.33393665161566,149.62807764994795 82.21525533290696,149.62048702312313 82.13148028444266,149.64325890186592 81.74751131222001,149.59771513932355 81.38448610214982,149.59012451022863 81.34957983193453,149.60530576781457 81.26580478347023,149.59771513932355 81.15410471882205,149.58253388058802 81.11919844860677,149.55976198828284 80.79107950872276,149.55976198828284 80.51182934711687,149.53699009089905 80.3163542340044,149.55217135640123 80.0371040723985,149.54458072394482 79.53445378149627,149.59771513932355 79.35992243050714,149.57494325040898 79.17142857142608,149.58253388058802 79.12255979314796,149.56735261962604 79.00387847446837,149.58253388058802 78.87821590172825,149.56735261962604 78.71764705880196,149.52180882315588 78.46632191337994,149.50662755312078 77.83102779573528,149.51421818841482 77.60064641240751,149.50662755312078 77.55875888816081,149.51421818841482 77.2306399482768,149.47626500630577 77.16082740787533,149.4914462808374 77.09101486747386,149.47626500630577 76.87459599223803,149.49903691727377 76.44873949579778,149.50662755312078 76.40685197155108,149.4914462808374 76.32307692308677,149.49903691727377 76.23232062053285,149.48385564385535 75.83438914024737,149.46867436819593 75.50627020039246,149.49903691727377 75.31079508725088,149.55217135640123 74.75927601807052,149.59771513932355 74.14492566254921,149.6736213989352 74.04020685196156,149.7115745075207 73.92850678731338,149.7191651275498 73.30019392372924,149.87097740928584 73.09773755655624,149.90893044436962 73.06981254037237,149.9241116544581 73.04886877824902,149.95447406783205 73.04886877824902,150.0227894648342 73.03490627018618,150.05315184879146 73.0,150.0683330373795" stroke="#4dd2ff" stroke-linecap="round" stroke-linejoin="round" stroke-width="0.5"><title>2023-03-18 12.0km</title></polyline><polyline fill="none" points="187.0,142.15295837245503 186.93460207612952,142.15295837245503 186.88788927340647,142.13264123322006 186.77577854675474,142.15295837245503 186.62629757786635,142.23422689904692 186.55155709339306,142.31549537721003 186.50484429067,142.40692235720053 186.29930795851396,142.6812029293069 186.2432525951881,142.7116785143662 186.12179930799175,142.83358078645688 185.95363321801415,142.8945318816186 185.87889273359906,142.97579996613786 185.77612456749193,143.03675099769316 185.62664359860355,143.18912845742307 185.48650519031798,143.40245661488734 185.45847750868415,143.51419980221544 185.36505190312164,143.5446752010539 185.46782006922876,143.65641827183572 185.3370242214878,143.60562597829266 185.23425605538068,143.63610135669296 185.20622837374685,143.7884781464454 185.17820069205482,143.8291119283167 185.17820069205482,143.87990413857915 185.21557093429146,143.99164693454804 185.18754325259943,144.15418174703518 185.19688581314404,144.40814200357272 185.1595155709656,144.6214682534919 185.19688581314404,144.7738439418681 185.21557093429146,145.12938655250036 185.15017301042099,145.47476991498843 185.09411764709512,145.6474612680904 185.13148788933177,145.79983580976113 185.0754325260059,146.06395127856376 185.05674740480026,146.29759145909338 185.06608996540308,146.63281362746784 185.03806228376925,146.74455416708952 185.06608996540308,146.9578767611747 185.03806228376925,147.14072443330224 185.03806228376925,147.31341367627465 185.12214532872895,147.64863334703114 185.04740484431386,147.8213219467143 185.04740484431386,147.97369405888458 185.0006920415326,148.0752753724082 185.0100346020772,148.4815998697086 185.0006920415326,148.5425484398802 184.97266435989877,148.58318080484605 184.96332179935416,148.5323903467288 184.96332179935416,148.5933388941994 184.9166089965729,148.50191606281442 184.86055363324704,148.51207415819954 184.8418685120996,148.61365507062146 184.8418685120996,149.07076824004616 184.78581314877374,149.58882797950355 184.80449826992117,150.29988716224761 184.7484429065953,150.51320419403055 184.7577854671399,150.60462567692593 184.71107266435865,150.86873183876014 184.72975778550608,151.33599533360393 184.69238754326943,152.0572032371565 184.72041522490326,152.0978345548574 184.70173010381404,152.13846586044383 184.68304498272482,152.6666717314074 184.61764705885435,153.02219376184803 184.61764705885435,153.73323504229484 184.54290657443926,154.3325383852498 184.56159169552848,154.3731690250279 184.54290657443926,154.6982137076193 184.5709342560731,155.34830074873753 184.52422145329183,155.93743945324968 184.53356401383644,156.03901483475784 184.52422145329183,156.15074766706675 184.47750865051057,156.24216537083703 184.4214532871847,156.82114273863408 184.38408304500626,156.91255999309942 184.38408304500626,157.0039771863012 184.34671280276962,157.18681138886313 184.3186851211358,157.58295132034982 184.34671280276962,157.77594215222052 184.45882352942135,157.79625696074072 184.496193771658,157.8165717662414 184.496193771658,157.86735876677994 184.44013840833213,157.86735876677994 184.46816608996596,157.8165717662414 184.496193771658,157.85720136816963 184.46816608996596,157.71499770849914 184.53356401383644,157.51184936606296 184.59896193770692,157.44074737472693 184.59896193770692,157.38996021539788 184.53356401383644,157.15633903878188 184.47750865051057,157.11570922809187 184.37474048446165,157.14618158724625 184.3280276816804,157.1360241349248 184.36539792391704,157.1664964895608 184.68304498272482,157.1360241349248 184.7577854671399,157.11570922809187 185.1688581315102,157.1360241349248 185.38373702421086,157.08523686213448 185.48650519031798,157.04460703026416 185.60795847757254,157.0547644893595 185.72006920416607,157.01413464843063 185.9069204152329,156.99381972340052 186.06574394466588,157.0039771863012 186.11245674744714,156.96334733020922 186.11245674744714,156.91255999309942 186.14048442908097,156.86177263705758 186.0003460207954,156.8820875817546 185.86020761250984,156.8820875817546 185.7574394463445,156.84145768937015 185.71072664362146,156.8109852621419 185.68269896192942,156.75004038724728 185.64532871969277,156.53673311068997 185.5892733564251,156.52657561303204 185.54256055364385,156.49610311543802 185.43979238753673,156.4859456147169 185.05674740480026,156.53673311068997 184.8231833910104,156.59767808089964 184.76712802768452,156.63830804589088 184.60830449825153,156.6586230238463 184.56159169552848,156.68909548511874 184.51487889274722,156.70941045554355 184.47750865051057,156.6586230238463 184.4121107266983,156.62815055579995 184.36539792391704,156.64846553525422 184.30934256059118,156.62815055579995 184.28131487889914,156.58752058774553 184.1692041523056,156.57736309386382 183.96366782009136,156.63830804589088 183.71141868515406,156.67893799879675 183.27231833914993,156.6992529707204 182.85190311417682,156.76019786827237 182.60899653978413,156.76019786827237 182.35674740484683,156.79067030685837 181.94567474047653,156.90240252341027 181.70276816614205,156.92271746203187 181.65605536330258,156.91255999309942 181.5719723183429,156.84145768937015 181.31038062286098,156.78051282810338 180.69377162627643,156.75004038724728 180.63771626295056,156.76019786827237 180.29204152250895,156.75004038724728 179.9930795847904,156.77035534856986 179.8249134948128,156.76019786827237 179.31107266433537,156.6992529707204 179.19896193768363,156.70941045554355 179.04948096885346,156.68909548511874 178.9280276816571,156.6992529707204 178.64775086508598,156.66878051170352 178.54498269897886,156.62815055579995 178.4235294117825,156.62815055579995 178.31141868513077,156.61799306490138 178.18996539793443,156.6586230238463 178.06851211073808,156.61799306490138 177.71349480969366,156.63830804589088 177.60138408310013,156.66878051170352 177.23702422145288,156.6586230238463 176.7605536332121,156.75004038724728 176.51764705881942,156.73988290545094 176.4148788927705,156.76019786827237 176.26539792388212,156.73988290545094 174.8266435986152,156.77035534856986 174.5743944636779,156.73988290545094 173.7429065743927,156.77035534856986 172.668512110773,156.71956793958816 172.4910034601926,156.73988290545094 171.94913494813954,156.71956793958816 171.77162629761733,156.70941045554355 171.56608996540308,156.60783557328978 171.20173010387225,156.60783557328978 171.09896193770692,156.57736309386382 170.88408304500626,156.58752058774553 170.837370242225,156.62815055579995 170.77197231835453,156.63830804589088 170.61314878897974,156.64846553525422 169.87508650519885,156.51641811457375 169.64152249135077,156.52657561303204 169.26782006921712,156.4859456147169 169.16505190311,156.49610311543802 168.987543252646,156.47578811326093 168.64186851214617,156.51641811457375 168.47370242216857,156.47578811326093 168.2588235294097,156.47578811326093 168.1653979239054,156.4859456147169 168.04394463665085,156.46563061104825 167.93183391005732,156.4859456147169 167.62352941179415,156.4859456147169 167.51141868514242,156.50626061539515 167.18442906579003,156.45547310806433 167.03494809690164,156.40468558184511 166.82006920414278,156.29295295758493 166.54913494811626,156.31326798698137 166.44636678200914,156.35389803669386 165.78304498270154,156.28279544172983 165.31591695506359,156.2320078512421 164.81141868518898,156.14059014061786 164.26020761247491,156.07964496617205 164.1667820069706,156.03901483475784 163.9892733564484,156.0288573000289 163.36332179931924,155.95775453560782 163.19515570939984,155.98822715346614 162.9242214533151,155.90696682404086 162.55051903118147,155.85617909360008 162.23287197231548,155.7952337920724 161.9152249135077,155.77491868547077 161.55086505191866,155.7038157887 161.11176470591454,155.66318554533063 160.5792387544061,155.60224015756103 160.48581314878538,155.6327128548437 160.43910034606233,155.73428846329625 160.5698961938033,155.82570644623775 160.61660899652634,155.82570644623775 160.6539792388212,155.85617909360008 160.62595155712916,155.8968092794821 160.51384083047742,155.90696682404086 160.48581314878538,155.947596994818 160.28027681662934,155.92728191096103 160.18685121106682,155.95775453560782 160.14013840834377,155.947596994818 160.09342560556252,155.9679120756482 160.00934256060282,156.05932990198926 159.85986159171443,156.14059014061786 159.71038062282605,156.13043261344865 159.5889273356879,156.07964496617205 159.47681660903618,155.90696682404086 159.47681660903618,155.83586399610795 159.61695501732174,155.947596994818 159.8318339100224,155.95775453560782 159.87854671286186,155.98822715346614 159.9252595155849,155.9780696149246 160.10276816610713,156.19137776519347 160.1681660899776,156.22185033086134 160.3269896194106,156.20153528783703 160.4204152249149,156.13043261344865 160.4951557093882,155.9171243678793 160.51384083047742,155.81554889558174 160.45778546715155,155.7850762391463 160.36435986164724,155.61239772407134 160.26159169554012,155.57176745347533 160.14948096888838,155.5616098839164 159.96262975782156,155.50066445076664 159.81314878893318,155.4803493003128 159.76643598615192,155.4905068759399 159.3366782006924,155.4295614109942 159.10311418690253,155.40924624996842 158.3276816609432,155.1857792789524 158.05674740485847,155.13499127991963 157.53356401389465,154.95215432684927 157.47750865056878,154.9623119417738 157.39342560555087,154.92168147749908 157.02906574396184,154.8302628886231 156.85155709343962,154.75915949935006 156.1602076124982,154.5864796853566 155.6557093425654,154.4442726155321 155.60899653978413,154.41379965273518 155.5062283737352,154.4036419969343 155.15121107263258,154.2512770693429 154.86159169551684,154.19033105066774 154.4131487889681,153.96686208240135 153.9927335640532,153.87544285350305 153.7498269896605,153.8449697635806 153.60968858131673,153.81449666685512 153.55363321799086,153.78402356331208 152.86228373704944,153.67228879208415 152.68477508652722,153.61134251464682 152.62871972320136,153.6011847990958 152.44186851213453,153.46913442803634 152.22698961937567,153.38787259765377 152.13356401387136,153.32692619313457 152.04013840830885,153.3370839291165 151.72249134950107,153.2558220200881 151.34878892736742,153.23550653525308 151.03114186850144,153.18471780991968 150.83494809689,153.18471780991968 150.2557093425421,153.14408681607165 150.12491349480115,153.16440231451998 149.96608996542636,153.1339290657197 149.71384083048906,153.15424456567416 149.5830449827481,153.16440231451998 149.2560553633375,153.26597976134508 149.20934256055625,153.26597976134508 149.05986159172608,153.32692619313457 148.90103806229308,153.3370839291165 148.7422145329183,153.46913442803634 148.47128027683357,153.6011847990958 148.35916955018183,153.62150022943388 148.28442906576674,153.69260421182116 147.95743944641436,153.8449697635806 147.71453287196346,153.98717745829344 147.28477508656215,154.17001570502907 147.12595155712916,154.22080406339956 147.0698961938033,154.21064639325778 146.96712802775437,154.2512770693429 146.9110726644285,154.34269604632573 146.86435986158904,154.34269604632573 146.26643598621013,154.66774080153118 145.96747404843336,154.73884423846175 145.93010380625492,154.76931712867372 145.90207612456288,154.8708933801463 145.90207612456288,154.82010526383965 145.93010380625492,154.77947475721157 146.02352941181744,154.74900186927698 146.05155709345127,154.70837134146132 145.9955017301254,154.70837134146132 145.94878892734414,154.72868660688255 145.94878892734414,154.78963238500728 145.9861591695808,154.8302628886231 146.0889273356879,154.82010526383965 146.14498269901378,154.85057813587628 145.668512110773,154.94199671116075 145.48166089970618,154.92168147749908 145.42560553638032,154.94199671116075 144.79031141870655,154.93183909469371 144.19238754326943,154.85057813587628 143.71591695508687,154.70837134146132 143.5851211072877,154.6575831646478 143.62249134946615,154.62711024948658 143.65051903115818,154.5052185207678 143.62249134946615,154.39348434041312 143.5757785467431,154.35285370665952 143.2487889273325,154.18017337822675 143.1740484429174,154.09891197153047 143.03391003463184,154.00749283115147 142.92179930803832,153.98717745829344 142.88442906574346,153.96686208240135 142.8377162630204,153.9567043933348 142.6508650519536,153.87544285350305 142.34256055369042,153.78402356331208 142.29584775090916,153.8043389664308 142.18373702419922,153.78402356331208 141.95951557095395,153.8043389664308 141.30553633219097,153.81449666685512 141.13737024221336,153.8043389664308 140.9224913495127,153.77386586061039 140.81038062286098,153.78402356331208 140.5020761245978,153.75355045295873 140.28719723183895,153.77386586061039 140.2498269896605,153.8043389664308 140.22179930796847,153.96686208240135 140.13771626300877,154.05828125004336 139.48373702424578,154.05828125004336 139.5117647058796,154.09891197153047 139.39031141874148,154.00749283115147 139.36228373704944,154.09891197153047 139.29688581317896,154.09891197153047 139.18477508652722,154.02780820096814 139.0820069204783,153.99733514508262 138.95121107273735,154.00749283115147 138.95121107273735,154.04812356777256 137.77404844295233,153.46913442803634 137.8394463668228,153.55039620996104 137.87681660900125,153.72307733580237 137.68062283738982,153.73323504229484 137.5778546712827,153.77386586061039 137.53114186855964,153.74339274800877 137.4190311419079,153.763708157152 137.2508650519303,154.42395730774297 137.29757785471156,153.8043389664308 137.2508650519303,153.82465436651546 137.20415224914905,153.7941812652425 137.18546712805983,153.8449697635806 137.02664359862683,153.89575824298663 136.97058823530097,153.9567043933348 136.86782006925205,153.94654670350428 136.7557093426003,153.9567043933348 136.69965397927444,153.94654670350428 136.44740484433714,153.99733514508262 136.26055363327032,154.10906965003232 136.10173010383733,154.1497003563927 136.04567474051146,154.1497003563927 135.80276816611877,154.22080406339956 135.70000000006985,154.27159240285255 135.53183391003404,154.22080406339956 135.38235294120386,154.24111940144212 135.22352941182908,154.20048872232292 134.8404844290926,154.24111940144212 134.7470588235301,154.21064639325778 134.60692041524453,154.2512770693429 134.51349480974022,154.20048872232292 134.56955017300788,154.20048872232292 134.54152249137405,154.1598580311038 134.51349480974022,154.20048872232292 134.46678200695897,154.1598580311038 134.51349480974022,154.17001570502907 134.55086505191866,154.13954268091766 134.59757785469992,154.1598580311038 134.6629757785704,154.13954268091766 134.70034602080705,154.11922732776293 134.8217993080034,154.08875429230102 134.87785467132926,154.05828125004336 134.88719723181566,153.99733514508262 134.85916955024004,153.9567043933348 134.70968858135166,153.92623132158042 134.56020761252148,153.9770197707403 134.45743944641436,153.9567043933348 134.4200692041777,153.98717745829344 134.20519031147705,154.04812356777256 133.999653979321,154.00749283115147 133.88754325261107,154.0176505164418 133.85017301037442,153.98717745829344 133.60726643598173,153.89575824298663 133.45778546715155,153.75355045295873 133.34567474049982,153.68244650234556 133.2522491349955,153.56055392927374 133.13079584774096,153.32692619313457 133.09342560562072,153.29645298064133 133.06539792392869,153.12377131461108 133.0,152.99172048126638 133.02802768169204,152.8495117485072 133.00934256060282,152.7479339915153 133.14948096888838,152.27051751999534 133.26159169554012,152.08767672657996 133.3363321799552,152.0165719073775 133.61660899658455,151.84388862067863 133.70069204154424,151.78294152610033 133.7567474048701,151.77278367437975 134.0930795847671,151.63057367048896 134.1491349481512,151.48836351834325 134.05570934258867,151.45788989501307 133.96228373702615,151.478205644642 133.98096885811538,151.43757414235006 134.22387543256627,151.33599533360393 134.4107266436331,151.2953637889077 134.51349480974022,151.23441644918057 134.6629757785704,151.18362697858538 134.97128027683357,150.94999517026736 134.98062283743639,150.88904767618806 135.01799307967303,150.86873183876014 135.12076124572195,150.70620503047394 135.2422145329183,150.57415185609716 135.29826989624416,150.43194060221867 135.3356401384226,150.3913087881374 135.36366782005643,150.29988716224761 135.35432525957003,150.2389393775884 135.36366782005643,150.12720170162356 135.42906574398512,150.05609586013452 135.4197231833823,150.00530595068994 135.38235294120386,149.9646740094904 135.43840830452973,149.88341009077703 135.47577854670817,149.86309410353715 135.64394463674398,149.93420004565996 135.70934256061446,149.93420004565996 135.76539792394033,149.95451602232788 135.821453287208,149.93420004565996 136.0083044982748,149.94435803435772 136.12041522492655,149.92404205619096 136.26055363327032,149.94435803435772 136.4193771627033,150.09672777410742 136.53148788929684,149.9951479665324 136.5782006920781,149.61930202052463 136.64359861594858,149.47708977078582 136.72768166090827,149.39582556150708 136.6716262975824,149.32471933866327 136.21384083048906,149.07076824004616 136.13910034601577,149.04029407641792 136.06435986160068,149.05045213173435 135.96159169555176,149.0809262930852 135.70934256061446,149.04029407641792 135.72802768170368,148.9488715447078 135.69065743946703,148.9082392886994 135.6719723183778,148.77618437309138" stroke="#4dd2ff" stroke-linecap="round" stroke-linejoin="round" stroke-width="0.5"><title>2023-02-25 12.5km</title></polyline><polyline fill="none" points="67.0,252.2945029460825 64.63749999925494,252.66150207538158 59.23750000074506,250.45950688561425 55.86250000074506,247.15651225438341 55.86250000074506,240.91751634702086 45.73750000074506,235.04551297752187 37.30000000074506,232.10950866620988 36.624999998137355,232.47650930052623 35.27500000037253,231.00850659701973 32.91249999962747,231.00850659701973 30.549999998882413,232.10950866620988 27.174999998882413,231.3755073142238 24.8125,231.74250800348818 19.074999999254942,228.8065017219633 18.062500001862645,229.17350260308012 18.737500000745058,230.27450508158654 19.41249999962747,229.54050345579162 16.037500001490116,227.33849792461842 14.349999999627471,227.70549891516566 13.0,229.17350260308012" stroke="#4dd2ff" stroke-linecap="round" stroke-linejoin="round" stroke-width="0.5"><title>2022-10-26 2.2km</title></polyline><polyline fill="none" points="127.0,245.83474674756872 126.9138068635948,245.03806700528366 126.78451715875417,244.85061280155787 125.70710295299068,244.4757042263518 125.44852354354225,244.24138625332853 124.58659217879176,243.96020457032137 124.15562649653293,243.67902276164386 123.68156424583867,244.00706819287734 122.73343974468298,243.86647731479025 122.13008778938092,243.4447044916451 121.91460494836792,243.49156815255992 121.69912210688926,243.39784082723781 121.31125299283303,242.97606768953847 121.05267358361743,242.50743053806946 120.75099760573357,242.41370306588942 120.53551476472057,242.50743053806946 119.37190742231905,242.13252056535566 119.11332801287062,242.2262480794452 118.25139664812014,241.28897230909206 117.77733439742588,240.679742309032 117.21707901032642,240.11737563094357 116.87230646470562,239.92991995974444 116.35514764580876,239.83619210321922 115.70869912207127,239.3675526107545 114.50199521146715,238.85204876569333 113.85554668796249,238.28968045231886 112.9074221868068,237.9147679640446 111.65762170776725,236.93062161811395 110.70949720684439,236.69630083243828 110.23543495615013,236.50884414109169 108.77015163633041,235.4778313388233 108.33918595360592,235.4778313388233 107.90822027157992,235.05605288693914 107.86512370314449,235.24351001169998 107.95131683978252,235.4778313388233 107.77893056673929,235.99333795136772 107.82202713494189,235.57155984541168 107.43415802088566,235.14978145627538 106.39984038309194,234.63427415199112 106.09816440544091,234.25935948325787 105.02075019944459,233.41580066108145 104.1588188346941,232.9002919346094 103.9433359936811,232.4316472710343 103.64166001579724,232.15046030504163 102.99521149252541,231.8692732132622 101.9608938547317,231.11944035370834 100.06464485242032,230.08841871120967 99.46129289711826,229.2448542911443 99.0734237828292,228.9168011553702 97.22027134895325,228.2138295734767 97.00478850770742,228.02637035225052 95.9704708699137,227.60458689986262 95.10853950516321,226.94847874483094 94.37589784525335,226.6672893257928 93.98802873119712,226.7141542377649 92.52274541114457,227.1828031645855 92.09177972865291,227.13593828765443 90.79888268164359,226.6204244105029 90.32482043118216,226.2455049615237 90.1524341579061,226.2923699048697 89.54908220260404,226.01118019229034 88.85953711112961,225.58939538762206 88.55786113324575,225.30820536066312 86.44612928968854,224.4177694451064 85.92897047102451,224.3240392752923 83.77414205903187,223.5273322678986 83.42936951317824,224.04284868214745 82.86911412607878,224.46463452471653 82.73982442147098,224.88642008422175 82.52434158022515,225.027015207801 81.57621707906947,225.30820536066312 80.9728651237674,225.82372031413252 80.8435754191596,226.2923699048697 81.40383080602624,229.2448542911443 81.23144453321584,230.46333586773835 81.10215482860804,230.65079436218366 80.88667198712938,230.69765897718025 78.8180367120076,230.55706512206234 77.48204309656285,230.2758773174137 76.62011173204519,229.94782471976941 76.01675977674313,229.38544843980344 74.59457302489318,228.7293421436916 74.24980047903955,228.9636658995296 73.34477254585363,229.38544843980344 73.0,229.8540953747579 73.0,230.36960659961915 73.43096568225883,231.4006277808803 74.68076616129838,233.22834299132228 74.93934557074681,233.18147856509313 75.41340782120824,232.7128341110656 75.97366320854053,232.3379182962817 76.49082202720456,232.29105380375404 77.43894652859308,232.52537623164244 77.74062250601128,232.38478278531693 78.21468475670554,232.52537623164244 78.8611332802102,233.22834299132228 79.33519553067163,234.86859570635715 79.93854748597369,236.1339305904694 81.01596169220284,237.6804475451354 81.01596169220284,238.2428164035664 81.70550678367727,238.47713661257876 83.34317637677304,239.6018724006717 84.2482043094933,239.74246423266595 85.15323224267922,239.46128053724533 86.01516360742971,238.80518475873396 86.40303272171877,238.28968045231886 86.74780526733957,238.1022242361214 88.16999201918952,239.03950475825695 88.81644054269418,239.6018724006717 88.94573024753481,239.88305603328627 88.64405426988378,241.57015518698609 88.81644054269418,242.0856568031013 88.90263367933221,243.16352245223243 89.50598563463427,244.24138625332853 90.32482043118216,245.03806700528366 91.22984836390242,245.08493054745486 92.35035913810134,244.7100221120636 93.81564245792106,243.7258864052128 94.07422186736949,243.4447044916451 94.54828411829658,243.25724981271196 95.36711891461164,244.14765903970692 96.01356743834913,245.08493054745486 96.09976057475433,245.27238468133146 95.9273743017111,245.9753371856059 96.40143655240536,247.24064971215557 96.61691939365119,247.28751309012296 97.69433359941468,247.05319616524503 98.85794094158337,247.146922945627 100.36632083007134,247.70928333490156 101.44373503583483,248.2716432212037 102.60734237846918,248.59968625579495 102.82282521948218,248.8340026041842 103.03830806072801,249.34949826344382 102.99521149252541,249.77126712474274 103.21069433377124,250.42735145770712 103.29688746994361,251.3177505286294 103.25379090174101,252.2081483383663 103.46927374321967,252.6299152817228 103.9433359936811,252.9579560420243 104.24501197156496,252.91109308670275 104.63288108538836,252.6299152817228 105.10694333608262,251.6926550232456 105.27932960889302,250.47421459818725 105.71029529138468,249.72440393199213 105.92577813263051,249.02145562012447 105.92577813263051,248.22477991651976 106.18435754207894,247.70928333490156 106.27055067848414,247.146922945627 106.18435754207894,246.7720157400472 106.48603351949714,246.0222006579279 107.13248204323463,245.55356577743078 107.60654429369606,245.50670227012597 107.95131683978252,245.27238468133146 108.81324820430018,245.2255211531883 109.07182761374861,244.99120345967822 109.11492418195121,244.42884063866222 109.58898643264547,243.16352245223243 109.8906624102965,241.80447415582603 110.14924181974493,241.24210848397342 110.14924181974493,240.72660617611837 109.50279329624027,240.21110344544286 109.02873104554601,239.5550084496499 107.95131683978252,238.85204876569333 107.52035115729086,238.75832074834034 107.17557861143723,238.38340853946283 107.13248204323463,238.00849610712612 107.003192338394,237.49299114733003 107.39106145268306,236.93062161811395 107.60654429369606,235.75901681632968 106.65841979254037,234.7748670951114 106.31364724668674,234.58740983059397 105.71029529138468,233.884444590949 105.15003990428522,233.36893624893855 104.46049481257796,232.9471563817351 103.68475658423267,232.15046030504163 103.08140462893061,231.8692732132622 102.26256983261555,231.2600340830395 101.8747007183265,231.16630493372213 101.65921787708066,230.88511740165995 100.45251396647654,230.2758773174137 98.8148443736136,229.0105306401383 98.16839585010894,228.77620690187905 96.0566640063189,227.51085720548872 94.33280127681792,226.7141542377649 93.98802873119712,226.7141542377649 93.212290502619,226.80788405105704 92.69513168395497,226.94847874483094 91.96249002404511,227.0422085232567 90.41101356735453,226.43296471389476 89.37669592979364,225.7768553358037 89.07501995214261,225.72999035392422 88.29928172379732,225.91745026025455 87.60973663209006,225.87058528885245 86.27374301687814,225.26134034380084 84.63607342378236,224.69895987043856 84.07581803691573,224.65209480834892 82.69672785326838,224.93328512879089 81.66241021547467,225.21447532367893 80.9728651237674,225.4956653926638 80.67118914588355,225.87058528885245 80.58499600947835,226.2923699048697 81.40383080602624,229.15112484118436 81.1883479647804,230.60392974381102 80.7573822827544,231.16630493372213 80.24022346385755,232.4785117530264 80.06783719081432,233.18147856509313 80.02474062261172,234.54054550570436 80.58499600947835,236.04020216793288 81.36073423805647,236.88375746796373 81.70550678367727,237.6804475451354 82.0071827613283,238.05536017328268 81.9209896249231,238.19595235126326 81.01596169220284,238.47713661257876 79.55067837191746,239.3206886423868 79.37829209910706,240.11737563094357 79.11971268965863,240.4454229209805 79.24900239426643,241.05465314822504 79.98164405440912,241.94506549520884 80.49880287330598,242.8354765807744 81.49002394266427,245.3661117273732 81.53312051086687,246.30338141846005 81.10215482860804,247.6155566383386 80.67118914588355,248.03732666303404 80.28332003206015,248.22477991651976 78.990422984818,248.36536981991958 76.74940143665299,248.45909640478203 76.40462889056653,248.88086586340796 76.36153232259676,249.6306775357807 76.44772545900196,250.38048831373453 76.96488427789882,250.70853024790995 77.86991221061908,251.08343510591658 78.8611332802102,251.83324415108655 80.15403032721952,252.25501134601654 80.45570630487055,252.44246334175114 80.7573822827544,253.19227076601237 81.44692737422884,254.3638430760475 81.44692737422884,254.64502010552678 81.6193136475049,255.1136482085567 81.9640861931257,255.30109935207292 82.48124501202255,256.0509033667622 83.25698324013501,256.3789423419512 83.9465283320751,256.4726677321014 84.46368715097196,256.3789423419512 85.06703910627402,256.14462880580686 85.92897047102451,255.25423657143256 86.70470869913697,253.47344831965165 87.56664006388746,252.6767782580573 87.65283320029266,252.5361893188092 87.52354349568486,252.44246334175114 87.95450917794369,252.0675592943444 88.29928172379732,252.0206962726661 88.85953711112961,251.6926550232456 90.1524341579061,251.36461360263638 91.35913806874305,250.7553933673771 92.09177972865291,249.8649935000576 92.56584197934717,249.02145562012447 92.8675179569982,248.45909640478203 92.8675179569982,248.03732666303404 93.212290502619,247.4749665671843 94.20351157221012,247.3343764647725 94.80686352751218,247.5218299278058 95.15163607336581,247.5218299278058 96.0566640063189,247.24064971215557 96.40143655240536,247.28751309012296 96.78930566646159,247.146922945627 98.08220271370374,247.00633276969893 99.28890662430786,247.24064971215557 99.67677573836409,247.56869328476023 100.58180367108434,247.8030100176693 100.8834796489682,248.13105329679092 102.00399042316712,248.7871393415262 102.90901835588738,248.7871393415262 103.51237031118944,248.50595969188726 104.1157222664915,247.66241998842452 104.58978451718576,245.9753371856059 104.46049481257796,244.52256781049073 104.54668794898316,243.91334094427293 105.06384676788002,243.0229313853779 105.88268156419508,242.31997557968134 106.35674381488934,241.7107465787558 106.35674381488934,240.91406160971383 106.09816440544091,240.35169514117297 105.10694333608262,239.18009671603795 104.24501197156496,238.8989127689856 103.7709497208707,238.52400064404355 103.08140462893061,237.58671935321763 102.65043894667178,236.18079479661537 102.00399042316712,235.57155984541168 101.52992817247286,235.33723855298012 100.9265762171708,235.3841028183815 100.36632083007134,235.57155984541168 100.15083798882551,235.75901681632968 98.85794094158337,236.3213873936329 98.47007182775997,236.4151157743181 97.09098164411262,236.50884414109169 96.57382282521576,236.46197995945113 96.18595371115953,236.3213873936329 95.53950518742204,235.6652883377974 94.28970470861532,233.60325827490306 92.8244213887956,232.29105380375404 92.26416600169614,231.9630022579222 91.70391061459668,231.3068986525177 90.97126895445399,230.13528336794116 90.84197925007902,229.38544843980344 90.71268954500556,229.15112484118436 90.75578611320816,228.7293421436916 90.62649640860036,228.63561261701398 90.28172386274673,228.49501830060035 89.54908220260404,228.82307165657403 88.77334397449158,228.9168011553702 88.21308858739212,229.104260111053 87.99760574637912,229.38544843980344 87.43735035927966,231.58808599581243 87.006384676788,232.85342748399125 87.39425379107706,234.91546000668313 87.0925778131932,237.1649423164199 87.48044692748226,238.00849610712612 87.95450917794369,238.52400064404355 88.34237829223275,238.75832074834034 89.07501995214261,239.64873634820106 89.07501995214261,240.11737563094357 88.94573024753481,240.8203338998719 88.51476456527598,241.6170189876575 88.60095770168118,242.7417491574888 88.81644054269418,243.35097715916345 89.41979249799624,243.96020457032137 89.54908220260404,244.42884063866222 89.9369513168931,244.85061280155787 90.45411013578996,245.1786576214363 91.91939345584251,244.9443399104639 92.43655227450654,244.7100221120636 93.03990423004143,244.3819770476548 94.11731843580492,243.49156815255992 94.63447725470178,243.35097715916345 95.49640861945227,244.4757042263518 95.8411811653059,244.8974763576989 96.0566640063189,246.0222006579279 96.44453312060796,246.72515232366277 96.74620909825899,247.05319616524503 97.17717478051782,246.959469370835 97.30646448535845,247.05319616524503 97.65123703121208,247.00633276969893 97.65123703121208,247.05319616524503 97.9098164406605,247.00633276969893 98.38387869112194,247.146922945627 99.46129289711826,247.19378633075394 100.23703112523071,247.56869328476023 101.65921787708066,248.31850652227877 101.9608938547317,248.55282297555823 102.43495610519312,248.6465495324228 102.69353551464155,248.6934128056164 103.55546687939204,248.36536981991958 103.98643256211653,247.89673668623436 104.1588188346941,247.24064971215557 104.58978451718576,246.6314254802419 104.67597765359096,245.83474674756872 104.50359138078056,244.3351134529803 104.67597765359096,243.63215911458246 105.15003990428522,242.97606768953847 105.88268156419508,242.46056680369657 106.52913008793257,241.80447415582603 107.34796488424763,241.94506549520884 108.46847565844655,242.60115799627965 109.24421388679184,242.46056680369657 109.37350359139964,241.89820171881001 110.0199521149043,240.8203338998719 110.0199521149043,240.5860145642655 109.63208300084807,240.21110344544286 108.33918595360592,239.133232733584 107.56344772549346,238.85204876569333 107.13248204323463,238.52400064404355 107.26177174784243,237.9147679640446 106.9169992019888,237.58671935321763 106.8739026337862,237.39926292741438 107.47725458885543,236.93062161811395 107.99441340775229,235.6652883377974 108.20989624899812,235.52469559380552 108.42537909024395,235.57155984541168 108.81324820430018,235.3841028183815 109.50279329624027,235.8527452807757 109.8906624102965,235.9464737313101 110.40782122896053,236.36825158580905 110.88188347965479,236.46197995945113 111.39904229831882,236.64943666488398 111.70071827620268,236.93062161811395 112.51955307251774,237.1649423164199 112.8212290504016,237.63358345103916 113.38148443726823,238.1022242361214 114.88986432575621,238.99264076532563 115.14844373520464,239.27382467046846 115.57940941746347,239.3206886423868 116.01037509995513,239.5550084496499 116.69992019142956,239.64873634820106 116.74301675986499,239.74246423266595 117.17398244212382,239.97678388276836 117.34636871516705,240.25796734762844 117.7342378294561,240.30483124620514 117.9928172386717,240.16423953993944 117.9497206704691,240.35169514117297 118.0359138068743,240.4454229209805 118.25139664812014,240.4454229209805 118.8116520352196,240.72660617611837 119.58739026356488,241.57015518698609 121.44054269744083,242.41370306588942 121.52673583407886,242.8354765807744 121.91460494836792,243.21038613427663 123.29369513178244,243.67902276164386 123.9832402234897,243.49156815255992 124.2849162009079,243.7258864052128 125.06065442948602,244.00706819287734" stroke="#4dd2ff" stroke-linecap="round" stroke-linejoin="round" stroke-width="0.5"><title>2022-10-25 10.5km</title></polyline><polyline fill="none" points="187.0,233.91008601577778 186.6558388157864,233.82558445562609 186.47820723685436,233.81351280058152 186.27837171050487,233.97044424604974 186.16735197370872,234.127375539465 186.15625,234.22394856758183 186.13404605264077,234.27223505999427 185.98972039471846,234.46538088590023 185.9564144736505,234.54988211230375 185.93421052629128,234.57402531176922 185.75657894735923,234.68266966476222 185.6011513157864,234.73095602045942 185.27919407899026,234.8999581521348 184.8795230263495,235.05688854507753 184.76850328949513,235.12931790594303 184.64638157893205,235.26210498342698 184.6130756579223,235.35867733501073 184.6019736842136,235.4431780954328 184.46875,235.50353575446934 184.49095394741744,235.66046556273068 184.3910361842136,235.82946672468097 184.4021381578641,236.02261069387896 184.3355263157864,236.10711110798002 184.3244243421359,236.16746851963399 184.31332236842718,236.2640403315163 184.3355263157864,236.34854061968508 184.31332236842718,236.55375542177353 184.3244243421359,236.68654133167 184.28001644735923,236.86761285156535 184.30222039477667,236.92796997989353 184.22450657893205,237.15732686241972 184.21340460522333,237.3746120305732 184.22450657893205,237.44704035521136 184.1800986842136,237.70053923637897 184.24671052629128,237.8574669164227 184.2689144736505,238.07475114552653 184.24671052629128,238.31617772497702 184.22450657893205,238.36446299770614 184.20230263163103,238.52139003462798 184.22450657893205,238.64210303654545 184.1800986842136,238.75074466137448 184.14679276314564,239.12495414479054 184.09128289471846,239.33016543003032 184.09128289471846,239.41466411903093 184.15789473685436,239.49916276391014 184.23560855264077,239.7043735751795 184.23560855264077,239.7888720689807 184.28001644735923,240.2113638769515 184.24671052629128,240.35621795749466 184.2689144736505,240.476929592347 184.24671052629128,240.5131430652691 184.2578125,240.5734988354816 184.23560855264077,240.83906395733356 184.2689144736505,240.9477041089849 184.30222039477667,240.98391747669666 184.3244243421359,241.05634418783302 184.30222039477667,241.23741082397464 184.31332236842718,241.33397961386072 184.2578125,241.5150459397264 184.2689144736505,241.7564673928573 184.23560855264077,241.85303587336966 184.2578125,241.913391144466 184.2578125,242.17895407023025 184.22450657893205,242.37209047013312 184.23560855264077,242.50487161152705 184.1800986842136,242.86700144410133 184.20230263163103,243.04806605688646 184.16899671056308,243.12049184535863 184.1912006578641,243.15670472745842 184.14679276314564,243.28948522589053 184.16899671056308,243.37398185006168 184.13569078949513,243.45847843015508 184.1245888157864,243.53090403520036 184.15789473685436,243.59125868135015 184.1800986842136,243.73610974030453 184.15789473685436,243.88096066983417 184.1245888157864,243.90510247879138 184.14679276314564,243.90510247879138 183.95805921050487,243.7964643100131 183.78042763157282,243.92924428421247 183.59169407893205,243.95338608601014 183.4917763157864,244.00166967883706 183.44736842106795,244.04995325725758 183.35855263157282,244.11030771007063 183.31414473685436,244.11030771007063 183.22532894735923,244.1465203709231 183.11430921050487,244.1465203709231 182.98108552629128,244.1585912560986 182.7923519736505,244.2189456684282 182.65912828949513,244.29137093356985 182.53700657893205,244.29137093356985 182.4370888157864,244.32758355401165 182.17064144735923,244.3517252964666 181.94860197370872,244.40000877056445 181.7376644736505,244.56900081671483 181.78207236842718,244.49657567565737 181.69325657893205,244.49657567565737 181.68215460522333,244.4724339547829 181.56003289471846,244.5207173929375 181.2935855263495,244.54485910660878 181.24917763157282,244.56900081671483 181.11595394735923,244.56900081671483 180.79399671050487,244.65349677368067 180.68297697370872,244.6172842260712 180.08347039471846,244.79834688312258 179.80592105264077,244.83455939023406 179.43955592100974,244.91905520875298 179.38404605264077,244.9069843802281 179.30633223685436,244.9311260363611 179.28412828943692,244.95526768891432 179.17310855264077,244.99148016097024 178.82894736842718,245.0276926249353 178.58470394735923,245.0880467135721 178.50699013163103,245.13632996831439 178.45148026314564,245.1121883427404 178.31825657899026,245.14840077974077 178.17393092100974,245.13632996831439 177.9962993421359,245.1846132086648 177.91858552629128,245.1846132086648 177.8519736842136,245.2208256294689 177.53001644741744,245.26910884462995 177.45230263157282,245.2932504468481 177.40789473685436,245.41395840380574 177.3634868421359,245.43809998439974 177.3079769736505,245.43809998439974 176.84169407893205,245.5225954882044 176.5197368420777,245.64330327435164 176.43092105258256,245.64330327435164 176.3199013157864,245.70365713373758 176.08675986842718,245.75194020502386 175.98684210528154,245.76401097059716 175.8980263157864,245.7277986711706 175.72039473685436,245.7277986711706 175.17639802629128,245.81229402392637 174.6879111842136,245.81229402392637 174.4769736842136,245.83643554517766 173.921875,245.9571430975775 173.7886513157864,245.9450723463815 173.73314144735923,245.96921384785674 173.33347039471846,246.0174968400388 173.17804276314564,246.05370907472388 172.92269736842718,246.0778505600465 172.85608552629128,246.0174968400388 172.7339638157864,246.02956758583605 172.5896381579223,246.0174968400388 172.33429276320385,245.9450723463815 172.25657894735923,245.9450723463815 172.1011513157864,245.92093084129738 171.77919407893205,245.9812845972774 171.62376644735923,245.93300159428327 171.41282894735923,245.92093084129738 171.30180921056308,245.9571430975775 171.22409539477667,246.00542609333934 171.15748355264077,246.0174968400388 171.0464638157864,246.0899213013181 170.9021381578641,246.12613351982145 170.84662828949513,246.1623457302485 170.66899671056308,246.18648719940393 170.6245888157864,246.15027499437565 170.44695723685436,246.18648719940393 170.4025493421359,246.1623457302485 170.2027138157864,246.17441646527732 170.14720394735923,246.1623457302485 169.81414473685436,246.18648719940393 169.68092105264077,246.1623457302485 169.27014802629128,246.15027499437565 168.91488486842718,246.06577981781447 168.7261513157864,245.9450723463815 168.68174342100974,245.9450723463815 168.40419407893205,245.75194020502386 168.19325657893205,245.67951559266658 167.84909539471846,245.6070909479604 167.8046875,245.57087861346372 167.71587171056308,245.55880783349858 167.61595394735923,245.58294939252664 167.42722039477667,245.49845392021234 167.1052631578641,245.54673705264577 166.93873355258256,245.54673705264577 166.8277138157864,245.57087861346372 166.43914473685436,245.54673705264577 166.328125,245.57087861346372 166.23930921056308,245.55880783349858 166.1949013157864,245.54673705264577 166.15049342100974,245.51052470465947 166.0394736842136,245.49845392021234 166.0394736842136,245.47431234856776 165.9173519736505,245.49845392021234 165.8285361842136,245.4863831348339 165.45106907893205,245.38981681960286 165.3400493421359,245.38981681960286 165.24013157893205,245.3656752317911 165.04029605258256,245.3656752317911 164.95148026314564,245.34153364039958 164.640625,245.34153364039958 164.54070723685436,245.3053212465602 164.4296875,245.31739204539917 164.21875,245.26910884462995 164.12993421050487,245.20875482341216 163.93009868415538,245.23289643460885 163.88569078949513,245.2570380422112 163.69695723685436,245.54673705264577 163.59703947370872,245.7398694385338 163.5193256579223,245.80022326193284 163.3083881579223,245.82436478503223 163.11965460528154,245.81229402392637 162.83100328943692,245.8485063044791 162.68667763157282,245.83643554517766 162.62006578949513,245.8605770628783 162.3203125,245.81229402392637 162.02055921056308,245.80022326193284 161.92064144735923,245.76401097059716 161.50986842106795,245.76401097059716 161.4099506579223,245.7398694385338 161.29893092106795,245.66744482080685 161.15460526314564,245.46224156144308 160.99917763157282,245.1846132086648 160.83264802629128,245.17254239990143 160.5550986842136,245.2208256294689 160.3441611842136,245.23289643460885 159.91118421050487,245.1846132086648 159.82236842100974,245.20875482341216 159.46710526314564,245.12425915597123 159.3671875,245.0880467135721 159.31167763157282,245.00355098319415 159.3005756578641,244.94319686308154 159.26726973685436,244.9069843802281 159.15625,244.94319686308154 158.9453125,244.94319686308154 158.6011513157864,244.8707718892838 158.47902960522333,244.8707718892838 158.40131578949513,244.83455939023406 158.23478618415538,244.72592184458335 157.84621710528154,244.62935507616203 157.6019736842136,244.6172842260712 157.52425986842718,244.62935507616203 157.4576480263495,244.66556762106484 157.34662828949513,244.78627604561916 157.31332236836897,244.79834688312258 157.22450657893205,244.76213436789112 156.85814144735923,244.78627604561916 156.7582236842136,244.73799268659786 156.56949013157282,244.71385100166663 156.03659539477667,244.70178015787678 155.9255756578641,244.67763846756134 155.9144736842136,244.68970931317017 155.78125,244.6172842260712 154.97080592100974,244.4845048156567 154.81537828949513,244.49657567565737 154.71546052629128,244.54485910660878 154.515625,244.55692996209837 154.42680921050487,244.5207173929375 154.2935855263495,244.53278825023153 153.92722039471846,244.4724339547829 153.89391447370872,244.4845048156567 153.78289473685436,244.40000877056445 153.70518092106795,244.38793790337513 153.58305921050487,244.3396544256684 153.33881578949513,244.30344180794782 153.29440789471846,244.26722918210726 153.0279605263495,244.19480390621175 152.67269736842718,244.17066214037186 152.56167763157282,244.11030771007063 152.3951480263495,244.08616593162878 152.3396381578641,244.11030771007063 152.2730263157864,244.0982368212717 152.13980263157282,244.11030771007063 151.89555921050487,244.06202414959262 151.7845394736505,244.06202414959262 151.7068256578641,244.03788236399123 151.50699013157282,244.0258114698372 151.3515625,243.96545698557748 151.1517269736505,243.97752788422804 150.53001644735923,243.83267704104946 150.33018092106795,243.80853522126563 150.10814144735923,243.73610974030453 149.63075657893205,243.66368422702362 149.46422697370872,243.61540053346835 149.36430921050487,243.63954238205042 149.3087993420777,243.61540053346835 149.1089638157864,243.59125868135015 149.00904605264077,243.5550458963553 148.93133223679615,243.5550458963553 148.8203125,243.53090403520036 148.77590460522333,243.54297496622894 148.65378289471846,243.50676217048021 148.5427631578641,243.50676217048021 148.38733552629128,243.4826203021221 148.3207236842136,243.44640749286918 148.20970394735923,243.43433655465196 148.14309210522333,243.44640749286918 147.99876644735923,243.42226561554708 147.88774671050487,243.42226561554708 147.61019736842718,243.36191090646025 147.46587171050487,243.37398185006168 147.2771381578641,243.36191090646025 147.0550986842136,243.30155617491982 147.01069078949513,243.31362712303235 146.66652960528154,243.22913046737085 146.52220394730102,243.22913046737085 146.41118421050487,243.1929176014819 146.16694078949513,243.1687756863539 146.0892269736505,243.13256280694623 145.71175986842718,243.09634991949133 145.21217105264077,242.98771120843594 144.5238486842136,242.92735633750272 144.41282894735923,242.90321438283718 144.23519736836897,242.8066465282027 143.99095394735923,242.75836257930496 143.91324013157282,242.75836257930496 143.73560855264077,242.72214960817655 143.6134868420777,242.7342205994646 143.24712171050487,242.71007861602993 142.89185855264077,242.63765264410176 142.71422697370872,242.63765264410176 142.69202302629128,242.62558164565417 142.5032894736505,242.6135106462898 142.39226973685436,242.62558164565417 142.17023026314564,242.57729764278338 142.10361842106795,242.5893686448544 142.0037006578641,242.55315563596378 141.70394736842718,242.57729764278338 141.48190789477667,242.54108463120065 141.33758223679615,242.55315563596378 141.3042763157864,242.52901362552075 141.015625,242.56522663981013 140.57154605264077,242.55315563596378 140.43832236842718,242.5893686448544 139.9609375,242.52901362552075 139.69449013157282,242.52901362552075 139.59457236836897,242.50487161152705 139.51685855264077,242.50487161152705 139.51685855264077,242.49280060315505 139.43914473679615,242.49280060315505 139.15049342106795,242.45658757269848 139.1171874999418,242.43244554787816 139.0505756578641,242.44451656073215 138.7619243421359,242.42037453415105 138.50657894735923,242.3600194518658 138.42886513157282,242.3841614874982 138.22902960528154,242.33587741268275 138.0625,242.33587741268275 137.71833881584462,242.2513802471658 137.71833881584462,242.227238191801 137.72944078943692,242.23930921991996 137.7072368420777,242.2513802471658 137.59621710528154,242.227238191801 137.24095394735923,242.2513802471658 137.11883223685436,242.23930921991996 137.04111842106795,242.19102510198718 136.9412006578641,242.17895407023025 136.56373355264077,242.1668830376002 136.2972861842718,242.0823857839423 136.1640625,242.09445682288788 135.91981907893205,242.02203057582665 135.63116776320385,241.9978884862503 135.2537006578641,241.9013200920599 135.1870888157864,241.85303587336966 135.15378289471846,241.76853845606092 135.09827302629128,241.7323252637143 134.94284539471846,241.67196992518438 134.8318256579223,241.65989885479212 134.72080592100974,241.61161456414266 134.63199013157282,241.62368563815835 134.48766447370872,241.70818313100608 134.265625,241.72025419781858 133.67722039471846,241.64782778346853 133.6328125,241.62368563815835 133.4107730263495,241.57540133675502 133.08881578949513,241.55125918064732 133.0,241.5150459397264" stroke="#4dd2ff" stroke-linecap="round" stroke-linejoin="round" stroke-width="0.5"><title>2022-10-21 10.5km</title></polyline></svg>