<?xml version="1.0" encoding="utf-8" ?>
<svg baseProfile="full" height="300mm" version="1.1" viewBox="0,0,200,300" width="200mm" xmlns="http://www.w3.org/2000/svg" xmlns:ev="http://www.w3.org/2001/xml-events" xmlns:xlink="http://www.w3.org/1999/xlink"><defs /><rect fill="#222222" height="300" width="200" x="0" y="0" /><text fill="#FFFFFF" style="font-size:12px; font-family:Arial; font-weight:bold;" x="10" y="20">Over 10km Runs</text><text fill="#FFFFFF" style="font-size:4px; font-family:Arial" x="10" y="280">ATHLETE</text><text fill="#FFFFFF" style="font-size:9px; font-family:Arial" x="10" y="290">safeoy</text><text fill="#FFFFFF" style="font-size:4px; font-family:Arial" x="120" y="280">STATISTICS</text><text fill="#FFFFFF" style="font-size:3px; font-family:Arial" x="120" y="285">Number: 5</text><text fill="#FFFFFF" style="font-size:3px; font-family:Arial" x="120" y="290">Weekly: 1.0</text><text fill="#FFFFFF" style="font-size:3px; font-family:Arial" x="141" y="285">Total: 56.7 km</text><text fill="#FFFFFF" style="font-size:3px; font-family:Arial" x="141" y="290">Avg: 11.3 km</text><text fill="#FFFFFF" style="font-size:3px; font-family:Arial" x="167" y="285">Min: 10.5 km</text><text fill="#FFFFFF" style="font-size:3px; font-family:Arial" x="167" y="290">Max: 12.5 km</text><polyline fill="none" points="85.87610619462794,58.99255503130553 85.85840707964962,59.20424559917592 85.9115044248174,59.300468527158955 85.98230088490527,59.531403408182086 85.9292035397375,59.76233808265533 85.94690265483223,60.05100613544346 85.82300884951837,60.47438536255504 85.78761061944533,60.78229709183506 85.78761061944533,61.20567512018897 85.75221238937229,61.3403861655097 85.75221238937229,61.64829686238954 85.82300884951837,62.225628429689095 85.76991150440881,62.41807199869072 85.82300884951837,62.57202675061126 85.69911504426273,62.86069166321249 85.69911504426273,62.93766891877749 85.69911504426273,63.18784484083881 85.76991150440881,63.26482199886232 85.76991150440881,63.361043414173764 85.75221238937229,63.47650906517811 85.80530973454006,63.5534861372289 85.87610619462794,64.03459231757734 85.82300884951837,64.13081344608509 85.82300884951837,64.32325559563469 85.73451327427756,64.4964534076571 85.78761061944533,64.70813946462295 85.75221238937229,64.82360451346904 85.75221238937229,64.93906951075769 85.69911504426273,65.2662200559862 86.0,65.8242994415632 85.98230088490527,65.93976399151143 86.0,66.03598441036593 85.73451327427756,66.61330617082422 85.76991150440881,66.84423451367184 85.75221238937229,66.94045459563495 85.89380530972267,67.38306651092716 85.8407079645549,67.80643372025224 85.71681415924104,68.15282455725537 85.681415929168,68.61467828410969 85.57522123889066,68.96106803730072 85.61061946902191,69.03804347496771 85.69911504426273,68.9995557590155 85.66371681413148,69.07653118517192 85.71681415924104,69.17275043565314 85.80530973454006,69.24972581019392 85.76991150440881,69.38443266051763 85.85840707964962,69.80779658984102 85.62831858400023,69.8847717752069 84.69026548671536,70.03872207706445 83.75221238937229,70.26964735783986 82.5663716814015,70.4813286839053 81.73451327433577,70.67376610253996 81.62831858405843,70.76998475805158 81.39823008846724,70.82771593418147 81.02654867252568,70.9046908156306 80.70796460175188,70.9046908156306 79.27433628315339,71.28956487879623 78.35398230084684,71.42427066543314 77.80530973442364,71.55897638184251 77.5221238937811,71.57822004990885 76.86725663713878,71.69368202800979 76.76106194686145,71.73216934260563 76.17699115048163,71.82838760399318 76.07079646020429,71.84763125191967 75.85840707964962,71.82838760399318 75.16814159293426,71.92460582945205 74.93805309728486,72.00158038406516 73.66371681413148,72.1555294245336 73.55752212385414,72.21326029098418 73.46902654867154,72.29023475962458 73.02654867252568,72.54040162418096 72.88495575223351,72.67510675867379 71.75221238937229,72.84829897114832 70.79646017693449,72.90602968282474 70.53097345132846,72.9445168168022 70.08849557524081,72.9445168168022 69.25663716817508,73.00224750701454 68.61946902651107,73.11770884868747 68.30088495579548,73.04073462662927 67.71681415929925,72.79056824653526 67.29203539824812,72.75208108965307 66.83185840706574,72.55964521912392 66.65486725658411,72.52115802784101 65.91150442475919,72.55964521912392 65.82300884957658,72.54040162418096 64.97345132747432,72.61737599535263 64.46017699112417,72.63661958451848 64.19469026545994,72.55964521912392 63.380530973372515,72.55964521912392 62.23008849553298,72.46342723011912 62.12389380525565,72.48267083082465 61.91150442475919,72.42494002450258 61.07964601769345,72.50191443001677 59.41592920356197,72.2325039103307 58.63716814154759,72.25174752817838 58.38938053091988,72.21326029098418 58.28318584070075,72.2325039103307 57.78761061944533,72.21326029098418 56.81415929202922,72.07855491574446 56.601769911532756,72.07855491574446 55.71681415924104,72.04006765279337 55.48672566370806,71.98233674759103 55.2035398229491,72.00158038406516 54.938053097284865,71.94384947026265 54.530973451328464,71.77065665148257 54.30088495579548,71.75141299773532 54.21238938049646,71.77065665148257 54.03539823007304,72.02082401915686 53.85840707964962,72.40569641950424 53.71681415929925,72.63661958451848 53.55752212385414,72.73283750907285 53.1150442478247,72.75208108965307 52.26548672572244,72.73283750907285 51.50442477874458,72.63661958451848 50.5663716813433,72.63661958451848 50.1592920353869,72.57888881262625 50.070796460146084,72.50191443001677 49.55752212385414,71.78990030371642 49.45132743357681,71.75141299773532 49.25663716811687,71.75141299773532 49.06194690259872,71.80914395452419 48.831858407123946,71.82838760399318 48.0884955751244,71.78990030371642 47.85840707964962,71.73216934260563 47.48672566364985,71.78990030371642 47.168141592876054,71.77065665148257 47.07964601763524,71.80914395452419 46.26548672566423,71.73216934260563 46.0,71.73216934260563 45.699115044262726,71.61670738164685 44.778761061956175,71.53973271236464 44.300884955737274,71.44351434349664 43.840707964554895,71.308808566886 43.25663716811687,71.27032118925126 43.07964601763524,71.15485902190267 42.44247787602944,71.02015309479611 41.69911504420452,70.94317824777681 41.592920353927184,70.9046908156306 41.238938053080346,70.86620337779459 41.02654867252568,70.78922848484945 40.814159292087425,70.78922848484945 40.03539823007304,70.67376610253996 39.64601769915316,70.57754741109966 39.433628318598494,70.67376610253996 39.1150442478247,70.71225356899959 39.00884955743095,70.69300983646826 38.15929203532869,70.55830366855662 37.98230088496348,70.42359743035922 37.78761061944533,70.36586616392015 37.32743362837937,70.30813488457352 36.83185840706574,70.19267228715762 35.911504424817394,70.11569719358522 35.15044247789774,69.923259359246 34.60176991147455,69.94250314917008 34.23008849553298,69.80779658984102 33.45132743369322,69.65384615036601 33.00884955748916,69.61535852613451 32.67256637167884,69.49989561914117 31.78761061944533,69.4229203191353 31.610619469021913,69.32670116182999 31.50442477874458,69.13426273976802 31.50442477874458,68.92258030989615 31.592920353927184,68.61467828410969 28.60176991147455,68.92258030989615 27.96460176986875,68.80711709323805 27.13274336286122,68.74938546554768 26.831858407123946,68.67240994190797 26.4778761062189,68.63392217144428 26.035398230073042,68.49921492979047 25.29203539818991,68.38375152387016 25.203539823007304,68.34526371044922 24.17699115036521,68.24904415177298 24.088495575182606,68.2105563182995 23.55752212385414,68.13358063409396 23.34513274335768,68.05660492691095 22.991150442510843,68.03736099654634 22.796460176934488,67.97962919683778 22.353982300905045,67.96038526072516 21.82300884957658,67.86416555868345 21.59292035398539,67.86416555868345 20.991150442452636,67.74870186895714 20.67256637167884,67.67172604707594 20.14159292029217,67.67172604707594 19.592920353927184,67.59475020231912 19.1150442478247,67.59475020231912 18.353982300905045,67.51777433461393 18.17699115042342,67.53701830365753 17.929203539795708,67.51777433461393 17.823008849518374,67.5562622713478 17.59292035398539,67.49853036410059 17.168141592876054,67.51777433461393 16.743362831883132,67.59475020231912 16.61946902651107,67.5562622713478 16.05309734516777,67.49853036410059 15.946902654890437,67.46004241876653 15.292035398248117,67.42155446768447 15.061946902656928,67.3445785483782 14.0,67.36382253035845 14.442477876029443,67.26760260612355 14.707964601751883,67.09440665214788 14.831858407065738,66.92121058209159 14.938053097343072,66.92121058209159 14.973451327474322,67.03667464174214 15.061946902656928,67.01743063537288 15.061946902656928,66.92121058209159 14.973451327474322,66.97894261834153 15.026548672525678,67.0559186466271 15.115044247766491,67.0559186466271 15.132743362803012,66.97894261834153 15.061946902656928,66.94045459563495 15.008849557489157,67.01743063537288 14.938053097343072,67.19062664093508 14.884955752175301,67.4792863921175 14.938053097343072,68.38375152387016 15.008849557489157,68.6916538249352 14.973451327474322,68.86484870803542 15.026548672525678,69.40367649051768 15.008849557489157,69.75006518579903 15.044247787620407,70.50057243219635 15.026548672525678,70.61603489200934 15.168141592934262,71.50124536911608 15.150442477839533,72.05931128497468 15.185840707970783,72.3479655959818 15.150442477839533,72.67510675867379 15.168141592934262,73.15619595108728 15.115044247766491,73.3678749120154 15.203539822949097,74.50324092415394 15.185840707970783,74.77264907595236 15.203539822949097,75.31146453681868 15.168141592934262,75.40768146511982 15.185840707970783,76.44682200789975 15.345132743299473,76.69698484771652 15.433628318540286,76.7547146994475 15.522123893839307,76.71622813308204 15.504424778744578,76.60076839952671 15.415929203561973,76.56228181025654 15.345132743299473,76.60076839952671 15.238938053080346,76.62001169206633 15.185840707970783,76.67774156101223 15.097345132671762,76.71622813308204 15.044247787620407,76.79320126007951 14.955752212379593,76.81244453827094 14.831858407065738,76.63925498312165 14.814159292029217,76.54303851345321 14.867256637196988,76.46606531187717 15.061946902656928,76.40833539566665 15.168141592934262,76.40833539566665 15.451327433576807,76.25438888935605 15.64601769921137,76.19665892589546 15.929203539853916,76.02346895796654 17.115044247708283,75.46541160493507 17.504424778802786,75.31146453681868 17.59292035398539,75.2344909683743 18.070796460087877,74.98432671248156 18.63716814154759,74.77264907595236 18.814159292087425,74.65718847389508 18.955752212379593,74.61870159505634 19.168141592876054,74.61870159505634 19.716814159299247,74.52248437292292 20.01769911509473,74.50324092415394 20.566371681401506,74.52248437292292 21.008849557489157,74.50324092415394 21.50442477868637,74.5802147105278 22.106194690277334,74.59945815349056 23.168141592934262,74.73416221437219 23.716814159299247,74.77264907595236 24.035398230073042,74.86886620499718 24.318584070773795,74.84962278202875 24.40707964601461,74.90735304656846 24.495575221197214,74.88810962646676 24.584070796438027,74.94583988236263 24.63716814154759,75.06130035544629 24.725663716788404,75.13827397552086 24.84955752210226,75.31146453681868 25.168141592934262,75.50389835765236 26.46017699112417,75.98498228263634 26.584070796496235,76.00422562104359 26.67256637167884,75.98498228263634 26.955752212321386,76.04271229346341 27.256637168116868,76.04271229346341 28.19469026545994,76.31211883998185 28.300884955737274,76.27363220769621 28.40707964601461,76.31211883998185 28.530973451328464,76.31211883998185 28.867256637196988,76.38909208744008 29.309734513342846,76.56228181025654 29.39823008852545,76.54303851345321 29.840707964554895,76.69698484771652 29.96460176986875,76.69698484771652 30.088495575182606,76.71622813308204 30.17699115036521,76.77395798050566 30.44247787608765,76.79320126007951 31.592920353927184,77.0818502821785 32.30088495567907,77.31276926770806 32.584070796496235,77.37049898180703 33.57522123889066,77.69763378486095 34.44247787608765,77.90930902500986 35.681415929168,78.27492948579311 35.76991150440881,78.27492948579311 36.38938053091988,78.48660425299022 36.92035398230655,78.5828199989046 37.62831858411664,78.79449451378605 38.778761061956175,79.02541196867242 39.38053097343072,79.08314130014332 40.14159292035038,79.12162751398864 41.415929203503765,79.29481540518464 42.28318584070075,79.37178776401561 42.51327433629194,79.37178776401561 43.57522123894887,79.50648933686898 43.82300884957658,79.50648933686898 43.929203539853916,79.56421856081579 44.24778761062771,79.5834616326174 44.548672566364985,79.67967697010317 45.168141592876054,79.69892003329005 45.53982300887583,79.7566492142796 45.858407079591416,79.83362143556587 46.973451327416115,79.96832276758505 47.30973451328464,79.96832276758505 47.92920353979571,80.06453796177811 48.60176991147455,80.10302402939124 49.13274336286122,80.21848219794629 50.19469026551815,80.33394031484204 50.318584070773795,80.31469729890523 51.29203539824812,80.46864138606179 52.12389380525565,80.54561339522479 52.336283185810316,80.58409939122794 52.40707964601461,80.66107136597566 53.238938053080346,80.75728630219237 53.55752212385414,80.75728630219237 53.87610619462794,80.69955734473479 54.07079646020429,80.73804331783322 54.19469026540173,80.79577226664696 54.38938053097809,80.8150152467424 54.61946902656928,80.87274417838489 55.026548672583885,80.87274417838489 55.46902654861333,80.91123012565367 56.03539823007304,80.8150152467424 56.12389380525565,80.77652928516909 56.77876106189797,80.89198715270322 57.09734513272997,80.8342582253681 57.53982300881762,80.85350120261137 58.725663716788404,80.94971606714535 58.90265486721182,81.00744496869447 59.469026548671536,80.96895903581753 60.088495575182606,81.00744496869447" stroke="#4dd2ff" stroke-linecap="round" stroke-linejoin="round" stroke-width="0.5"><title>2023-04-01 11.2km</title></polyline><polyline fill="none" points="185.98141215957003,67.3827717903041 185.96282431908185,67.56466748603998 185.9907060797559,67.67582584666525 185.98141215957003,67.74656293784938 186.0,67.96887926988711 185.97211823932594,68.02951093357115 185.97211823932594,68.16087944520405 185.93494255840778,68.26193205990421 185.9163547179196,68.38319509815483 185.95353039889596,68.45393182041153 185.90706079773372,68.62572084942803 185.9163547179196,68.78740444270079 185.88847295724554,68.8985618012739 185.90706079773372,69.10066585621826 185.87917903705966,69.15119182290073 185.88847295724554,69.39371620098973 185.90706079773372,69.46445239624154 185.89776687748963,69.5756091999865 185.9163547179196,69.67666076071328 185.89776687748963,69.77771224614844 185.88847295724554,70.10107649365091 185.86059119662968,70.19202254937409 185.8420033561415,70.36380937715148 185.8420033561415,70.57601633464219 185.93494255840778,70.77811789028056 185.9907060797559,71.12168984382151 185.64683103136485,71.1924251379969 185.5353039886686,71.23284528953081 185.41448302567005,71.24295032554073 185.12637149862712,71.31368555648078 184.9869626952568,71.36421069887729 184.95908093458274,71.40463079924666 184.8382599715842,71.4248408449057 184.62449980637757,71.43494586658926 184.0482767522917,71.55620606832235 183.92745578929316,71.56631108022702 183.73228346457472,71.66736115798267 183.56499290047213,71.71788616864069 183.33264489483554,71.72799116852548 183.1188847295707,71.78862115193624 182.78430360142374,71.83914611743239 181.7247966955183,72.06145574204857 181.22292500321055,72.15240048346459 181.13927972118836,72.17261041772872 180.90693171549356,72.20292531347513 180.8604621143313,72.22313524020137 180.721053310961,72.22313524020137 180.50729314575437,72.25345012464823 180.4050600231858,72.29386996005633 180.07047889503883,72.28376500232116 179.8660126500763,72.34439473735983 179.62437072419561,72.33428978343 179.50354976119706,72.364604643044 179.06673551053973,72.38481454567227 179.0016780688893,72.415129393994 178.7879179037409,72.43533928912075 178.17451916873688,72.47575907032297 178.10016780684236,72.46565412612836 177.7655866786954,72.46565412612836 177.5332386730588,72.49596895639843 177.09642442234326,72.51617883946892 176.9941912998329,72.53638871956355 176.68749193236,72.50607389832294 176.57596488966374,72.51617883946892 176.2042080805404,72.51617883946892 175.71163030853495,72.56670353398658 175.32128565892344,72.5768084706433 174.8937653285102,72.60712327608053 174.6521234026295,72.6172282096959 174.2710726733203,72.59701834167936 173.51826513488777,72.59701834167936 173.46250161353964,72.58691340653604 173.3323867303552,72.50607389832294 173.22085968760075,72.49596895639843 172.99780560215004,72.53638871956355 172.68181231443305,72.51617883946892 172.5609913514345,72.52628377988731 172.31005550536793,72.43533928912075 171.9382986963028,72.38481454567227 171.73383245128207,72.37470959472557 171.61301148828352,72.39491949585499 171.43642700399505,72.4050244453174 171.18549115787027,72.35449969057663 171.13902155670803,72.364604643044 170.98102491284953,72.35449969057663 170.9345553117455,72.33428978343 170.73008906672476,72.30397491702752 170.60926810378442,72.31407987322746 170.2282173744752,72.27366004386568 169.80069704400375,72.26355508463894 169.59623079898302,72.18271538371482 169.54976119787898,72.15240048346459 169.3824706337764,72.14229551521566 169.32670711242827,72.11198060589959 169.01071382471127,72.0210358373879 168.82483542017872,71.93009100790368 168.65754485607613,71.86946108769189 168.48096037178766,71.83914611743239 168.38802116946317,71.87956607628439 168.2950819671969,72.0210358373879 168.08132180199027,72.0412457912098 168.02555828064214,72.06145574204857 167.84897379629547,72.07156071632198 167.8210920356214,72.11198060589959 167.7560345940292,72.14229551521566 167.41215954563813,72.19282034900243 167.2820446624537,72.20292531347513 167.08687233767705,72.26355508463894 167.02181489608483,72.26355508463894 166.95675745449262,72.18271538371482 166.8917000129004,72.15240048346459 166.69652768818196,72.15240048346459 166.64076416677563,72.07156071632198 166.51994320383528,72.05135076701117 166.37124048016267,71.99072090099071 166.1946559958742,71.97051093963819 166.09242287336383,71.91998602307285 165.92513230926124,71.89977605118474 165.5719633406261,71.94019599195599 165.1723247708287,71.93009100790368 165.00503420678433,71.88967106409837 164.83774364268174,71.88967106409837 164.68904091906734,71.83914611743239 164.59610171680106,71.82904112585675 164.1778753065737,71.74820116600313 164.0198786627152,71.76841116048308 163.8711759390426,71.84925110828044 163.3321285659331,71.75830616363237 163.22060152317863,71.76841116048308 162.9324899961357,71.73809616763174 162.6257906286628,71.68757116451161 162.37485478247982,71.67746616162185 161.82651348906802,71.5865211018172 161.70569252612768,71.5865211018172 161.6127533238614,71.6168361285163 161.3060539563303,71.55620606832235 160.9993545888574,71.52589102805359 160.78559442365076,71.45515590775176 160.49748289660783,71.43494586658926 160.2930166515871,71.35410567191866 159.9026720020338,71.26316039529047 159.2706854265998,71.20253017702635 159.22421582549578,71.1823200982326 159.11268878274132,71.20253017702635 158.69446237251395,71.11158479878941 158.55505356908543,71.06105956230022 158.359881244367,71.05095451275702 158.24835420161253,71.03074441137869 157.84871563187335,70.99032419962168 157.8022460307111,70.97011408923572 157.74648250936298,70.9600090328895 157.6535433070967,70.97011408923572 157.46766490250593,70.92969385941251 157.35613785980968,70.93979891798517 157.30037433846155,70.90948373997526 157.1052020136849,70.87916855518415 157.01226281136042,70.84885336360458 156.9564992900705,70.84885336360458 156.85426616750192,70.81853816526564 156.65909384278348,70.80843309765623 156.28733703371836,70.74780267612368 156.12004646961577,70.74780267612368 155.88769846392097,70.6770671500999 155.618174777308,70.65685699300957 155.320769330021,70.57601633464219 155.22783012781292,70.5861214195611 154.99548212211812,70.5355959873923 154.90254291985184,70.5558061624979 154.6980766748893,70.5052807190441 154.5493739511585,70.49517562808614 154.44714082870632,70.46486035069393 154.28914418484783,70.44465016199683 154.17761714209337,70.41433487333416 153.86162385437638,70.3739144778956 153.65715760941384,70.29307365089335 153.49916096555535,70.28296854411019 153.19246159802424,70.2324429990258 152.96940751257353,70.21223277569516 152.81141086871503,70.18191743507487 152.69988382596057,70.18191743507487 152.62553246418247,70.20212766291661 152.5232993416721,70.17181232004077 152.41177229897585,70.17181232004077 151.9749580482603,70.09097137258505 151.86343100556405,70.05055088079826 151.48238027625484,70.01013037694065 151.31508971209405,70.02023550403828 151.14779914804967,69.98992012051895 150.93403898284305,70.02023550403828 150.39499160961714,69.95960473022569 150.24628888606094,69.96970986106317 150.17193752422463,69.93939446623699 150.05111656122608,69.95960473022569 149.9674712792039,69.94949959861697 149.86523815669352,69.95960473022569 149.8094746353454,69.96970986106317 149.77229895442724,69.98992012051895 149.5585387891624,69.98992012051895 148.70349812827772,69.85855338029069 148.54550148441922,69.81813281923678 148.43397444172297,69.80802767707792 148.28527171810856,69.82823796062439 148.23880211694632,69.80802767707792 148.08080547308782,69.80802767707792 147.8670453078812,69.77771224614844 147.72763650445268,69.76760710097733 147.52317025943194,69.70697621422005 147.42093713697977,69.70697621422005 146.854008003138,69.63624014543166 146.45436943334062,69.62613498976134 146.26849102880806,69.59581951815926 145.93390990060288,69.50487306268042 145.3855686071911,69.43413688850706 145.33909900608705,69.40382137399138 145.27404156443663,69.27245406614384 145.04169355880003,69.19161258269014 144.93946043628966,69.19161258269014 144.89299083518563,69.20171777075302 144.80934555310523,69.27245406614384 144.71640635083895,69.28255924819678 144.07512585516088,69.18150739386328 143.91712921130238,69.19161258269014 143.75913256744388,69.15119182290073 143.61972376401536,69.15119182290073 143.3502000774606,69.07035026717494 143.10855815152172,69.05013987072016 142.69033174129436,68.95919304938434 142.53233509743586,68.94908784324798 142.4951594165177,68.91877222032053 142.47657157608774,68.87835137922957 142.53233509743586,68.5751946870223 142.53233509743586,68.51456326725747 142.5044533367618,68.46403706342971 142.2813992513111,68.42361608682404 142.09552084677853,68.34277409745118 141.8910546017578,68.35287934874941 141.77952755900333,68.37308984911942 141.68658835679526,68.34277409745118 141.4263585904264,68.37308984911942 141.36130114883417,68.37308984911942 141.30553762742784,68.34277409745118 141.00813218019903,68.34277409745118 140.90589905768866,68.37308984911942 140.8594294565264,68.37308984911942 140.6363753711339,68.41351084078633 140.2460307215224,68.63582607964781 140.1809732799884,68.69645744520676 140.0136827158858,68.74698356246518 139.96721311478177,68.77729922378057 139.90215567313135,68.86824616706872 139.84639215178322,69.19161258269014 139.7906286304351,69.28255924819678 139.67910158773884,69.38361102724593 139.6326319865766,69.4139265462436 139.45604750222992,69.40382137399138 139.35381437977776,69.4139265462436 139.29805085837143,69.43413688850706 138.97276365041034,69.43413688850706 138.75900348520372,69.40382137399138 138.66606428293744,69.43413688850706 138.29430747387232,69.40382137399138 138.1456047501997,69.42403171776823 137.95043242548127,69.52508339141059 137.62514521746198,69.52508339141059 137.57867561635794,69.51497822741658 137.49503033433575,69.46445239624154 137.40209113201126,69.51497822741658 137.35562153090723,69.49476789721666 137.30915192974498,69.51497822741658 137.16044920613058,69.52508339141059 137.08609784429427,69.46445239624154 137.03033432294615,69.46445239624154 136.79798631725134,69.4846627309962 136.6678714340669,69.50487306268042 136.6028139925329,69.52508339141059 136.5098747902084,69.6059246760924 136.38905382726807,69.81813281923678 136.2961146250018,70.0707611281905 136.2961146250018,70.24254810952698 136.35187814634992,70.34359917341499 136.46340518910438,70.44465016199683 136.6678714340669,70.5355959873923 136.71434103522915,70.5861214195611 136.71434103522915,70.68717222748819 136.6864592745551,70.73769760323921 136.6678714340669,70.79832802928286 136.54705047118478,70.93979891798517 136.42622950818622,71.03074441137869 136.25893894414185,71.10147975299333 136.03588485863293,71.10147975299333 135.80353685299633,71.02063935957995 135.63624628883554,70.99032419962168 135.54330708662746,70.94990397583024 134.65109074482461,70.66696207194036 134.502388021152,70.57601633464219 134.44662449980387,70.49517562808614 134.39086097839754,70.46486035069393 134.33509745704941,70.3739144778956 134.28862785594538,70.35370427567977 134.186394733435,70.32338896665897 133.69381696137134,70.25265321932966 133.59158383891918,70.22233788773883 133.4893507164088,70.1617072042427 133.4242932748166,70.17181232004077 133.15476958820364,70.0707611281905 133.03394862520508,70.01013037694065 132.68077965662815,69.87876365627744 132.6343100555241,69.8383431012553 132.38337420934113,69.75750195507862 132.0859687620541,69.71708136390953 131.69562411255902,69.71708136390953 131.51903962827055,69.74739680840867 131.3889247450279,69.74739680840867 131.27739770233165,69.77771224614844 131.2495159416576,69.81813281923678 131.04504969663685,69.72718651283503 130.89634697302245,69.69687106380297 130.55247192457318,69.72718651283503 130.34800567961065,69.71708136390953 130.0784819929977,69.66655560801883 129.03756292758044,69.64634530038165 128.86097844329197,69.61602983330522 128.70298179937527,69.6059246760924 128.38698851165827,69.63624014543166 127.9037046598387,69.6059246760924 127.68065057438798,69.61602983330522 127.63418097322574,69.6059246760924 127.53194785077358,69.63624014543166 127.35536336648511,69.59581951815926 127.1230153607903,69.5756091999865 126.82560991350329,69.6059246760924 126.6583193494007,69.5756091999865 126.53749838646036,69.59581951815926 126.37950174260186,69.58571435944032 126.26797469990561,69.61602983330522 125.75680908735376,69.5553988788306 125.27352523559239,69.54529371707758 125.22705563443014,69.56550403976871 125.11552859173389,69.5553988788306 124.96682586806128,69.53518855461152 124.92035626689903,69.50487306268042 124.4835420162417,69.50487306268042 124.11178520717658,69.47455756398995 123.85155544080772,69.49476789721666 123.47979863168439,69.4846627309962 122.81063637533225,69.5553988788306 122.57828836969566,69.52508339141059 122.32735252351267,69.53518855461152 122.26229508197866,69.51497822741658 122.10429843812017,69.53518855461152 121.93700787395937,69.51497822741658 121.72324770875275,69.45434722777281 121.38866658060579,69.43413688850706 120.54291983990697,69.44424205850373 120.23622047243407,69.43413688850706 120.18045695108594,69.44424205850373 119.7436427003704,69.39371620098973 119.65070349810412,69.4139265462436 119.55776429583784,69.39371620098973 119.26965276879491,69.42403171776823 118.70272363495314,69.43413688850706 118.64696011360502,69.4139265462436 118.53543307085056,69.42403171776823 118.41461210791022,69.40382137399138 117.8848586549284,69.38361102724593 117.44804440427106,69.42403171776823 117.18781463790219,69.49476789721666 116.45359493995784,69.5553988788306 115.63572995993309,69.6564504545895 115.49632115656277,69.70697621422005 115.34761843294837,69.71708136390953 114.51116561249364,69.91918419927242 114.2416419259389,69.96970986106317 114.20446624496253,69.98992012051895 114.17658448428847,70.03034063038649 114.17658448428847,70.12128673353436 114.1579966438585,70.1617072042427 114.11152704275446,70.18191743507487 114.06505744159222,70.1617072042427 114.0,70.1617072042427" stroke="#4dd2ff" stroke-linecap="round" stroke-linejoin="round" stroke-width="0.5"><title>2023-03-18 12.0km</title></polyline><polyline fill="none" points="86.0,139.7782306666195 85.35802469140617,139.6305668479181 85.27160493831616,139.6305668479181 85.20987654326018,139.60371886786015 85.06172839511419,139.6305668479181 84.86419753090013,139.7379587280593 84.765432098764,139.8453505442012 84.70370370376622,139.9661662607832 84.43209876550827,140.3286129244225 84.35802469140617,140.36888473092404 84.19753086427227,140.529971866883 83.97530864202417,140.6105153808312 83.87654320988804,140.7179066767858 83.74074074078817,140.7984501066967 83.54320987657411,140.99980852399312 83.35802469134796,141.28170993005915 83.32098765438423,141.42937239525781 83.19753086427227,141.46964395567193 83.33333333337214,141.61730626685312 83.16049382719211,141.55018704950635 83.02469135809224,141.59045858292666 82.9876543210703,141.79181611488457 82.95061728399014,141.84551141876727 82.95061728399014,141.9126305260579 83.00000000005821,142.06029247409606 82.96296296297805,142.275073273413 82.97530864202417,142.6106677596399 82.92592592595611,142.89256664499408 82.97530864202417,143.09392272154219 83.00000000005821,143.56375269169803 82.9135802469682,144.02015777518682 82.8395061728661,144.24835988330597 82.88888888899237,144.4497144445486 82.81481481489027,144.79872848425293 82.79012345679803,145.1074711096444 82.80246913584415,145.55044873498264 82.7654320988222,145.698107701377 82.80246913584415,145.9800017557427 82.7654320988222,146.22162487986498 82.7654320988222,146.44982419956068 82.87654320994625,146.89279852443724 82.77777777786832,147.12099699406826 82.77777777786832,147.3223483448528 82.71604938275414,147.4565824537276 82.72839506174205,147.9935178891028 82.71604938275414,148.07405806642782 82.6790123457904,148.1277514979447 82.66666666674428,148.06063470602385 82.66666666674428,148.14117485334282 82.6049382716883,148.02036461890384 82.5308641975862,148.03378798226186 82.50617283955216,148.1680215610977 82.50617283955216,148.7720714283205 82.43209876545006,149.45665882980393 82.4567901234841,150.3962843616464 82.3827160494402,150.67817106573784 82.39506172842812,150.7989795182075 82.33333333337214,151.14798125927337 82.35802469140617,151.7654442222847 82.3086419753381,152.71848072949797 82.34567901236005,152.7721727771277 82.32098765438423,152.8258648087358 82.29629629635019,153.52385976396909 82.20987654326018,153.99366253853077 82.20987654326018,154.93326441347017 82.11111111118225,155.7252107605891 82.13580246915808,155.77890191237384 82.11111111118225,156.20843055100704 82.1481481482042,157.06748475714994 82.08641975314822,157.84599909461394 82.09876543213613,157.9802253646485 82.08641975314822,158.12787414625927 82.02469135803403,158.2486776048172 81.95061728399014,159.01376429568336 81.90123456792207,159.1345671605377 81.90123456792207,159.25536994441063 81.85185185191222,159.49697526924137 81.81481481483206,160.02045236206322 81.85185185191222,160.2754791129264 82.00000000005821,160.30232401305693 82.04938271606807,160.3291689092148 82.04938271606807,160.3962811321544 81.97530864202417,160.3962811321544 82.01234567904612,160.3291689092148 82.04938271606807,160.38285868953972 82.01234567904612,160.1949443884805 82.09876543213613,159.92649504708243 82.18518518522615,159.83253768311988 82.18518518522615,159.7654252503562 82.09876543213613,159.45670773759775 82.02469135803403,159.4030176813976 81.88888888893416,159.44328522504657 81.82716049387818,159.4298627114622 81.87654320994625,159.4701302491303 82.29629629635019,159.4298627114622 82.39506172842812,159.4030176813976 82.93827160494402,159.4298627114622 83.22222222224809,159.36275012875558 83.35802469134796,159.30906004458666 83.51851851859828,159.32248256712046 83.66666666668607,159.26879247096076 83.9135802469682,159.24194741685642 84.12345679017017,159.25536994441063 84.18518518522615,159.2016798282275 84.18518518522615,159.1345671605377 84.2222222223063,159.0674544678186 84.03703703708015,159.09429954792722 83.85185185191222,159.09429954792722 83.71604938275414,159.04060938376642 83.65432098769816,159.00034175017208 83.61728395067621,158.9198064559605 83.56790123460814,158.63793264285778 83.49382716056425,158.62451006936317 83.43209876545006,158.58424234276754 83.29629629635019,158.5708197652275 82.79012345679803,158.63793264285778 82.48148148151813,158.71846806303074 82.40740740741603,158.77215832311776 82.19753086421406,158.7990034471586 82.13580246915808,158.83927112574747 82.07407407416031,158.86611623984936 82.02469135803403,158.7990034471586 81.93827160500223,158.75873575962032 81.87654320994625,158.78558088564023 81.80246913584415,158.75873575962032 81.7654320988222,158.7050454954733 81.61728395067621,158.69162292697 81.34567901241826,158.77215832311776 81.01234567904612,158.82584856724134 80.43209876550827,158.85269368330773 79.87654320988804,158.93322900746716 79.55555555556202,158.93322900746716 79.2222222223063,158.97349665607908 78.67901234567398,159.12114462400496 78.35802469140617,159.14798969606636 78.29629629635019,159.1345671605377 78.18518518522615,159.04060938376642 77.8395061728661,158.9600741075701 77.02469135803403,158.9198064559605 76.95061728393193,158.93322900746716 76.49382716050604,158.9198064559605 76.09876543213613,158.94665155802795 75.87654320994625,158.93322900746716 75.19753086421406,158.85269368330773 75.04938271606807,158.86611623984936 74.85185185191222,158.83927112574747 74.6913580247201,158.85269368330773 74.32098765438423,158.81242600771657 74.18518518522615,158.75873575962032 74.02469135809224,158.75873575962032 73.87654320994625,158.7453131950606 73.71604938275414,158.7990034471586 73.55555555562023,158.7453131950606 73.08641975309001,158.77215832311776 72.93827160500223,158.81242600771657 72.4567901234841,158.7990034471586 71.82716049387818,158.9198064559605 71.50617283955216,158.90638390342065 71.37037037039408,158.93322900746716 71.17283950623823,158.90638390342065 69.27160493831616,158.94665155802795 68.93827160500223,158.90638390342065 67.8395061728661,158.94665155802795 66.41975308652036,158.8795387953578 66.18518518522615,158.90638390342065 65.46913580253022,158.8795387953578 65.23456790129421,158.86611623984936 64.96296296297805,158.73189062955498 64.48148148157634,158.73189062955498 64.34567901236005,158.69162292697 64.0617283951724,158.7050454954733 64.0,158.75873575962032 63.913580246968195,158.77215832311776 63.70370370376622,158.78558088564023 62.728395061800256,158.61108749480627 62.41975308646215,158.62451006936317 61.92592592595611,158.5708197652275 61.79012345679803,158.58424234276754 61.55555555562023,158.55739718672703 61.09876543213613,158.61108749480627 60.87654320988804,158.55739718672703 60.59259259264218,158.55739718672703 60.46913580253022,158.5708197652275 60.308641975338105,158.54397460720793 60.16049382719211,158.5708197652275 59.75308641977608,158.5708197652275 59.60493827163009,158.5976649193035 59.17283950623823,158.5305520266702 58.975308642024174,158.46343910908035 58.6913580247201,158.31579060239892 58.33333333337214,158.34263579442631 58.19753086421406,158.39632616647577 57.32098765432602,158.30236800486455 56.70370370376622,158.23525500233518 56.03703703713836,158.1144515347114 55.30864197539631,158.03391584465862 55.185185185226146,157.9802253646485 54.95061728399014,157.9668027421576 54.12345679017017,157.8728443566215 53.90123456798028,157.91311224212404 53.54320987657411,157.80573119410838 53.049382716126274,157.73861800665327 52.62962962966412,157.65808214865683 52.20987654326018,157.6312368546205 51.72839506174205,157.53727829418494 51.1481481482042,157.4835876662255 50.44444444455439,157.40305169427302 50.320987654384226,157.44331968473853 50.259259259328246,157.57754625465896 50.43209876550827,157.6983500821516 50.493827160506044,157.6983500821516 50.54320987663232,157.73861800665327 50.506172839552164,157.7923085586226 50.35802469140617,157.80573119410838 50.320987654384226,157.85942172612704 50.049382716126274,157.83257646214042 49.92592592595611,157.8728443566215 49.86419753090013,157.85942172612704 49.80246913584415,157.88626698612643 49.6913580247201,158.00707060666173 49.493827160506044,158.1144515347114 49.296296296291985,158.10102892221767 49.13580246921629,158.03391584465862 48.98765432101209,157.80573119410838 48.98765432101209,157.71177272463683 49.17283950623823,157.85942172612704 49.4567901234841,157.8728443566215 49.518518518598285,157.91311224212404 49.580246913596056,157.89968961461273 49.81481481489027,158.18156458227895 49.901234567922074,158.22183239881997 50.111111111124046,158.19498718879186 50.23456790129421,158.10102892221767 50.333333333430346,157.81915382861916 50.35802469140617,157.68492743861862 50.28395061730407,157.64465950212616 50.16049382725032,157.41647435876075 50.02469135809224,157.36278369481442 49.87654320994625,157.34936102631036 49.62962962972233,157.26882499438943 49.432098765450064,157.2419796424074 49.370370370394085,157.25540231892955 48.80246913584415,157.17486624499725 48.49382716056425,157.1480208790308 47.46913580253022,156.85272158948646 47.111111111124046,156.7856080470956 46.41975308646215,156.54399908761843 46.34567901236005,156.55742181607638 46.234567901236005,156.50373089620552 45.75308641983429,156.3829262680083 45.51851851854008,156.28896705676743 44.60493827163009,156.06078019693086 43.93827160500223,155.8728613895364 43.87654320988804,155.83259304820967 43.74074074078817,155.819170265735 43.27160493825795,155.61782840896922 42.88888888893416,155.5372916033084 42.29629629635019,155.2419896745123 41.74074074078817,155.12118420057232 41.41975308646215,155.08091569125827 41.234567901236005,155.0406471729366 41.16049382719211,155.00037864562182 40.246913580282126,154.8527273018408 40.01234567904612,154.77219015425362 39.93827160494402,154.75876729282027 39.6913580247201,154.58427000322263 39.40740740741603,154.47688697176636 39.28395061730407,154.39634965623554 39.16049382719211,154.4097725446627 38.74074074078817,154.3023894092621 38.246913580282126,154.27554361541115 37.82716049387818,154.20842911326326 37.567901234608144,154.20842911326326 36.80246913584415,154.1547374935908 36.62962962966412,154.18158330542792 36.41975308646215,154.1413145861734 36.08641975314822,154.16816040001868 35.913580246968195,154.18158330542792 35.48148148157634,154.31581230467418 35.41975308646215,154.31581230467418 35.22222222224809,154.39634965623554 35.01234567904612,154.4097725446627 34.80246913584415,154.58427000322263 34.44444444443798,154.75876729282027 34.29629629635019,154.78561301466834 34.19753086421406,154.87957300968992 33.7654320988222,155.08091569125827 33.444444444496185,155.2688353244157 32.87654320994625,155.51044599339366 32.66666666674428,155.57756001062808 32.59259259264218,155.56413720920682 32.456790123542305,155.61782840896922 32.382716049440205,155.73863355001959 32.320987654384226,155.73863355001959 31.530864197586197,156.16816228460812 31.13580246915808,156.26212155884423 31.08641975314822,156.30238980424474 31.049382716068067,156.43661722389515 31.049382716068067,156.3695035265264 31.08641975314822,156.31581255068886 31.20987654326018,156.2755443083006 31.246913580282126,156.22185330445063 31.172839506180026,156.22185330445063 31.111111111182254,156.24869880836923 31.111111111182254,156.329235296158 31.160493827192113,156.3829262680083 31.296296296350192,156.3695035265264 31.370370370452292,156.4097717479308 30.74074074078817,156.5305763581564 30.49382716056425,156.50373089620552 30.41975308646215,156.5305763581564 29.580246913654264,156.51715362766117 28.790123456856236,156.4097717479308 28.16049382725032,156.22185330445063 27.987654321070295,156.1547395271482 28.037037037021946,156.1144712487585 28.0740740741021,155.9533980452834 28.037037037021946,155.80574748231447 27.975308642024174,155.75205633848964 27.54320987657411,155.52386879886035 27.444444444496185,155.41648632727447 27.259259259328246,155.29568097030278 27.111111111182254,155.2688353244157 27.061728395114187,155.2419896745123 27.000000000058208,155.22856684809085 26.75308641983429,155.12118420057232 26.34567901241826,155.00037864562182 26.283950617304072,155.02722433151212 26.13580246915808,155.00037864562182 25.839506172924303,155.02722433151212 24.975308641965967,155.0406471729366 24.753086419776082,155.02722433151212 24.46913580247201,154.9869558011851 24.320987654384226,155.00037864562182 23.913580246968195,154.96011010931397 23.629629629664123,154.9869558011851 23.580246913654264,155.02722433151212 23.54320987657411,155.2419896745123 23.432098765450064,155.36279506751453 22.56790123466635,155.36279506751453 22.60493827163009,155.41648632727447 22.444444444496185,155.29568097030278 22.40740740741603,155.41648632727447 22.320987654384226,155.41648632727447 22.172839506238233,155.32252661217353 22.037037037080154,155.28225814783946 21.864197530958336,155.29568097030278 21.864197530958336,155.34937225005706 20.308641975338105,154.58427000322263 20.395061728428118,154.69165297065047 20.444444444496185,154.91984156401304 20.185185185226146,154.93326441347017 20.049382716068067,154.9869558011851 19.987654321012087,154.9466872618941 19.839506172866095,154.97353295572975 19.61728395067621,155.8460158296366 19.67901234573219,155.02722433151212 19.61728395067621,155.05407001337153 19.555555555562023,155.01380148905446 19.530864197586197,155.08091569125827 19.320987654384226,155.1480298684328 19.246913580282126,155.22856684809085 19.111111111182254,155.21514402063622 18.962962962978054,155.22856684809085 18.88888888893416,155.21514402063622 18.55555555562023,155.28225814783946 18.308641975396313,155.42990913974063 18.09876543219434,155.4836003795208 18.02469135809224,155.4836003795208 17.703703703766223,155.57756001062808 17.567901234608144,155.6446740028623 17.34567901236005,155.57756001062808 17.1481481482042,155.60440561051655 16.938271605002228,155.55071440673782 16.432098765450064,155.60440561051655 16.308641975338105,155.56413720920682 16.123456790170167,155.61782840896922 16.000000000058208,155.55071440673782 16.0740740741021,155.55071440673782 16.037037037021946,155.49702318696654 16.000000000058208,155.55071440673782 15.93827160494402,155.49702318696654 16.000000000058208,155.51044599339366 16.049382716068067,155.47017757104186 16.111111111124046,155.49702318696654 16.197530864272267,155.47017757104186 16.246913580282126,155.44333195118816 16.40740740747424,155.40306351384788 16.48148148157634,155.36279506751453 16.493827160506044,155.28225814783946 16.456790123484097,155.22856684809085 16.259259259328246,155.1882983627729 16.061728395172395,155.25541249998787 15.925925925956108,155.22856684809085 15.876543209946249,155.2688353244157 15.592592592642177,155.34937225005706 15.320987654384226,155.29568097030278 15.172839506238233,155.30910379174748 15.123456790111959,155.2688353244157 14.802469135785941,155.1480298684328 14.60493827163009,154.96011010931397 14.456790123484097,154.86615015628922 14.333333333430346,154.70507583704602 14.172839506180026,154.39634965623554 14.123456790170167,154.35608098494413 14.08641975314822,154.1278916777519 14.0,153.95339377726486 14.037037037080154,153.7654727723857 14.01234567904612,153.63124336328474 14.197530864214059,153.00036380100937 14.345679012418259,152.7587497667264 14.444444444496185,152.66478866591933 14.814814814832062,152.43659721709264 14.925925925956108,152.35605898969516 15.000000000058208,152.34263594832737 15.444444444496185,152.15471326372062 15.518518518540077,151.9667903831869 15.395061728428118,151.92652116900717 15.271604938316159,151.95336731277348 15.296296296291985,151.89967502122454 15.617283950618003,151.7654442222847 15.864197530900128,151.71175187469635 16.000000000058208,151.63121332334413 16.197530864272267,151.56409783636627 16.60493827163009,151.2553662743885 16.61728395067621,151.17482751907664 16.666666666744277,151.14798125927337 16.80246913584415,150.93321103707422 16.962962962978054,150.75871004305372 17.037037037080154,150.57078570664453 17.08641975314822,150.5170930030872 17.12345679011196,150.3962843616464 17.111111111182254,150.3157452223386 17.12345679011196,150.16809004011157 17.20987654326018,150.074127588392 17.19753086421406,150.00701152150577 17.1481481482042,149.95331864996115 17.2222222223063,149.84593285887968 17.27160493831616,149.8190864011267 17.49382716056425,149.91304898582166 17.580246913654264,149.91304898582166 17.654320987698156,149.9398954296048 17.72839506174205,149.91304898582166 17.975308642024174,149.92647220820072 18.123456790170167,149.89962576242397 18.308641975396313,149.92647220820072 18.518518518598285,150.1278204239643 18.66666666668607,149.9935883051221 18.728395061800256,149.49692859595234 18.81481481489027,149.3090029435698 18.925925925956108,149.20161676853604 18.851851851854008,149.1076538128691 18.246913580282126,148.7720714283205 18.148148148145992,148.7318015001656 18.049382716068067,148.74522481058375 17.913580246968195,148.7854947357264 17.580246913654264,148.7318015001656 17.604938271688297,148.61099166174245 17.555555555562023,148.55729837418767 17.530864197586197,148.38279507921834 17.395061728428118,148.08748142581317" stroke="#4dd2ff" stroke-linecap="round" stroke-linejoin="round" stroke-width="0.5"><title>2023-02-25 12.5km</title></polyline><polyline fill="none" points="186.0,158.43048457830446 185.88723570853472,158.43048457830446 184.64682850427926,157.6334509786102 184.53406421281397,156.5911751058884 184.36491777584888,156.3459335321677 182.95536413462833,155.85545016516699 182.61707126069814,155.54889791226014 181.48942834767513,155.1810350578744 180.9256068910472,154.813172039052 180.30540328891948,155.24234554503346 179.0649960844312,155.05841406993568 178.27564604533836,154.50661939760903 177.99373531714082,154.5679299349431 177.71182458871044,154.44530885567656 177.20438527781516,153.89351377187995 176.8660924041178,153.28040768916253 176.47141738422215,153.1577864176943 176.18950665625744,153.28040768916253 174.6671887235716,152.789922493801 174.3288958496414,152.91254381998442 173.20125293638557,151.6863297346281 172.581049334025,150.88928959879559 171.84808144089766,150.1535595568712 171.39702427573502,149.9083160632872 170.72043852764182,149.7856942890212 169.87470634281635,149.17258514364948 168.2960062646307,148.498164555931 167.4502740795724,147.76243237464223 166.20986687531695,147.27194388827775 164.57478465139866,145.98441021930194 163.3343774471432,145.6778542866814 162.71417384501547,145.43260945839575 160.7971808926668,144.08376159501495 160.23335943603888,144.08376159501495 159.6695379796438,143.5319595587207 159.61315583391115,143.77720495394897 159.7259201251436,144.08376159501495 159.5003915426787,144.75818580330815 159.5567736881785,144.20638421957847 159.04933437728323,143.65458226547344 157.6961628815625,142.98015715216752 157.3014878621325,142.489665813162 155.8919342206791,141.386059230892 154.76429130742326,140.7116322569782 154.48238057945855,140.09851634624647 154.0877055595629,139.73064658022486 153.2419733752031,139.3627766497084 151.8888018792495,138.38178936386248 149.40798747050576,137.0329299349687 148.61863743141294,135.929316029069 148.11119812051766,135.50013244344154 145.68676585750654,134.58045257697813 145.40485512907617,134.33520443894668 144.05168363335542,133.78339586069342 142.9240407203324,132.92502622533357 141.9655442442745,132.55715325009078 141.45810493337922,132.61846542410785 139.54111198103055,133.23158691229764 138.97729052463546,133.1702747840318 137.28582615498453,132.49584107164992 136.6656225528568,132.0053434788133 136.44009396992624,132.066655693925 135.6507439308334,131.69878233462805 134.74862960050814,131.14697198715294 134.3539545808453,130.77909821656067 131.591229443904,129.6141635235981 130.91464369627647,129.4915387229994 128.0955364133697,128.4492271800409 127.64447924820706,129.12366421171464 126.91151135461405,129.67547591694165 126.74236491764896,130.22728725196794 126.46045418921858,130.41122428129893 125.22004698496312,130.77909821656067 124.4306969458703,131.45353333716048 124.2615505089052,132.066655693925 124.99451840249822,135.929316029069 124.76898981980048,137.5234245286556 124.59984338283539,137.7686717158649 124.31793265440501,137.82998350134585 121.61158966342919,137.64604813151527 119.86374314804561,137.27817726833746 118.73610023478977,136.84899438673165 117.94675019569695,136.11325178295374 116.08613938908093,135.25488457950996 115.63508222391829,135.56144439795753 114.45105716516264,136.11325178295374 114.0,136.72637066524476 114.0,137.40080090775155 114.56382145616226,138.7496597331483 116.19890368031338,141.14081312256167 116.53719655424356,141.07950158399763 117.1574001563713,140.466385947424 117.89036805019714,139.97589310910553 118.56695379782468,139.91458148381207 119.80736100231297,140.22113956487738 120.20203602174297,140.0372047298588 120.82223962410353,140.22113956487738 121.66797180869617,141.14081312256167 122.2881754108239,143.28671409044182 123.07752544991672,144.94211958220694 124.48707909160294,146.96538843546296 124.48707909160294,147.70112132991198 125.38919342192821,148.00767650810303 127.53171495697461,149.47913977352437 128.71574001549743,149.6630724965944 129.89976507425308,149.29520700930152 131.0274079872761,148.43685356591595 131.5348472984042,147.76243237464223 131.98590446356684,147.5171881680144 133.84651527018286,148.74340847000713 134.6922474547755,149.47913977352437 134.8613938917406,149.8470051785116 134.4667188723106,152.054194152297 134.6922474547755,152.72861182392808 134.80501174624078,154.13875607697992 135.5943617853336,155.54889791226014 136.6656225528568,156.5911751058884 137.84964761137962,156.65248548786622 139.31558339833282,156.16200230375398 141.23257635044865,154.87448255362688 141.57086922437884,154.50661939760903 142.1910728267394,154.2613772021723 143.2623335942626,155.42627697915304 144.1080657793209,156.65248548786622 144.22083007055335,156.8977269702591 143.99530148762278,157.8173818779178 144.61550508998334,159.47275811992586 144.89741581841372,159.5340682871174 146.30696945963427,159.22751740552485 147.82928739208728,159.35013777180575 149.8026624901686,160.0858595862519 151.21221613138914,160.82158074260224 152.73453406407498,161.2507511130534 153.01644479227252,161.5573012405075 153.2983555207029,162.2317111188895 153.2419733752031,162.78350060805678 153.5238841031678,163.6418390775798 153.63664839440025,164.8067255676142 153.58026624890044,165.97161040775245 153.86217697733082,166.52339738764567 154.48238057945855,166.95256478281226 154.87705559912138,166.89125516853528 155.384494909551,166.52339738764567 156.00469851191156,165.29720359609928 156.2302270946093,163.70314893405885 156.79404855147004,162.72219068318373 157.07595927943476,161.8025412603165 157.07595927943476,160.7602706712787 157.41425215359777,160.0858595862519 157.5270164445974,159.35013777180575 157.41425215359777,158.85965619661147 157.80892717279494,157.8786921685096 158.65465935785323,157.2655890568276 159.27486295998096,157.20427872042637 159.7259201251436,156.8977269702591 160.85356303839944,156.8364166066749 161.1918559120968,156.5298647194286 161.24823805782944,155.79413972364273 161.86844165995717,154.13875607697992 162.26311667962,152.36074770789128 162.60140955355018,151.62501898244955 162.60140955355018,150.95060040586395 161.75567736895755,150.27618127613096 161.135473766597,149.41782885661814 159.7259201251436,148.498164555931 159.1620986687485,148.3755425713025 158.71104150358588,147.88505445054034 158.65465935785323,147.39456603734288 158.4855129206553,146.72014399123145 158.99295223178342,145.98441021930194 159.27486295998096,144.45162941358285 158.0344557557255,143.16409132885747 157.58339859056287,142.91884575068252 156.79404855147004,141.99917418166297 156.0610806576442,141.32474771072157 155.15896632731892,140.77294382289983 154.14408770529553,139.73064658022486 153.3547376662027,139.3627766497084 152.28347689891234,138.56572456914 151.77603758801706,138.4431011035922 151.4941268595867,138.07523059705272 149.91542678140104,137.27817726833746 147.77290524658747,135.6227563478751 146.927173061762,135.31619655247778 144.16444792458788,133.66077168204356 141.90916209854186,132.61846542410785 141.45810493337922,132.61846542410785 140.44322631135583,132.7410897583468 139.7666405637283,132.92502622533357 138.80814408767037,133.0476505138795 136.77838684408925,132.25059231172781 135.4252153483685,131.39222107623937 135.03054032870568,131.33090881077806 134.01566170691513,131.57615784503287 133.11354737658985,131.51484559325036 131.3657008614391,130.71778590534814 129.2231793263927,129.98203781543998 128.49021143303253,129.92072544491384 126.68598277214915,130.28859959950205 125.33281127619557,130.65647358977003 124.4306969458703,131.02434741531033 124.03602192597464,131.51484559325036 123.92325763497502,132.066655693925 124.99451840249822,135.80669217021205 124.71260767406784,137.70735992590198 124.14878621767275,138.4431011035922 123.47220046981238,140.1598279577447 123.24667188711464,141.07950158399763 123.19028974161483,142.85753434477374 123.92325763497502,144.8194970675395 124.93813625676557,145.92309904191643 125.38919342192821,146.96538843546296 125.78386844159104,147.45587710483233 125.67110415012576,147.63981028052513 124.48707909160294,148.00767650810303 122.57008613925427,149.11127420404227 122.34455755678937,150.1535595568712 122.00626468262635,150.5827354946523 122.17541111959144,151.37977592769312 123.13390759588219,152.54467978648609 123.81049334374256,153.70958199503366 125.10728269373067,157.02034768409794 125.16366483946331,158.2465538161341 124.59984338283539,159.96323932957603 124.03602192597464,160.515030340699 123.52858261531219,160.7602706712787 121.83711824566126,160.94420087122126 118.90524667175487,161.0668209817377 118.4541895063594,161.6186112522846 118.39780736085959,162.59957081946777 118.51057165232487,163.58052921656054 119.18715740018524,164.00969814736163 120.37118245870806,164.50017665122868 121.66797180869617,165.4811327813659 123.3594361783471,166.03292009048164 123.75411119800992,166.27815877558896 124.14878621767275,167.25911278504645 125.05090054799803,168.7918510825839 125.05090054799803,169.15970784885576 125.27642913069576,169.77280209382297 125.7274862958584,170.01803966402076 126.4040720439516,170.99898921279237 127.4189506652765,171.42815427249297 128.32106499606743,171.5507728200173 128.99765074369498,171.42815427249297 129.78700078302063,171.1216078242869 130.91464369627647,169.95673027826706 131.92952231760137,167.62697023706278 133.0571652308572,166.58470702933846 133.16992952208966,166.40077809087234 133.0007830853574,166.27815877558896 133.5646045417525,165.78768133214908 134.01566170691513,165.72637163108448 134.74862960050814,165.29720359609928 136.44009396992624,164.868035337131 138.01879404857755,164.07100797630847 138.97729052463546,162.90612044435693 139.5974941267632,161.8025412603165 139.9921691461932,161.0668209817377 139.9921691461932,160.515030340699 140.44322631135583,159.7793089101906 141.74001566157676,159.59537844988517 142.5293657006696,159.84061905462295 142.98042286606506,159.84061905462295 144.16444792458788,159.47275811992586 144.61550508998334,159.5340682871174 145.1229444006458,159.35013777180575 146.81440877052955,159.16620721534127 148.3931088487152,159.47275811992586 148.9005481598433,159.90192919434048 150.0845732181333,160.20847982476698 150.47924823802896,160.63765051518567 151.94518402498215,161.49599122419022 153.12920908350497,161.49599122419022 153.91855912283063,161.128131030011 154.70790916192345,160.02454946027137 155.32811276405118,157.8173818779178 155.15896632731892,155.91676060203463 155.27173061855137,155.11972456617514 155.94831636641175,153.95482435490703 157.01957713370211,153.03516512806527 157.63978073582985,152.238126299344 157.63978073582985,151.19584358861903 157.3014878621325,150.4601138208527 156.00469851191156,148.927341357572 154.87705559912138,148.55947554123122 154.25685199676082,148.0689875301905 153.3547376662027,146.84276622254401 152.79091620980762,145.0034308328759 151.94518402498215,144.20638421957847 151.3249804226216,143.89982762403088 150.53563038352877,143.96113895223243 149.8026624901686,144.20638421957847 149.52075176197104,144.45162941358285 147.82928739208728,145.18736455676844 147.32184808142483,145.3099870167207 145.51761942054145,145.43260945839575 144.84103367268108,145.37129823985742 144.33359436155297,145.18736455676844 143.4878621767275,144.32900682569016 141.85277995280921,141.63130526599707 139.93578700069338,139.91458148381207 139.20281910710037,139.48539997829357 138.46985121350735,138.6270362951327 137.51135473744944,137.09424177510664 137.34220830071718,136.11325178295374 137.17306186351925,135.80669217021205 137.22944400901906,135.25488457950996 137.0602975722868,135.132260620303 136.60924040689133,134.9483246470336 135.6507439308334,135.37750852073077 134.6358653092757,135.50013244344154 133.90289741568267,135.74538023403147 133.62098668748513,136.11325178295374 132.88801879389212,138.99490655469708 132.32419733749703,140.65032068645814 132.8316366483923,143.34802546427818 132.43696162872948,146.29096603760263 132.94440093962476,147.39456603734288 133.5646045417525,148.0689875301905 134.07204385264777,148.3755425713025 135.03054032870568,149.54045068577398 135.03054032870568,150.1535595568712 134.8613938917406,151.07322200632188 134.29757243557833,152.11550487246132 134.41033672657795,153.58696078771027 134.6922474547755,154.38399830908747 135.48159749386832,155.1810350578744 135.6507439308334,155.79413972364273 136.15818324196152,156.3459335321677 136.8347689898219,156.77510623825947 138.75176194193773,156.46855432825396 139.4283476897981,156.16200230375398 140.21769772912376,155.7328292776947 141.6272513703443,154.5679299349431 142.30383711820468,154.38399830908747 143.4314800312277,155.85545016516699 143.88253719639033,156.4072439323645 144.16444792458788,157.8786921685096 144.67188723548315,158.7983459791867 145.0665622553788,159.22751740552485 145.6303837117739,159.10489702085033 145.799530148739,159.22751740552485 146.25058731390163,159.16620721534127 146.25058731390163,159.22751740552485 146.58888018783182,159.16620721534127 147.20908378995955,159.35013777180575 148.61863743141294,159.41144794825232 149.63351605297066,159.90192919434048 151.4941268595867,160.88289080915274 151.8888018792495,161.1894410738023 152.50900548137724,161.3120611476479 152.84729835530743,161.37337117776042 153.97494126833044,160.94420087122126 154.5387627251912,160.33110004483024 154.76429130742326,159.47275811992586 155.32811276405118,158.67572553042555 155.44087705551647,157.6334509786102 155.21534847281873,155.67151882709004 155.44087705551647,154.75186151982052 156.0610806576442,153.89351377187995 157.01957713370211,153.2190970556694 157.86530931852758,152.36074770789128 158.93657008581795,152.54467978648609 160.40250587300397,153.40302894217893 161.41738449479453,153.2190970556694 161.58653093175963,152.48336909810314 162.4322631165851,151.07322200632188 162.4322631165851,150.76666797080543 161.9248238056898,150.27618127613096 160.23335943603888,148.86603039962938 159.21848081424832,148.498164555931 158.65465935785323,148.0689875301905 158.82380579481833,147.27194388827775 158.3727486296557,146.84276622254401 158.31636648369022,146.5975217416999 159.10571652278304,145.98441021930194 159.78230227087624,144.32900682569016 160.0642129990738,144.1450729095377 160.34612372727133,144.20638421957847 160.85356303839944,143.96113895223243 161.75567736895755,144.57425198314013 162.26311667962,144.6968745344784 162.93970242724754,145.24867578910198 163.5599060296081,145.37129823985742 164.23649177746847,145.6165430865367 164.6311667971313,145.98441021930194 165.70242756442167,146.29096603760263 166.0971025840845,146.9040773314191 166.83007047744468,147.5171881680144 168.80344557552598,148.6820974983275 169.14173844945617,149.04996325983666 169.70555990585126,149.11127420404227 170.26938136247918,149.41782885661814 171.17149569280446,149.54045068577398 171.22787783876993,149.6630724965944 171.7916992949322,149.9696269434644 172.01722787786275,150.33749212906696 172.52466718875803,150.39880297734635 172.8629600624554,150.21487041877117 172.80657791695558,150.4601138208527 172.91934220818803,150.5827354946523 173.20125293638557,150.5827354946523 173.93422082997859,150.95060040586395 174.94909945200197,152.054194152297 177.37353171478026,153.1577864176943 177.48629600624554,153.70958199503366 177.99373531714082,154.2000666419044 179.7979639780242,154.813172039052 180.7000783085823,154.5679299349431 181.09475332777947,154.87448255362688 182.10963194980286,155.24234554503346 183.35003915405832,155.91676060203463" stroke="#4dd2ff" stroke-linecap="round" stroke-linejoin="round" stroke-width="0.5"><title>2022-10-25 10.5km</title></polyline><polyline fill="none" points="86.0,222.2128037251823 85.92684413737152,222.1968946460256 85.35622840881115,221.97416741335473 84.90266206051456,221.86280370988243 84.66856330016162,221.8468946046487 84.40520219464088,222.053712880268 84.25889046944212,222.26053095550742 84.24425929691643,222.3878035176458 84.21499695180682,222.45143977021507 84.02479170897277,222.705984590968 83.98089819139568,222.81734785457957 83.95163584634429,222.84916591926594 83.71753708593315,222.99234715152124 83.5127006705734,223.05598322389415 83.0883966673864,223.27870932793303 82.56167445640313,223.48552621644922 82.41536273114616,223.5809800974239 82.2544198333635,223.75597876838583 82.21052631584462,223.88325043894292 82.19589514326071,223.99461308846367 82.02032107289415,224.0741578025627 82.04958341806196,224.28097392052587 81.91790286527248,224.5036987465719 81.93253403773997,224.75824112039118 81.844747002644,224.86960331350565 81.8301158301183,224.94914770156902 81.8154846575344,225.0764186608576 81.844747002644,225.18778068800748 81.8154846575344,225.45823108353943 81.8301158301183,225.6332282157673 81.77159113995731,225.87186043758993 81.80085348512512,225.95140445228026 81.69843527738703,226.25367143773474 81.68380410480313,226.54002923979715 81.69843527738703,226.63548175514734 81.63991058728425,226.9695652227383 81.72769762238022,227.1763785359508 81.75695996748982,227.46273510043102 81.72769762238022,227.78090861052624 81.69843527738703,227.8445432556764 81.66917293233564,228.05135572134168 81.69843527738703,228.21044209708634 81.63991058728425,228.3536197339272 81.59601706970716,228.8467864147824 81.52286120702047,229.11723217550025 81.52286120702047,229.22859209509625 81.61064824223286,229.3399519565719 81.71306644997094,229.61039709266333 81.71306644997094,229.72175675501057 81.77159113995731,230.27855419562547 81.72769762238022,230.4694558410265 81.75695996748982,230.6285404151422 81.72769762238022,230.67626576428302 81.74232879496412,230.75580798911687 81.71306644997094,231.10579342640995 81.75695996748982,231.24896912176337 81.80085348512512,231.29669433223899 81.8301158301183,231.39214472116146 81.80085348512512,231.63077050677384 81.8154846575344,231.75803748340695 81.74232879496412,231.99666286009597 81.75695996748982,232.31482961427537 81.71306644997094,232.44209618319292 81.74232879496412,232.5216377502511 81.74232879496412,232.87162029334286 81.69843527738703,233.12615269166417 81.71306644997094,233.30114353953104 81.63991058728425,233.77839057757228 81.66917293233564,234.0170136966044 81.62527941475855,234.11246286956884 81.65454175980994,234.16018744006578 81.59601706970716,234.33517744056007 81.62527941475855,234.44653463894792 81.58138589718146,234.55789177927363 81.56675472465577,234.65334071050165 81.61064824223286,234.732881453936 81.63991058728425,234.92377911721996 81.61064824223286,235.1146766099264 81.56675472465577,235.14649284207553 81.59601706970716,235.14649284207553 81.34728713677032,235.00331975992594 81.11318837635918,235.1783090695535 80.86445844342234,235.21012529225845 80.73277789063286,235.27375772346568 80.67425320064649,235.3373901356972 80.5572038203245,235.41693062434206 80.49867913027992,235.41693062434206 80.38162975001615,235.46465490326227 80.23531802475918,235.46465490326227 80.05974395445082,235.48056299387827 79.81101402151398,235.56010342919035 79.63543995120563,235.65555191246676 79.47449705348117,235.65555191246676 79.3428165006917,235.70327613811241 78.99166836007498,235.73509228261537 78.69904490956105,235.7987245573604 78.42105263157282,236.02143736978178 78.4795773216756,235.9259890500398 78.36252794147003,235.9259890500398 78.34789676888613,235.89417293398583 78.18695387116168,235.95780516134982 77.83580573060317,235.98962126791594 77.77728104044218,236.02143736978178 77.60170697007561,236.02143736978178 77.17740296688862,236.13279368887015 77.03109124163166,236.08506955920893 76.24100792524405,236.32369010080583 75.87522861210164,236.37141417710518 75.39239991869545,236.48277031374164 75.31924405606696,236.46686229776242 75.21682584838709,236.49867832848395 75.1875635033357,236.5304943545052 75.04125177813694,236.57821838460222 74.58768542978214,236.62594240404724 74.26579963421682,236.70548241275537 74.16338142659515,236.76911439841206 74.09022556390846,236.73729840794113 73.91465149365831,236.78502239185036 73.72444625076605,236.76911439841206 73.4903474903549,236.83274636509304 73.38792928261682,236.83274636509304 73.30014224752085,236.88047032765462 72.87583824433386,236.9441022611427 72.77342003659578,236.97591822080722 72.714895346493,237.13499794786912 72.65637065639021,237.16681387905555 72.58321479376173,237.16681387905555 71.96870554762427,237.27816960094788 71.54440154437907,237.43724910289166 71.4273521641735,237.43724910289166 71.28104043897474,237.51678880947293 70.97378581587691,237.580420553335 70.84210526320385,237.59632848635374 70.72505588294007,237.54860468376137 70.49095712258713,237.54860468376137 69.7740296687698,237.65996020656894 69.13025807763916,237.65996020656894 68.85226579965092,237.69177605955338 68.12070717330789,237.8508552534331 67.94513310305774,237.83494733939006 67.87197724042926,237.8667631662829 67.34525502944598,237.9303948059387 67.14041861408623,237.97811852319865 66.80390164599521,238.0099343288166 66.71611461084103,237.9303948059387 66.55517171305837,237.94630271288042 66.36496647028252,237.9303948059387 66.0284495021915,237.83494733939006 65.92603129445342,237.83494733939006 65.72119487909367,237.80313150770962 65.29689087579027,237.8826710780122 65.09205446048873,237.8190394241392 64.81406218250049,237.80313150770962 64.66775045724353,237.8508552534331 64.56533224956365,237.91448689778917 64.47754521440947,237.9303948059387 64.33123348915251,238.02584222979203 64.14102824631846,238.07356592574797 64.06787238368997,238.12128961103735 63.83377362327883,238.1531053953513 63.775248933176044,238.1053817171778 63.5411501727649,238.1531053953513 63.482625482662115,238.12128961103735 63.21926437714137,238.13719750379096 63.1461085145711,238.12128961103735 62.7071733388002,238.1531053953513 62.531599268491846,238.12128961103735 61.99024588498287,238.1053817171778 61.52204836416058,237.99402642657515 61.27331843122374,237.83494733939006 61.21479374112096,237.83494733939006 60.849014427978545,237.580420553335 60.57102214999031,237.4849729303678 60.11745580169372,237.38952526474895 60.05893111159094,237.3418014159397 59.941881731385365,237.32589346397435 59.8102011786541,237.3577093667409 59.56147124571726,237.24635368635063 59.13716724247206,237.3099855108303 58.917699654528406,237.3099855108303 58.77138792932965,237.3418014159397 58.259296890872065,237.3099855108303 58.1129851656151,237.3418014159397 57.995935785467736,237.32589346397435 57.93741109536495,237.3099855108303 57.87888640520396,237.2622616442386 57.7325746800052,237.24635368635063 57.7325746800052,237.21453776698036 57.57163178216433,237.24635368635063 57.45458240195876,237.23044572725485 56.95712253602687,237.10318201193877 56.810810810828116,237.10318201193877 56.67913025809685,237.0713660712354 56.415769152576104,237.0713660712354 56.29871977242874,237.03955012583174 55.88904694170924,237.03955012583174 55.75736638897797,236.9918261988205 55.611054663721006,237.0077341756696 55.333062385674566,236.9441022611427 55.2160130055272,236.86456234128855 54.95265190000646,236.89637831279833 54.89412720996188,236.92819427957875 54.64539727702504,237.3099855108303 54.51371672429377,237.56451261912298 54.4112985166139,237.64405227827956 54.13330623856746,237.67586813369417 53.88457630563062,237.65996020656894 53.50416581996251,237.7076839842921 53.313960577128455,237.69177605955338 53.226173542032484,237.72359190783754 52.83113188378047,237.65996020656894 52.436090225644875,237.64405227827956 52.3044096728554,237.59632848635374 51.76305628940463,237.59632848635374 51.63137573667336,237.56451261912298 51.4850640114164,237.469064989069 51.294858768582344,237.19862980555627 51.090022353222594,236.83274636509304 50.87055476527894,236.81683837516175 50.504775452194735,236.88047032765462 50.2267831742065,236.89637831279833 49.65616744564613,236.83274636509304 49.53911806544056,236.86456234128855 49.07092054456007,236.75320640376594 48.93923999188701,236.70548241275537 48.866084129258525,236.5941263922723 48.85145295673283,236.5145863420912 48.80755943921395,236.46686229776242 48.661247713898774,236.5145863420912 48.38325543591054,236.5145863420912 47.92968908761395,236.41913824276708 47.76874618983129,236.41913824276708 47.666327982151415,236.37141417710518 47.44686039420776,236.22824191616382 46.93476935586659,236.1009776035935 46.61288356030127,236.08506955920893 46.510465352621395,236.1009776035935 46.422678317467216,236.14870172970404 46.27636659221025,236.3077820729959 46.232473074574955,236.32369010080583 46.11542369436938,236.27596601381083 45.63259500107961,236.3077820729959 45.50091444829013,236.24414994991093 45.25218451535329,236.212333881238 44.54988823417807,236.1964258451335 44.40357650880469,236.16460976935923 44.3889453363372,236.18051780785026 44.213371266028844,236.08506955920893 43.145295671594795,235.91008099257306 42.94045925629325,235.9259890500398 42.808778703561984,235.98962126791594 42.54541759809945,236.00552931943093 42.42836821783567,235.95780516134982 42.25279414758552,235.97371321525134 41.76996545417933,235.89417293398583 41.72607193660224,235.91008099257306 41.579760211345274,235.7987245573604 41.4773420036654,235.78281649043493 41.31639910588274,235.71918421093142 40.994513310317416,235.67145998885098 40.93598862021463,235.62373575608945 40.584840479597915,235.52828725865402 40.11664295877563,235.4964710833301 39.970331233518664,235.41693062434206 39.75086364563322,235.3851144324144 39.677707783004735,235.41693062434206 39.589920747850556,235.40102252895304 39.4143466775422,235.41693062434206 39.09246088191867,235.35329823577194 38.946149156661704,235.35329823577194 38.84373094904004,235.32148203441466 38.5803698435775,235.30557393193885 38.37553342821775,235.22603340185015 38.112172322697006,235.24194151023403 37.29282666131621,235.05104413132358 37.02946555579547,235.01922788491356 36.73684210528154,234.92377911721996 36.10770168667659,234.82833030691836 35.888234098791145,234.76469774296856 35.75655354605988,234.79651402732998 35.68339768337319,234.76469774296856 35.42003657791065,234.732881453936 35.28835602523759,234.68515701142314 35.18593781749951,234.68515701142314 35.03962609230075,234.65334071050165 34.98110140213976,234.6692488615663 34.8201585044153,234.6215244048508 34.67384677915834,234.6215244048508 34.46901036379859,234.58970809444145 34.38122332864441,234.5419836199435 34.23491160332924,234.52607545943465 34.14712456817506,234.5419836199435 33.95691932539921,234.51016729770345 33.81060760008404,234.51016729770345 33.44482828694163,234.4306264713232 33.254623044107575,234.44653463894792 33.005893111170735,234.4306264713232 32.713269660656806,234.35108561534435 32.65474497055402,234.3669937889208 32.20117862225743,234.2556365490309 32.01097337936517,234.2556365490309 31.86466165416641,234.20791199989617 31.542775858659297,234.17609562784492 31.440357650921214,234.12837106089864 30.942897785047535,234.08064648335858 30.284495021391194,233.93747268654988 29.377362324739806,233.85793164686766 29.231050599482842,233.826115222706 28.9969518390717,233.6988494786201 28.675066043506376,233.63521657814272 28.5726478358265,233.63521657814272 28.338549075415358,233.58749189032824 28.17760617757449,233.6034001208027 27.694777484284714,233.57158365871874 27.226579963462427,233.47613424397423 26.992481203051284,233.47613424397423 26.963218857941683,233.46022600405558 26.714488925004844,233.44431776294368 26.568177199806087,233.46022600405558 26.275553749292158,233.396593032463 26.18776671413798,233.4125012771401 26.056086161348503,233.36477653955808 25.6610445031547,233.396593032463 25.368421052698977,233.34886829131574 25.178215809806716,233.36477653955808 25.134322292287834,233.33296004188014 24.75391180656152,233.38068478657806 24.16866490553366,233.36477653955808 23.99309083528351,233.4125012771401 23.363950416620355,233.33296004188014 23.01280227600364,233.33296004188014 22.881121723214164,233.30114353953104 22.778703515592497,233.30114353953104 22.778703515592497,233.28523528654478 22.676285307854414,233.28523528654478 22.295874822244514,233.2375105205283 22.251981304609217,233.20569400391832 22.164194269513246,233.22160226281267 21.783783783845138,233.18978574385983 21.44726681575412,233.1102444256394 21.344848608016036,233.1420609564957 21.0814875025535,233.07842789009737 20.86201991472626,233.07842789009737 20.40845356642967,232.96706997825822 20.40845356642967,232.9352534213831 20.42308473889716,232.95116170038818 20.393822393845767,232.96706997825822 20.247510668588802,232.9352534213831 19.779313147824723,232.96706997825822 19.618370249983855,232.95116170038818 19.51595204230398,232.88752857713553 19.38427148957271,232.87162029334286 18.88681162369903,232.85571200837148 18.535663483140524,232.7443539803935 18.36008941277396,232.76026227367402 18.038203617208637,232.66481249633944 17.65779313154053,232.63299589436792 17.160333265608642,232.5057294392318 17.072546230454464,232.44209618319292 17.028652712877374,232.33073793952644 16.955496850248892,232.2830129601789 16.75066043488914,232.2034713042376 16.604348709690385,232.18756296951324 16.458036984375212,232.12392961865407 16.34098760416964,232.13983795816603 16.150782361393794,232.2511963013676 15.858158910879865,232.26710463137715 15.082706766901538,232.1716546335665 15.024182076915167,232.13983795816603 14.73155862634303,232.07620459311875 14.307254623097833,232.04438790347194 14.190205242834054,231.99666286009597 14.0,231.99666286009597" stroke="#4dd2ff" stroke-linecap="round" stroke-linejoin="round" stroke-width="0.5"><title>2022-10-21 10.5km</title></polyline></svg>