<?xml version="1.0" encoding="utf-8" ?>
<svg baseProfile="full" height="300mm" version="1.1" viewBox="0,0,200,300" width="200mm" xmlns="http://www.w3.org/2000/svg" xmlns:ev="http://www.w3.org/2001/xml-events" xmlns:xlink="http://www.w3.org/1999/xlink"><defs /><rect fill="#222222" height="300" width="200" x="0" y="0" /><text fill="#FFFFFF" style="font-size:12px; font-family:Arial; font-weight:bold;" x="10" y="20">Over 10km Runs</text><text fill="#FFFFFF" style="font-size:4px; font-family:Arial" x="10" y="280">ATHLETE</text><text fill="#FFFFFF" style="font-size:9px; font-family:Arial" x="10" y="290">safeoy</text><text fill="#FFFFFF" style="font-size:4px; font-family:Arial" x="120" y="280">STATISTICS</text><text fill="#FFFFFF" style="font-size:3px; font-family:Arial" x="120" y="285">Number: 8</text><text fill="#FFFFFF" style="font-size:3px; font-family:Arial" x="120" y="290">Weekly: 1.1</text><text fill="#FFFFFF" style="font-size:3px; font-family:Arial" x="141" y="285">Total: 70.6 km</text><text fill="#FFFFFF" style="font-size:3px; font-family:Arial" x="141" y="290">Avg: 8.8 km</text><text fill="#FFFFFF" style="font-size:3px; font-family:Arial" x="167" y="285">Min: 2.2 km</text><text fill="#FFFFFF" style="font-size:3px; font-family:Arial" x="167" y="290">Max: 12.5 km</text><polyline fill="none" points="13.0,63.82655989512568 13.306045340024866,63.78958888306806 13.510075566649903,63.80807438978809 13.867128463461995,63.84504539905174 13.935138539003674,63.900501902680844 14.020151133474428,63.91898740117904 14.105163727886975,63.900501902680844 14.258186397957616,63.78958888306806 14.377204030111898,63.75261786550982 14.717254408053122,63.715646842407295 14.904282115807291,63.77110337495105 15.210327455832157,63.77110337495105 15.499370276986156,63.715646842407295 15.601385390385985,63.73413235465705 15.80541561706923,63.66019029750896 16.196473551623058,63.66019029750896 16.29848866496468,63.697161328818765 16.621536523860414,63.6786758138478 16.825566750601865,63.715646842407295 16.99559193942696,63.66019029750896 17.318639798497315,63.62321926068398 17.964735516288783,63.66019029750896 18.440806045313366,63.56776269507827 18.644836271938402,63.40139292400272 18.831863979808986,63.30896522523835 19.30793450877536,63.29047968136729 19.392947103246115,63.2350230414595 19.784005037741736,63.10562416681205 19.971032745554112,63.16108083559084 20.345088161120657,62.92076851458114 20.685138538945466,62.86531179206213 20.87216624681605,62.73591272470367 21.195214105769992,62.71742713810818 21.365239294653293,62.56954239610059 21.518261964665726,62.49559999202029 21.756297229148913,62.477114387540496 21.807304785819724,62.4216575659666 22.640428211539984,62.25528702669544 22.82745591935236,62.088916375956615 23.32052896724781,61.86708866820845 23.439546599402092,61.88557431809022 23.643576826143544,61.84860301691515 23.949622166226618,61.70071775728138 24.119647355168127,61.68223209361895 24.34068010072224,61.58980375468673 24.61272040294716,61.44191834083176 24.799748110759538,61.36797560087871 25.071788413100876,61.22009005486325 25.700881612021476,60.94280441859155 25.93891687656287,60.776432888174895 26.006926952046342,60.68400421195838 26.17695214104606,60.62854698971205 26.77204030228313,60.1109456512786 26.874055415566545,60.12943143195298 27.18010075559141,60.01851672724297 27.707178841228597,60.055488300989964 28.132241813582368,59.83365877594042 28.370277078007348,59.68577231577365 28.489294710278045,59.66728650208097 28.557304785877932,59.59334323347139 28.744332493690308,59.519399942772 28.89735516370274,59.408484965519165 29.118387909256853,59.334541619740776 29.62846347608138,59.1311973053962 29.815491183893755,59.02028215465543 30.155541561718564,58.946338693247526 30.563602015085053,58.81693758284382 30.835642317368183,58.687536404962884 31.14168765739305,58.59510695087374 31.20969773293473,58.53964926193294 31.328715365263633,58.52116336283507 31.821788413100876,58.35479020923958 32.331863979808986,58.33630429636105 32.824937027704436,58.243874711493845 32.90994962211698,58.28084654957638 33.07997481105849,58.299332466573105 33.14798488660017,58.35479020923958 33.52204030228313,58.502677462398424 33.624055415566545,58.687536404962884 33.69206549116643,58.65056462745997 34.03211586899124,58.65056462745997 34.40617128461599,58.59510695087374 34.59319899237016,58.65056462745997 34.678211586899124,58.65056462745997 35.17128463467816,58.4841915605939 35.3243073047488,58.39176203077659 35.52833753149025,58.39176203077659 35.6133501259028,58.33630429636105 36.32745591941057,58.299332466573105 36.78652392944787,58.15144509219681 37.17758186394349,58.132959164184285 37.26259445841424,58.11447323484754 37.34760705282679,58.059015438484494 37.94269521406386,57.96658575034235 38.31675062968861,57.80021222495998 38.57178841304267,57.726268400088884 39.030856423138175,57.670810516996426 39.132871536538005,57.689296479395125 39.31989924435038,57.615352621505735 39.62594458437525,57.59686665360641 39.72795969771687,57.55989471361681 40.034005037741736,57.55989471361681 40.11901763215428,57.57838068426645 40.204030226683244,57.54140874155564 40.289042821154,57.54140874155564 40.51007556670811,57.55989471361681 40.68010075570783,57.70778244041139 40.78211586899124,57.87415602777037 40.935138538945466,57.98507169073855 40.969143576861825,58.077501371953986 41.15617128461599,58.299332466573105 41.68324937025318,58.63207873664214 41.70025188912405,58.724508176979725 41.870277078065556,58.87239520986623 41.92128463473637,58.946338693247526 42.12531486147782,58.9278528244904 42.49937027704436,58.55813515963382 42.822418135998305,58.18841694404546 43.02644836268155,58.040529503588914 43.162468513823114,58.00355762972322 43.247481108352076,57.9296138654754 43.33249370276462,57.911127920946456 43.58753148611868,58.09598730407015 43.706549118389376,58.059015438484494 43.79156171280192,57.98507169073855 44.284634760639165,57.892641975020524 44.47166246850975,57.911127920946456 44.87972292187624,57.855670079166885 45.18576826195931,57.892641975020524 45.45780856418423,57.855670079166885 45.49181360192597,57.76324031523836 45.4238035264425,57.689296479395125 45.52581863984233,57.33806295818067 45.729848866467364,57.319576969588525 46.154911838821135,57.35654894536128 46.562972292129416,57.30109097964305 46.86901763221249,57.375034931174014 47.07304785895394,57.33806295818067 47.58312342566205,57.35654894536128 47.92317380348686,57.319576969588525 48.16120906797005,57.33806295818067 48.2462216624408,57.319576969588525 48.73929471033625,57.33806295818067 48.94332493696129,57.282604988329695 49.09634760703193,57.33806295818067 49.38539042818593,57.375034931174014 49.623425692669116,57.448978860658826 49.94647355162306,57.50443679334421 51.05163727956824,57.98507169073855 51.340680100780446,58.1699310188269 51.56171284633456,58.39176203077659 51.64672544080531,58.53964926193294 51.61272040300537,58.853909335579374 51.66372795967618,58.946338693247526 51.850755667488556,58.983310426730895 52.00377833750099,59.09422559397353 52.683879093208816,59.27908409597876 53.074937027704436,59.35302745827357 53.73803526442498,59.42697079847858 54.43513853906188,59.408484965519165 54.537153652403504,59.42697079847858 54.72418136021588,59.38999913111911 55.01322418136988,59.38999913111911 55.72732997476123,59.29756993865885 56.11838790931506,59.20514071172511 56.03337531484431,59.168169011347345 55.94836272037355,59.186654862205614 55.982367758173496,59.07573973624676 56.06738035270246,59.03876801658771 56.28841309825657,59.00179629136983 56.66246851388132,58.853909335579374 56.93450881604804,58.669050516880816 57.274559193931054,58.502677462398424 57.34256926953094,58.428733846812975 57.44458438287256,58.39176203077659 57.51259445847245,58.31781838212919 57.988664987380616,58.15144509219681 57.8866498740972,58.132959164184285 57.63161209068494,58.20690286788158 57.54659949627239,58.243874711493845 57.34256926953094,58.44721975275024 57.597607052884996,58.373276120677474 57.78463476075558,58.243874711493845 57.90365239290986,58.26236063121178 58.19269521406386,58.18841694404546 58.24370277073467,58.077501371953986 59.671914357692,57.264118995604804 60.21599496220006,57.02380096518027 60.48803526448319,56.875912830844754 60.69206549122464,56.82045475773339 61.457178841286805,56.48770605883328 62.001259445853066,56.210415135647054 62.392317380348686,56.0994986796577 62.800377833715174,56.08101259882096 63.32745591935236,56.17344298916578 63.735516372777056,56.1179847590829 64.87468513852218,56.24738727667136 65.6738035264425,56.33981760502502 65.87783375318395,56.39527578552952 66.14987405540887,56.39527578552952 66.23488664982142,56.45073395365034 66.62594458431704,56.52467815850105 66.81297229212942,56.52467815850105 67.0,56.59862234139291" stroke="#4dd2ff" stroke-linecap="round" stroke-linejoin="round" stroke-width="0.5"><title>2023-05-21 5.5km</title></polyline><polyline fill="none" points="187.0,51.34009703654738 186.5539823009167,51.236174156321795 186.44247787614586,51.097610243727104 185.96460176992696,51.0110077563877 185.61415929201758,51.04564875521464 185.45486725668889,51.114930737312534 185.29557522124378,51.21885367175855 185.15221238933736,51.35741751201567 184.99292035400867,51.56526311764901 184.67433628323488,51.87703117747151 184.4831858407124,52.119517157174414 183.79823008849053,52.5525272058876 183.47964601771673,52.81233284791233 183.30442477879114,53.03749750275165 183.27256637171376,53.19338059758593 183.0814159292495,53.349263587850146 182.96991150447866,53.69566985860001 182.92212389380438,53.764951050819946 182.9061946903239,53.851552512001945 182.92212389380438,53.95547422286472 182.890265486727,54.145997238738346 182.890265486727,54.33652009848447 182.84247787611093,54.561683276842814 182.77876106201438,54.6482844412094 182.7309734513401,55.029329181066714 182.77876106201438,55.11593017121777 182.84247787611093,55.42769346853311 182.85840707970783,55.70481604842644 182.9061946903239,55.878017493116204 182.82654867257224,56.15513953616028 182.84247787611093,56.2590602170967 182.79469026549486,56.44958134488843 182.76283185841748,56.88258332721307 182.71504424780142,56.9865036829724 182.69911504426273,57.1770242144994 182.61946902656928,57.50610476480506 182.53982300887583,57.71394487237558 182.571681415895,57.90446480768151 182.53982300887583,58.09498458687449 182.5876106194919,58.37210398691241 182.55575221241452,58.49334362056106 182.571681415895,58.70118284544151 182.52389380527893,59.012941334280185 182.55575221241452,59.13418063370045 182.49203539825976,59.5325378865964 182.53982300887583,60.3638899546786 182.52389380527893,60.57172750715108 182.571681415895,60.97008229671337 182.50796460185666,61.73215042690572 182.46017699112417,61.90534738083079 182.4442477876437,62.217101572750835 182.38053097343072,63.221640014016884 182.4123893805663,63.4814337320131 182.33274336287286,64.4166887132742 182.2530973451212,64.76307849229488 182.30088495573727,64.97091211202496 182.2690265487181,65.14410665318428 182.2690265487181,65.38657879405946 182.23716814158252,65.49049534846563 181.9504424778861,65.52513418959279 181.69557522126706,65.61173126987705 181.4884955752059,65.62905068205146 181.21769911504816,65.71564772362763 180.8353982301196,65.76760593311337 180.75575221236795,65.81956413095759 180.43716814159416,65.88884171002428 180.3575221239007,65.94079988078738 179.95929203543346,66.02739680625382 179.7362831858918,66.11399369944411 179.44955752213718,66.18327119079186 178.82831858407008,66.23522929576575 177.56991150445538,66.52965833789494 177.09203539823648,66.56429702421883 176.78938053100137,66.6508937174367 176.13628318585688,66.75480970677745 174.8619469026453,67.03191878453072 174.670796460181,67.0492380909418 174.3681415929459,67.17047319957055 174.17699115042342,67.20511179041932 173.65132743370486,67.27438895669184 173.55575221241452,67.30902753207192 173.1097345133312,67.34366610232973 172.9345132743474,67.39562394793029 172.72743362834444,67.36098538545775 172.24955752212554,67.46490105740668 171.93097345135175,67.44758178196207 171.72389380529057,67.49953960438143 171.43716814159416,67.48222033155616 170.95929203543346,67.62077447824413 170.7522123893723,67.60345521441195 170.17876106192125,67.93252100647078 170.06725663720863,68.03643642296083 169.70088495581876,68.1230325679062 169.3026548672933,68.15767101688834 168.93628318584524,68.22694789929665 168.5221238937811,68.22694789929665 168.0442477876204,68.31354397327232 167.2796460177051,68.29622476107033 166.18053097341908,68.50405522254005 165.89380530972267,68.45209762458398 165.7026548673166,68.4001400150446 165.527433628391,68.27890554757323 165.28849557525245,68.22694789929665 165.01769911509473,68.24426711666456 164.428318584105,68.20962868061906 164.1256637168117,68.26158633276646 163.93451327440562,68.33086318425194 163.50442477874458,68.60797038364399 163.07433628319995,68.74652385954687 162.91504424775485,68.8677580831718 162.50088495574892,68.90239642118104 162.1982300885138,68.97167308171629 162.10265486728167,68.9370347540098 161.76814159291098,68.9370347540098 161.16283185844077,68.97167308171629 160.6371681415476,68.9370347540098 159.96814159292262,68.9889922436123 159.45840707962634,68.9370347540098 159.29911504429765,68.79848139167007 159.17168141598813,68.64260876034677 159.10796460177517,68.4001400150446 159.09203539817827,68.19230946064636 159.10796460177517,68.08839411380177 158.99646017700434,67.98447872049292 158.83716814161744,67.89788252393191 158.1044247787795,67.81128629512386 158.00884955748916,67.77664779458428 157.38761061948026,67.74200928887876 157.18053097341908,67.69005152062164 156.97345132741611,67.70737077802187 156.8619469026453,67.67273226196994 156.67079646023922,67.69005152062164 156.2247787610977,67.58613594934286 155.46017699112417,67.53417814624845 155.36460176995024,67.49953960438143 154.44070796464803,67.48222033155616 154.12212389381602,67.4302625052369 153.6601769911358,67.27438895669184 153.48495575226843,67.23975037616037 153.3734513274976,67.25706966707367 153.26194690261036,67.23975037616037 153.18230088497512,67.29170824505854 153.11858407082036,67.3783046673343 153.0389380531269,67.5514974152029 153.00707964599133,67.72469003408332 152.8796460176818,67.880563280778 152.81592920358526,68.03643642296083 152.65663716814015,68.15767101688834 152.54513274336932,68.17499023942219 151.4778761062189,68.15767101688834 150.88849557522917,68.08839411380177 149.80530973454006,68.05375565454597 149.61415929201758,68.00179795594886 149.45486725663068,67.79396704552346 149.31150442484068,67.65541300202312 149.21592920355033,67.51685887596977 149.13628318585688,67.44758178196207 149.0884955751826,67.36098538545775 148.99292035400867,67.30902753207192 148.65840707963798,67.32634681780473 148.37168141594157,67.39562394793029 147.43185840704245,67.25706966707367 147.01769911503652,67.34366610232973 146.890265486727,67.34366610232973 146.38053097343072,67.29170824505854 145.82300884957658,67.18779249567888 145.647787610651,67.18779249567888 145.44070796458982,67.1358346035704 144.59646017698105,67.0492380909418 143.8796460176818,66.9106836036517 143.00353982299566,66.7721290338377 142.923893805244,66.68553238571621 142.89203539822483,66.61625504404947 141.95221238938393,66.51233899279032 141.5221238937811,66.40842289509601 140.5823008849402,66.28718738911266 140.50265486724675,66.25254866153409 140.12035398225999,66.23522929576575 139.9451327433344,66.3045067510102 139.84955752210226,66.3218261115544 139.54690265486715,66.21790992871684 138.92566371674184,66.18327119079186 138.73451327433577,66.07935494605044 138.46371681417804,65.9927580399526 137.17345132742776,65.7849253336899 136.791150442441,65.73296712808951 136.59999999997672,65.73296712808951 136.09026548673864,65.6463700929744 135.6601769910776,65.6810089108767 135.29380530968774,65.55977302558313 134.83185840706574,65.45585650215799 134.2743362832116,65.36925936379703 133.89203539816663,65.33462049944501 133.52566371677676,65.23070387534972 133.19115044252248,65.21338443353307 133.0,65.14410665318428" stroke="#4dd2ff" stroke-linecap="round" stroke-linejoin="round" stroke-width="0.5"><title>2023-04-22 6.2km</title></polyline><polyline fill="none" points="66.90707964601461,111.74441627347551 66.89380530978087,111.90318419938558 66.9336283186567,111.97535139536194 66.98672566370806,112.14855255612929 66.94690265483223,112.3217535619915 66.96017699118238,112.53825460158987 66.86725663719699,112.85578902192356 66.8407079646131,113.08672281888721 66.8407079646131,113.40425634014537 66.81415929208742,113.505289624125 66.81415929208742,113.7362226467958 66.86725663719699,114.16922132227046 66.82743362832116,114.31355399901804 66.86725663719699,114.42902006296208 66.7743362832116,114.64551874740573 66.7743362832116,114.70325168907584 66.7743362832116,114.89088363062183 66.82743362832116,114.94861649915401 66.82743362832116,115.02078256063396 66.81415929208742,115.1073817988945 66.85398230090505,115.16511460291804 66.90707964601461,115.52594423817936 66.86725663719699,115.59811008456745 66.86725663719699,115.74244169672602 66.80088495573727,115.87234005573555 66.8407079646131,116.03110459847085 66.81415929208742,116.11770338509814 66.81415929208742,116.20430213306099 66.7743362832116,116.44966504198965 67.0,116.86822458116512 66.98672566370806,116.95482299363357 67.0,117.02698830778536 66.80088495573727,117.45997962811089 66.82743362832116,117.63317588526115 66.81415929208742,117.70534094671893 66.92035398230655,118.03729988320265 66.88053097343072,118.35482529019646 66.78761061950354,118.61461841793789 66.76106194686145,118.9610087130859 66.681415929168,119.2208010279719 66.70796460181009,119.27853260622942 66.7743362832116,119.24966681926162 66.74778761062771,119.3073983888753 66.78761061950354,119.37956282673986 66.85398230090505,119.43729435764544 66.82743362832116,119.53832449538459 66.89380530978087,119.85584744237713 66.72123893804383,119.91357883140154 66.01769911509473,120.02904155780561 65.31415929202922,120.20223551838717 64.42477876105113,120.36099651292898 63.800884955737274,120.5053245769086 63.721238938043825,120.57748856853868 63.548672566364985,120.62078695063246 63.26991150440881,120.67851811171568 63.030973451328464,120.67851811171568 61.95575221237959,120.96717365909717 61.26548672566423,121.06820299907122 60.85398230084684,121.16923228638188 60.64159292035038,121.18366503743164 60.15044247789774,121.27026152100007 60.07079646020429,121.29912700694695 59.63274336286122,121.37129070299852 59.55309734516777,121.38572343894339 59.39380530978087,121.37129070299852 58.87610619474435,121.4434543720854 58.703539823007304,121.5011852880416 57.74778761062771,121.61664706839656 57.66814159293426,121.65994521824177 57.601769911532756,121.71767606971844 57.26991150440881,121.90530121813936 57.163716814189684,122.00633006900898 56.314159292087425,122.13622422835033 55.59734513272997,122.17952226211492 55.39823008852545,122.20838761259802 55.066371681459714,122.20838761259802 54.44247787614586,122.25168563025363 53.96460176992696,122.33828163651924 53.72566371684661,122.28055096996832 53.28761061950354,122.09292618490872 52.969026548729744,122.0640608172398 52.623893805313855,121.91973391434294 52.491150442452636,121.89086852087348 51.933628318598494,121.91973391434294 51.86725663719699,121.90530121813936 51.2300884956494,121.96303199652175 50.84513274341589,121.97746468838886 50.646017699094955,121.91973391434294 50.03539823007304,121.91973391434294 49.17256637167884,121.8475704225857 49.09292035398539,121.86200312312576 48.933628318598494,121.81870501837693 48.30973451328464,121.87643582251621 47.06194690265693,121.67437793273712 46.47787610616069,121.68881064612651 46.29203539824812,121.65994521824177 46.21238938055467,121.67437793273712 45.8407079646131,121.65994521824177 45.11061946902191,121.55891618681198 44.95132743369322,121.55891618681198 44.28761061944533,121.5300507396023 44.1150442478247,121.48675256069691 43.90265486721182,121.5011852880416 43.703539823007304,121.45788710268971 43.39823008852545,121.32799248861556 43.22566371684661,121.31355974829057 43.1592920353869,121.32799248861556 43.026548672583885,121.51561801436765 42.893805309722666,121.80427231463545 42.78761061950354,121.97746468838886 42.66814159293426,122.04962813180464 42.336283185868524,122.0640608172398 41.69911504432093,122.04962813180464 41.128318584058434,121.97746468838886 40.42477876105113,121.97746468838886 40.11946902656928,121.93416660946968 40.05309734516777,121.87643582251621 39.66814159293426,121.3424252277764 39.588495575182606,121.31355974829057 39.44247787608765,121.31355974829057 39.296460176992696,121.3568579658895 39.12389380537206,121.37129070299852 38.566371681401506,121.3424252277764 38.39380530978087,121.29912700694695 38.11504424776649,121.3424252277764 37.876106194686145,121.32799248861556 37.80973451322643,121.3568579658895 37.199115044262726,121.29912700694695 37.00000000005821,121.29912700694695 36.774336283211596,121.21253053624241 36.084070796496235,121.15479953426984 35.72566371684661,121.08263575761521 35.38053097348893,120.9816064251645 34.94247787608765,120.95274089193845 34.80973451328464,120.86614426643064 34.33185840706574,120.76511482110072 33.774336283211596,120.70738368583261 33.69469026551815,120.67851811171568 33.429203539853916,120.64965253333503 33.26991150440881,120.59192136363708 33.11061946908012,120.59192136363708 32.526548672583885,120.5053245769086 32.234513274393976,120.43316055832838 32.07522123894887,120.5053245769086 31.836283185868524,120.53419017673878 31.756637168116868,120.51975737736211 31.119469026569277,120.41872775141383 30.986725663766265,120.31769807277306 30.840707964613102,120.27439962294011 30.49557522131363,120.23110116343014 30.123893805313855,120.14450421536458 29.4336283186567,120.08677289518528 28.86283185845241,119.94244451943086 28.451327433635015,119.95687736186665 28.17256637167884,119.85584744237713 27.58849557529902,119.74038461277087 27.256637168116868,119.71151889458997 27.004424778802786,119.6249217143486 26.340707964613102,119.56719023935148 26.20796460181009,119.49502587137977 26.128318584058434,119.35069705483329 26.128318584058434,119.19193523241847 26.19469026545994,118.9610087130859 23.951327433635015,119.19193523241847 23.473451327416115,119.10533781992854 22.849557522160467,119.06203909915348 22.623893805372063,119.00430745643098 22.35840707970783,118.97544162858685 22.026548672583885,118.87441119733558 21.469026548671536,118.78781364290626 21.40265486727003,118.75894778284419 20.632743362803012,118.68678311383701 20.566371681401506,118.65791723871371 20.168141592934262,118.60018547557411 20.008849557547364,118.54245369517594 19.743362831883132,118.5280207474134 19.59734513272997,118.48472189762106 19.265486725664232,118.4702889455366 18.867256637196988,118.39812416900531 18.694690265518147,118.39812416900531 18.243362831883132,118.31152640171058 18.004424778802786,118.25379453531059 17.606194690277334,118.25379453531059 17.19469026545994,118.19606265173934 16.83628318592673,118.19606265173934 16.26548672572244,118.13833075096773 16.132743362803012,118.15276372774679 15.946902654890437,118.13833075096773 15.86725663713878,118.16719670350722 15.694690265518147,118.12389777306817 15.376106194686145,118.13833075096773 15.057522123970557,118.19606265173934 14.964601769926958,118.16719670350722 14.539823008875828,118.12389777306817 14.46017699118238,118.09503181408218 13.969026548729744,118.06616585075972 13.796460176992696,118.00843391128001 13.0,118.0228668977652 13.331858407065738,117.95070195458538 13.530973451328464,117.82080498911091 13.623893805313855,117.69090793657233 13.703539823007304,117.69090793657233 13.730088495649397,117.77750598129933 13.796460176992696,117.76307297652238 13.796460176992696,117.69090793657233 13.730088495649397,117.73420696376706 13.76991150440881,117.79193898497033 13.836283185868524,117.79193898497033 13.849557522160467,117.73420696376706 13.796460176992696,117.70534094671893 13.756637168175075,117.76307297652238 13.703539823007304,117.89296998070495 13.663716814189684,118.10946479409176 13.703539823007304,118.78781364290626 13.756637168175075,119.0187403687014 13.730088495649397,119.14863653102657 13.76991150440881,119.55275736788462 13.756637168175075,119.812548889342 13.78318584075896,120.3754293241509 13.76991150440881,120.46202616899973 13.876106194744352,121.12593402684433 13.862831858394202,121.54448346373101 13.889380530978087,121.76097419699363 13.862831858394202,122.00633006900898 13.876106194744352,122.36714696331182 13.836283185868524,122.52590618401882 13.90265486727003,123.37743069311546 13.889380530978087,123.57948680696427 13.90265486727003,123.983598402614 13.876106194744352,124.05576109883259 13.889380530978087,124.83511650592845 14.008849557489157,125.02273863578739 14.07522123894887,125.06603602459654 14.141592920408584,125.03717109980062 14.128318584058434,124.95057629965595 14.061946902656928,124.92171135768876 14.008849557489157,124.95057629965595 13.929203539853916,124.96500876905338 13.889380530978087,125.00830617075553 13.823008849576581,125.03717109980062 13.78318584075896,125.094900945056 13.716814159299247,125.10933340369957 13.623893805313855,124.97944123733032 13.61061946908012,124.90727888508991 13.650442477897741,124.84954898391152 13.796460176992696,124.80625154674635 13.876106194744352,124.80625154674635 14.088495575240813,124.69079166701704 14.234513274393976,124.64749419441796 14.446902654890437,124.51760171848582 15.336283185810316,124.09905870370858 15.628318584116641,123.983598402614 15.694690265518147,123.925868226288 16.053097345109563,123.73824503435753 16.4778761062189,123.57948680696427 16.61061946908012,123.49289135541767 16.716814159357455,123.46402619629225 16.876106194686145,123.46402619629225 17.28761061950354,123.39186327969946 17.51327433635015,123.37743069311546 17.924778761109337,123.39186327969946 18.256637168175075,123.37743069311546 18.628318584058434,123.43516103290312 19.079646017751656,123.44959361512156 19.876106194744352,123.5506216607755 20.28761061950354,123.57948680696427 20.526548672583885,123.65164965373697 20.738938053138554,123.63721708652156 20.80530973454006,123.6805147849227 20.871681415941566,123.66608221984643 20.938053097343072,123.70937991177198 20.9778761062189,123.79597526657744 21.044247787620407,123.85370548164065 21.137168141605798,123.983598402614 21.376106194744352,124.12792376824655 22.34513274335768,124.48873671198089 22.43805309740128,124.50316921577905 22.504424778802786,124.48873671198089 22.716814159299247,124.5320342201012 22.94247787608765,124.5320342201012 23.646017699094955,124.73408912998275 23.72566371684661,124.70522415576852 23.80530973454006,124.73408912998275 23.89823008852545,124.73408912998275 24.15044247789774,124.79181906557642 24.482300885021687,124.92171135768876 24.548672566423193,124.90727888508991 24.88053097348893,125.02273863578739 24.973451327416115,125.02273863578739 25.066371681401506,125.03717109980062 25.132743362803012,125.08046848537924 25.331858407065738,125.094900945056 26.19469026545994,125.31138771164115 26.725663716788404,125.48457695078105 26.93805309740128,125.52787423635891 27.681415929226205,125.77322533864935 28.331858407123946,125.93198176876467 29.261061946861446,126.2061971143412 29.32743362832116,126.2061971143412 29.792035398248117,126.36495318973903 30.19026548677357,126.43711499917845 30.721238938102033,126.59587088534317 31.584070796496235,126.76905897651159 32.03539823013125,126.81235597511113 32.606194690277334,126.84122063549876 33.56194690265693,126.97111155389575 34.21238938055467,127.0288408230117 34.38495575223351,127.0288408230117 35.181415929226205,127.12986700264446 35.36725663719699,127.12986700264446 35.44690265489044,127.17316392061184 35.68584070797078,127.18759622446669 35.911504424817394,127.25975772757374 36.376106194686145,127.27419002496754 36.65486725664232,127.31748691070243 36.893805309722666,127.3752160766744 37.73008849559119,127.47624207568879 37.98230088496348,127.47624207568879 38.44690265489044,127.5484034713445 38.951327433635015,127.57726802203979 39.34955752216047,127.66386164845608 40.14601769915316,127.75045523613517 40.238938053080346,127.73602297417528 40.969026548729744,127.8514810395427 41.59292035398539,127.9092100464186 41.75221238937229,127.93807454341731 41.80530973454006,127.9958035244781 42.429203539853916,128.06796472665155 42.66814159293426,128.06796472665155 42.90707964601461,128.02466800855473 43.05309734516777,128.0535324883822 43.146017699094955,128.09682919998886 43.29203539824812,128.1112614350568 43.46460176992696,128.15455813379958 43.76991150446702,128.15455813379958 44.101769911532756,128.1834225942439 44.526548672583885,128.1112614350568 44.59292035398539,128.08239696387318 45.08407079643803,128.16899036453106 45.32300884957658,128.1256936690188 45.65486725664232,128.14012590196216 46.54424778762041,128.21228705036629 46.676991150481626,128.2555837265245 47.101769911532756,128.22671927686315 47.566371681401506,128.2555837265245" stroke="#4dd2ff" stroke-linecap="round" stroke-linejoin="round" stroke-width="0.5"><title>2023-04-01 11.2km</title></polyline><polyline fill="none" points="186.98605911966297,118.03707884272444 186.97211823932594,118.17350061452453 186.99302955981693,118.25686938498984 186.98605911966297,118.30992220338521 187.0,118.4766594524117 186.9790886794799,118.52213320017472 186.9790886794799,118.62065958389576 186.95120691880584,118.69644904492452 186.9372660384397,118.78739632361248 186.96514779914287,118.84044886530319 186.93029559831484,118.96929063706921 186.9372660384397,119.09055333202559 186.9163547179487,119.17392135094997 186.93029559831484,119.32549939215824 186.90938427776564,119.36339386717009 186.9163547179487,119.54528715073684 186.93029559831484,119.5983392971757 186.92332515813177,119.68170689998078 186.9372660384397,119.75749557052768 186.92332515813177,119.83328418460587 186.9163547179487,120.0758073702309 186.8954433974577,120.14401691202511 186.88150251709158,120.27285703285452 186.88150251709158,120.43201225097437 186.95120691880584,120.58358841770678 186.99302955981693,120.84126738285704 186.7351232735382,120.8943188534904 186.6514779914869,120.92463396714447 186.56086226925254,120.93221274414827 186.3447786239849,120.98526416735695 186.2402220214426,121.02315802415251 186.2193107009225,121.05347309943318 186.12869497868815,121.068630633672 185.96837485476863,121.07620939993649 185.53620756423334,121.16715455123631 185.44559184196987,121.17473331016663 185.2992125984456,121.25052086848154 185.1737446753541,121.28841462647688 184.99948367109755,121.29599337639229 184.83916354717803,121.3414658639449 184.58822770105326,121.37935958807066 183.79359752160963,121.54609180653642 183.41719375242246,121.61430036259844 183.35445979089127,121.62945781329472 183.18019878663472,121.6521939851009 183.1453465857776,121.66735143015103 183.0407899832062,121.66735143015103 182.88046985931578,121.69008759348071 182.80379501741845,121.72040247004043 182.55285917129368,121.71282375173905 182.39950948755722,121.75829605301988 182.2182780431176,121.7507173375634 182.12766232091235,121.77345348227391 181.80005163289024,121.78861090925056 181.75125855166698,121.81134704549186 181.59093842777656,121.82650446683692 181.1308893765381,121.85681930273859 181.07512585516088,121.84924059459445 180.8241900090361,121.84924059459445 180.64992900477955,121.87197671729518 180.32231831675745,121.88713412959623 180.24564347488922,121.90229153967084 180.01561894925544,121.87955542373675 179.93197366723325,121.88713412959623 179.6531560604053,121.88713412959623 179.2837227313721,121.92502765048994 178.99096424420713,121.93260635297338 178.6703239963681,121.95534245705494 178.48909255195758,121.96292115726828 178.20330450497568,121.94776375625952 177.63869885113672,121.94776375625952 177.59687621015473,121.94018505489657 177.4992900477664,121.87955542373675 177.41564476571511,121.87197671729518 177.24835420164163,121.90229153967084 177.0113592358539,121.88713412959623 176.92074351359042,121.89471283491002 176.73254162902595,121.82650446683692 176.453724022198,121.78861090925056 176.30037433843245,121.78103219604236 176.2097586162272,121.79618962188397 176.07732025301084,121.80376833397895 175.88911836841726,121.76587476792338 175.85426616753102,121.77345348227391 175.7357686846517,121.76587476792338 175.70091648379457,121.7507173375634 175.54756680005812,121.727981187767 175.45695107782376,121.73555990491877 175.17116303084185,121.70524503289198 174.85052278300282,121.69766631347738 174.69717309923726,121.63703653778066 174.66232089840923,121.61430036259844 174.53685297534685,121.60672163640265 174.49503033430665,121.58398545441742 174.2580353685189,121.51577687803365 174.11862656511948,121.44756825592776 173.9931586420571,121.40209581576346 173.86072027881164,121.37935958807066 173.79101587712648,121.40967455720966 173.72131147541222,121.51577687803365 173.5609913514927,121.53093434340553 173.5191687104816,121.54609180653642 173.38673034720705,121.55367053723603 173.36581902668695,121.58398545441742 173.317025945551,121.60672163640265 173.05911965924315,121.64461526174273 172.96153349682572,121.6521939851009 172.81515425324324,121.69766631347738 172.76636117207818,121.69766631347738 172.71756809088401,121.63703653778066 172.66877500968985,121.61430036259844 172.52239576610737,121.61430036259844 172.48057312509627,121.55367053723603 172.3899574028619,121.53851307525474 172.27843036013655,121.49304067574121 172.1459919968911,121.47788320472318 172.06931715502287,121.43998951730464 171.94384923196048,121.42483203838492 171.67897250546957,121.45514699396153 171.37924357815064,121.44756825592776 171.25377565508825,121.4172532980665 171.12830773202586,121.4172532980665 171.0167806893005,121.37935958807066 170.94707628758624,121.37178084439074 170.63340647993027,121.31115087449871 170.51490899705095,121.32630837035686 170.4033819542674,121.38693833120487 169.99909642443527,121.31872962271882 169.91545114238397,121.32630837035686 169.69936749708722,121.30357212571835 169.46934297148255,121.26567837338371 169.28114108685986,121.25809962121275 168.86988511681557,121.18989082636108 168.7792693945812,121.18989082636108 168.70956499292515,121.21262709637813 168.47954046726227,121.16715455123631 168.2495159416576,121.14441827103292 168.08919581773807,121.09136693080654 167.87311217247043,121.07620939993649 167.71976248870487,121.0155792539299 167.4270040015399,120.94737029646785 166.9530140699644,120.9018976327643 166.91816186910728,120.88674007367081 166.834516587056,120.9018976327643 166.52084677940002,120.8336885990866 166.41629017682862,120.79579467172152 166.26991093327524,120.78821588456049 166.18626565119484,120.77305830852856 165.886536723905,120.74274314971262 165.85168452304788,120.72758556692133 165.80986188203678,120.72000677465985 165.74015748029342,120.72758556692133 165.600748676894,120.69727039455756 165.5171033948427,120.70484918848524 165.4752807538316,120.6821128049778 165.32890151027823,120.65937641638448 165.25919710853486,120.63664002269797 165.21737446752377,120.63664002269797 165.14069962562644,120.61390362394741 164.99432038210216,120.60632482323854 164.71550277527422,120.56085200708912 164.59003485218273,120.56085200708912 164.41577384795528,120.50780036256765 164.21363108299556,120.4926427447499 163.99057699754485,120.43201225097437 163.9208725958597,120.43959106466355 163.74661159157404,120.40169699053513 163.67690718988888,120.41685462187161 163.52355750615243,120.37896053927398 163.41203046339797,120.37138172105915 163.33535562152974,120.3486452630168 163.21685813862132,120.33348762149399 163.13321285657003,120.31075115499698 162.89621789078228,120.28043585841806 162.74286820704583,120.21980523816455 162.6243707241374,120.21222640807537 162.39434619853273,120.17433224926208 162.22705563443014,120.15917458176409 162.10855815155082,120.13643807630433 162.02491286949953,120.13643807630433 161.9691493481223,120.15159574717836 161.89247450625408,120.1288592400233 161.80882922420278,120.1288592400233 161.48121853620978,120.06822852943151 161.3975732541876,120.03791316059505 161.11178520717658,120.00759778270003 160.9863172840851,120.01517662802507 160.8608493610518,119.99244009038375 160.7005292371323,120.01517662802507 160.29624370724196,119.96970354766381 160.1847166645166,119.97728239579737 160.12895314313937,119.95454584967229 160.0383374209341,119.96970354766381 159.97560345937381,119.96212469896273 159.8989286175056,119.96970354766381 159.8571059764945,119.97728239579737 159.82922421582043,119.99244009038375 159.6689040919009,119.99244009038375 159.02762359622284,119.89391503520892 158.90912611334352,119.86359961442213 158.82548083126312,119.8560207578048 158.71395378856687,119.87117847046466 158.67910158770974,119.8560207578048 158.5606041048013,119.8560207578048 158.4002839808818,119.83328418460587 158.2957273783395,119.82570532572572 158.14237769457395,119.78023216066504 158.06570285270573,119.78023216066504 157.6405060023244,119.72718010906829 157.34077707500546,119.71960124231555 157.20136827157694,119.6968646386158 156.95043242545216,119.6286547970085 156.53917645540787,119.57560266637302 156.50432425455074,119.55286603049171 156.45553117332747,119.4543405496006 156.28127016907092,119.39370943701215 156.2045953272027,119.39370943701215 156.16974312637467,119.40128832805931 156.10700916484348,119.4543405496006 156.0373047631292,119.46191943614394 155.55634439139976,119.38613054539019 155.43784690849134,119.39370943701215 155.31934942561202,119.36339386717009 155.21479282304063,119.36339386717009 155.0126500580809,119.30276270037575 154.8314186136413,119.2876049030383 154.51774880598532,119.2193947870328 154.3992513230769,119.21181588243053 154.37136956237373,119.18907916523312 154.3574286820658,119.15876353441854 154.3992513230769,118.93139601526491 154.3992513230769,118.88592245044129 154.3783400025859,118.84802779756865 154.2110494384542,118.81771206511621 154.0716406350839,118.75708057308657 153.91829095131834,118.76465951155842 153.83464566926705,118.77981738683593 153.7649412675819,118.75708057308657 153.56976894283434,118.77981738683593 153.52097586161108,118.77981738683593 153.47915322057088,118.75708057308657 153.25609913514927,118.75708057308657 153.17942429325194,118.77981738683593 153.1445720924239,118.77981738683593 152.97728152835043,118.81013313058793 152.68452304115635,118.9768695597304 152.6357299599913,119.02234308390325 152.5102620368998,119.06023767184524 152.47540983607178,119.08297441782634 152.4266167548485,119.1511846252979 152.38479411383742,119.39370943701215 152.34297147282632,119.46191943614394 152.25932619080413,119.537708270429 152.2244739899179,119.56044490967906 152.09203562667244,119.55286603049171 152.01536078483332,119.56044490967906 151.97353814379312,119.57560266637302 151.7295727378223,119.57560266637302 151.5692526139028,119.55286603049171 151.49954821221763,119.57560266637302 151.2207306053897,119.55286603049171 151.10920356266433,119.56802378832072 150.96282431908185,119.64381254355249 150.71885891311103,119.64381254355249 150.684006712283,119.63623367055698 150.6212727507227,119.5983392971757 150.55156834903755,119.63623367055698 150.51671614818042,119.62107592290704 150.4818639473233,119.63623367055698 150.37033690459793,119.64381254355249 150.3145733832498,119.5983392971757 150.2727507422096,119.5983392971757 150.09848973792396,119.61349704823806 150.00090357556473,119.6286547970085 149.95211049439968,119.64381254355249 149.8824060926563,119.70444350706384 149.79179037048016,119.86359961442213 149.7220859687368,120.05307084613742 149.7220859687368,120.18191108214523 149.763908609777,120.25769938005396 149.84755389182828,120.33348762149399 150.00090357556473,120.40169699053513 150.03575577642187,120.43959106466355 150.03575577642187,120.51537917061069 150.01484445593087,120.55327320242213 150.00090357556473,120.59874602196214 149.91028785335948,120.70484918848524 149.81967213115422,120.77305830852856 149.69420420809183,120.82610981474136 149.52691364398925,120.82610981474136 149.3526526397327,120.7654795196795 149.2271847166412,120.74274314971262 149.15748031495605,120.71242798186722 148.4883180586039,120.50022155394981 148.37679101587855,120.43201225097437 148.33496837483835,120.37138172105915 148.29314573379816,120.3486452630168 148.25132309278706,120.28043585841806 148.21647089195903,120.26527820675255 148.1397960500908,120.24254172499059 147.7703627210576,120.18948991448997 147.69368787918938,120.16675341579685 147.61701303729205,120.12128040317475 147.568219956127,120.1288592400233 147.36607719116728,120.05307084613742 147.27546146893292,120.00759778270003 147.0105847424711,119.9090727422008 146.97573254161398,119.87875732593966 146.7875306570204,119.81812646630715 146.56447657154058,119.78781102292851 146.2717180844047,119.78781102292851 146.13927972118836,119.8105476063065 146.04169355880003,119.8105476063065 145.95804827674874,119.83328418460587 145.93713695625775,119.86359961442213 145.7837872724922,119.79538988461718 145.67226022973773,119.77265329784859 145.414353943459,119.79538988461718 145.26100425972254,119.78781102292851 145.05886149476282,119.74991670600866 144.27817219565623,119.7347589752826 144.14573383243987,119.71202237497346 144.02723634956055,119.70444350706384 143.7902413837728,119.72718010906829 143.42777849489357,119.70444350706384 143.260487930791,119.71202237497346 143.22563572993386,119.70444350706384 143.14896088806563,119.72718010906829 143.01652252484928,119.6968646386158 142.84226152056362,119.68170689998078 142.61920743514202,119.70444350706384 142.49373951205052,119.68170689998078 142.40312378987437,119.6968646386158 142.28462630693684,119.68928576957114 142.20098102491465,119.71202237497346 141.81760681551532,119.66654915911931 141.4551439266652,119.65897028780455 141.42029172580806,119.6741280298229 141.33664644378587,119.66654915911931 141.2251194010605,119.65139141595137 141.19026720017428,119.6286547970085 140.86265651218127,119.6286547970085 140.58383890535333,119.605918172987 140.3886665806058,119.62107592290704 140.10984897377784,119.61349704823806 139.6079772814992,119.66654915911931 139.43371627724264,119.64381254355249 139.24551439264906,119.65139141595137 139.1967213114549,119.63623367055698 139.07822382857557,119.65139141595137 138.95275590548408,119.63623367055698 138.79243578156456,119.59076042082597 138.5414999354398,119.57560266637302 137.90718987994478,119.58318154387234 137.677165354311,119.57560266637302 137.6353427132999,119.58318154387234 137.3077320252778,119.54528715073684 137.23802762359264,119.56044490967906 137.16832322187838,119.54528715073684 136.95223957661074,119.56802378832072 136.5270427262003,119.57560266637302 136.4852200851892,119.56044490967906 136.40157480316702,119.56802378832072 136.31095908090356,119.55286603049171 135.9136439911963,119.537708270429 135.5860333032033,119.56802378832072 135.39086097842664,119.62107592290704 134.84019620495383,119.66654915911931 134.22679746997892,119.74233784093667 134.12224086743663,119.78023216066504 134.01071382468217,119.78781102292851 133.38337420937023,119.93938814945432 133.18123144443962,119.97728239579737 133.15334968373645,119.99244009038375 133.13243836321635,120.02275547278259 133.13243836321635,120.09096505014895 133.11849748287932,120.12128040317475 133.0836452820513,120.13643807630433 133.04879308119416,120.12128040317475 133.0,120.12128040317475" stroke="#4dd2ff" stroke-linecap="round" stroke-linejoin="round" stroke-width="0.5"><title>2023-03-18 12.0km</title></polyline><polyline fill="none" points="67.0,172.33367299995007 66.51851851854008,172.2229251359313 66.45370370370802,172.2229251359313 66.40740740741603,172.2027891508842 66.29629629629198,172.2229251359313 66.14814814814599,172.30346904603357 66.07407407404389,172.38401290813636 66.02777777775191,172.47462469556922 65.8240740741021,172.74645969330595 65.76851851854008,172.7766635481894 65.64814814814599,172.89747890015133 65.48148148151813,172.95788653561613 65.40740740741603,173.03843000758206 65.30555555556202,173.09883758000797 65.15740740741603,173.24985639298393 65.01851851848187,173.46128244753345 64.99074074072996,173.57202929643245 64.89814814814599,173.60223296674667 65.0,173.71297970013256 64.87037037039408,173.66264028712612 64.76851851854008,173.69284393718408 64.74074074072996,173.84386208615615 64.71296296297805,173.8841335640609 64.71296296297805,173.93447289453616 64.75,174.0452193555684 64.72222222218988,174.20630495504884 64.73148148145992,174.45800081972266 64.69444444443798,174.669424983731 64.73148148145992,174.82044204114936 64.75,175.17281451875897 64.68518518516794,175.5151183313792 64.62962962960592,175.68626991247584 64.66666666668607,175.8372858333969 64.61111111112405,176.09904636318242 64.59259259252576,176.33060333222238 64.60185185185401,176.66283655122243 64.57407407404389,176.77358077602548 64.60185185185401,176.9850013168034 64.57407407404389,177.16621865988418 64.57407407404389,177.3373681496596 64.65740740741603,177.66959889332065 64.58333333331393,177.84074774554028 64.58333333331393,177.99176125862869 64.53703703702195,178.09243684027751 64.54629629629198,178.4951384168162 64.53703703702195,178.55554354980995 64.50925925927004,178.5958136234549 64.5,178.5454760295106 64.5,178.60588113999256 64.45370370370802,178.51527346416697 64.39814814814599,178.52534098669275 64.37962962960592,178.62601617081236 64.37962962960592,179.07905357122945 64.32407407404389,179.59249412234203 64.34259259258397,180.29721327122388 64.28703703702195,180.50862829929247 64.29629629629198,180.59923463864834 64.25,180.86098594444775 64.26851851854008,181.32408316669898 64.23148148145992,182.0388605471162 64.25925925927004,182.07912958283123 64.24074074072996,182.11939860654093 64.22222222218988,182.64289482295862 64.15740740741603,182.9952469038908 64.15740740741603,183.69994831008808 64.08333333337214,184.29390807043092 64.10185185185401,184.33417643426947 64.08333333337214,184.65632291324437 64.11111111112405,185.30061356784427 64.06481481483206,185.88449932094954 64.07407407404389,185.98516902347183 64.06481481483206,186.09590560968354 64.01851851848187,186.18650820360926 63.962962962919846,186.76032322175888 63.9259259258979,186.85092537038872 63.9259259258979,186.9415274583007 63.888888888875954,187.12273145192012 63.86111111106584,187.5153392715365 63.888888888875954,187.70660933468025 64.0,187.72674300978542 64.03703703702195,187.74687668190745 64.03703703702195,187.79721084910852 63.98148148145992,187.79721084910852 64.00925925927004,187.74687668190745 64.03703703702195,187.78714401715115 64.00925925927004,187.6462082913422 64.07407407404389,187.44487128529727 64.13888888887595,187.37440326233627 64.13888888887595,187.32406893775624 64.07407407404389,187.09253080318013 64.01851851848187,187.0522632610373 63.91666666662786,187.08246391877037 63.870370370394085,187.07239703358937 63.90740740741603,187.10259768684045 64.22222222218988,187.07239703358937 64.29629629629198,187.0522632610373 64.70370370364981,187.07239703358937 64.91666666662786,187.0220625965594 65.01851851848187,186.98179503342544 65.13888888887595,186.99186192532943 65.25,186.95159435320966 65.43518518516794,186.93146056262776 65.59259259258397,186.9415274583007 65.63888888887595,186.90125987116335 65.63888888887595,186.85092537038872 65.66666666668607,186.80059085085668 65.52777777775191,186.82072466093086 65.38888888887595,186.82072466093086 65.28703703702195,186.7804570378139 65.24074074072996,186.75025631261815 65.21296296297805,186.68985484195582 65.1759259258979,186.47844948212878 65.12037037039408,186.4683825520042 65.07407407404389,186.43818175706838 64.97222222218988,186.4281148239097 64.59259259252576,186.47844948212878 64.36111111106584,186.53885104726214 64.30555555550382,186.57911874232377 64.14814814814599,186.59925258536532 64.10185185185401,186.6294533442997 64.05555555556202,186.6495871798761 64.01851851848187,186.59925258536532 63.953703703708015,186.56905181970797 63.90740740741603,186.58918566422653 63.85185185185401,186.56905181970797 63.82407407404389,186.5287841215977 63.712962962978054,186.51871719522023 63.50925925927004,186.57911874232377 63.25925925927004,186.61938642542373 62.82407407404389,186.6395202624699 62.40740740735782,186.6999217555931 62.16666666662786,186.6999217555931 61.91666666668607,186.73012249205203 61.50925925921183,186.84085846798553 61.26851851854008,186.86099227203522 61.222222222189885,186.85092537038872 61.138888888875954,186.7804570378139 60.879629629605915,186.72005558066303 60.26851851848187,186.68985484195582 60.212962962919846,186.6999217555931 59.87037037033588,186.68985484195582 59.57407407404389,186.70998866851005 59.40740740741603,186.6999217555931 58.89814814814599,186.6395202624699 58.787037037021946,186.6495871798761 58.638888888875954,186.6294533442997 58.51851851848187,186.6395202624699 58.24074074072996,186.60931950576924 58.138888888875954,186.56905181970797 58.01851851848187,186.56905181970797 57.90740740741603,186.55898489628453 57.787037037021946,186.59925258536532 57.66666666668607,186.55898489628453 57.314814814773854,186.57911874232377 57.203703703708015,186.60931950576924 56.84259259258397,186.59925258536532 56.37037037033588,186.68985484195582 56.129629629605915,186.67978792755457 56.02777777775191,186.6999217555931 55.879629629605915,186.67978792755457 54.453703703708015,186.70998866851005 54.203703703708015,186.67978792755457 53.379629629605915,186.70998866851005 52.31481481483206,186.65965409651108 52.138888888875954,186.67978792755457 51.60185185185401,186.65965409651108 51.42592592595611,186.6495871798761 51.222222222189885,186.54891797215532 50.861111111124046,186.54891797215532 50.75925925927004,186.51871719522023 50.546296296291985,186.5287841215977 50.49999999994179,186.56905181970797 50.43518518516794,186.57911874232377 50.277777777810115,186.58918566422653 49.546296296291985,186.45831562110106 49.314814814773854,186.4683825520042 48.94444444443798,186.4281148239097 48.84259259258397,186.43818175706838 48.66666666668607,186.41804789003072 48.3240740741021,186.45831562110106 48.15740740741603,186.41804789003072 47.94444444443798,186.41804789003072 47.85185185185401,186.4281148239097 47.73148148145992,186.40798095539503 47.62037037033588,186.4281148239097 47.314814814773854,186.4281148239097 47.20370370364981,186.44824868946307 46.879629629605915,186.39791401999537 46.73148148145992,186.34757933179935 46.51851851848187,186.23684295178828 46.25,186.25697684580518 46.14814814814599,186.29724462484592 45.49074074072996,186.22677600363386 45.027777777810115,186.1764412517441 44.527777777810115,186.08583865102264 43.98148148145992,186.0254368834867 43.888888888875954,185.98516902347183 43.712962962978054,185.97510205661092 43.09259259258397,185.9046332674552 42.92592592595611,185.93483418158576 42.65740740741603,185.8542983955631 42.287037037080154,185.80396350497904 41.972222222189885,185.7435616114817 41.65740740741603,185.72342764095083 41.296296296291985,185.65295872062416 40.861111111124046,185.6126907496582 40.33333333337214,185.5522887706902 40.24074074072996,185.58248976354662 40.19444444443798,185.68315969099058 40.32407407404389,185.77376256159914 40.37037037033588,185.77376256159914 40.40740740741603,185.80396350497904 40.379629629605915,185.84423141895968 40.26851851848187,185.8542983955631 40.24074074072996,185.89456629459164 40.037037037021946,185.87443234660168 39.94444444443798,185.9046332674552 39.89814814814599,185.89456629459164 39.85185185185401,185.9147002395839 39.76851851848187,186.00530295498902 39.62037037033588,186.08583865102264 39.472222222189885,186.07577169165597 39.35185185185401,186.0254368834867 39.24074074072996,185.8542983955631 39.24074074072996,185.78382954347035 39.37962962966412,185.89456629459164 39.59259259258397,185.9046332674552 39.638888888875954,185.93483418158576 39.68518518516794,185.92476721094863 39.861111111124046,186.13617343669466 39.9259259258979,186.16637429910043 40.08333333331393,186.14624039157934 40.1759259258979,186.07577169165597 40.25,185.86436537145346 40.26851851848187,185.76369557895669 40.212962962919846,185.7334946265837 40.120370370394085,185.562355769056 40.01851851848187,185.52208777110354 39.90740740741603,185.51202076971822 39.72222222224809,185.4516187457848 39.57407407404389,185.43148473178735 39.52777777775191,185.44155173918261 39.1018518517958,185.38114968373702 38.87037037033588,185.3610156592622 38.10185185185401,185.13954119210393 37.83333333331393,185.08920603531442 37.31481481483206,184.90799931569927 37.25925925927004,184.91806636204274 37.1759259258979,184.87779817214323 36.81481481483206,184.78719470099895 36.638888888875954,184.71672529256466 35.953703703708015,184.5455851476945 35.453703703708015,184.40464604213776 35.40740740735782,184.37444478613907 35.30555555556202,184.36437769929034 34.95370370364981,184.213371306716 34.66666666662786,184.15296870247403 34.222222222189885,183.93149225587695 33.80555555556202,183.84088815041468 33.564814814773854,183.8106867684328 33.4259259258979,183.7804853796988 33.37037037033588,183.75028398421273 32.68518518516794,183.63954547637695 32.50925925927004,183.5791426156793 32.453703703708015,183.56907546961156 32.26851851848187,183.43820250240242 32.055555555503815,183.3576652288175 31.962962962919846,183.29726224216574 31.870370370335877,183.30732940848975 31.555555555562023,183.22679205694294 31.18518518516794,183.20665771154745 30.870370370335877,183.1563218349329 30.6759259258979,183.1563218349329 30.1018518517958,183.1160531201822 29.972222222189885,183.13618747906003 29.814814814773854,183.10598593961913 29.564814814773854,183.1261203000031 29.43518518516794,183.13618747906003 29.111111111124046,183.23685922849108 29.064814814773854,183.23685922849108 28.91666666662786,183.29726224216574 28.75925925927004,183.30732940848975 28.601851851854008,183.43820250240242 28.33333333331393,183.56907546961156 28.222222222189885,183.58920976099034 28.148148148145992,183.65967975725653 27.824074074043892,183.8106867684328 27.58333333331393,183.9516264933045 27.15740740741603,184.13283449503797 27.0,184.1831700079565 26.944444444437977,184.17310290689784 26.84259259258397,184.213371306716 26.787037037021946,184.30397516250378 26.74074074072996,184.30397516250378 26.148148148145992,184.62612171345245 25.8518518517958,184.69659116912226 25.81481481483206,184.72679235317628 25.787037037021946,184.82746291790681 25.787037037021946,184.77712764488388 25.81481481483206,184.73685941300937 25.90740740741603,184.7066582312109 25.93518518516794,184.6663899783307 25.879629629605915,184.6663899783307 25.83333333331393,184.68652410626964 25.83333333331393,184.7469264721076 25.870370370335877,184.78719470099895 25.972222222248092,184.77712764488388 26.027777777810115,184.80732881093718 25.555555555562023,184.89793226860638 25.370370370335877,184.87779817214323 25.314814814773854,184.89793226860638 24.68518518516794,184.88786522073497 24.09259259258397,184.80732881093718 23.620370370394085,184.6663899783307 23.49074074072996,184.6160546453466 23.527777777751908,184.5858534365616 23.555555555503815,184.46504853395163 23.527777777751908,184.3543106117213 23.481481481459923,184.31404225384904 23.157407407357823,184.1429015991307 23.08333333331393,184.0623647454413 22.944444444437977,183.9717607277198 22.83333333337214,183.9516264933045 22.796296296291985,183.93149225587695 22.75,183.92142513605359 22.56481481483206,183.84088815041468 22.25925925927004,183.75028398421273 22.212962962919846,183.7704182486268 22.1018518517958,183.75028398421273 21.879629629664123,183.7704182486268 21.231481481459923,183.7804853796988 21.064814814773854,183.7704182486268 20.851851851854008,183.7402168508779 20.74074074072996,183.75028398421273 20.43518518516794,183.72008258198184 20.222222222189885,183.7402168508779 20.18518518516794,183.7704182486268 20.15740740741603,183.93149225587695 20.074074074043892,184.02209630062134 19.425925925956108,184.02209630062134 19.453703703708015,184.0623647454413 19.33333333331393,183.9717607277198 19.305555555503815,184.0623647454413 19.24074074072996,184.0623647454413 19.129629629605915,183.99189495912287 19.027777777751908,183.96169361086504 18.898148148145992,183.9717607277198 18.898148148145992,184.01202918753552 17.731481481459923,183.43820250240242 17.796296296291985,183.51873972798057 17.83333333331393,183.6898811729916 17.638888888875954,183.69994831008808 17.537037037021946,183.7402168508779 17.49074074072996,183.7100154464133 17.379629629605915,183.73014971679368 17.212962962919846,184.38451187221654 17.25925925927004,183.7704182486268 17.212962962919846,183.79055251002137 17.16666666662786,183.76035111678357 17.148148148145992,183.8106867684328 16.99074074072996,183.86102240131004 16.93518518516794,183.92142513605359 16.83333333331393,183.91135801547352 16.722222222189885,183.92142513605359 16.66666666662786,183.91135801547352 16.41666666668607,183.96169361086504 16.231481481459923,184.07243185479456 16.0740740741021,184.11270028462604 16.018518518540077,184.11270028462604 15.777777777751908,184.1831700079565 15.675925925956108,184.23350550213945 15.50925925921183,184.1831700079565 15.361111111124046,184.2033042078765 15.203703703708015,184.1630358050461 14.824074074043892,184.2033042078765 14.731481481459923,184.17310290689784 14.59259259258397,184.213371306716 14.5,184.1630358050461 14.555555555503815,184.1630358050461 14.527777777751908,184.12276739021763 14.5,184.1630358050461 14.453703703708015,184.12276739021763 14.5,184.13283449503797 14.537037037021946,184.10263317827048 14.58333333331393,184.12276739021763 14.648148148145992,184.10263317827048 14.685185185167938,184.08249896338384 14.805555555562023,184.052297635375 14.861111111124046,184.02209630062134 14.870370370335877,183.96169361086504 14.84259259258397,183.92142513605359 14.694444444437977,183.8912237720724 14.546296296291985,183.94155937498 14.444444444437977,183.92142513605359 14.40740740741603,183.9516264933045 14.194444444437977,184.01202918753552 13.990740740729962,183.9717607277198 13.879629629605915,183.98182784379605 13.84259259258397,183.9516264933045 13.6018518517958,183.86102240131004 13.453703703708015,183.72008258198184 13.34259259258397,183.649612617206 13.25,183.52880687778088 13.129629629605915,183.29726224216574 13.09259259258397,183.26706073869718 13.064814814832062,183.09591875830665 13.0,182.965045332945 13.027777777751908,182.824104579282 13.009259259270038,182.723432522449 13.148148148145992,182.25027285074611 13.259259259270038,182.06906232503388 13.33333333331393,181.99859149942495 13.611111111124046,181.82744791280857 13.694444444437977,181.76704424226045 13.75,181.75697696123098 14.08333333331393,181.61603494777228 14.138888888875954,181.47509278737562 14.046296296291985,181.4448908767372 13.953703703708015,181.4650254845692 13.972222222189885,181.4247562659075 14.212962962919846,181.32408316669898 14.398148148145992,181.28381390601135 14.5,181.22340999249718 14.648148148145992,181.17307337727107 14.953703703708015,180.9415247057841 14.962962962978054,180.88112063929293 15.000000000058208,180.86098594444775 15.101851851854008,180.6999082777984 15.222222222189885,180.56903253227938 15.277777777751908,180.42808927997976 15.314814814832062,180.38781975230086 15.342592592525762,180.29721327122388 15.33333333331393,180.23680891674303 15.342592592525762,180.12606753007276 15.40740740741603,180.05559569127945 15.398148148087785,180.00525864111114 15.361111111124046,179.9649889874563 15.41666666668607,179.88444964415248 15.453703703649808,179.86431480082683 15.620370370394085,179.9347867393517 15.685185185167938,179.9347867393517 15.740740740729962,179.9549215721927 15.796296296291985,179.9347867393517 15.981481481459923,179.944854156136 16.09259259258397,179.92471932180342 16.231481481459923,179.944854156136 16.388888888875954,180.0958653179623 16.5,179.99519122883066 16.546296296291985,179.62269644694607 16.611111111124046,179.48175220767007 16.694444444437977,179.40121257639112 16.638888888875954,179.3307403596409 16.18518518516794,179.07905357122945 16.11111111106584,179.04885112511693 16.037037037021946,179.05891860792326 15.935185185167938,179.08912105178752 15.685185185167938,179.04885112511693 15.703703703708015,178.95824374628864 15.666666666627862,178.91797378063347 15.648148148145992,178.78709630940284 15.546296296291985,178.56561106934532" stroke="#4dd2ff" stroke-linecap="round" stroke-linejoin="round" stroke-width="0.5"><title>2023-02-25 12.5km</title></polyline><polyline fill="none" points="187.0,191.74400148703717 183.60571428760886,191.07291738921776 181.4457142855972,191.4084594505839 176.50857142917812,189.39520670543425 173.4228571448475,186.37532590003684 173.4228571448475,180.67110107047483 164.16571428626776,175.30241227545775 156.4514285735786,172.61806547641754 155.83428571373224,172.9536089138128 154.60000000149012,171.61143501335755 152.4400000013411,171.61143501335755 150.2800000011921,172.61806547641754 147.19428571499884,171.94697852618992 145.03428571484983,172.2825220131781 139.7885714303702,169.59817341342568 138.86285714432597,169.93371707573533 139.48000000230968,170.94034791341983 140.09714285843074,170.26926071289927 137.01142857410014,168.25599851296283 135.4685714300722,168.59154227538966 134.23428571596742,169.93371707573533 133.30857142992318,170.94034791341983 133.0,172.61806547641754" stroke="#4dd2ff" stroke-linecap="round" stroke-linejoin="round" stroke-width="0.5"><title>2022-10-26 2.2km</title></polyline><polyline fill="none" points="67.0,246.3228634336847 66.91542678140104,246.3228634336847 65.98512137820944,245.7250882338849 65.90054815961048,244.9433813293581 65.77368833194487,244.7594501490821 64.71652310108766,244.39158762380248 64.4628034455236,244.1616734341369 63.61707126069814,243.8857762933476 63.19420516840182,243.60987902921624 62.729052466806024,243.93175915873144 61.7987470633816,243.79381055239355 61.20673453412019,243.37996454816312 60.99530148785561,243.4259474511491 60.78386844159104,243.33398164174287 60.40328895836137,242.9201353288372 60.14956930303015,242.4603057667846 59.85356303839944,242.36833981325617 59.64212999213487,242.4603057667846 58.5003915426787,242.09244187030708 58.246671887114644,242.1844078649301 57.40093970228918,241.26474730088376 56.93578700069338,240.66696719906759 56.38606108073145,240.11516966758063 56.047768206801265,239.93123704742175 55.540328895905986,239.8392707167077 54.906029757112265,239.37943885766435 53.722004698589444,238.8736234168755 53.08770555979572,238.32182428089436 52.157400156604126,237.953957916121 50.931088488548994,236.9883076644619 50.0007830853574,236.7583907149383 49.5356303837616,236.57445709372405 48.097885669674724,235.56282119621756 47.67501957714558,235.56282119621756 47.25215348484926,235.14896966901142 47.20986687554978,235.33290371543262 47.29444009391591,235.56282119621756 47.12529365695082,236.0686393523938 47.1675802662503,235.65478816459654 46.78700078302063,235.24093669903232 45.77212216123007,234.73511786403833 45.47611589659937,234.3672493598424 44.41895066550933,233.53954442311078 43.57321848068386,233.03372419270454 43.36178543465212,232.5738872596412 43.065779169788584,232.29798493511043 42.431480031460524,232.02208248723764 41.416601409437135,231.2863420228241 39.55599060282111,230.27469745115377 38.9639780735597,229.44698702171445 38.583398590330034,229.1250993325375 36.76507439324632,228.4353394326754 36.55364134698175,228.25140332913725 35.53876272519119,227.83754689543275 34.693030540365726,227.19376966892742 33.97415818320587,226.91786493750988 33.593578699976206,226.96384906803723 32.15583398588933,227.42369018419413 31.732967893593013,227.3777060880093 30.4643696162384,226.87188080366468 29.999216914642602,226.50400760903722 29.83007047767751,226.54999177035643 29.23805794818327,226.27408675092738 28.561472200555727,225.86022899032105 28.26546593569219,225.5843236623914 26.193422083044425,224.71062264265493 25.685982772149146,224.61865404219134 23.571652309969068,223.83692038495792 23.233359436271712,224.34274815872777 22.683633516076952,224.75660693767713 22.55677368817851,225.17046543891774 22.345340641913936,225.30841821088688 21.41503523872234,225.5843236623914 20.82302270946093,226.0901500027976 20.696162881795317,226.54999177035643 21.245888801757246,229.44698702171445 21.076742365024984,230.64256839640439 20.94988253712654,230.82650378684048 20.738449490861967,230.87248762598028 18.70869224751368,230.73453609854914 17.39780736109242,230.4586329511949 16.552075176266953,230.13674579001963 15.960062646772712,229.5849388371571 14.564604541985318,228.94116343458882 14.226311668055132,229.1710832983954 13.338292873930186,229.5849388371571 13.0,230.04477799887536 13.0,230.55060068075545 13.422866092296317,231.562244799803 14.64917776035145,233.3556098418776 14.902897415682673,233.30962618795456 15.368050117278472,232.8497894605389 15.917776037706062,232.48191983177094 16.42521534836851,232.43593611282995 17.355520751792938,232.66585467359982 17.651527016423643,232.52790354733588 18.11667971801944,232.66585467359982 18.750978856580332,233.3556098418776 19.21613155817613,234.9650355677586 19.80814408743754,236.2065896866261 20.86530931876041,237.72404132655356 20.86530931876041,238.27584099740488 21.541895066620782,238.50575738103362 23.14878621767275,239.60935483005596 24.036805011564866,239.74730437237304 24.92482380568981,239.47140525694704 25.770555990515277,238.8276401743642 26.151135473744944,238.32182428089436 26.48942834767513,238.1378911259235 27.884886452695355,239.0575563524617 28.519185591256246,239.60935483005596 28.646045418921858,239.88525388384005 28.350039154291153,241.54064561414998 28.519185591256246,242.0464588679024 28.603758809622377,243.10406705766218 29.195771339116618,244.1616734341369 29.999216914642602,244.9433813293581 30.887235708767548,244.98936411581235 31.986687548691407,244.62150172778638 33.42443226301111,243.6558619151474 33.67815191834234,243.37996454816312 34.143304620170966,243.19603290152736 34.94675019569695,244.06970773427747 35.58104933449067,244.98936411581235 35.6656225528568,245.17329522763612 35.49647611589171,245.86303640838014 35.96162881748751,247.10456858988618 36.17306186375208,247.15055121527985 37.23022709484212,246.92063805408543 38.37196554406546,247.0126033287961 39.85199686768465,247.56439468963072 40.909162098541856,248.11618555686437 42.05090054823086,248.43806333473185 42.2623335942626,248.66797593032243 42.473766640527174,249.17378333915258 42.431480031460524,249.58762545598438 42.64291307749227,250.23137930815574 42.7274862958584,251.1050441756379 42.68519968679175,251.97870780574158 42.89663273305632,252.3925480406615 43.36178543465212,252.71442358702188 43.657791699515656,252.6684413763578 44.03837118227966,252.3925480406615 44.50352388410829,251.47290269704536 44.67267032107338,250.27736170048593 45.09553641360253,249.54164301231503 45.306969459634274,248.85190594516462 45.306969459634274,248.07020300341537 45.56068911519833,247.56439468963072 45.64526233356446,247.0126033287961 45.56068911519833,246.64474214741495 45.856695379596204,245.90901912632398 46.490994518389925,245.44919179257704 46.95614721998572,245.40320904029068 47.29444009391591,245.17329522763612 48.140172278741375,245.12731245491887 48.3938919340726,244.89739853946958 48.43617854337208,244.34560479264474 48.90133124496788,243.10406705766218 49.197337509831414,241.77056078088935 49.45105716516264,241.21876423677895 49.45105716516264,240.7129503043252 48.81675802660175,240.20713595702546 48.35160532500595,239.5633716424345 47.29444009391591,238.8736234168755 46.87157400161959,238.78165692841867 46.533281127689406,238.4137908378616 46.490994518389925,238.04592452791985 46.36413469072431,237.54010799335083 46.74471417395398,236.9883076644619 46.95614721998572,235.83872206014348 46.02584181679413,234.8730684965849 45.68754894286394,234.68913431296824 45.09553641360253,233.99938063620357 44.54581049317494,233.49356078298297 43.8692247455474,233.07970786711667 43.108065779088065,232.29798493511043 42.516053249826655,232.02208248723764 41.71260767430067,231.4242934267968 41.332028191071004,231.3323258276214 41.12059514480643,231.05642294773133 39.93657008605078,230.4586329511949 38.32967893499881,229.21706726081902 37.69537979643792,228.98714741430013 35.62333594355732,227.74557876150357 33.93187157390639,226.96384906803723 33.593578699976206,226.96384906803723 32.83241973351687,227.05581731867278 32.32498042285442,227.19376966892742 31.60610806569457,227.28573788533686 30.083790133008733,226.68794423370855 29.068911511218175,226.04416580713587 28.77290524658747,225.99818160803989 28.011746280128136,226.1821183837601 27.335160532500595,226.13613419490866 26.02427564607933,225.5383394289529 24.417384494794533,224.98652836150723 23.867658574832603,224.94054408365628 22.51448707911186,225.21644969959743 21.49960845708847,225.49235519225476 20.82302270946093,225.76826056139544 20.527016444597393,226.13613419490866 20.442443226231262,226.54999177035643 21.245888801757246,229.35501912760083 21.034455755492672,230.78051994438283 20.611589663429186,231.3323258276214 20.104150352301076,232.61987096827943 19.935003915568814,233.30962618795456 19.892717306269333,234.6431507585221 20.442443226231262,236.11462280061096 21.203602192690596,236.94232428137911 21.541895066620782,237.72404132655356 21.837901331251487,238.0919078285806 21.753328112652525,238.22985771030653 20.86530931876041,238.50575738103362 19.427564604440704,239.33345565298805 19.25841816747561,240.11516966758063 19.004698512144387,240.43705162091646 19.13155833981,241.03483194572618 19.850430696969852,241.9085098397918 20.35787000786513,242.78218649624614 21.330462020356208,245.2652607630007 21.37274862965569,246.18491536204237 20.94988253712654,247.47242949710926 20.527016444597393,247.8862727554515 20.146436961600557,248.07020300341537 18.877838684245944,248.20815065334318 16.678935003932565,248.3001157362596 16.34064213000238,248.71395843918435 16.2983555207029,249.44967811455717 16.38292873930186,250.1853969123913 16.89036805019714,250.50727361044846 17.778386844089255,250.87513248837786 18.750978856580332,251.6108495859662 20.019577133934945,252.02469006780302 20.31558339856565,252.20861908158986 20.611589663429186,252.94433458871208 21.288175411056727,254.0938883118797 21.288175411056727,254.36978088656906 21.45732184825465,254.82960157032358 21.795614721952006,255.01352974795736 22.303054033080116,255.74924190953607 23.06421299907379,256.0711157043115 23.74079874716699,256.1630796149839 24.24823805782944,256.0711157043115 24.84025058732368,255.84120586817153 25.685982772149146,254.96754770865664 26.44714173837565,253.22022767772432 27.292873923201114,252.43853027193109 27.377447141567245,252.3005835680524 27.250587314134464,252.20861908158986 27.67345340643078,251.84076099906815 28.011746280128136,251.7947787232697 28.561472200555727,251.47290269704536 29.83007047767751,251.1510265027755 31.01409553643316,250.55325598217314 31.732967893593013,249.67959033319494 32.19812059518881,248.85190594516462 32.49412685981952,248.3001157362596 32.49412685981952,247.8862727554515 32.83241973351687,247.33448168257019 33.80501174624078,247.19653383735567 34.39702427550219,247.380464290909 34.735317149432376,247.380464290909 35.62333594355732,247.10456858988618 35.96162881748751,247.15055121527985 36.342208300717175,247.0126033287961 37.61080657807179,246.8746554114623 38.79483163659461,247.10456858988618 39.175411119824275,247.42644689569715 40.06342991371639,247.65635986853158 40.35943617857993,247.97823788633104 41.458888018736616,248.62199341808446 42.34690681262873,248.62199341808446 42.93891934212297,248.34609827247914 43.53093187161721,247.51841209514532 43.99608457321301,245.86303640838014 43.8692247455474,244.43757045146776 43.95379796391353,243.8397934245877 44.46123727480881,242.96611826610751 45.26468285033479,242.27637384599075 45.72983555193059,241.6785947244498 45.72983555193059,240.89688269142061 45.47611589659937,240.34508536558133 44.50352388410829,239.1955060181208 43.657791699515656,238.9196066558361 43.19263899768703,238.55174064758467 42.516053249826655,237.6320746668498 42.09318715729751,236.2525731245987 41.458888018736616,235.65478816459654 40.99373531714082,235.4248707179795 40.40172278764658,235.47085421410156 39.85199686768465,235.65478816459654 39.64056382142007,235.83872206014348 38.37196554406546,236.39052341756178 37.991386061068624,236.48249026248232 36.63821456534788,236.57445709372405 36.1307752544526,236.5284736798494 35.750195771222934,236.39052341756178 35.11589663266204,235.7467551191803 33.88958496460691,233.72347894945415 32.451840250520036,232.43593611282995 31.902114330325276,232.11404998361832 31.352388410363346,231.47027722129133 30.633516053203493,230.32068133127177 30.50665622553788,229.5849388371571 30.37979639763944,229.35501912760083 30.42208300693892,228.94116343458882 30.295223179273307,228.8491954652127 29.95693030534312,228.71124348521698 29.23805794818327,229.03313139046077 28.476898981956765,229.1250993325375 27.927173061762005,229.30903517547995 27.715740015730262,229.5849388371571 27.166014095535502,231.7461799159646 26.743148003239185,232.98774051479995 27.12372748646885,235.01101909810677 26.827721221605316,237.2182245281292 27.208300704834983,238.04592452791985 27.67345340643078,238.55174064758467 28.054032889660448,238.78165692841867 28.77290524658747,239.65533801430138 28.77290524658747,240.11516966758063 28.646045418921858,240.8049165047123 28.22317932662554,241.58662865427323 28.307752544991672,242.69022059068084 28.519185591256246,243.28799873171374 29.111198120517656,243.8857762933476 29.23805794818327,244.34560479264474 29.618637431412935,244.7594501490821 30.126076742308214,245.08132967865095 31.56382145662792,244.8514157461468 32.07126076729037,244.62150172778638 32.66327329678461,244.29962195822736 33.72043852787465,243.4259474511491 34.22787783876993,243.28799873171374 35.07361002359539,244.39158762380248 35.41190289752558,244.80543294921517 35.62333594355732,245.90901912632398 36.00391542678699,246.59875948436093 36.299921691650525,246.92063805408543 36.72278778371401,246.82867276557954 36.849647611612454,246.92063805408543 37.18794048530981,246.8746554114623 37.18794048530981,246.92063805408543 37.441660140873864,246.8746554114623 37.90681284246966,247.0126033287961 38.9639780735597,247.05858596111648 39.725137039786205,247.42644689569715 41.12059514480643,248.1621681068209 41.416601409437135,248.3920808052644 41.88175411103293,248.48404586070683 42.13547376659699,248.53002838324755 42.98120595142245,248.20815065334318 43.4040720439516,247.74832503357902 43.57321848068386,247.10456858988618 43.99608457321301,246.5067941477755 44.08065779157914,245.7250882338849 43.91151135484688,244.25363912025932 44.08065779157914,243.56389613979263 44.54581049317494,242.9201353288372 45.26468285033479,242.4143227916793 45.898981989128515,241.77056078088935 46.70242756442167,241.9085098397918 47.80187940481119,242.552271706576 48.56303837127052,242.4143227916793 48.689898198936135,241.8625268235337 49.324197337497026,240.8049165047123 49.324197337497026,240.57500097807497 48.94361785426736,240.20713595702546 47.67501957714558,239.14952279964928 46.91386061068624,238.8736234168755 46.490994518389925,238.55174064758467 46.61785434605554,237.953957916121 46.27956147235818,237.6320746668498 46.23727486282587,237.44814130623126 46.82928739232011,236.9883076644619 47.33672670321539,235.7467551191803 47.548159749247134,235.60880468209507 47.75959279551171,235.65478816459654 48.140172278741375,235.47085421410156 48.81675802660175,235.93068898731144 49.197337509831414,236.0226559008006 49.70477682049386,236.43650684179738 50.16992952232249,236.5284736798494 50.67736883298494,236.71240731485886 50.973375097848475,236.9883076644619 51.77682067337446,237.2182245281292 52.072826938237995,237.67805799847702 52.622552858199924,238.1378911259235 54.10258418158628,239.0115731236874 54.356303837150335,239.2874724448193 54.77916992944665,239.33345565298805 55.2020360219758,239.5633716424345 55.87862176960334,239.65533801430138 55.92090837913565,239.74730437237304 56.34377447119914,239.9772202075692 56.512920908397064,240.253119096742 56.89350039162673,240.2991022329079 57.147220046957955,240.16115281399107 57.104933437658474,240.34508536558133 57.189506656257436,240.43705162091646 57.40093970228918,240.43705162091646 57.95066562248394,240.7129503043252 58.71182458894327,241.54064561414998 60.530148786259815,242.36833981325617 60.614722004625946,242.78218649624614 60.99530148785561,243.1500499813701 62.34847298357636,243.60987902921624 63.02505873143673,243.4259474511491 63.321064995834604,243.6558619151474 64.08222396229394,243.93175915873144 65.01252936548553,244.43757045146776" stroke="#4dd2ff" stroke-linecap="round" stroke-linejoin="round" stroke-width="0.5"><title>2022-10-25 10.5km</title></polyline><polyline fill="none" points="187.0,234.15960279387946 186.94513310299953,234.14767098451557 186.5171713065938,233.9806255600124 186.17699654540047,233.8971027824009 186.0014224750921,233.88517095347925 185.8039016459952,234.04028466020827 185.6941678520525,234.19539821663057 185.6831944726291,234.290852638238 185.66124771384057,234.33857982765767 185.51859378168592,234.52948844322236 185.4856736435322,234.6130108909274 185.46372688474366,234.63687443944218 185.2881528144353,234.74426036364457 185.1345255029155,234.7919874179206 184.8162975005107,234.95903199593886 184.4212558423169,235.1141446623369 184.31152204837417,235.18573507307156 184.19081487500807,235.31698407628573 184.15789473685436,235.41243782920355 184.14692135743098,235.49595981634047 184.0152408046415,235.55561835192202 184.03718756348826,235.71073044039076 183.9384271489689,235.87777405993256 183.94940052827587,236.06868084028247 183.88356025196845,236.15220248512924 183.87258687260328,236.2118607761804 183.8616134931799,236.30731399563956 183.88356025196845,236.3908355159947 183.8616134931799,236.5936733126582 183.87258687260328,236.7249211618182 183.82869335496798,236.90389532819972 183.85064011381473,236.96355333921383 183.77382645802572,237.19025357830105 183.76285307860235,237.4050219298515 183.77382645802572,237.4766113163496 183.72993294044863,237.72717391705373 183.79577321675606,237.88228390195582 183.8177199756028,238.09705132531235 183.79577321675606,238.33568145790196 183.77382645802572,238.38340744175366 183.75187969923718,238.53851679099898 183.77382645802572,238.65783157281112 183.72993294044863,238.76521480044175 183.6970128022367,239.13508981108316 183.64214590523625,239.33792413162882 183.64214590523625,239.42144407132582 183.7079861816601,239.50496396742528 183.7847998374491,239.70779781950114 183.7847998374491,239.7913175662543 183.82869335496798,240.20891564672638 183.79577321675606,240.35209188077715 183.8177199756028,240.47140531135665 183.79577321675606,240.50719932321226 183.80674659617944,240.5668559918413 183.7847998374491,240.8293450698111 183.8177199756028,240.9367268413189 183.85064011381473,240.97252074917196 183.87258687260328,241.04410854086746 183.85064011381473,241.2230778800731 183.8616134931799,241.31852811254794 183.80674659617944,241.49749714507197 183.8177199756028,241.73612221069925 183.7847998374491,241.8315721373947 183.80674659617944,241.8912283126847 183.80674659617944,242.1537152200035 183.77382645802572,242.34461451874813 183.7847998374491,242.47585765464464 183.72993294044863,242.83379293317557 183.75187969923718,243.0127602724533 183.71895956108347,243.08434715218027 183.7409063198138,243.12014058005298 183.6970128022367,243.2513830804237 183.71895956108347,243.33490097921458 183.68603942287154,243.4184188344516 183.67506604344817,243.49000553287624 183.7079861816601,243.549661090452 183.72993294044863,243.69283433791134 183.7079861816601,243.8360074574448 183.67506604344817,243.8598696315603 183.6970128022367,243.8598696315603 183.5104653525632,243.75248981993354 183.33489128225483,243.88373180216877 183.1483438325231,243.90759396919748 183.04958341794554,243.9553182926029 183.00568990042666,244.00304260177654 182.91790286521427,244.06269796825654 182.8740093476954,244.06269796825654 182.786222312483,244.09849117744307 182.67648851854028,244.09849117744307 182.544807965809,244.11042224541598 182.3582605161355,244.17007757189276 182.22657996340422,244.24166393435735 182.10587279009633,244.24166393435735 182.00711237551877,244.2774571035843 181.74375127005624,244.30131921195425 181.5242836821708,244.34904341801303 181.3157894736505,244.5160780273436 181.3596829912276,244.44449178753712 181.27189595607342,244.44449178753712 181.26092257665005,244.42062970048573 181.14021540334215,244.46835387100873 180.87685429793783,244.49221595094423 180.83296078030253,244.5160780273436 180.70128022757126,244.5160780273436 180.38305222516647,244.59959526665625 180.27331843122374,244.56380216940306 179.68075594393304,244.74276757560438 179.40642145904712,244.77856063282525 179.04429993900703,244.86207773530623 178.98943304206477,244.85014672331454 178.91261938627576,244.8740087463666 178.89067262748722,244.89787076588254 178.7809388336027,244.93366378844075 178.44076407235116,244.96945680303907 178.19934972561896,245.0291118095629 178.12253606988816,245.07683579881268 178.0676691729459,245.05297380595584 177.93598862021463,245.0887667938805 177.79333468805999,245.07683579881268 177.61776061775163,245.12455977381615 177.54094696196262,245.12455977381615 177.47510668559698,245.1603527457337 177.1568786831922,245.20807669585338 177.08006502740318,245.23193866560177 177.0361715098261,245.35124846090912 176.992277992249,245.3751104092953 176.93741109530674,245.3751104092953 176.4765291606891,245.4586272007 176.1583011582843,245.57793682716147 176.07051412313012,245.57793682716147 175.9607803291874,245.63759160709742 175.73033936187858,245.68531541500124 175.63157894735923,245.6972463647544 175.54379191220505,245.6614535128174 175.3682178418967,245.6614535128174 174.83052225154825,245.74497015491943 174.34769355820026,245.74497015491943 174.13919934967998,245.7688320446614 173.59053037996637,245.8881414400821 173.4588498272933,245.87621050453163 173.40398293029284,245.90007237471582 173.00894127204083,245.94779610444675 172.85531396057922,245.98358889239898 172.60292623448186,246.00745074660517 172.53708595811622,245.94779610444675 172.41637878475012,245.95972703465668 172.2737248527119,245.94779610444675 172.02133712661453,245.87621050453163 171.94452347082552,245.87621050453163 171.7908961593057,245.85234863078222 171.4726681568427,245.91200330850552 171.3190408453229,245.86427956810803 171.11054663686082,245.85234863078222 171.0008128429181,245.8881414400821 170.9239991871873,245.93586517334916 170.85815891076345,245.94779610444675 170.74842511682073,246.01938167234766 170.6057711847243,246.05517444430734 170.55090428778203,246.09096720827802 170.37533021741547,246.11482904652075 170.33143669983838,246.07903628789063 170.15586262953002,246.11482904652075 170.11196911195293,246.09096720827802 169.91444828285603,246.10289812783594 169.85958138591377,246.09096720827802 169.5303800040856,246.11482904652075 169.39869945135433,246.09096720827802 168.99268441373715,246.07903628789063 168.64153627312044,245.99551981993136 168.4549888234469,245.87621050453163 168.4110953058116,245.87621050453163 168.1367608209839,245.68531541500124 167.92826661246363,245.61372969776858 167.58809185121208,245.54214394856535 167.5441983336932,245.50635106195114 167.45641129853902,245.49442009798076 167.35765088396147,245.51828202506294 167.17110343428794,245.43476526477025 166.85287543182494,245.48248913312273 166.68827474088175,245.48248913312273 166.57854094699724,245.50635106195114 166.1944726681686,245.48248913312273 166.08473887422588,245.50635106195114 165.9969518390717,245.49442009798076 165.9530583214946,245.48248913312273 165.9091648038593,245.44669623317895 165.7994310099748,245.43476526477025 165.7994310099748,245.41090332523163 165.6787238366087,245.43476526477025 165.59093680145452,245.42283429543022 165.21784190204926,245.32738650895772 165.10810810810653,245.32738650895772 165.00934769352898,245.30352455342654 164.81182686443208,245.30352455342654 164.7240398292779,245.2796625943738 164.41678520623827,245.2796625943738 164.31802479171893,245.24386964911537 164.2082909977762,245.2558006317413 163.99979678925592,245.20807669585338 163.91200975410175,245.14842175596277 163.71448892500484,245.1722837346024 163.67059540742775,245.19614570967678 163.48404795775423,245.48248913312273 163.38528754317667,245.67338446434587 163.30847388744587,245.7330392087024 163.0999796789256,245.75690110026335 162.91343222919386,245.74497015491943 162.62812436494278,245.78076298821543 162.48547043284634,245.7688320446614 162.4196301564807,245.7926939308818 162.12334891280625,245.74497015491943 161.82706766919,245.7330392087024 161.72830725461245,245.6972463647544 161.32229221705347,245.6972463647544 161.22353180247592,245.67338446434587 161.1137980085332,245.60179874180176 160.97114407637855,245.39897235415992 160.81751676485874,245.12455977381615 160.65291607397376,245.11262878136768 160.37858158908784,245.1603527457337 160.17008738062577,245.1722837346024 159.74212558422005,245.12455977381615 159.65433854906587,245.14842175596277 159.30319040839095,245.0649048028281 159.2044299938716,245.0291118095629 159.14956309692934,244.94559479420423 159.13858971750597,244.8859397565684 159.10566957935225,244.85014672331454 158.99593578540953,244.8859397565684 158.78744157694746,244.8859397565684 158.4472668156959,244.81435368207167 158.3265596423298,244.81435368207167 158.249745986599,244.77856063282525 158.08514529565582,244.67118143712287 157.7010770168854,244.57573320269876 157.4596626702114,244.56380216940306 157.3828490144224,244.57573320269876 157.31700873805676,244.6115262972744 157.20727494411403,244.73083655475057 157.1743548059021,244.74276757560438 157.08656777074793,244.70697451035085 156.72444625076605,244.73083655475057 156.6256858361885,244.68311246242956 156.43913838651497,244.6592504109285 155.9124161755899,244.64731938384648 155.80268238158897,244.62345732701942 155.7917090022238,244.63538835589134 155.66002844949253,244.56380216940306 154.85897175368154,244.43256074443343 154.70534444221994,244.44449178753712 154.60658402764238,244.49221595094423 154.40906319854548,244.50414698956592 154.3212761633913,244.46835387100873 154.18959561066004,244.48028491143486 153.82747409061994,244.42062970048573 153.79455395246623,244.43256074443343 153.6848201585235,244.34904341801303 153.6080065027345,244.33711236782256 153.4872993293684,244.28938815819856 153.2458849827526,244.2535949916346 153.20199146517552,244.21780181706708 152.938630359713,244.1462154439796 152.58748221903807,244.12235331250122 152.47774842509534,244.06269796825654 152.31314773421036,244.03883582430717 152.2582808372099,244.06269796825654 152.19244056090247,244.05076689671841 152.060760008113,244.06269796825654 151.819345661439,244.01497367682168 151.70961186749628,244.01497367682168 151.63279821176548,243.99111152581463 151.43527738266857,243.9791804489505 151.28165007114876,243.9195250513876 151.08412924199365,243.93145613267552 150.4696199959726,243.78828309848905 150.2720991668175,243.76442091369245 150.05263157893205,243.69283433791134 149.58077626494924,243.62124773018877 149.41617557406425,243.57352330721915 149.3174151594867,243.59738552049384 149.26254826254444,243.57352330721915 149.06502743344754,243.549661090452 148.9662670189282,243.51386775856372 148.88945336313918,243.51386775856372 148.77971956919646,243.49000553287624 148.73582605161937,243.5019366461638 148.61511887825327,243.4661433036381 148.50538508431055,243.4661433036381 148.35175777279073,243.44228107083472 148.2859174964833,243.4064877149649 148.17618370248238,243.394556594576 148.11034342611674,243.4064877149649 147.9676894940203,243.38262547328486 147.85795570001937,243.38262547328486 147.58362121519167,243.32296985349967 147.44096728309523,243.33490097921458 147.2544198333635,243.32296985349967 147.03495224547805,243.26331421150826 146.99105872790096,243.2752453416906 146.65088396670762,243.19172741177317 146.50823003449477,243.19172741177317 146.39849624061026,243.15593399992213 146.15708189393627,243.13207172088732 146.08026823814726,243.09627829567762 145.707173338742,243.06048486252257 145.21337126602884,242.95310451490514 144.53302174352575,242.89344873515074 144.42328794958303,242.8695864170295 144.24771387927467,242.77413710896508 144.00629953260068,242.72641243360704 143.92948587686988,242.72641243360704 143.75391180656152,242.69061891775345 143.63320463319542,242.70255009060202 143.27108311321354,242.67868774403178 142.9199349725386,242.60710068298795 142.74436090228846,242.60710068298795 142.7224141434417,242.59516950303805 142.53586669370998,242.5832383222005 142.42613289982546,242.59516950303805 142.20666531194001,242.54744477434724 142.14082503557438,242.5593759578478 142.04206462099683,242.52358240466856 141.74578337738058,242.54744477434724 141.52631578949513,242.51165121849044 141.38366185734048,242.52358240466856 141.35074171918677,242.4997200314101 141.0654338549357,242.5355135899299 140.6264986791648,242.52358240466856 140.49481812643353,242.5593759578478 140.02296281245071,242.4997200314101 139.75960170698818,242.4997200314101 139.66084129241062,242.47585765464464 139.58402763667982,242.47585765464464 139.58402763667982,242.4639264649013 139.5072139808908,242.4639264649013 139.22190611663973,242.4281328904035 139.1889859784278,242.40427050294238 139.12314570212038,242.4162016971095 138.8378378378693,242.3923393078876 138.58545011177193,242.3326833192259 138.50863645598292,242.35654571736814 138.31111562694423,242.30882091756212 138.14651493600104,242.30882091756212 137.8063401748077,242.2253024836973 137.8063401748077,242.2014400660264 137.81731355411466,242.2133712752984 137.79536679538433,242.2253024836973 137.6856330014416,242.2014400660264 137.3344848608249,242.2253024836973 137.2137776874588,242.2133712752984 137.13696403172798,242.16564643285528 137.03820361715043,242.1537152200035 136.66510871774517,242.1417840062786 136.40174761234084,242.05826548529149 136.27006705955137,242.07019670525915 136.02865271287737,241.99860937225458 135.7433448486845,241.97474692077958 135.37024994922103,241.87929707941657 135.3044096728554,241.8315721373947 135.27148953464348,241.74805345464847 135.216622637643,241.71225972012326 135.0629953261232,241.65260347817093 134.95326153223868,241.64067222713493 134.84352773823775,241.59294721398328 134.75574070308357,241.6048784686136 134.61308677104535,241.6883972260257 134.3936191831017,241.7003284735256 133.81203007517615,241.6287409751676 133.76813655765727,241.6048784686136 133.54866896977182,241.55715344483906 133.23044096730882,241.53329092760396 133.14265393209644,241.49749714507197 133.0,241.49749714507197" stroke="#4dd2ff" stroke-linecap="round" stroke-linejoin="round" stroke-width="0.5"><title>2022-10-21 10.5km</title></polyline></svg>