<?xml version="1.0" encoding="utf-8" ?>
<svg baseProfile="full" height="300mm" version="1.1" viewBox="0,0,200,300" width="200mm" xmlns="http://www.w3.org/2000/svg" xmlns:ev="http://www.w3.org/2001/xml-events" xmlns:xlink="http://www.w3.org/1999/xlink"><defs /><rect fill="#222222" height="300" width="200" x="0" y="0" /><text fill="#FFFFFF" style="font-size:12px; font-family:Arial; font-weight:bold;" x="10" y="20">Over 10km Runs</text><text fill="#FFFFFF" style="font-size:4px; font-family:Arial" x="10" y="280">ATHLETE</text><text fill="#FFFFFF" style="font-size:9px; font-family:Arial" x="10" y="290">safeoy</text><text fill="#FFFFFF" style="font-size:4px; font-family:Arial" x="120" y="280">STATISTICS</text><text fill="#FFFFFF" style="font-size:3px; font-family:Arial" x="120" y="285">Number: 9</text><text fill="#FFFFFF" style="font-size:3px; font-family:Arial" x="120" y="290">Weekly: 1.1</text><text fill="#FFFFFF" style="font-size:3px; font-family:Arial" x="141" y="285">Total: 75.3 km</text><text fill="#FFFFFF" style="font-size:3px; font-family:Arial" x="141" y="290">Avg: 8.4 km</text><text fill="#FFFFFF" style="font-size:3px; font-family:Arial" x="167" y="285">Min: 2.2 km</text><text fill="#FFFFFF" style="font-size:3px; font-family:Arial" x="167" y="290">Max: 12.5 km</text><polyline fill="none" points="67.0,75.59909040550701 64.22632423788309,74.46805198246147 63.532905297353864,73.71402580535505 61.19261637283489,72.58298569614999 59.545746388845146,72.58298569614999 58.67897271271795,72.11171868548263 57.89887640438974,71.45194457506295 57.63884430192411,70.98067714285571 57.63884430192411,70.50940953474492 57.55216693459079,70.0381417509634 57.29213483212516,69.75538099650294 54.17174959881231,68.15306885947939 51.744783306494355,67.30478514148854 50.7913322634995,67.58754644414876 49.751203852239996,67.49329268350266 48.27768860338256,66.92776997282635 47.06420545745641,66.73926234652754 45.33065810613334,65.41970817442052 45.157303371001035,64.85418453614693 44.637239165604115,64.47716863686219 43.8571428572759,64.10015262512024 43.33707865187898,64.10015262512024 42.21027287375182,63.72313650068827 41.863563403021544,63.34612026414834 40.56340288929641,62.59208745358046 39.17656500823796,61.08402048330754 37.70304975938052,60.14147771336138 36.74959871592,59.85871474526357 34.23595505626872,57.78511771385092 33.36918138060719,57.31384518707637 32.41573033668101,56.55980877857655 31.89566613174975,56.27704500942491 30.855537720490247,56.088535794988275 30.508828250225633,55.9000265521463 29.035313001833856,55.523007982526906 28.16853932570666,54.58046106644906 26.781701444648206,53.92067780729849 24.701444622594863,52.31834560097195 24.181380417663604,52.12983579619322 23.31460674153641,51.470051257754676 21.58105938974768,50.62175634538289 20.5409309794195,50.244736201595515 17.853932584635913,48.548144163098186 16.72712680604309,47.605592046747915 15.860353129915893,47.0400604394963 14.993579454254359,46.00325183616951 13.0,44.40090959449299" stroke="#4dd2ff" stroke-linecap="round" stroke-linejoin="round" stroke-width="0.5"><title>2023-06-04 4.7km</title></polyline><polyline fill="none" points="73.0,63.82655989512568 73.30604534002487,63.78958888306806 73.5100755666499,63.80807438978809 73.867128463462,63.84504539905174 73.93513853900367,63.900501902680844 74.02015113347443,63.91898740117904 74.10516372788697,63.900501902680844 74.25818639795762,63.78958888306806 74.3772040301119,63.75261786550982 74.71725440805312,63.715646842407295 74.90428211580729,63.77110337495105 75.21032745583216,63.77110337495105 75.49937027698616,63.715646842407295 75.60138539038599,63.73413235465705 75.80541561706923,63.66019029750896 76.19647355162306,63.66019029750896 76.29848866496468,63.697161328818765 76.62153652386041,63.6786758138478 76.82556675060187,63.715646842407295 76.99559193942696,63.66019029750896 77.31863979849732,63.62321926068398 77.96473551628878,63.66019029750896 78.44080604531337,63.56776269507827 78.6448362719384,63.40139292400272 78.83186397980899,63.30896522523835 79.30793450877536,63.29047968136729 79.39294710324612,63.2350230414595 79.78400503774174,63.10562416681205 79.97103274555411,63.16108083559084 80.34508816112066,62.92076851458114 80.68513853894547,62.86531179206213 80.87216624681605,62.73591272470367 81.19521410576999,62.71742713810818 81.36523929465329,62.56954239610059 81.51826196466573,62.49559999202029 81.75629722914891,62.477114387540496 81.80730478581972,62.4216575659666 82.64042821153998,62.25528702669544 82.82745591935236,62.088916375956615 83.32052896724781,61.86708866820845 83.43954659940209,61.88557431809022 83.64357682614354,61.84860301691515 83.94962216622662,61.70071775728138 84.11964735516813,61.68223209361895 84.34068010072224,61.58980375468673 84.61272040294716,61.44191834083176 84.79974811075954,61.36797560087871 85.07178841310088,61.22009005486325 85.70088161202148,60.94280441859155 85.93891687656287,60.776432888174895 86.00692695204634,60.68400421195838 86.17695214104606,60.62854698971205 86.77204030228313,60.1109456512786 86.87405541556654,60.12943143195298 87.18010075559141,60.01851672724297 87.7071788412286,60.055488300989964 88.13224181358237,59.83365877594042 88.37027707800735,59.68577231577365 88.48929471027805,59.66728650208097 88.55730478587793,59.59334323347139 88.74433249369031,59.519399942772 88.89735516370274,59.408484965519165 89.11838790925685,59.334541619740776 89.62846347608138,59.1311973053962 89.81549118389376,59.02028215465543 90.15554156171856,58.946338693247526 90.56360201508505,58.81693758284382 90.83564231736818,58.687536404962884 91.14168765739305,58.59510695087374 91.20969773293473,58.53964926193294 91.32871536526363,58.52116336283507 91.82178841310088,58.35479020923958 92.33186397980899,58.33630429636105 92.82493702770444,58.243874711493845 92.90994962211698,58.28084654957638 93.07997481105849,58.299332466573105 93.14798488660017,58.35479020923958 93.52204030228313,58.502677462398424 93.62405541556654,58.687536404962884 93.69206549116643,58.65056462745997 94.03211586899124,58.65056462745997 94.406171284616,58.59510695087374 94.59319899237016,58.65056462745997 94.67821158689912,58.65056462745997 95.17128463467816,58.4841915605939 95.3243073047488,58.39176203077659 95.52833753149025,58.39176203077659 95.6133501259028,58.33630429636105 96.32745591941057,58.299332466573105 96.78652392944787,58.15144509219681 97.17758186394349,58.132959164184285 97.26259445841424,58.11447323484754 97.34760705282679,58.059015438484494 97.94269521406386,57.96658575034235 98.31675062968861,57.80021222495998 98.57178841304267,57.726268400088884 99.03085642313818,57.670810516996426 99.132871536538,57.689296479395125 99.31989924435038,57.615352621505735 99.62594458437525,57.59686665360641 99.72795969771687,57.55989471361681 100.03400503774174,57.55989471361681 100.11901763215428,57.57838068426645 100.20403022668324,57.54140874155564 100.289042821154,57.54140874155564 100.51007556670811,57.55989471361681 100.68010075570783,57.70778244041139 100.78211586899124,57.87415602777037 100.93513853894547,57.98507169073855 100.96914357686182,58.077501371953986 101.156171284616,58.299332466573105 101.68324937025318,58.63207873664214 101.70025188912405,58.724508176979725 101.87027707806556,58.87239520986623 101.92128463473637,58.946338693247526 102.12531486147782,58.9278528244904 102.49937027704436,58.55813515963382 102.8224181359983,58.18841694404546 103.02644836268155,58.040529503588914 103.16246851382311,58.00355762972322 103.24748110835208,57.9296138654754 103.33249370276462,57.911127920946456 103.58753148611868,58.09598730407015 103.70654911838938,58.059015438484494 103.79156171280192,57.98507169073855 104.28463476063916,57.892641975020524 104.47166246850975,57.911127920946456 104.87972292187624,57.855670079166885 105.18576826195931,57.892641975020524 105.45780856418423,57.855670079166885 105.49181360192597,57.76324031523836 105.4238035264425,57.689296479395125 105.52581863984233,57.33806295818067 105.72984886646736,57.319576969588525 106.15491183882114,57.35654894536128 106.56297229212942,57.30109097964305 106.86901763221249,57.375034931174014 107.07304785895394,57.33806295818067 107.58312342566205,57.35654894536128 107.92317380348686,57.319576969588525 108.16120906797005,57.33806295818067 108.2462216624408,57.319576969588525 108.73929471033625,57.33806295818067 108.94332493696129,57.282604988329695 109.09634760703193,57.33806295818067 109.38539042818593,57.375034931174014 109.62342569266912,57.448978860658826 109.94647355162306,57.50443679334421 111.05163727956824,57.98507169073855 111.34068010078045,58.1699310188269 111.56171284633456,58.39176203077659 111.64672544080531,58.53964926193294 111.61272040300537,58.853909335579374 111.66372795967618,58.946338693247526 111.85075566748856,58.983310426730895 112.00377833750099,59.09422559397353 112.68387909320882,59.27908409597876 113.07493702770444,59.35302745827357 113.73803526442498,59.42697079847858 114.43513853906188,59.408484965519165 114.5371536524035,59.42697079847858 114.72418136021588,59.38999913111911 115.01322418136988,59.38999913111911 115.72732997476123,59.29756993865885 116.11838790931506,59.20514071172511 116.0333753148443,59.168169011347345 115.94836272037355,59.186654862205614 115.9823677581735,59.07573973624676 116.06738035270246,59.03876801658771 116.28841309825657,59.00179629136983 116.66246851388132,58.853909335579374 116.93450881604804,58.669050516880816 117.27455919393105,58.502677462398424 117.34256926953094,58.428733846812975 117.44458438287256,58.39176203077659 117.51259445847245,58.31781838212919 117.98866498738062,58.15144509219681 117.8866498740972,58.132959164184285 117.63161209068494,58.20690286788158 117.54659949627239,58.243874711493845 117.34256926953094,58.44721975275024 117.597607052885,58.373276120677474 117.78463476075558,58.243874711493845 117.90365239290986,58.26236063121178 118.19269521406386,58.18841694404546 118.24370277073467,58.077501371953986 119.671914357692,57.264118995604804 120.21599496220006,57.02380096518027 120.48803526448319,56.875912830844754 120.69206549122464,56.82045475773339 121.4571788412868,56.48770605883328 122.00125944585307,56.210415135647054 122.39231738034869,56.0994986796577 122.80037783371517,56.08101259882096 123.32745591935236,56.17344298916578 123.73551637277706,56.1179847590829 124.87468513852218,56.24738727667136 125.6738035264425,56.33981760502502 125.87783375318395,56.39527578552952 126.14987405540887,56.39527578552952 126.23488664982142,56.45073395365034 126.62594458431704,56.52467815850105 126.81297229212942,56.52467815850105 127.0,56.59862234139291" stroke="#4dd2ff" stroke-linecap="round" stroke-linejoin="round" stroke-width="0.5"><title>2023-05-21 5.5km</title></polyline><polyline fill="none" points="187.0,51.34009703654738 186.5539823009167,51.236174156321795 186.44247787614586,51.097610243727104 185.96460176992696,51.0110077563877 185.61415929201758,51.04564875521464 185.45486725668889,51.114930737312534 185.29557522124378,51.21885367175855 185.15221238933736,51.35741751201567 184.99292035400867,51.56526311764901 184.67433628323488,51.87703117747151 184.4831858407124,52.119517157174414 183.79823008849053,52.5525272058876 183.47964601771673,52.81233284791233 183.30442477879114,53.03749750275165 183.27256637171376,53.19338059758593 183.0814159292495,53.349263587850146 182.96991150447866,53.69566985860001 182.92212389380438,53.764951050819946 182.9061946903239,53.851552512001945 182.92212389380438,53.95547422286472 182.890265486727,54.145997238738346 182.890265486727,54.33652009848447 182.84247787611093,54.561683276842814 182.77876106201438,54.6482844412094 182.7309734513401,55.029329181066714 182.77876106201438,55.11593017121777 182.84247787611093,55.42769346853311 182.85840707970783,55.70481604842644 182.9061946903239,55.878017493116204 182.82654867257224,56.15513953616028 182.84247787611093,56.2590602170967 182.79469026549486,56.44958134488843 182.76283185841748,56.88258332721307 182.71504424780142,56.9865036829724 182.69911504426273,57.1770242144994 182.61946902656928,57.50610476480506 182.53982300887583,57.71394487237558 182.571681415895,57.90446480768151 182.53982300887583,58.09498458687449 182.5876106194919,58.37210398691241 182.55575221241452,58.49334362056106 182.571681415895,58.70118284544151 182.52389380527893,59.012941334280185 182.55575221241452,59.13418063370045 182.49203539825976,59.5325378865964 182.53982300887583,60.3638899546786 182.52389380527893,60.57172750715108 182.571681415895,60.97008229671337 182.50796460185666,61.73215042690572 182.46017699112417,61.90534738083079 182.4442477876437,62.217101572750835 182.38053097343072,63.221640014016884 182.4123893805663,63.4814337320131 182.33274336287286,64.4166887132742 182.2530973451212,64.76307849229488 182.30088495573727,64.97091211202496 182.2690265487181,65.14410665318428 182.2690265487181,65.38657879405946 182.23716814158252,65.49049534846563 181.9504424778861,65.52513418959279 181.69557522126706,65.61173126987705 181.4884955752059,65.62905068205146 181.21769911504816,65.71564772362763 180.8353982301196,65.76760593311337 180.75575221236795,65.81956413095759 180.43716814159416,65.88884171002428 180.3575221239007,65.94079988078738 179.95929203543346,66.02739680625382 179.7362831858918,66.11399369944411 179.44955752213718,66.18327119079186 178.82831858407008,66.23522929576575 177.56991150445538,66.52965833789494 177.09203539823648,66.56429702421883 176.78938053100137,66.6508937174367 176.13628318585688,66.75480970677745 174.8619469026453,67.03191878453072 174.670796460181,67.0492380909418 174.3681415929459,67.17047319957055 174.17699115042342,67.20511179041932 173.65132743370486,67.27438895669184 173.55575221241452,67.30902753207192 173.1097345133312,67.34366610232973 172.9345132743474,67.39562394793029 172.72743362834444,67.36098538545775 172.24955752212554,67.46490105740668 171.93097345135175,67.44758178196207 171.72389380529057,67.49953960438143 171.43716814159416,67.48222033155616 170.95929203543346,67.62077447824413 170.7522123893723,67.60345521441195 170.17876106192125,67.93252100647078 170.06725663720863,68.03643642296083 169.70088495581876,68.1230325679062 169.3026548672933,68.15767101688834 168.93628318584524,68.22694789929665 168.5221238937811,68.22694789929665 168.0442477876204,68.31354397327232 167.2796460177051,68.29622476107033 166.18053097341908,68.50405522254005 165.89380530972267,68.45209762458398 165.7026548673166,68.4001400150446 165.527433628391,68.27890554757323 165.28849557525245,68.22694789929665 165.01769911509473,68.24426711666456 164.428318584105,68.20962868061906 164.1256637168117,68.26158633276646 163.93451327440562,68.33086318425194 163.50442477874458,68.60797038364399 163.07433628319995,68.74652385954687 162.91504424775485,68.8677580831718 162.50088495574892,68.90239642118104 162.1982300885138,68.97167308171629 162.10265486728167,68.9370347540098 161.76814159291098,68.9370347540098 161.16283185844077,68.97167308171629 160.6371681415476,68.9370347540098 159.96814159292262,68.9889922436123 159.45840707962634,68.9370347540098 159.29911504429765,68.79848139167007 159.17168141598813,68.64260876034677 159.10796460177517,68.4001400150446 159.09203539817827,68.19230946064636 159.10796460177517,68.08839411380177 158.99646017700434,67.98447872049292 158.83716814161744,67.89788252393191 158.1044247787795,67.81128629512386 158.00884955748916,67.77664779458428 157.38761061948026,67.74200928887876 157.18053097341908,67.69005152062164 156.97345132741611,67.70737077802187 156.8619469026453,67.67273226196994 156.67079646023922,67.69005152062164 156.2247787610977,67.58613594934286 155.46017699112417,67.53417814624845 155.36460176995024,67.49953960438143 154.44070796464803,67.48222033155616 154.12212389381602,67.4302625052369 153.6601769911358,67.27438895669184 153.48495575226843,67.23975037616037 153.3734513274976,67.25706966707367 153.26194690261036,67.23975037616037 153.18230088497512,67.29170824505854 153.11858407082036,67.3783046673343 153.0389380531269,67.5514974152029 153.00707964599133,67.72469003408332 152.8796460176818,67.880563280778 152.81592920358526,68.03643642296083 152.65663716814015,68.15767101688834 152.54513274336932,68.17499023942219 151.4778761062189,68.15767101688834 150.88849557522917,68.08839411380177 149.80530973454006,68.05375565454597 149.61415929201758,68.00179795594886 149.45486725663068,67.79396704552346 149.31150442484068,67.65541300202312 149.21592920355033,67.51685887596977 149.13628318585688,67.44758178196207 149.0884955751826,67.36098538545775 148.99292035400867,67.30902753207192 148.65840707963798,67.32634681780473 148.37168141594157,67.39562394793029 147.43185840704245,67.25706966707367 147.01769911503652,67.34366610232973 146.890265486727,67.34366610232973 146.38053097343072,67.29170824505854 145.82300884957658,67.18779249567888 145.647787610651,67.18779249567888 145.44070796458982,67.1358346035704 144.59646017698105,67.0492380909418 143.8796460176818,66.9106836036517 143.00353982299566,66.7721290338377 142.923893805244,66.68553238571621 142.89203539822483,66.61625504404947 141.95221238938393,66.51233899279032 141.5221238937811,66.40842289509601 140.5823008849402,66.28718738911266 140.50265486724675,66.25254866153409 140.12035398225999,66.23522929576575 139.9451327433344,66.3045067510102 139.84955752210226,66.3218261115544 139.54690265486715,66.21790992871684 138.92566371674184,66.18327119079186 138.73451327433577,66.07935494605044 138.46371681417804,65.9927580399526 137.17345132742776,65.7849253336899 136.791150442441,65.73296712808951 136.59999999997672,65.73296712808951 136.09026548673864,65.6463700929744 135.6601769910776,65.6810089108767 135.29380530968774,65.55977302558313 134.83185840706574,65.45585650215799 134.2743362832116,65.36925936379703 133.89203539816663,65.33462049944501 133.52566371677676,65.23070387534972 133.19115044252248,65.21338443353307 133.0,65.14410665318428" stroke="#4dd2ff" stroke-linecap="round" stroke-linejoin="round" stroke-width="0.5"><title>2023-04-22 6.2km</title></polyline><polyline fill="none" points="66.90707964601461,141.7444162734755 66.89380530978087,141.90318419938558 66.9336283186567,141.97535139536194 66.98672566370806,142.1485525561293 66.94690265483223,142.3217535619915 66.96017699118238,142.53825460158987 66.86725663719699,142.85578902192356 66.8407079646131,143.0867228188872 66.8407079646131,143.40425634014537 66.81415929208742,143.505289624125 66.81415929208742,143.7362226467958 66.86725663719699,144.16922132227046 66.82743362832116,144.31355399901804 66.86725663719699,144.42902006296208 66.7743362832116,144.64551874740573 66.7743362832116,144.70325168907584 66.7743362832116,144.89088363062183 66.82743362832116,144.948616499154 66.82743362832116,145.02078256063396 66.81415929208742,145.1073817988945 66.85398230090505,145.16511460291804 66.90707964601461,145.52594423817936 66.86725663719699,145.59811008456745 66.86725663719699,145.74244169672602 66.80088495573727,145.87234005573555 66.8407079646131,146.03110459847085 66.81415929208742,146.11770338509814 66.81415929208742,146.204302133061 66.7743362832116,146.44966504198965 67.0,146.86822458116512 66.98672566370806,146.95482299363357 67.0,147.02698830778536 66.80088495573727,147.4599796281109 66.82743362832116,147.63317588526115 66.81415929208742,147.70534094671893 66.92035398230655,148.03729988320265 66.88053097343072,148.35482529019646 66.78761061950354,148.6146184179379 66.76106194686145,148.9610087130859 66.681415929168,149.2208010279719 66.70796460181009,149.27853260622942 66.7743362832116,149.24966681926162 66.74778761062771,149.3073983888753 66.78761061950354,149.37956282673986 66.85398230090505,149.43729435764544 66.82743362832116,149.5383244953846 66.89380530978087,149.85584744237713 66.72123893804383,149.91357883140154 66.01769911509473,150.0290415578056 65.31415929202922,150.20223551838717 64.42477876105113,150.36099651292898 63.800884955737274,150.5053245769086 63.721238938043825,150.57748856853868 63.548672566364985,150.62078695063246 63.26991150440881,150.67851811171568 63.030973451328464,150.67851811171568 61.95575221237959,150.96717365909717 61.26548672566423,151.06820299907122 60.85398230084684,151.16923228638188 60.64159292035038,151.18366503743164 60.15044247789774,151.27026152100007 60.07079646020429,151.29912700694695 59.63274336286122,151.37129070299852 59.55309734516777,151.3857234389434 59.39380530978087,151.37129070299852 58.87610619474435,151.4434543720854 58.703539823007304,151.5011852880416 57.74778761062771,151.61664706839656 57.66814159293426,151.65994521824177 57.601769911532756,151.71767606971844 57.26991150440881,151.90530121813936 57.163716814189684,152.00633006900898 56.314159292087425,152.13622422835033 55.59734513272997,152.17952226211492 55.39823008852545,152.20838761259802 55.066371681459714,152.20838761259802 54.44247787614586,152.25168563025363 53.96460176992696,152.33828163651924 53.72566371684661,152.28055096996832 53.28761061950354,152.09292618490872 52.969026548729744,152.0640608172398 52.623893805313855,151.91973391434294 52.491150442452636,151.89086852087348 51.933628318598494,151.91973391434294 51.86725663719699,151.90530121813936 51.2300884956494,151.96303199652175 50.84513274341589,151.97746468838886 50.646017699094955,151.91973391434294 50.03539823007304,151.91973391434294 49.17256637167884,151.8475704225857 49.09292035398539,151.86200312312576 48.933628318598494,151.81870501837693 48.30973451328464,151.8764358225162 47.06194690265693,151.67437793273712 46.47787610616069,151.6888106461265 46.29203539824812,151.65994521824177 46.21238938055467,151.67437793273712 45.8407079646131,151.65994521824177 45.11061946902191,151.55891618681198 44.95132743369322,151.55891618681198 44.28761061944533,151.5300507396023 44.1150442478247,151.4867525606969 43.90265486721182,151.5011852880416 43.703539823007304,151.4578871026897 43.39823008852545,151.32799248861556 43.22566371684661,151.31355974829057 43.1592920353869,151.32799248861556 43.026548672583885,151.51561801436765 42.893805309722666,151.80427231463545 42.78761061950354,151.97746468838886 42.66814159293426,152.04962813180464 42.336283185868524,152.0640608172398 41.69911504432093,152.04962813180464 41.128318584058434,151.97746468838886 40.42477876105113,151.97746468838886 40.11946902656928,151.93416660946968 40.05309734516777,151.8764358225162 39.66814159293426,151.3424252277764 39.588495575182606,151.31355974829057 39.44247787608765,151.31355974829057 39.296460176992696,151.3568579658895 39.12389380537206,151.37129070299852 38.566371681401506,151.3424252277764 38.39380530978087,151.29912700694695 38.11504424776649,151.3424252277764 37.876106194686145,151.32799248861556 37.80973451322643,151.3568579658895 37.199115044262726,151.29912700694695 37.00000000005821,151.29912700694695 36.774336283211596,151.2125305362424 36.084070796496235,151.15479953426984 35.72566371684661,151.0826357576152 35.38053097348893,150.9816064251645 34.94247787608765,150.95274089193845 34.80973451328464,150.86614426643064 34.33185840706574,150.76511482110072 33.774336283211596,150.7073836858326 33.69469026551815,150.67851811171568 33.429203539853916,150.64965253333503 33.26991150440881,150.59192136363708 33.11061946908012,150.59192136363708 32.526548672583885,150.5053245769086 32.234513274393976,150.43316055832838 32.07522123894887,150.5053245769086 31.836283185868524,150.53419017673878 31.756637168116868,150.5197573773621 31.119469026569277,150.41872775141383 30.986725663766265,150.31769807277306 30.840707964613102,150.2743996229401 30.49557522131363,150.23110116343014 30.123893805313855,150.14450421536458 29.4336283186567,150.08677289518528 28.86283185845241,149.94244451943086 28.451327433635015,149.95687736186665 28.17256637167884,149.85584744237713 27.58849557529902,149.74038461277087 27.256637168116868,149.71151889458997 27.004424778802786,149.6249217143486 26.340707964613102,149.56719023935148 26.20796460181009,149.49502587137977 26.128318584058434,149.3506970548333 26.128318584058434,149.19193523241847 26.19469026545994,148.9610087130859 23.951327433635015,149.19193523241847 23.473451327416115,149.10533781992854 22.849557522160467,149.06203909915348 22.623893805372063,149.00430745643098 22.35840707970783,148.97544162858685 22.026548672583885,148.87441119733558 21.469026548671536,148.78781364290626 21.40265486727003,148.7589477828442 20.632743362803012,148.686783113837 20.566371681401506,148.6579172387137 20.168141592934262,148.6001854755741 20.008849557547364,148.54245369517594 19.743362831883132,148.5280207474134 19.59734513272997,148.48472189762106 19.265486725664232,148.4702889455366 18.867256637196988,148.3981241690053 18.694690265518147,148.3981241690053 18.243362831883132,148.31152640171058 18.004424778802786,148.2537945353106 17.606194690277334,148.2537945353106 17.19469026545994,148.19606265173934 16.83628318592673,148.19606265173934 16.26548672572244,148.13833075096773 16.132743362803012,148.1527637277468 15.946902654890437,148.13833075096773 15.86725663713878,148.16719670350722 15.694690265518147,148.12389777306817 15.376106194686145,148.13833075096773 15.057522123970557,148.19606265173934 14.964601769926958,148.16719670350722 14.539823008875828,148.12389777306817 14.46017699118238,148.09503181408218 13.969026548729744,148.06616585075972 13.796460176992696,148.00843391128 13.0,148.0228668977652 13.331858407065738,147.95070195458538 13.530973451328464,147.8208049891109 13.623893805313855,147.69090793657233 13.703539823007304,147.69090793657233 13.730088495649397,147.77750598129933 13.796460176992696,147.76307297652238 13.796460176992696,147.69090793657233 13.730088495649397,147.73420696376706 13.76991150440881,147.79193898497033 13.836283185868524,147.79193898497033 13.849557522160467,147.73420696376706 13.796460176992696,147.70534094671893 13.756637168175075,147.76307297652238 13.703539823007304,147.89296998070495 13.663716814189684,148.10946479409176 13.703539823007304,148.78781364290626 13.756637168175075,149.0187403687014 13.730088495649397,149.14863653102657 13.76991150440881,149.55275736788462 13.756637168175075,149.812548889342 13.78318584075896,150.3754293241509 13.76991150440881,150.46202616899973 13.876106194744352,151.12593402684433 13.862831858394202,151.544483463731 13.889380530978087,151.76097419699363 13.862831858394202,152.00633006900898 13.876106194744352,152.36714696331182 13.836283185868524,152.52590618401882 13.90265486727003,153.37743069311546 13.889380530978087,153.57948680696427 13.90265486727003,153.983598402614 13.876106194744352,154.0557610988326 13.889380530978087,154.83511650592845 14.008849557489157,155.0227386357874 14.07522123894887,155.06603602459654 14.141592920408584,155.03717109980062 14.128318584058434,154.95057629965595 14.061946902656928,154.92171135768876 14.008849557489157,154.95057629965595 13.929203539853916,154.96500876905338 13.889380530978087,155.00830617075553 13.823008849576581,155.03717109980062 13.78318584075896,155.094900945056 13.716814159299247,155.10933340369957 13.623893805313855,154.97944123733032 13.61061946908012,154.9072788850899 13.650442477897741,154.84954898391152 13.796460176992696,154.80625154674635 13.876106194744352,154.80625154674635 14.088495575240813,154.69079166701704 14.234513274393976,154.64749419441796 14.446902654890437,154.51760171848582 15.336283185810316,154.09905870370858 15.628318584116641,153.983598402614 15.694690265518147,153.925868226288 16.053097345109563,153.73824503435753 16.4778761062189,153.57948680696427 16.61061946908012,153.49289135541767 16.716814159357455,153.46402619629225 16.876106194686145,153.46402619629225 17.28761061950354,153.39186327969946 17.51327433635015,153.37743069311546 17.924778761109337,153.39186327969946 18.256637168175075,153.37743069311546 18.628318584058434,153.43516103290312 19.079646017751656,153.44959361512156 19.876106194744352,153.5506216607755 20.28761061950354,153.57948680696427 20.526548672583885,153.65164965373697 20.738938053138554,153.63721708652156 20.80530973454006,153.6805147849227 20.871681415941566,153.66608221984643 20.938053097343072,153.70937991177198 20.9778761062189,153.79597526657744 21.044247787620407,153.85370548164065 21.137168141605798,153.983598402614 21.376106194744352,154.12792376824655 22.34513274335768,154.4887367119809 22.43805309740128,154.50316921577905 22.504424778802786,154.4887367119809 22.716814159299247,154.5320342201012 22.94247787608765,154.5320342201012 23.646017699094955,154.73408912998275 23.72566371684661,154.70522415576852 23.80530973454006,154.73408912998275 23.89823008852545,154.73408912998275 24.15044247789774,154.79181906557642 24.482300885021687,154.92171135768876 24.548672566423193,154.9072788850899 24.88053097348893,155.0227386357874 24.973451327416115,155.0227386357874 25.066371681401506,155.03717109980062 25.132743362803012,155.08046848537924 25.331858407065738,155.094900945056 26.19469026545994,155.31138771164115 26.725663716788404,155.48457695078105 26.93805309740128,155.5278742363589 27.681415929226205,155.77322533864935 28.331858407123946,155.93198176876467 29.261061946861446,156.2061971143412 29.32743362832116,156.2061971143412 29.792035398248117,156.36495318973903 30.19026548677357,156.43711499917845 30.721238938102033,156.59587088534317 31.584070796496235,156.7690589765116 32.03539823013125,156.81235597511113 32.606194690277334,156.84122063549876 33.56194690265693,156.97111155389575 34.21238938055467,157.0288408230117 34.38495575223351,157.0288408230117 35.181415929226205,157.12986700264446 35.36725663719699,157.12986700264446 35.44690265489044,157.17316392061184 35.68584070797078,157.1875962244667 35.911504424817394,157.25975772757374 36.376106194686145,157.27419002496754 36.65486725664232,157.31748691070243 36.893805309722666,157.3752160766744 37.73008849559119,157.4762420756888 37.98230088496348,157.4762420756888 38.44690265489044,157.5484034713445 38.951327433635015,157.5772680220398 39.34955752216047,157.66386164845608 40.14601769915316,157.75045523613517 40.238938053080346,157.73602297417528 40.969026548729744,157.8514810395427 41.59292035398539,157.9092100464186 41.75221238937229,157.93807454341731 41.80530973454006,157.9958035244781 42.429203539853916,158.06796472665155 42.66814159293426,158.06796472665155 42.90707964601461,158.02466800855473 43.05309734516777,158.0535324883822 43.146017699094955,158.09682919998886 43.29203539824812,158.1112614350568 43.46460176992696,158.15455813379958 43.76991150446702,158.15455813379958 44.101769911532756,158.1834225942439 44.526548672583885,158.1112614350568 44.59292035398539,158.08239696387318 45.08407079643803,158.16899036453106 45.32300884957658,158.1256936690188 45.65486725664232,158.14012590196216 46.54424778762041,158.21228705036629 46.676991150481626,158.2555837265245 47.101769911532756,158.22671927686315 47.566371681401506,158.2555837265245" stroke="#4dd2ff" stroke-linecap="round" stroke-linejoin="round" stroke-width="0.5"><title>2023-04-01 11.2km</title></polyline><polyline fill="none" points="126.98605911966297,148.03707884272444 126.97211823932594,148.17350061452453 126.99302955981693,148.25686938498984 126.98605911966297,148.3099222033852 127.0,148.4766594524117 126.9790886794799,148.52213320017472 126.9790886794799,148.62065958389576 126.95120691880584,148.69644904492452 126.9372660384397,148.78739632361248 126.96514779914287,148.8404488653032 126.93029559831484,148.9692906370692 126.9372660384397,149.0905533320256 126.9163547179487,149.17392135094997 126.93029559831484,149.32549939215824 126.90938427776564,149.3633938671701 126.9163547179487,149.54528715073684 126.93029559831484,149.5983392971757 126.92332515813177,149.68170689998078 126.9372660384397,149.75749557052768 126.92332515813177,149.83328418460587 126.9163547179487,150.0758073702309 126.89544339745771,150.1440169120251 126.88150251709158,150.27285703285452 126.88150251709158,150.43201225097437 126.95120691880584,150.58358841770678 126.99302955981693,150.84126738285704 126.73512327353819,150.8943188534904 126.6514779914869,150.92463396714447 126.56086226925254,150.93221274414827 126.3447786239849,150.98526416735695 126.2402220214426,151.0231580241525 126.2193107009225,151.05347309943318 126.12869497868815,151.068630633672 125.96837485476863,151.0762093999365 125.53620756423334,151.1671545512363 125.44559184196987,151.17473331016663 125.29921259844559,151.25052086848154 125.1737446753541,151.28841462647688 124.99948367109755,151.2959933763923 124.83916354717803,151.3414658639449 124.58822770105326,151.37935958807066 123.79359752160963,151.54609180653642 123.41719375242246,151.61430036259844 123.35445979089127,151.62945781329472 123.18019878663472,151.6521939851009 123.14534658577759,151.66735143015103 123.0407899832062,151.66735143015103 122.88046985931578,151.6900875934807 122.80379501741845,151.72040247004043 122.55285917129368,151.71282375173905 122.39950948755722,151.75829605301988 122.2182780431176,151.7507173375634 122.12766232091235,151.7734534822739 121.80005163289024,151.78861090925056 121.75125855166698,151.81134704549186 121.59093842777656,151.82650446683692 121.13088937653811,151.8568193027386 121.07512585516088,151.84924059459445 120.8241900090361,151.84924059459445 120.64992900477955,151.87197671729518 120.32231831675745,151.88713412959623 120.24564347488922,151.90229153967084 120.01561894925544,151.87955542373675 119.93197366723325,151.88713412959623 119.65315606040531,151.88713412959623 119.28372273137211,151.92502765048994 118.99096424420713,151.93260635297338 118.6703239963681,151.95534245705494 118.48909255195758,151.96292115726828 118.20330450497568,151.94776375625952 117.63869885113672,151.94776375625952 117.59687621015473,151.94018505489657 117.49929004776641,151.87955542373675 117.41564476571511,151.87197671729518 117.24835420164163,151.90229153967084 117.01135923585389,151.88713412959623 116.92074351359042,151.89471283491002 116.73254162902595,151.82650446683692 116.453724022198,151.78861090925056 116.30037433843245,151.78103219604236 116.20975861622719,151.79618962188397 116.07732025301084,151.80376833397895 115.88911836841726,151.76587476792338 115.85426616753102,151.7734534822739 115.7357686846517,151.76587476792338 115.70091648379457,151.7507173375634 115.54756680005812,151.727981187767 115.45695107782376,151.73555990491877 115.17116303084185,151.70524503289198 114.85052278300282,151.69766631347738 114.69717309923726,151.63703653778066 114.66232089840923,151.61430036259844 114.53685297534685,151.60672163640265 114.49503033430665,151.58398545441742 114.2580353685189,151.51577687803365 114.11862656511948,151.44756825592776 113.9931586420571,151.40209581576346 113.86072027881164,151.37935958807066 113.79101587712648,151.40967455720966 113.72131147541222,151.51577687803365 113.5609913514927,151.53093434340553 113.51916871048161,151.54609180653642 113.38673034720705,151.55367053723603 113.36581902668695,151.58398545441742 113.317025945551,151.60672163640265 113.05911965924315,151.64461526174273 112.96153349682572,151.6521939851009 112.81515425324324,151.69766631347738 112.76636117207818,151.69766631347738 112.71756809088401,151.63703653778066 112.66877500968985,151.61430036259844 112.52239576610737,151.61430036259844 112.48057312509627,151.55367053723603 112.38995740286191,151.53851307525474 112.27843036013655,151.4930406757412 112.1459919968911,151.47788320472318 112.06931715502287,151.43998951730464 111.94384923196048,151.42483203838492 111.67897250546957,151.45514699396153 111.37924357815064,151.44756825592776 111.25377565508825,151.4172532980665 111.12830773202586,151.4172532980665 111.0167806893005,151.37935958807066 110.94707628758624,151.37178084439074 110.63340647993027,151.3111508744987 110.51490899705095,151.32630837035686 110.40338195426739,151.38693833120487 109.99909642443527,151.31872962271882 109.91545114238397,151.32630837035686 109.69936749708722,151.30357212571835 109.46934297148255,151.2656783733837 109.28114108685986,151.25809962121275 108.86988511681557,151.18989082636108 108.7792693945812,151.18989082636108 108.70956499292515,151.21262709637813 108.47954046726227,151.1671545512363 108.24951594165759,151.14441827103292 108.08919581773807,151.09136693080654 107.87311217247043,151.0762093999365 107.71976248870487,151.0155792539299 107.4270040015399,150.94737029646785 106.95301406996441,150.9018976327643 106.91816186910728,150.8867400736708 106.83451658705599,150.9018976327643 106.52084677940002,150.8336885990866 106.41629017682862,150.79579467172152 106.26991093327524,150.7882158845605 106.18626565119484,150.77305830852856 105.88653672390501,150.74274314971262 105.85168452304788,150.72758556692133 105.80986188203678,150.72000677465985 105.74015748029342,150.72758556692133 105.600748676894,150.69727039455756 105.5171033948427,150.70484918848524 105.47528075383161,150.6821128049778 105.32890151027823,150.65937641638448 105.25919710853486,150.63664002269797 105.21737446752377,150.63664002269797 105.14069962562644,150.6139036239474 104.99432038210216,150.60632482323854 104.71550277527422,150.56085200708912 104.59003485218273,150.56085200708912 104.41577384795528,150.50780036256765 104.21363108299556,150.4926427447499 103.99057699754485,150.43201225097437 103.92087259585969,150.43959106466355 103.74661159157404,150.40169699053513 103.67690718988888,150.4168546218716 103.52355750615243,150.37896053927398 103.41203046339797,150.37138172105915 103.33535562152974,150.3486452630168 103.21685813862132,150.333487621494 103.13321285657003,150.31075115499698 102.89621789078228,150.28043585841806 102.74286820704583,150.21980523816455 102.6243707241374,150.21222640807537 102.39434619853273,150.17433224926208 102.22705563443014,150.1591745817641 102.10855815155082,150.13643807630433 102.02491286949953,150.13643807630433 101.9691493481223,150.15159574717836 101.89247450625408,150.1288592400233 101.80882922420278,150.1288592400233 101.48121853620978,150.0682285294315 101.39757325418759,150.03791316059505 101.11178520717658,150.00759778270003 100.98631728408509,150.01517662802507 100.8608493610518,149.99244009038375 100.70052923713229,150.01517662802507 100.29624370724196,149.9697035476638 100.1847166645166,149.97728239579737 100.12895314313937,149.9545458496723 100.03833742093411,149.9697035476638 99.97560345937381,149.96212469896273 99.89892861750559,149.9697035476638 99.8571059764945,149.97728239579737 99.82922421582043,149.99244009038375 99.66890409190091,149.99244009038375 99.02762359622284,149.89391503520892 98.90912611334352,149.86359961442213 98.82548083126312,149.8560207578048 98.71395378856687,149.87117847046466 98.67910158770974,149.8560207578048 98.56060410480131,149.8560207578048 98.4002839808818,149.83328418460587 98.2957273783395,149.82570532572572 98.14237769457395,149.78023216066504 98.06570285270573,149.78023216066504 97.6405060023244,149.72718010906829 97.34077707500546,149.71960124231555 97.20136827157694,149.6968646386158 96.95043242545216,149.6286547970085 96.53917645540787,149.57560266637302 96.50432425455074,149.5528660304917 96.45553117332747,149.4543405496006 96.28127016907092,149.39370943701215 96.2045953272027,149.39370943701215 96.16974312637467,149.4012883280593 96.10700916484348,149.4543405496006 96.03730476312921,149.46191943614394 95.55634439139976,149.3861305453902 95.43784690849134,149.39370943701215 95.31934942561202,149.3633938671701 95.21479282304063,149.3633938671701 95.01265005808091,149.30276270037575 94.83141861364129,149.2876049030383 94.51774880598532,149.2193947870328 94.3992513230769,149.21181588243053 94.37136956237373,149.18907916523312 94.3574286820658,149.15876353441854 94.3992513230769,148.9313960152649 94.3992513230769,148.88592245044129 94.3783400025859,148.84802779756865 94.21104943845421,148.8177120651162 94.0716406350839,148.75708057308657 93.91829095131834,148.76465951155842 93.83464566926705,148.77981738683593 93.76494126758189,148.75708057308657 93.56976894283434,148.77981738683593 93.52097586161108,148.77981738683593 93.47915322057088,148.75708057308657 93.25609913514927,148.75708057308657 93.17942429325194,148.77981738683593 93.14457209242391,148.77981738683593 92.97728152835043,148.81013313058793 92.68452304115635,148.9768695597304 92.6357299599913,149.02234308390325 92.5102620368998,149.06023767184524 92.47540983607178,149.08297441782634 92.42661675484851,149.1511846252979 92.38479411383742,149.39370943701215 92.34297147282632,149.46191943614394 92.25932619080413,149.537708270429 92.2244739899179,149.56044490967906 92.09203562667244,149.5528660304917 92.01536078483332,149.56044490967906 91.97353814379312,149.57560266637302 91.72957273782231,149.57560266637302 91.56925261390279,149.5528660304917 91.49954821221763,149.57560266637302 91.22073060538969,149.5528660304917 91.10920356266433,149.56802378832072 90.96282431908185,149.64381254355249 90.71885891311103,149.64381254355249 90.68400671228301,149.63623367055698 90.62127275072271,149.5983392971757 90.55156834903755,149.63623367055698 90.51671614818042,149.62107592290704 90.48186394732329,149.63623367055698 90.37033690459793,149.64381254355249 90.31457338324981,149.5983392971757 90.27275074220961,149.5983392971757 90.09848973792396,149.61349704823806 90.00090357556473,149.6286547970085 89.95211049439968,149.64381254355249 89.88240609265631,149.70444350706384 89.79179037048016,149.86359961442213 89.72208596873679,150.05307084613742 89.72208596873679,150.18191108214523 89.76390860977699,150.25769938005396 89.84755389182828,150.333487621494 90.00090357556473,150.40169699053513 90.03575577642187,150.43959106466355 90.03575577642187,150.5153791706107 90.01484445593087,150.55327320242213 90.00090357556473,150.59874602196214 89.91028785335948,150.70484918848524 89.81967213115422,150.77305830852856 89.69420420809183,150.82610981474136 89.52691364398925,150.82610981474136 89.3526526397327,150.7654795196795 89.2271847166412,150.74274314971262 89.15748031495605,150.71242798186722 88.48831805860391,150.5002215539498 88.37679101587855,150.43201225097437 88.33496837483835,150.37138172105915 88.29314573379816,150.3486452630168 88.25132309278706,150.28043585841806 88.21647089195903,150.26527820675255 88.13979605009081,150.2425417249906 87.77036272105761,150.18948991448997 87.69368787918938,150.16675341579685 87.61701303729205,150.12128040317475 87.568219956127,150.1288592400233 87.36607719116728,150.05307084613742 87.27546146893292,150.00759778270003 87.01058474247111,149.9090727422008 86.97573254161398,149.87875732593966 86.7875306570204,149.81812646630715 86.56447657154058,149.7878110229285 86.27171808440471,149.7878110229285 86.13927972118836,149.8105476063065 86.04169355880003,149.8105476063065 85.95804827674874,149.83328418460587 85.93713695625775,149.86359961442213 85.78378727249219,149.79538988461718 85.67226022973773,149.7726532978486 85.41435394345899,149.79538988461718 85.26100425972254,149.7878110229285 85.05886149476282,149.74991670600866 84.27817219565623,149.7347589752826 84.14573383243987,149.71202237497346 84.02723634956055,149.70444350706384 83.79024138377281,149.72718010906829 83.42777849489357,149.70444350706384 83.26048793079099,149.71202237497346 83.22563572993386,149.70444350706384 83.14896088806563,149.72718010906829 83.01652252484928,149.6968646386158 82.84226152056362,149.68170689998078 82.61920743514202,149.70444350706384 82.49373951205052,149.68170689998078 82.40312378987437,149.6968646386158 82.28462630693684,149.68928576957114 82.20098102491465,149.71202237497346 81.81760681551532,149.6665491591193 81.45514392666519,149.65897028780455 81.42029172580806,149.6741280298229 81.33664644378587,149.6665491591193 81.22511940106051,149.65139141595137 81.19026720017428,149.6286547970085 80.86265651218127,149.6286547970085 80.58383890535333,149.605918172987 80.38866658060579,149.62107592290704 80.10984897377784,149.61349704823806 79.60797728149919,149.6665491591193 79.43371627724264,149.64381254355249 79.24551439264906,149.65139141595137 79.1967213114549,149.63623367055698 79.07822382857557,149.65139141595137 78.95275590548408,149.63623367055698 78.79243578156456,149.59076042082597 78.54149993543979,149.57560266637302 77.90718987994478,149.58318154387234 77.677165354311,149.57560266637302 77.6353427132999,149.58318154387234 77.3077320252778,149.54528715073684 77.23802762359264,149.56044490967906 77.16832322187838,149.54528715073684 76.95223957661074,149.56802378832072 76.5270427262003,149.57560266637302 76.48522008518921,149.56044490967906 76.40157480316702,149.56802378832072 76.31095908090356,149.5528660304917 75.9136439911963,149.537708270429 75.5860333032033,149.56802378832072 75.39086097842664,149.62107592290704 74.84019620495383,149.6665491591193 74.22679746997892,149.74233784093667 74.12224086743663,149.78023216066504 74.01071382468217,149.7878110229285 73.38337420937023,149.93938814945432 73.18123144443962,149.97728239579737 73.15334968373645,149.99244009038375 73.13243836321635,150.0227554727826 73.13243836321635,150.09096505014895 73.11849748287932,150.12128040317475 73.0836452820513,150.13643807630433 73.04879308119416,150.12128040317475 73.0,150.12128040317475" stroke="#4dd2ff" stroke-linecap="round" stroke-linejoin="round" stroke-width="0.5"><title>2023-03-18 12.0km</title></polyline><polyline fill="none" points="187.0,142.33367299995007 186.51851851854008,142.2229251359313 186.45370370370802,142.2229251359313 186.40740740741603,142.2027891508842 186.29629629629198,142.2229251359313 186.148148148146,142.30346904603357 186.0740740740439,142.38401290813636 186.0277777777519,142.47462469556922 185.8240740741021,142.74645969330595 185.76851851854008,142.7766635481894 185.648148148146,142.89747890015133 185.48148148151813,142.95788653561613 185.40740740741603,143.03843000758206 185.30555555556202,143.09883758000797 185.15740740741603,143.24985639298393 185.01851851848187,143.46128244753345 184.99074074072996,143.57202929643245 184.898148148146,143.60223296674667 185.0,143.71297970013256 184.87037037039408,143.66264028712612 184.76851851854008,143.69284393718408 184.74074074072996,143.84386208615615 184.71296296297805,143.8841335640609 184.71296296297805,143.93447289453616 184.75,144.0452193555684 184.72222222218988,144.20630495504884 184.73148148145992,144.45800081972266 184.69444444443798,144.669424983731 184.73148148145992,144.82044204114936 184.75,145.17281451875897 184.68518518516794,145.5151183313792 184.62962962960592,145.68626991247584 184.66666666668607,145.8372858333969 184.61111111112405,146.09904636318242 184.59259259252576,146.33060333222238 184.601851851854,146.66283655122243 184.5740740740439,146.77358077602548 184.601851851854,146.9850013168034 184.5740740740439,147.16621865988418 184.5740740740439,147.3373681496596 184.65740740741603,147.66959889332065 184.58333333331393,147.84074774554028 184.58333333331393,147.99176125862869 184.53703703702195,148.09243684027751 184.54629629629198,148.4951384168162 184.53703703702195,148.55554354980995 184.50925925927004,148.5958136234549 184.5,148.5454760295106 184.5,148.60588113999256 184.45370370370802,148.51527346416697 184.398148148146,148.52534098669275 184.37962962960592,148.62601617081236 184.37962962960592,149.07905357122945 184.3240740740439,149.59249412234203 184.34259259258397,150.29721327122388 184.28703703702195,150.50862829929247 184.29629629629198,150.59923463864834 184.25,150.86098594444775 184.26851851854008,151.32408316669898 184.23148148145992,152.0388605471162 184.25925925927004,152.07912958283123 184.24074074072996,152.11939860654093 184.22222222218988,152.64289482295862 184.15740740741603,152.9952469038908 184.15740740741603,153.69994831008808 184.08333333337214,154.29390807043092 184.101851851854,154.33417643426947 184.08333333337214,154.65632291324437 184.11111111112405,155.30061356784427 184.06481481483206,155.88449932094954 184.0740740740439,155.98516902347183 184.06481481483206,156.09590560968354 184.01851851848187,156.18650820360926 183.96296296291985,156.76032322175888 183.9259259258979,156.85092537038872 183.9259259258979,156.9415274583007 183.88888888887595,157.12273145192012 183.86111111106584,157.5153392715365 183.88888888887595,157.70660933468025 184.0,157.72674300978542 184.03703703702195,157.74687668190745 184.03703703702195,157.79721084910852 183.98148148145992,157.79721084910852 184.00925925927004,157.74687668190745 184.03703703702195,157.78714401715115 184.00925925927004,157.6462082913422 184.0740740740439,157.44487128529727 184.13888888887595,157.37440326233627 184.13888888887595,157.32406893775624 184.0740740740439,157.09253080318013 184.01851851848187,157.0522632610373 183.91666666662786,157.08246391877037 183.87037037039408,157.07239703358937 183.90740740741603,157.10259768684045 184.22222222218988,157.07239703358937 184.29629629629198,157.0522632610373 184.7037037036498,157.07239703358937 184.91666666662786,157.0220625965594 185.01851851848187,156.98179503342544 185.13888888887595,156.99186192532943 185.25,156.95159435320966 185.43518518516794,156.93146056262776 185.59259259258397,156.9415274583007 185.63888888887595,156.90125987116335 185.63888888887595,156.85092537038872 185.66666666668607,156.80059085085668 185.5277777777519,156.82072466093086 185.38888888887595,156.82072466093086 185.28703703702195,156.7804570378139 185.24074074072996,156.75025631261815 185.21296296297805,156.68985484195582 185.1759259258979,156.47844948212878 185.12037037039408,156.4683825520042 185.0740740740439,156.43818175706838 184.97222222218988,156.4281148239097 184.59259259252576,156.47844948212878 184.36111111106584,156.53885104726214 184.30555555550382,156.57911874232377 184.148148148146,156.59925258536532 184.101851851854,156.6294533442997 184.05555555556202,156.6495871798761 184.01851851848187,156.59925258536532 183.95370370370802,156.56905181970797 183.90740740741603,156.58918566422653 183.851851851854,156.56905181970797 183.8240740740439,156.5287841215977 183.71296296297805,156.51871719522023 183.50925925927004,156.57911874232377 183.25925925927004,156.61938642542373 182.8240740740439,156.6395202624699 182.40740740735782,156.6999217555931 182.16666666662786,156.6999217555931 181.91666666668607,156.73012249205203 181.50925925921183,156.84085846798553 181.26851851854008,156.86099227203522 181.22222222218988,156.85092537038872 181.13888888887595,156.7804570378139 180.87962962960592,156.72005558066303 180.26851851848187,156.68985484195582 180.21296296291985,156.6999217555931 179.87037037033588,156.68985484195582 179.5740740740439,156.70998866851005 179.40740740741603,156.6999217555931 178.898148148146,156.6395202624699 178.78703703702195,156.6495871798761 178.63888888887595,156.6294533442997 178.51851851848187,156.6395202624699 178.24074074072996,156.60931950576924 178.13888888887595,156.56905181970797 178.01851851848187,156.56905181970797 177.90740740741603,156.55898489628453 177.78703703702195,156.59925258536532 177.66666666668607,156.55898489628453 177.31481481477385,156.57911874232377 177.20370370370802,156.60931950576924 176.84259259258397,156.59925258536532 176.37037037033588,156.68985484195582 176.12962962960592,156.67978792755457 176.0277777777519,156.6999217555931 175.87962962960592,156.67978792755457 174.45370370370802,156.70998866851005 174.20370370370802,156.67978792755457 173.37962962960592,156.70998866851005 172.31481481483206,156.65965409651108 172.13888888887595,156.67978792755457 171.601851851854,156.65965409651108 171.4259259259561,156.6495871798761 171.22222222218988,156.54891797215532 170.86111111112405,156.54891797215532 170.75925925927004,156.51871719522023 170.54629629629198,156.5287841215977 170.4999999999418,156.56905181970797 170.43518518516794,156.57911874232377 170.27777777781012,156.58918566422653 169.54629629629198,156.45831562110106 169.31481481477385,156.4683825520042 168.94444444443798,156.4281148239097 168.84259259258397,156.43818175706838 168.66666666668607,156.41804789003072 168.3240740741021,156.45831562110106 168.15740740741603,156.41804789003072 167.94444444443798,156.41804789003072 167.851851851854,156.4281148239097 167.73148148145992,156.40798095539503 167.62037037033588,156.4281148239097 167.31481481477385,156.4281148239097 167.2037037036498,156.44824868946307 166.87962962960592,156.39791401999537 166.73148148145992,156.34757933179935 166.51851851848187,156.23684295178828 166.25,156.25697684580518 166.148148148146,156.29724462484592 165.49074074072996,156.22677600363386 165.02777777781012,156.1764412517441 164.52777777781012,156.08583865102264 163.98148148145992,156.0254368834867 163.88888888887595,155.98516902347183 163.71296296297805,155.97510205661092 163.09259259258397,155.9046332674552 162.9259259259561,155.93483418158576 162.65740740741603,155.8542983955631 162.28703703708015,155.80396350497904 161.97222222218988,155.7435616114817 161.65740740741603,155.72342764095083 161.29629629629198,155.65295872062416 160.86111111112405,155.6126907496582 160.33333333337214,155.5522887706902 160.24074074072996,155.58248976354662 160.19444444443798,155.68315969099058 160.3240740740439,155.77376256159914 160.37037037033588,155.77376256159914 160.40740740741603,155.80396350497904 160.37962962960592,155.84423141895968 160.26851851848187,155.8542983955631 160.24074074072996,155.89456629459164 160.03703703702195,155.87443234660168 159.94444444443798,155.9046332674552 159.898148148146,155.89456629459164 159.851851851854,155.9147002395839 159.76851851848187,156.00530295498902 159.62037037033588,156.08583865102264 159.47222222218988,156.07577169165597 159.351851851854,156.0254368834867 159.24074074072996,155.8542983955631 159.24074074072996,155.78382954347035 159.37962962966412,155.89456629459164 159.59259259258397,155.9046332674552 159.63888888887595,155.93483418158576 159.68518518516794,155.92476721094863 159.86111111112405,156.13617343669466 159.9259259258979,156.16637429910043 160.08333333331393,156.14624039157934 160.1759259258979,156.07577169165597 160.25,155.86436537145346 160.26851851848187,155.76369557895669 160.21296296291985,155.7334946265837 160.12037037039408,155.562355769056 160.01851851848187,155.52208777110354 159.90740740741603,155.51202076971822 159.7222222222481,155.4516187457848 159.5740740740439,155.43148473178735 159.5277777777519,155.44155173918261 159.1018518517958,155.38114968373702 158.87037037033588,155.3610156592622 158.101851851854,155.13954119210393 157.83333333331393,155.08920603531442 157.31481481483206,154.90799931569927 157.25925925927004,154.91806636204274 157.1759259258979,154.87779817214323 156.81481481483206,154.78719470099895 156.63888888887595,154.71672529256466 155.95370370370802,154.5455851476945 155.45370370370802,154.40464604213776 155.40740740735782,154.37444478613907 155.30555555556202,154.36437769929034 154.9537037036498,154.213371306716 154.66666666662786,154.15296870247403 154.22222222218988,153.93149225587695 153.80555555556202,153.84088815041468 153.56481481477385,153.8106867684328 153.4259259258979,153.7804853796988 153.37037037033588,153.75028398421273 152.68518518516794,153.63954547637695 152.50925925927004,153.5791426156793 152.45370370370802,153.56907546961156 152.26851851848187,153.43820250240242 152.05555555550382,153.3576652288175 151.96296296291985,153.29726224216574 151.87037037033588,153.30732940848975 151.55555555556202,153.22679205694294 151.18518518516794,153.20665771154745 150.87037037033588,153.1563218349329 150.6759259258979,153.1563218349329 150.1018518517958,153.1160531201822 149.97222222218988,153.13618747906003 149.81481481477385,153.10598593961913 149.56481481477385,153.1261203000031 149.43518518516794,153.13618747906003 149.11111111112405,153.23685922849108 149.06481481477385,153.23685922849108 148.91666666662786,153.29726224216574 148.75925925927004,153.30732940848975 148.601851851854,153.43820250240242 148.33333333331393,153.56907546961156 148.22222222218988,153.58920976099034 148.148148148146,153.65967975725653 147.8240740740439,153.8106867684328 147.58333333331393,153.9516264933045 147.15740740741603,154.13283449503797 147.0,154.1831700079565 146.94444444443798,154.17310290689784 146.84259259258397,154.213371306716 146.78703703702195,154.30397516250378 146.74074074072996,154.30397516250378 146.148148148146,154.62612171345245 145.8518518517958,154.69659116912226 145.81481481483206,154.72679235317628 145.78703703702195,154.82746291790681 145.78703703702195,154.77712764488388 145.81481481483206,154.73685941300937 145.90740740741603,154.7066582312109 145.93518518516794,154.6663899783307 145.87962962960592,154.6663899783307 145.83333333331393,154.68652410626964 145.83333333331393,154.7469264721076 145.87037037033588,154.78719470099895 145.9722222222481,154.77712764488388 146.02777777781012,154.80732881093718 145.55555555556202,154.89793226860638 145.37037037033588,154.87779817214323 145.31481481477385,154.89793226860638 144.68518518516794,154.88786522073497 144.09259259258397,154.80732881093718 143.62037037039408,154.6663899783307 143.49074074072996,154.6160546453466 143.5277777777519,154.5858534365616 143.55555555550382,154.46504853395163 143.5277777777519,154.3543106117213 143.48148148145992,154.31404225384904 143.15740740735782,154.1429015991307 143.08333333331393,154.0623647454413 142.94444444443798,153.9717607277198 142.83333333337214,153.9516264933045 142.79629629629198,153.93149225587695 142.75,153.92142513605359 142.56481481483206,153.84088815041468 142.25925925927004,153.75028398421273 142.21296296291985,153.7704182486268 142.1018518517958,153.75028398421273 141.87962962966412,153.7704182486268 141.23148148145992,153.7804853796988 141.06481481477385,153.7704182486268 140.851851851854,153.7402168508779 140.74074074072996,153.75028398421273 140.43518518516794,153.72008258198184 140.22222222218988,153.7402168508779 140.18518518516794,153.7704182486268 140.15740740741603,153.93149225587695 140.0740740740439,154.02209630062134 139.4259259259561,154.02209630062134 139.45370370370802,154.0623647454413 139.33333333331393,153.9717607277198 139.30555555550382,154.0623647454413 139.24074074072996,154.0623647454413 139.12962962960592,153.99189495912287 139.0277777777519,153.96169361086504 138.898148148146,153.9717607277198 138.898148148146,154.01202918753552 137.73148148145992,153.43820250240242 137.79629629629198,153.51873972798057 137.83333333331393,153.6898811729916 137.63888888887595,153.69994831008808 137.53703703702195,153.7402168508779 137.49074074072996,153.7100154464133 137.37962962960592,153.73014971679368 137.21296296291985,154.38451187221654 137.25925925927004,153.7704182486268 137.21296296291985,153.79055251002137 137.16666666662786,153.76035111678357 137.148148148146,153.8106867684328 136.99074074072996,153.86102240131004 136.93518518516794,153.92142513605359 136.83333333331393,153.91135801547352 136.72222222218988,153.92142513605359 136.66666666662786,153.91135801547352 136.41666666668607,153.96169361086504 136.23148148145992,154.07243185479456 136.0740740741021,154.11270028462604 136.01851851854008,154.11270028462604 135.7777777777519,154.1831700079565 135.6759259259561,154.23350550213945 135.50925925921183,154.1831700079565 135.36111111112405,154.2033042078765 135.20370370370802,154.1630358050461 134.8240740740439,154.2033042078765 134.73148148145992,154.17310290689784 134.59259259258397,154.213371306716 134.5,154.1630358050461 134.55555555550382,154.1630358050461 134.5277777777519,154.12276739021763 134.5,154.1630358050461 134.45370370370802,154.12276739021763 134.5,154.13283449503797 134.53703703702195,154.10263317827048 134.58333333331393,154.12276739021763 134.648148148146,154.10263317827048 134.68518518516794,154.08249896338384 134.80555555556202,154.052297635375 134.86111111112405,154.02209630062134 134.87037037033588,153.96169361086504 134.84259259258397,153.92142513605359 134.69444444443798,153.8912237720724 134.54629629629198,153.94155937498 134.44444444443798,153.92142513605359 134.40740740741603,153.9516264933045 134.19444444443798,154.01202918753552 133.99074074072996,153.9717607277198 133.87962962960592,153.98182784379605 133.84259259258397,153.9516264933045 133.6018518517958,153.86102240131004 133.45370370370802,153.72008258198184 133.34259259258397,153.649612617206 133.25,153.52880687778088 133.12962962960592,153.29726224216574 133.09259259258397,153.26706073869718 133.06481481483206,153.09591875830665 133.0,152.965045332945 133.0277777777519,152.824104579282 133.00925925927004,152.723432522449 133.148148148146,152.25027285074611 133.25925925927004,152.06906232503388 133.33333333331393,151.99859149942495 133.61111111112405,151.82744791280857 133.69444444443798,151.76704424226045 133.75,151.75697696123098 134.08333333331393,151.61603494777228 134.13888888887595,151.47509278737562 134.04629629629198,151.4448908767372 133.95370370370802,151.4650254845692 133.97222222218988,151.4247562659075 134.21296296291985,151.32408316669898 134.398148148146,151.28381390601135 134.5,151.22340999249718 134.648148148146,151.17307337727107 134.95370370370802,150.9415247057841 134.96296296297805,150.88112063929293 135.0000000000582,150.86098594444775 135.101851851854,150.6999082777984 135.22222222218988,150.56903253227938 135.2777777777519,150.42808927997976 135.31481481483206,150.38781975230086 135.34259259252576,150.29721327122388 135.33333333331393,150.23680891674303 135.34259259252576,150.12606753007276 135.40740740741603,150.05559569127945 135.39814814808778,150.00525864111114 135.36111111112405,149.9649889874563 135.41666666668607,149.88444964415248 135.4537037036498,149.86431480082683 135.62037037039408,149.9347867393517 135.68518518516794,149.9347867393517 135.74074074072996,149.9549215721927 135.79629629629198,149.9347867393517 135.98148148145992,149.944854156136 136.09259259258397,149.92471932180342 136.23148148145992,149.944854156136 136.38888888887595,150.0958653179623 136.5,149.99519122883066 136.54629629629198,149.62269644694607 136.61111111112405,149.48175220767007 136.69444444443798,149.40121257639112 136.63888888887595,149.3307403596409 136.18518518516794,149.07905357122945 136.11111111106584,149.04885112511693 136.03703703702195,149.05891860792326 135.93518518516794,149.08912105178752 135.68518518516794,149.04885112511693 135.70370370370802,148.95824374628864 135.66666666662786,148.91797378063347 135.648148148146,148.78709630940284 135.54629629629198,148.56561106934532" stroke="#4dd2ff" stroke-linecap="round" stroke-linejoin="round" stroke-width="0.5"><title>2023-02-25 12.5km</title></polyline><polyline fill="none" points="67.0,251.74400148703717 63.60571428760886,251.07291738921776 61.445714285597205,251.4084594505839 56.50857142917812,249.39520670543425 53.42285714484751,246.37532590003684 53.42285714484751,240.67110107047483 44.16571428626776,235.30241227545775 36.451428573578596,232.61806547641754 35.83428571373224,232.9536089138128 34.600000001490116,231.61143501335755 32.440000001341105,231.61143501335755 30.280000001192093,232.61806547641754 27.19428571499884,231.94697852618992 25.03428571484983,232.2825220131781 19.78857143037021,229.59817341342568 18.86285714432597,229.93371707573533 19.48000000230968,230.94034791341983 20.097142858430743,230.26926071289927 17.011428574100137,228.25599851296283 15.468571430072188,228.59154227538966 14.234285715967417,229.93371707573533 13.308571429923177,230.94034791341983 13.0,232.61806547641754" stroke="#4dd2ff" stroke-linecap="round" stroke-linejoin="round" stroke-width="0.5"><title>2022-10-26 2.2km</title></polyline><polyline fill="none" points="127.0,246.3228634336847 126.91542678140104,246.3228634336847 125.98512137820944,245.7250882338849 125.90054815961048,244.9433813293581 125.77368833194487,244.7594501490821 124.71652310108766,244.39158762380248 124.4628034455236,244.1616734341369 123.61707126069814,243.8857762933476 123.19420516840182,243.60987902921624 122.72905246680602,243.93175915873144 121.7987470633816,243.79381055239355 121.20673453412019,243.37996454816312 120.99530148785561,243.4259474511491 120.78386844159104,243.33398164174287 120.40328895836137,242.9201353288372 120.14956930303015,242.4603057667846 119.85356303839944,242.36833981325617 119.64212999213487,242.4603057667846 118.5003915426787,242.09244187030708 118.24667188711464,242.1844078649301 117.40093970228918,241.26474730088376 116.93578700069338,240.66696719906759 116.38606108073145,240.11516966758063 116.04776820680127,239.93123704742175 115.54032889590599,239.8392707167077 114.90602975711226,239.37943885766435 113.72200469858944,238.8736234168755 113.08770555979572,238.32182428089436 112.15740015660413,237.953957916121 110.931088488549,236.9883076644619 110.0007830853574,236.7583907149383 109.5356303837616,236.57445709372405 108.09788566967472,235.56282119621756 107.67501957714558,235.56282119621756 107.25215348484926,235.14896966901142 107.20986687554978,235.33290371543262 107.29444009391591,235.56282119621756 107.12529365695082,236.0686393523938 107.1675802662503,235.65478816459654 106.78700078302063,235.24093669903232 105.77212216123007,234.73511786403833 105.47611589659937,234.3672493598424 104.41895066550933,233.53954442311078 103.57321848068386,233.03372419270454 103.36178543465212,232.5738872596412 103.06577916978858,232.29798493511043 102.43148003146052,232.02208248723764 101.41660140943713,231.2863420228241 99.55599060282111,230.27469745115377 98.9639780735597,229.44698702171445 98.58339859033003,229.1250993325375 96.76507439324632,228.4353394326754 96.55364134698175,228.25140332913725 95.53876272519119,227.83754689543275 94.69303054036573,227.19376966892742 93.97415818320587,226.91786493750988 93.5935786999762,226.96384906803723 92.15583398588933,227.42369018419413 91.73296789359301,227.3777060880093 90.4643696162384,226.87188080366468 89.9992169146426,226.50400760903722 89.83007047767751,226.54999177035643 89.23805794818327,226.27408675092738 88.56147220055573,225.86022899032105 88.26546593569219,225.5843236623914 86.19342208304442,224.71062264265493 85.68598277214915,224.61865404219134 83.57165230996907,223.83692038495792 83.23335943627171,224.34274815872777 82.68363351607695,224.75660693767713 82.55677368817851,225.17046543891774 82.34534064191394,225.30841821088688 81.41503523872234,225.5843236623914 80.82302270946093,226.0901500027976 80.69616288179532,226.54999177035643 81.24588880175725,229.44698702171445 81.07674236502498,230.64256839640439 80.94988253712654,230.82650378684048 80.73844949086197,230.87248762598028 78.70869224751368,230.73453609854914 77.39780736109242,230.4586329511949 76.55207517626695,230.13674579001963 75.96006264677271,229.5849388371571 74.56460454198532,228.94116343458882 74.22631166805513,229.1710832983954 73.33829287393019,229.5849388371571 73.0,230.04477799887536 73.0,230.55060068075545 73.42286609229632,231.562244799803 74.64917776035145,233.3556098418776 74.90289741568267,233.30962618795456 75.36805011727847,232.8497894605389 75.91777603770606,232.48191983177094 76.42521534836851,232.43593611282995 77.35552075179294,232.66585467359982 77.65152701642364,232.52790354733588 78.11667971801944,232.66585467359982 78.75097885658033,233.3556098418776 79.21613155817613,234.9650355677586 79.80814408743754,236.2065896866261 80.86530931876041,237.72404132655356 80.86530931876041,238.27584099740488 81.54189506662078,238.50575738103362 83.14878621767275,239.60935483005596 84.03680501156487,239.74730437237304 84.92482380568981,239.47140525694704 85.77055599051528,238.8276401743642 86.15113547374494,238.32182428089436 86.48942834767513,238.1378911259235 87.88488645269535,239.0575563524617 88.51918559125625,239.60935483005596 88.64604541892186,239.88525388384005 88.35003915429115,241.54064561414998 88.51918559125625,242.0464588679024 88.60375880962238,243.10406705766218 89.19577133911662,244.1616734341369 89.9992169146426,244.9433813293581 90.88723570876755,244.98936411581235 91.9866875486914,244.62150172778638 93.42443226301111,243.6558619151474 93.67815191834234,243.37996454816312 94.14330462017097,243.19603290152736 94.94675019569695,244.06970773427747 95.58104933449067,244.98936411581235 95.6656225528568,245.17329522763612 95.49647611589171,245.86303640838014 95.96162881748751,247.10456858988618 96.17306186375208,247.15055121527985 97.23022709484212,246.92063805408543 98.37196554406546,247.0126033287961 99.85199686768465,247.56439468963072 100.90916209854186,248.11618555686437 102.05090054823086,248.43806333473185 102.2623335942626,248.66797593032243 102.47376664052717,249.17378333915258 102.43148003146052,249.58762545598438 102.64291307749227,250.23137930815574 102.7274862958584,251.1050441756379 102.68519968679175,251.97870780574158 102.89663273305632,252.3925480406615 103.36178543465212,252.71442358702188 103.65779169951566,252.6684413763578 104.03837118227966,252.3925480406615 104.50352388410829,251.47290269704536 104.67267032107338,250.27736170048593 105.09553641360253,249.54164301231503 105.30696945963427,248.85190594516462 105.30696945963427,248.07020300341537 105.56068911519833,247.56439468963072 105.64526233356446,247.0126033287961 105.56068911519833,246.64474214741495 105.8566953795962,245.90901912632398 106.49099451838993,245.44919179257704 106.95614721998572,245.40320904029068 107.29444009391591,245.17329522763612 108.14017227874137,245.12731245491887 108.3938919340726,244.89739853946958 108.43617854337208,244.34560479264474 108.90133124496788,243.10406705766218 109.19733750983141,241.77056078088935 109.45105716516264,241.21876423677895 109.45105716516264,240.7129503043252 108.81675802660175,240.20713595702546 108.35160532500595,239.5633716424345 107.29444009391591,238.8736234168755 106.87157400161959,238.78165692841867 106.5332811276894,238.4137908378616 106.49099451838993,238.04592452791985 106.36413469072431,237.54010799335083 106.74471417395398,236.9883076644619 106.95614721998572,235.83872206014348 106.02584181679413,234.8730684965849 105.68754894286394,234.68913431296824 105.09553641360253,233.99938063620357 104.54581049317494,233.49356078298297 103.8692247455474,233.07970786711667 103.10806577908807,232.29798493511043 102.51605324982665,232.02208248723764 101.71260767430067,231.4242934267968 101.332028191071,231.3323258276214 101.12059514480643,231.05642294773133 99.93657008605078,230.4586329511949 98.32967893499881,229.21706726081902 97.69537979643792,228.98714741430013 95.62333594355732,227.74557876150357 93.93187157390639,226.96384906803723 93.5935786999762,226.96384906803723 92.83241973351687,227.05581731867278 92.32498042285442,227.19376966892742 91.60610806569457,227.28573788533686 90.08379013300873,226.68794423370855 89.06891151121818,226.04416580713587 88.77290524658747,225.99818160803989 88.01174628012814,226.1821183837601 87.3351605325006,226.13613419490866 86.02427564607933,225.5383394289529 84.41738449479453,224.98652836150723 83.8676585748326,224.94054408365628 82.51448707911186,225.21644969959743 81.49960845708847,225.49235519225476 80.82302270946093,225.76826056139544 80.5270164445974,226.13613419490866 80.44244322623126,226.54999177035643 81.24588880175725,229.35501912760083 81.03445575549267,230.78051994438283 80.61158966342919,231.3323258276214 80.10415035230108,232.61987096827943 79.93500391556881,233.30962618795456 79.89271730626933,234.6431507585221 80.44244322623126,236.11462280061096 81.2036021926906,236.94232428137911 81.54189506662078,237.72404132655356 81.83790133125149,238.0919078285806 81.75332811265253,238.22985771030653 80.86530931876041,238.50575738103362 79.4275646044407,239.33345565298805 79.25841816747561,240.11516966758063 79.00469851214439,240.43705162091646 79.13155833981,241.03483194572618 79.85043069696985,241.9085098397918 80.35787000786513,242.78218649624614 81.33046202035621,245.2652607630007 81.37274862965569,246.18491536204237 80.94988253712654,247.47242949710926 80.5270164445974,247.8862727554515 80.14643696160056,248.07020300341537 78.87783868424594,248.20815065334318 76.67893500393257,248.3001157362596 76.34064213000238,248.71395843918435 76.2983555207029,249.44967811455717 76.38292873930186,250.1853969123913 76.89036805019714,250.50727361044846 77.77838684408925,250.87513248837786 78.75097885658033,251.6108495859662 80.01957713393494,252.02469006780302 80.31558339856565,252.20861908158986 80.61158966342919,252.94433458871208 81.28817541105673,254.0938883118797 81.28817541105673,254.36978088656906 81.45732184825465,254.82960157032358 81.795614721952,255.01352974795736 82.30305403308012,255.74924190953607 83.06421299907379,256.0711157043115 83.74079874716699,256.1630796149839 84.24823805782944,256.0711157043115 84.84025058732368,255.84120586817153 85.68598277214915,254.96754770865664 86.44714173837565,253.22022767772432 87.29287392320111,252.43853027193109 87.37744714156725,252.3005835680524 87.25058731413446,252.20861908158986 87.67345340643078,251.84076099906815 88.01174628012814,251.7947787232697 88.56147220055573,251.47290269704536 89.83007047767751,251.1510265027755 91.01409553643316,250.55325598217314 91.73296789359301,249.67959033319494 92.19812059518881,248.85190594516462 92.49412685981952,248.3001157362596 92.49412685981952,247.8862727554515 92.83241973351687,247.33448168257019 93.80501174624078,247.19653383735567 94.39702427550219,247.380464290909 94.73531714943238,247.380464290909 95.62333594355732,247.10456858988618 95.96162881748751,247.15055121527985 96.34220830071718,247.0126033287961 97.61080657807179,246.8746554114623 98.79483163659461,247.10456858988618 99.17541111982428,247.42644689569715 100.06342991371639,247.65635986853158 100.35943617857993,247.97823788633104 101.45888801873662,248.62199341808446 102.34690681262873,248.62199341808446 102.93891934212297,248.34609827247914 103.53093187161721,247.51841209514532 103.99608457321301,245.86303640838014 103.8692247455474,244.43757045146776 103.95379796391353,243.8397934245877 104.46123727480881,242.96611826610751 105.2646828503348,242.27637384599075 105.72983555193059,241.6785947244498 105.72983555193059,240.89688269142061 105.47611589659937,240.34508536558133 104.50352388410829,239.1955060181208 103.65779169951566,238.9196066558361 103.19263899768703,238.55174064758467 102.51605324982665,237.6320746668498 102.0931871572975,236.2525731245987 101.45888801873662,235.65478816459654 100.99373531714082,235.4248707179795 100.40172278764658,235.47085421410156 99.85199686768465,235.65478816459654 99.64056382142007,235.83872206014348 98.37196554406546,236.39052341756178 97.99138606106862,236.48249026248232 96.63821456534788,236.57445709372405 96.1307752544526,236.5284736798494 95.75019577122293,236.39052341756178 95.11589663266204,235.7467551191803 93.88958496460691,233.72347894945415 92.45184025052004,232.43593611282995 91.90211433032528,232.11404998361832 91.35238841036335,231.47027722129133 90.6335160532035,230.32068133127177 90.50665622553788,229.5849388371571 90.37979639763944,229.35501912760083 90.42208300693892,228.94116343458882 90.29522317927331,228.8491954652127 89.95693030534312,228.71124348521698 89.23805794818327,229.03313139046077 88.47689898195677,229.1250993325375 87.927173061762,229.30903517547995 87.71574001573026,229.5849388371571 87.1660140955355,231.7461799159646 86.74314800323918,232.98774051479995 87.12372748646885,235.01101909810677 86.82772122160532,237.2182245281292 87.20830070483498,238.04592452791985 87.67345340643078,238.55174064758467 88.05403288966045,238.78165692841867 88.77290524658747,239.65533801430138 88.77290524658747,240.11516966758063 88.64604541892186,240.8049165047123 88.22317932662554,241.58662865427323 88.30775254499167,242.69022059068084 88.51918559125625,243.28799873171374 89.11119812051766,243.8857762933476 89.23805794818327,244.34560479264474 89.61863743141294,244.7594501490821 90.12607674230821,245.08132967865095 91.56382145662792,244.8514157461468 92.07126076729037,244.62150172778638 92.66327329678461,244.29962195822736 93.72043852787465,243.4259474511491 94.22787783876993,243.28799873171374 95.07361002359539,244.39158762380248 95.41190289752558,244.80543294921517 95.62333594355732,245.90901912632398 96.00391542678699,246.59875948436093 96.29992169165052,246.92063805408543 96.72278778371401,246.82867276557954 96.84964761161245,246.92063805408543 97.18794048530981,246.8746554114623 97.18794048530981,246.92063805408543 97.44166014087386,246.8746554114623 97.90681284246966,247.0126033287961 98.9639780735597,247.05858596111648 99.7251370397862,247.42644689569715 101.12059514480643,248.1621681068209 101.41660140943713,248.3920808052644 101.88175411103293,248.48404586070683 102.13547376659699,248.53002838324755 102.98120595142245,248.20815065334318 103.4040720439516,247.74832503357902 103.57321848068386,247.10456858988618 103.99608457321301,246.5067941477755 104.08065779157914,245.7250882338849 103.91151135484688,244.25363912025932 104.08065779157914,243.56389613979263 104.54581049317494,242.9201353288372 105.2646828503348,242.4143227916793 105.89898198912852,241.77056078088935 106.70242756442167,241.9085098397918 107.80187940481119,242.552271706576 108.56303837127052,242.4143227916793 108.68989819893613,241.8625268235337 109.32419733749703,240.8049165047123 109.32419733749703,240.57500097807497 108.94361785426736,240.20713595702546 107.67501957714558,239.14952279964928 106.91386061068624,238.8736234168755 106.49099451838993,238.55174064758467 106.61785434605554,237.953957916121 106.27956147235818,237.6320746668498 106.23727486282587,237.44814130623126 106.82928739232011,236.9883076644619 107.33672670321539,235.7467551191803 107.54815974924713,235.60880468209507 107.75959279551171,235.65478816459654 108.14017227874137,235.47085421410156 108.81675802660175,235.93068898731144 109.19733750983141,236.0226559008006 109.70477682049386,236.43650684179738 110.16992952232249,236.5284736798494 110.67736883298494,236.71240731485886 110.97337509784847,236.9883076644619 111.77682067337446,237.2182245281292 112.072826938238,237.67805799847702 112.62255285819992,238.1378911259235 114.10258418158628,239.0115731236874 114.35630383715034,239.2874724448193 114.77916992944665,239.33345565298805 115.2020360219758,239.5633716424345 115.87862176960334,239.65533801430138 115.92090837913565,239.74730437237304 116.34377447119914,239.9772202075692 116.51292090839706,240.253119096742 116.89350039162673,240.2991022329079 117.14722004695795,240.16115281399107 117.10493343765847,240.34508536558133 117.18950665625744,240.43705162091646 117.40093970228918,240.43705162091646 117.95066562248394,240.7129503043252 118.71182458894327,241.54064561414998 120.53014878625982,242.36833981325617 120.61472200462595,242.78218649624614 120.99530148785561,243.1500499813701 122.34847298357636,243.60987902921624 123.02505873143673,243.4259474511491 123.3210649958346,243.6558619151474 124.08222396229394,243.93175915873144 125.01252936548553,244.43757045146776" stroke="#4dd2ff" stroke-linecap="round" stroke-linejoin="round" stroke-width="0.5"><title>2022-10-25 10.5km</title></polyline><polyline fill="none" points="187.0,234.15960279387946 186.94513310299953,234.14767098451557 186.5171713065938,233.9806255600124 186.17699654540047,233.8971027824009 186.0014224750921,233.88517095347925 185.8039016459952,234.04028466020827 185.6941678520525,234.19539821663057 185.6831944726291,234.290852638238 185.66124771384057,234.33857982765767 185.51859378168592,234.52948844322236 185.4856736435322,234.6130108909274 185.46372688474366,234.63687443944218 185.2881528144353,234.74426036364457 185.1345255029155,234.7919874179206 184.8162975005107,234.95903199593886 184.4212558423169,235.1141446623369 184.31152204837417,235.18573507307156 184.19081487500807,235.31698407628573 184.15789473685436,235.41243782920355 184.14692135743098,235.49595981634047 184.0152408046415,235.55561835192202 184.03718756348826,235.71073044039076 183.9384271489689,235.87777405993256 183.94940052827587,236.06868084028247 183.88356025196845,236.15220248512924 183.87258687260328,236.2118607761804 183.8616134931799,236.30731399563956 183.88356025196845,236.3908355159947 183.8616134931799,236.5936733126582 183.87258687260328,236.7249211618182 183.82869335496798,236.90389532819972 183.85064011381473,236.96355333921383 183.77382645802572,237.19025357830105 183.76285307860235,237.4050219298515 183.77382645802572,237.4766113163496 183.72993294044863,237.72717391705373 183.79577321675606,237.88228390195582 183.8177199756028,238.09705132531235 183.79577321675606,238.33568145790196 183.77382645802572,238.38340744175366 183.75187969923718,238.53851679099898 183.77382645802572,238.65783157281112 183.72993294044863,238.76521480044175 183.6970128022367,239.13508981108316 183.64214590523625,239.33792413162882 183.64214590523625,239.42144407132582 183.7079861816601,239.50496396742528 183.7847998374491,239.70779781950114 183.7847998374491,239.7913175662543 183.82869335496798,240.20891564672638 183.79577321675606,240.35209188077715 183.8177199756028,240.47140531135665 183.79577321675606,240.50719932321226 183.80674659617944,240.5668559918413 183.7847998374491,240.8293450698111 183.8177199756028,240.9367268413189 183.85064011381473,240.97252074917196 183.87258687260328,241.04410854086746 183.85064011381473,241.2230778800731 183.8616134931799,241.31852811254794 183.80674659617944,241.49749714507197 183.8177199756028,241.73612221069925 183.7847998374491,241.8315721373947 183.80674659617944,241.8912283126847 183.80674659617944,242.1537152200035 183.77382645802572,242.34461451874813 183.7847998374491,242.47585765464464 183.72993294044863,242.83379293317557 183.75187969923718,243.0127602724533 183.71895956108347,243.08434715218027 183.7409063198138,243.12014058005298 183.6970128022367,243.2513830804237 183.71895956108347,243.33490097921458 183.68603942287154,243.4184188344516 183.67506604344817,243.49000553287624 183.7079861816601,243.549661090452 183.72993294044863,243.69283433791134 183.7079861816601,243.8360074574448 183.67506604344817,243.8598696315603 183.6970128022367,243.8598696315603 183.5104653525632,243.75248981993354 183.33489128225483,243.88373180216877 183.1483438325231,243.90759396919748 183.04958341794554,243.9553182926029 183.00568990042666,244.00304260177654 182.91790286521427,244.06269796825654 182.8740093476954,244.06269796825654 182.786222312483,244.09849117744307 182.67648851854028,244.09849117744307 182.544807965809,244.11042224541598 182.3582605161355,244.17007757189276 182.22657996340422,244.24166393435735 182.10587279009633,244.24166393435735 182.00711237551877,244.2774571035843 181.74375127005624,244.30131921195425 181.5242836821708,244.34904341801303 181.3157894736505,244.5160780273436 181.3596829912276,244.44449178753712 181.27189595607342,244.44449178753712 181.26092257665005,244.42062970048573 181.14021540334215,244.46835387100873 180.87685429793783,244.49221595094423 180.83296078030253,244.5160780273436 180.70128022757126,244.5160780273436 180.38305222516647,244.59959526665625 180.27331843122374,244.56380216940306 179.68075594393304,244.74276757560438 179.40642145904712,244.77856063282525 179.04429993900703,244.86207773530623 178.98943304206477,244.85014672331454 178.91261938627576,244.8740087463666 178.89067262748722,244.89787076588254 178.7809388336027,244.93366378844075 178.44076407235116,244.96945680303907 178.19934972561896,245.0291118095629 178.12253606988816,245.07683579881268 178.0676691729459,245.05297380595584 177.93598862021463,245.0887667938805 177.79333468805999,245.07683579881268 177.61776061775163,245.12455977381615 177.54094696196262,245.12455977381615 177.47510668559698,245.1603527457337 177.1568786831922,245.20807669585338 177.08006502740318,245.23193866560177 177.0361715098261,245.35124846090912 176.992277992249,245.3751104092953 176.93741109530674,245.3751104092953 176.4765291606891,245.4586272007 176.1583011582843,245.57793682716147 176.07051412313012,245.57793682716147 175.9607803291874,245.63759160709742 175.73033936187858,245.68531541500124 175.63157894735923,245.6972463647544 175.54379191220505,245.6614535128174 175.3682178418967,245.6614535128174 174.83052225154825,245.74497015491943 174.34769355820026,245.74497015491943 174.13919934967998,245.7688320446614 173.59053037996637,245.8881414400821 173.4588498272933,245.87621050453163 173.40398293029284,245.90007237471582 173.00894127204083,245.94779610444675 172.85531396057922,245.98358889239898 172.60292623448186,246.00745074660517 172.53708595811622,245.94779610444675 172.41637878475012,245.95972703465668 172.2737248527119,245.94779610444675 172.02133712661453,245.87621050453163 171.94452347082552,245.87621050453163 171.7908961593057,245.85234863078222 171.4726681568427,245.91200330850552 171.3190408453229,245.86427956810803 171.11054663686082,245.85234863078222 171.0008128429181,245.8881414400821 170.9239991871873,245.93586517334916 170.85815891076345,245.94779610444675 170.74842511682073,246.01938167234766 170.6057711847243,246.05517444430734 170.55090428778203,246.09096720827802 170.37533021741547,246.11482904652075 170.33143669983838,246.07903628789063 170.15586262953002,246.11482904652075 170.11196911195293,246.09096720827802 169.91444828285603,246.10289812783594 169.85958138591377,246.09096720827802 169.5303800040856,246.11482904652075 169.39869945135433,246.09096720827802 168.99268441373715,246.07903628789063 168.64153627312044,245.99551981993136 168.4549888234469,245.87621050453163 168.4110953058116,245.87621050453163 168.1367608209839,245.68531541500124 167.92826661246363,245.61372969776858 167.58809185121208,245.54214394856535 167.5441983336932,245.50635106195114 167.45641129853902,245.49442009798076 167.35765088396147,245.51828202506294 167.17110343428794,245.43476526477025 166.85287543182494,245.48248913312273 166.68827474088175,245.48248913312273 166.57854094699724,245.50635106195114 166.1944726681686,245.48248913312273 166.08473887422588,245.50635106195114 165.9969518390717,245.49442009798076 165.9530583214946,245.48248913312273 165.9091648038593,245.44669623317895 165.7994310099748,245.43476526477025 165.7994310099748,245.41090332523163 165.6787238366087,245.43476526477025 165.59093680145452,245.42283429543022 165.21784190204926,245.32738650895772 165.10810810810653,245.32738650895772 165.00934769352898,245.30352455342654 164.81182686443208,245.30352455342654 164.7240398292779,245.2796625943738 164.41678520623827,245.2796625943738 164.31802479171893,245.24386964911537 164.2082909977762,245.2558006317413 163.99979678925592,245.20807669585338 163.91200975410175,245.14842175596277 163.71448892500484,245.1722837346024 163.67059540742775,245.19614570967678 163.48404795775423,245.48248913312273 163.38528754317667,245.67338446434587 163.30847388744587,245.7330392087024 163.0999796789256,245.75690110026335 162.91343222919386,245.74497015491943 162.62812436494278,245.78076298821543 162.48547043284634,245.7688320446614 162.4196301564807,245.7926939308818 162.12334891280625,245.74497015491943 161.82706766919,245.7330392087024 161.72830725461245,245.6972463647544 161.32229221705347,245.6972463647544 161.22353180247592,245.67338446434587 161.1137980085332,245.60179874180176 160.97114407637855,245.39897235415992 160.81751676485874,245.12455977381615 160.65291607397376,245.11262878136768 160.37858158908784,245.1603527457337 160.17008738062577,245.1722837346024 159.74212558422005,245.12455977381615 159.65433854906587,245.14842175596277 159.30319040839095,245.0649048028281 159.2044299938716,245.0291118095629 159.14956309692934,244.94559479420423 159.13858971750597,244.8859397565684 159.10566957935225,244.85014672331454 158.99593578540953,244.8859397565684 158.78744157694746,244.8859397565684 158.4472668156959,244.81435368207167 158.3265596423298,244.81435368207167 158.249745986599,244.77856063282525 158.08514529565582,244.67118143712287 157.7010770168854,244.57573320269876 157.4596626702114,244.56380216940306 157.3828490144224,244.57573320269876 157.31700873805676,244.6115262972744 157.20727494411403,244.73083655475057 157.1743548059021,244.74276757560438 157.08656777074793,244.70697451035085 156.72444625076605,244.73083655475057 156.6256858361885,244.68311246242956 156.43913838651497,244.6592504109285 155.9124161755899,244.64731938384648 155.80268238158897,244.62345732701942 155.7917090022238,244.63538835589134 155.66002844949253,244.56380216940306 154.85897175368154,244.43256074443343 154.70534444221994,244.44449178753712 154.60658402764238,244.49221595094423 154.40906319854548,244.50414698956592 154.3212761633913,244.46835387100873 154.18959561066004,244.48028491143486 153.82747409061994,244.42062970048573 153.79455395246623,244.43256074443343 153.6848201585235,244.34904341801303 153.6080065027345,244.33711236782256 153.4872993293684,244.28938815819856 153.2458849827526,244.2535949916346 153.20199146517552,244.21780181706708 152.938630359713,244.1462154439796 152.58748221903807,244.12235331250122 152.47774842509534,244.06269796825654 152.31314773421036,244.03883582430717 152.2582808372099,244.06269796825654 152.19244056090247,244.05076689671841 152.060760008113,244.06269796825654 151.819345661439,244.01497367682168 151.70961186749628,244.01497367682168 151.63279821176548,243.99111152581463 151.43527738266857,243.9791804489505 151.28165007114876,243.9195250513876 151.08412924199365,243.93145613267552 150.4696199959726,243.78828309848905 150.2720991668175,243.76442091369245 150.05263157893205,243.69283433791134 149.58077626494924,243.62124773018877 149.41617557406425,243.57352330721915 149.3174151594867,243.59738552049384 149.26254826254444,243.57352330721915 149.06502743344754,243.549661090452 148.9662670189282,243.51386775856372 148.88945336313918,243.51386775856372 148.77971956919646,243.49000553287624 148.73582605161937,243.5019366461638 148.61511887825327,243.4661433036381 148.50538508431055,243.4661433036381 148.35175777279073,243.44228107083472 148.2859174964833,243.4064877149649 148.17618370248238,243.394556594576 148.11034342611674,243.4064877149649 147.9676894940203,243.38262547328486 147.85795570001937,243.38262547328486 147.58362121519167,243.32296985349967 147.44096728309523,243.33490097921458 147.2544198333635,243.32296985349967 147.03495224547805,243.26331421150826 146.99105872790096,243.2752453416906 146.65088396670762,243.19172741177317 146.50823003449477,243.19172741177317 146.39849624061026,243.15593399992213 146.15708189393627,243.13207172088732 146.08026823814726,243.09627829567762 145.707173338742,243.06048486252257 145.21337126602884,242.95310451490514 144.53302174352575,242.89344873515074 144.42328794958303,242.8695864170295 144.24771387927467,242.77413710896508 144.00629953260068,242.72641243360704 143.92948587686988,242.72641243360704 143.75391180656152,242.69061891775345 143.63320463319542,242.70255009060202 143.27108311321354,242.67868774403178 142.9199349725386,242.60710068298795 142.74436090228846,242.60710068298795 142.7224141434417,242.59516950303805 142.53586669370998,242.5832383222005 142.42613289982546,242.59516950303805 142.20666531194001,242.54744477434724 142.14082503557438,242.5593759578478 142.04206462099683,242.52358240466856 141.74578337738058,242.54744477434724 141.52631578949513,242.51165121849044 141.38366185734048,242.52358240466856 141.35074171918677,242.4997200314101 141.0654338549357,242.5355135899299 140.6264986791648,242.52358240466856 140.49481812643353,242.5593759578478 140.02296281245071,242.4997200314101 139.75960170698818,242.4997200314101 139.66084129241062,242.47585765464464 139.58402763667982,242.47585765464464 139.58402763667982,242.4639264649013 139.5072139808908,242.4639264649013 139.22190611663973,242.4281328904035 139.1889859784278,242.40427050294238 139.12314570212038,242.4162016971095 138.8378378378693,242.3923393078876 138.58545011177193,242.3326833192259 138.50863645598292,242.35654571736814 138.31111562694423,242.30882091756212 138.14651493600104,242.30882091756212 137.8063401748077,242.2253024836973 137.8063401748077,242.2014400660264 137.81731355411466,242.2133712752984 137.79536679538433,242.2253024836973 137.6856330014416,242.2014400660264 137.3344848608249,242.2253024836973 137.2137776874588,242.2133712752984 137.13696403172798,242.16564643285528 137.03820361715043,242.1537152200035 136.66510871774517,242.1417840062786 136.40174761234084,242.05826548529149 136.27006705955137,242.07019670525915 136.02865271287737,241.99860937225458 135.7433448486845,241.97474692077958 135.37024994922103,241.87929707941657 135.3044096728554,241.8315721373947 135.27148953464348,241.74805345464847 135.216622637643,241.71225972012326 135.0629953261232,241.65260347817093 134.95326153223868,241.64067222713493 134.84352773823775,241.59294721398328 134.75574070308357,241.6048784686136 134.61308677104535,241.6883972260257 134.3936191831017,241.7003284735256 133.81203007517615,241.6287409751676 133.76813655765727,241.6048784686136 133.54866896977182,241.55715344483906 133.23044096730882,241.53329092760396 133.14265393209644,241.49749714507197 133.0,241.49749714507197" stroke="#4dd2ff" stroke-linecap="round" stroke-linejoin="round" stroke-width="0.5"><title>2022-10-21 10.5km</title></polyline></svg>