<?xml version="1.0" encoding="utf-8" ?>
<svg baseProfile="full" height="300mm" version="1.1" viewBox="0,0,200,300" width="200mm" xmlns="http://www.w3.org/2000/svg" xmlns:ev="http://www.w3.org/2001/xml-events" xmlns:xlink="http://www.w3.org/1999/xlink"><defs /><rect fill="#222222" height="300" width="200" x="0" y="0" /><text fill="#FFFFFF" style="font-size:12px; font-family:Arial; font-weight:bold;" x="10" y="20">Over 10km Runs</text><text fill="#FFFFFF" style="font-size:4px; font-family:Arial" x="10" y="280">ATHLETE</text><text fill="#FFFFFF" style="font-size:9px; font-family:Arial" x="10" y="290">Sunny</text><text fill="#FFFFFF" style="font-size:4px; font-family:Arial" x="120" y="280">STATISTICS</text><text fill="#FFFFFF" style="font-size:3px; font-family:Arial" x="120" y="285">Number: 10</text><text fill="#FFFFFF" style="font-size:3px; font-family:Arial" x="120" y="290">Weekly: 1.1</text><text fill="#FFFFFF" style="font-size:3px; font-family:Arial" x="141" y="285">Total: 78.6 km</text><text fill="#FFFFFF" style="font-size:3px; font-family:Arial" x="141" y="290">Avg: 7.9 km</text><text fill="#FFFFFF" style="font-size:3px; font-family:Arial" x="167" y="285">Min: 2.2 km</text><text fill="#FFFFFF" style="font-size:3px; font-family:Arial" x="167" y="290">Max: 12.5 km</text><polyline fill="none" points="44.649246325250715,33.0 44.24813487753272,33.11894875305006 43.774094075663015,33.396495740133105 43.22712391987443,33.79299118483323 42.935406503267586,34.11018732772209 42.35197167028673,35.10142405590159 42.20611296221614,35.22037233912852 41.22156668151729,35.69616520626005 39.65358556783758,36.68739897964406 39.3254034742713,37.04424268598086 38.9242920265533,37.91652629402233 38.63257461017929,38.27336917605135 38.30439251661301,38.86810678092297 37.90328106889501,40.37477240472799 37.8303517147433,40.850560662773205 37.90328106889501,41.00915665421053 37.86681639170274,41.20740157706314 37.72095768363215,42.198625083459774 37.79388703778386,42.63476284130593 37.53863429836929,43.62598368874751 37.611563652521,44.1017690396111 37.53863429836929,44.93439237997518 37.42924026702531,45.13263584044762 37.46570494398475,45.33087922699633 37.283381558954716,45.88596031663474 37.319846235914156,46.5203379955492 37.50216962117702,47.03576930286363 37.53863429836929,47.9476850082865 37.68449300643988,48.58206022932427 37.611563652521,48.780302330851555 37.57509897532873,49.850808402872644 37.39277559006587,50.247291586652864 37.356310912873596,50.6834227477666 37.173987527610734,51.04025706817629 37.173987527610734,51.31779470760375 37.356310912873596,51.7539249912661 37.39277559006587,51.99181408630102 37.356310912873596,52.269351229362655 37.356310912873596,52.9433694028703 37.53863429836929,53.89492301788414 37.611563652521,54.767179003800265 37.72095768363215,55.401546095410595 37.57509897532873,56.07556030183332 37.611563652521,56.74957365455339 37.72095768363215,57.423586153716315 37.64802832948044,57.82006369548617 37.46570494398475,57.701120464043925 37.53863429836929,57.542529447207926 37.64802832948044,57.701120464043925 37.57509897532873,57.899359168397496 37.356310912873596,57.58217720585526 37.137522850651294,57.621824961534 37.101058173691854,57.85971143346978 37.173987527610734,58.25618865044089 37.173987527610734,58.692313247942366 37.06459349649958,59.1284374880197 37.101058173691854,59.92138973620604 37.02812881954014,60.159275180252735 37.101058173691854,60.59539821825456 36.7364114029333,63.76719137962209 36.77287608012557,64.16366419571568 36.62701737158932,64.75837286605383 36.59055269486271,65.94778821314685 36.62701737158932,66.42355360771762 36.55408801767044,66.82002444495447 36.62701737158932,67.4543771702738 36.517623340711,68.16802308251499 36.371764632407576,70.5468358793878 36.298835278255865,70.74506979927537 36.262370601296425,71.41906457446748 36.335299955215305,71.61729816941079 36.335299955215305,71.81553169057588 36.225905924104154,72.44987846218282 36.18944124691188,73.718569737277 36.04358253884129,74.63043972337618 36.00711786164902,76.05771134822862 35.82479447638616,77.7625029955525 35.78832979942672,79.62587366701337 35.6424710911233,81.17206991044804 35.60600641393103,83.07507450634148 35.350753674749285,87.0" stroke="#4dd2ff" stroke-linecap="round" stroke-linejoin="round" stroke-width="0.5"><title>2023-10-18 3.3km</title></polyline><polyline fill="none" points="127.0,75.61053740419447 126.23943661991507,74.7834981289925 123.67253521131352,73.54293829086237 121.86619718326256,73.54293829086237 120.91549295792356,73.02603803086095 120.05985915474594,72.30237734294496 119.77464788779616,71.78547662054189 119.77464788779616,71.26857570535503 119.67957746516913,70.75167459750082 119.39436619728804,70.44153384037782 115.97183098597452,68.68406823941041 113.30985915474594,67.75364437268581 112.26408450724557,68.06378573097754 111.12323943665251,67.96040528581943 109.50704225338995,67.34012245340273 108.1760563380085,67.13336144783534 106.2746478873305,65.68603354436345 106.0845070425421,65.06574969459325 105.51408450724557,64.65222697413992 104.65845070406795,64.23870413016994 104.08802816877142,64.23870413016994 102.85211267648265,63.82518116279971 102.47183098597452,63.411658072378486 101.04577464750037,62.58461152133532 99.5246478873305,60.93051693949383 97.90845070406795,59.89670682384167 96.86267605656758,59.586563638877124 94.10563380271196,57.31217816239223 93.15492957737297,56.79527185228653 92.10915492940694,55.968221354996786 91.53873239457607,55.658077291212976 90.39788732398301,55.45131454360671 90.01760563394055,55.24455176491756 88.40140845067799,54.83102611557115 87.450704225339,53.79721145227086 85.92957746470347,53.07354072970338 83.64788732398301,51.316053116112016 83.07746478915215,51.109289721003734 82.12676056334749,50.38561759528238 80.2253521126695,49.45518145011738 79.08450704207644,49.04165407421533 76.13732394389808,47.18077935592737 74.90140845067799,46.14695898885839 73.950704225339,45.526666398509406 73.0,44.38946259592194" stroke="#4dd2ff" stroke-linecap="round" stroke-linejoin="round" stroke-width="0.5"><title>2023-06-04 4.7km</title></polyline><polyline fill="none" points="133.0,63.824510420279694 133.2059103907668,63.84316627327644 133.56625357479788,63.88047797503532 133.63489037175896,63.93644551729085 133.72068636800395,63.95510136197845 133.80648236413253,63.93644551729085 133.9609151572804,63.824510420279694 134.0810295518604,63.78719871015346 134.42421353666577,63.749886994439294 134.61296472826507,63.805854565885966 134.9218303145608,63.805854565885966 135.2135367015726,63.749886994439294 135.3164918969851,63.76854285299487 135.52240228786832,63.69391941050708 135.91706387035083,63.69391941050708 136.02001906576334,63.73123113453039 136.34604385122657,63.71257527320995 136.5519542421098,63.749886994439294 136.72354623442516,63.69391941050708 137.049571020063,63.65660768093949 137.70162059098948,63.69391941050708 138.18207816965878,63.60064007612527 138.3879885604838,63.43273718674027 138.5767397521413,63.33945775512257 139.0571973307524,63.32080186464009 139.14299332699738,63.264834184825304 139.5376549094217,63.13424288331589 139.72640610102098,63.19021059226361 140.10390848421957,62.94768376305001 140.44709246896673,62.89171599988185 140.63584366062423,62.76112450385699 140.96186844614567,62.74246857027174 141.13346043846104,62.59322105180763 141.2878932316089,62.51859725918621 141.52812202094356,62.49994130754203 141.5795996186789,62.44397344440222 142.4204003813211,62.276069779720274 142.60915157292038,62.10816600256658 143.1067683508154,61.88429412464029 143.22688274539541,61.90295012210845 143.43279313627863,61.865638125746045 143.74165872257436,61.716390084897284 143.91325071494794,61.697734073517495 144.13632030505687,61.60445399583841 144.41086749278475,61.455205799342366 144.59961868438404,61.38058166774863 144.87416587228654,61.231333337855176 145.5090562439873,60.9514924796531 145.74928503338015,60.783587814701605 145.8179218302248,60.69030739662412 145.9895138227148,60.63433912911569 146.59008579602232,60.11196802937775 146.69304099137662,60.13062415884633 147.00190657767234,60.01868736121105 147.5338417540188,60.05599963264831 147.96282173495274,59.83212592068594 148.2030505242874,59.68287666821561 148.3231649189256,59.66422050545225 148.3918017159449,59.58959584032709 148.5805529075442,59.51497115292295 148.73498570069205,59.40303408024192 148.95805529068457,59.32840933724947 149.47283126792172,59.12319117951847 149.66158245952101,59.0112539317488 150.00476644426817,58.936629072064534 150.4165872259182,58.8060355141788 150.69113441376248,58.67544188820466 151.0,58.582160685095005 151.06863679696107,58.52619194659928 151.1887511916575,58.50753569761582 151.6863679694943,58.339629394511576 152.20114394661505,58.320973131631035 152.69876072451007,58.22769179655006 152.78455672069686,58.26500433473848 152.95614871307043,58.28366060179542 153.0247855099733,58.339629394511576 153.4022878932301,58.48887944727903 153.5052430886426,58.67544188820466 153.57387988560367,58.638129411119735 153.91706387035083,58.638129411119735 154.29456625354942,58.582160685095005 154.4833174451487,58.638129411119735 154.5691134413937,58.638129411119735 155.06673021923052,58.47022319557436 155.22116301237838,58.37694191603805 155.4270734032616,58.37694191603805 155.51286939939018,58.320973131631035 156.23355576745234,58.28366060179542 156.69685414677951,58.13441042670456 157.09151572926203,58.11575414854451 157.17731172544882,58.09709786904568 157.2631077215774,58.04112902212364 157.86367969494313,57.9478475828073 158.24118207819993,57.77994090449647 158.4985700667021,57.70531567800208 158.96186844608746,57.64934674356482 159.06482364161639,57.66800305643119 159.25357483321568,57.59337779659836 159.5624404194532,57.57472147818771 159.6653956149239,57.53740883713181 159.97426120116143,57.53740883713181 160.06005719729,57.55606515832187 160.145853193535,57.518752514530206 160.2316491897218,57.518752514530206 160.45471877977252,57.53740883713181 160.6263107722043,57.68665936788602 160.7292659675586,57.85456610874098 160.88369876064826,57.966503873467445 160.9180171592743,58.05978530578432 161.1067683508154,58.28366060179542 161.63870352716185,58.619473170503625 161.65586272638757,58.712754359745304 161.82745471876115,58.8620041901886 161.8789323164965,58.936629072064534 162.08484270737972,58.9179728536983 162.4623450905783,58.54484819415666 162.78836987609975,58.17172297880461 162.99428026686655,58.022472737022326 163.1315538608469,57.98516016268695 163.2173498570337,57.91053499736881 163.30314585322049,57.89187870254682 163.56053384172264,58.078441588106216 163.68064823647728,58.04112902212364 163.76644423260586,57.966503873467445 164.26406101044267,57.87322240631329 164.45281220210018,57.89187870254682 164.8646329838084,57.835909809800796 165.17349857010413,57.87322240631329 165.4480457578902,57.835909809800796 165.48236415628344,57.74262829399959 165.41372735943878,57.66800305643119 165.5166825548513,57.313532874235534 165.7225929456763,57.294876534928335 166.15157292666845,57.33218921208754 166.56339370826026,57.27622019426781 166.872259294556,57.35084554858622 167.0781696854392,57.313532874235534 167.59294566250173,57.33218921208754 167.9361296472489,57.294876534928335 168.17635843658354,57.313532874235534 168.26215443282854,57.294876534928335 168.75977121072356,57.313532874235534 168.96568160149036,57.25756385222485 169.12011439469643,57.313532874235534 169.41182078170823,57.35084554858622 169.65204957104288,57.42547088065476 169.97807435656432,57.48143986516516 171.09342230693437,57.966503873467445 171.3851286940626,58.15306670345308 171.6081982840551,58.37694191603805 171.6939942803001,58.52619194659928 171.65967588179046,58.843347966263536 171.71115347952582,58.936629072064534 171.8999046711251,58.97394150469336 172.05433746427298,59.085878769139526 172.7407054337673,59.272440765445936 173.1353670162498,59.347065525100334 173.8045757864602,59.42169026247575 174.50810295523843,59.40303408024192 174.61105815065093,59.42169026247575 174.79980934225023,59.384377896552905 175.09151572932024,59.384377896552905 175.81220209720777,59.29109695748775 176.2068636796903,59.19781598361442 176.1210676835617,59.16050358438224 176.0352716873167,59.179159784674994 176.06959008582635,59.06722256190551 176.15538608207135,59.02991014321742 176.37845567212207,58.99259771891229 176.75595805532066,58.843347966263536 177.03050524304854,58.65678565035341 177.3736892277957,58.48887944727903 177.44232602481497,58.41425443199114 177.5452812202857,58.37694191603805 177.61391801718855,58.30231686736806 178.09437559579965,58.13441042670456 177.99142040044535,58.11575414854451 177.73403241188498,58.19037925275916 177.6482364156982,58.22769179655006 177.44232602481497,58.43291068787221 177.69971401337534,58.358285655936925 177.88846520503284,58.22769179655006 178.00857959961286,58.24634806632821 178.30028598662466,58.17172297880461 178.35176358436001,58.05978530578432 179.79313632036792,57.2389075087558 180.3422306959401,56.99637491752219 180.61677788372617,56.84712397545809 180.8226882746094,56.79115484924114 181.5948522402905,56.45533982932102 182.14394661586266,56.17549363547005 182.53860819828697,56.0635550704028 182.9504289799952,56.04489863802155 183.48236415634165,56.138180786016164 183.89418493804988,56.082211501387064 185.04385128698777,56.212806479408755 185.8503336511203,56.306088564830134 186.05624404200353,56.3620577994443 186.3307912297314,56.3620577994443 186.4165872259182,56.41802702154382 186.8112488084007,56.492652631524834 187.0,56.492652631524834" stroke="#4dd2ff" stroke-linecap="round" stroke-linejoin="round" stroke-width="0.5"><title>2023-05-21 5.5km</title></polyline><polyline fill="none" points="67.0,111.13153145967226 66.88716417911928,110.99131305261108 66.40358208952239,110.90367650572443 66.04895522387233,110.93873112840811 65.8877611940843,111.00884035805939 65.72656716412166,111.11400416336255 65.58149253728334,111.25422249724215 65.42029850749532,111.46454984144657 65.09791044774465,111.78004050496384 64.90447761194082,112.02542183964397 64.21134328353219,112.46360215761524 63.88895522383973,112.72650995654112 63.7116417910438,112.95436314458493 63.6794029850862,113.11210753010528 63.48597014922416,113.2698518098041 63.37313432834344,113.62039427482523 63.32477611937793,113.69050270515436 63.30865671642823,113.77813821363088 63.32477611937793,113.88330078075523 63.292537313420326,114.07609869830776 63.292537313420326,114.26889645787014 63.244179104454815,114.49674815179606 63.179701492597815,114.58438335992105 63.1313432835741,114.96997788771114 63.179701492597815,115.05761291953968 63.244179104454815,115.3730987636809 63.26029850746272,115.65353026990488 63.30865671642823,115.82879979154677 63.22805970144691,116.1092307545041 63.244179104454815,116.21439227940573 63.195820895489305,116.40718828632089 63.1635820895317,116.84536044156994 63.11522388056619,116.95052163739456 63.09910447761649,117.14331704094366 63.01850746263517,117.47632691124454 62.937910447770264,117.68664869174245 62.97014925366966,117.87944349195459 62.937910447770264,118.07223813417659 62.986268656735774,118.3526664225792 62.95402985071996,118.47535369364778 62.97014925366966,118.68567458090547 62.92179104470415,119.00115555916273 62.95402985071996,119.12384249201568 62.889552238804754,119.52695624942135 62.937910447770264,120.3682349093724 62.92179104470415,120.57855410425691 62.97014925366966,120.9816653689195 62.90567164181266,121.75283282007149 62.85731343278894,121.92809779732488 62.841194029839244,122.24357442735345 62.77671641786583,123.26010735747695 62.80895522388164,123.52300309001293 62.728358208958525,124.46942529492662 62.6477611939772,124.81995107130206 62.69611940294271,125.03026628649968 62.66388059704332,125.20552882218908 62.66388059704332,125.45089615278994 62.631641791027505,125.55605350187398 62.34149253729265,125.59110594110098 62.0835820895154,125.67873701638018 61.874029850703664,125.69626322750992 61.59999999997672,125.78389426361537 61.21313432836905,125.83647286963242 61.13253731338773,125.88905146386242 60.81014925369527,125.95915623790643 60.72955223877216,126.01173480473517 60.326567164214794,126.09936572334846 60.10089552239515,126.18699660929269 59.810746268660296,126.25710129455547 59.18208955222508,126.30967979482375 57.90865671640495,126.60762440761027 57.42507462686626,126.64267669018591 57.1188059701235,126.73030737377121 56.45791044773068,126.83546415105229 55.16835820896085,127.11588199390098 54.97492537309881,127.13340809800138 54.66865671641426,127.25609079001879 54.47522388055222,127.29114297598426 53.94328358210623,127.36124733228644 53.84656716417521,127.3962995026086 53.39522388065234,127.43135166773573 53.217910447739996,127.48392990553111 53.00835820892826,127.44887774827657 52.52477611938957,127.55403420436778 52.202388059697114,127.53650813159766 51.992835820885375,127.58908634593536 51.70268656715052,127.57156027581368 51.219104477611836,127.7117688003782 51.0095522388001,127.69424273936602 50.42925373133039,128.02723767521093 50.31641791050788,128.1323938728019 49.945671641791705,128.2200240015518 49.54268656717613,128.25507604396262 49.17194029845996,128.32518011301 48.75283582083648,128.32518011301 48.269253731297795,128.41281016997527 47.495522388024256,128.39528416120447 46.38328358205035,128.60559618042316 46.0931343283155,128.5530181932263 45.899701492569875,128.5004401943297 45.72238805971574,128.377758151124 45.4805970149464,128.32518011301 45.20656716416124,128.34270612701948 44.61014925374184,128.30765409769083 44.30388059699908,128.3602321397193 44.110447761195246,128.4303361774946 43.67522388056386,128.71075211957213 43.23999999999069,128.85095996533346 43.07880597008625,128.97364176178235 42.65970149246277,129.0086936918815 42.35343283583643,129.07879753642192 42.25671641790541,129.04374561674194 41.91820895514684,129.04374561674194 41.305671641777735,129.07879753642192 40.77373134321533,129.04374561674194 40.09671641787281,129.09632349429012 39.580895522318315,129.04374561674194 39.419701492530294,128.9035378858971 39.29074626869988,128.74580408883048 39.22626865666825,128.5004401943297 39.21014925366035,128.29012808107655 39.22626865666825,128.18497195397504 39.113432835787535,128.07981577984174 38.952238805941306,127.99218559885048 38.21074626862537,127.90455538521928 38.11402985069435,127.86950329063984 37.48537313431734,127.83445119083626 37.275820895447396,127.78187303131563 37.066268656693865,127.7993990858231 36.953432835813146,127.76434697555669 36.76000000000931,127.78187303131563 36.308656716370024,127.67671667710238 35.534925373096485,127.62413848232245 35.43820895522367,127.58908634593536 34.503283582103904,127.57156027581368 34.18089552241145,127.51898205754696 33.71343283582246,127.36124733228644 33.536119402968325,127.3261951567838 33.423283582087606,127.34372124518268 33.31044776114868,127.3261951567838 33.229850746225566,127.37877341813873 33.16537313431036,127.46640382753685 33.08477611944545,127.64166454851511 33.05253731337143,127.81692513897724 32.92358208948281,127.97465955876396 32.859104477625806,128.1323938728019 32.69791044772137,128.25507604396262 32.58507462684065,128.2726020631817 31.505074626824353,128.25507604396262 30.90865671640495,128.18497195397504 29.812537313438952,128.14991990117414 29.61910447757691,128.097341812143 29.457910447730683,127.88702933859895 29.31283582089236,127.74682091847353 29.21611940296134,127.60661241479102 29.135522388038225,127.53650813159766 29.087164179072715,127.44887774827657 28.990447761199903,127.3962995026086 28.651940298441332,127.41382558578334 28.361791044764686,127.48392990553111 27.410746268637013,127.34372124518268 26.991641790955327,127.43135166773573 26.86268656712491,127.43135166773573 26.346865671570413,127.37877341813873 25.782686567108613,127.27361688368546 25.605373134312686,127.27361688368546 25.395820895500947,127.22103859884373 24.541492537246086,127.13340809800138 23.81611940287985,126.99319922877476 22.92955223872559,126.85299027603469 22.848955223802477,126.76535963808419 22.816716417844873,126.69525510427775 21.865671641775407,126.59009826435067 21.430447761144023,126.48494137742091 20.47940298501635,126.36225828330498 20.398805970093235,126.3272059589799 20.011940298427362,126.30967979482375 19.834626865631435,126.37978444357577 19.737910447700415,126.39731060244958 19.431641791015863,126.29215362937248 18.80298507452244,126.25710129455547 18.609552238718607,126.15194425884692 18.335522388049867,126.06431335983507 17.029850746213924,125.85399906901876 16.64298507454805,125.80142046693072 16.449552238744218,125.80142046693072 15.933731343247928,125.71378943737363 15.498507462616544,125.7488418530993 15.127761193958577,125.6261583751475 14.660298507427797,125.52100105740828 14.096119402965996,125.43336992336845 13.709253731241915,125.39831746062555 13.338507462583948,125.29316004103748 13.0,125.2756337999017" stroke="#4dd2ff" stroke-linecap="round" stroke-linejoin="round" stroke-width="0.5"><title>2023-04-22 6.2km</title></polyline><polyline fill="none" points="126.89380530978087,111.82380023643782 126.9336283186567,111.89596743241418 126.98672566370806,112.06916859318153 126.94690265483223,112.24236959904374 126.96017699118238,112.45887063864211 126.86725663719699,112.7764050589758 126.8407079646131,113.00733885593945 126.8407079646131,113.32487237719761 126.81415929208742,113.42590566117724 126.81415929208742,113.65683868384804 126.86725663719699,114.0898373593227 126.82743362832116,114.23417003607028 126.86725663719699,114.34963610001432 126.7743362832116,114.56613478445797 126.7743362832116,114.62386772612808 126.7743362832116,114.81149966767407 126.82743362832116,114.86923253620625 126.82743362832116,114.9413985976862 126.81415929208742,115.02799783594673 126.85398230090505,115.08573063997028 126.90707964601461,115.4465602752316 126.86725663719699,115.5187261216197 126.86725663719699,115.66305773377826 126.80088495573727,115.79295609278779 126.8407079646131,115.95172063552309 126.81415929208742,116.03831942215038 126.81415929208742,116.12491817011323 126.7743362832116,116.37028107904189 127.0,116.78884061821736 126.98672566370806,116.87543903068581 127.0,116.9476043448376 126.80088495573727,117.38059566516313 126.82743362832116,117.5537919223134 126.81415929208742,117.62595698377118 126.92035398230655,117.95791592025489 126.88053097343072,118.2754413272487 126.78761061950354,118.53523445499013 126.76106194686145,118.88162475013814 126.681415929168,119.14141706502414 126.70796460181009,119.19914864328166 126.7743362832116,119.17028285631386 126.74778761062771,119.22801442592754 126.78761061950354,119.3001788637921 126.85398230090505,119.35791039469768 126.82743362832116,119.45894053243683 126.89380530978087,119.77646347942937 126.72123893804383,119.83419486845378 126.01769911509473,119.94965759485785 125.31415929202922,120.12285155543941 124.42477876105113,120.28161254998122 123.80088495573727,120.42594061396085 123.72123893804383,120.49810460559092 123.54867256636498,120.5414029876847 123.26991150440881,120.59913414876792 123.03097345132846,120.59913414876792 121.9557522123796,120.88778969614941 121.26548672566423,120.98881903612346 120.85398230084684,121.08984832343413 120.64159292035038,121.10428107448388 120.15044247789774,121.1908775580523 120.07079646020429,121.21974304399919 119.63274336286122,121.29190674005076 119.55309734516777,121.30633947599563 119.39380530978087,121.29190674005076 118.87610619474435,121.36407040913764 118.7035398230073,121.42180132509384 117.74778761062771,121.5372631054488 117.66814159293426,121.58056125529401 117.60176991153276,121.63829210677068 117.26991150440881,121.8259172551916 117.16371681418968,121.92694610606122 116.31415929208742,122.05684026540257 115.59734513272997,122.10013829916716 115.39823008852545,122.12900364965026 115.06637168145971,122.12900364965026 114.44247787614586,122.17230166730587 113.96460176992696,122.25889767357148 113.72566371684661,122.20116700702056 113.28761061950354,122.01354222196096 112.96902654872974,121.98467685429205 112.62389380531386,121.84034995139518 112.49115044245264,121.81148455792572 111.9336283185985,121.84034995139518 111.86725663719699,121.8259172551916 111.2300884956494,121.88364803357399 110.84513274341589,121.8980807254411 110.64601769909495,121.84034995139518 110.03539823007304,121.84034995139518 109.17256637167884,121.76818645963795 109.09292035398539,121.782619160178 108.9336283185985,121.73932105542917 108.30973451328464,121.79705185956846 107.06194690265693,121.59499396978936 106.47787610616069,121.60942668317875 106.29203539824812,121.58056125529401 106.21238938055467,121.59499396978936 105.8407079646131,121.58056125529401 105.11061946902191,121.47953222386423 104.95132743369322,121.47953222386423 104.28761061944533,121.45066677665454 104.1150442478247,121.40736859774916 103.90265486721182,121.42180132509384 103.7035398230073,121.37850313974195 103.39823008852545,121.2486085256678 103.22566371684661,121.23417578534281 103.1592920353869,121.2486085256678 103.02654867258389,121.43623405141989 102.89380530972267,121.7248883516877 102.78761061950354,121.8980807254411 102.66814159293426,121.97024416885688 102.33628318586852,121.98467685429205 101.69911504432093,121.97024416885688 101.12831858405843,121.8980807254411 100.42477876105113,121.8980807254411 100.11946902656928,121.85478264652193 100.05309734516777,121.79705185956846 99.66814159293426,121.26304126482864 99.5884955751826,121.23417578534281 99.44247787608765,121.23417578534281 99.2964601769927,121.27747400294174 99.12389380537206,121.29190674005076 98.5663716814015,121.26304126482864 98.39380530978087,121.21974304399919 98.11504424776649,121.26304126482864 97.87610619468614,121.2486085256678 97.80973451322643,121.27747400294174 97.19911504426273,121.21974304399919 97.00000000005821,121.21974304399919 96.7743362832116,121.13314657329465 96.08407079649623,121.07541557132208 95.72566371684661,121.00325179466745 95.38053097348893,120.90222246221674 94.94247787608765,120.87335692899069 94.80973451328464,120.78676030348288 94.33185840706574,120.68573085815297 93.7743362832116,120.62799972288485 93.69469026551815,120.59913414876792 93.42920353985392,120.57026857038727 93.26991150440881,120.51253740068933 93.11061946908012,120.51253740068933 92.52654867258389,120.42594061396085 92.23451327439398,120.35377659538062 92.07522123894887,120.42594061396085 91.83628318586852,120.45480621379102 91.75663716811687,120.44037341441435 91.11946902656928,120.33934378846607 90.98672566376626,120.2383141098253 90.8407079646131,120.19501565999235 90.49557522131363,120.15171720048238 90.12389380531386,120.06512025241682 89.4336283186567,120.00738893223752 88.86283185845241,119.8630605564831 88.45132743363502,119.87749339891889 88.17256637167884,119.77646347942937 87.58849557529902,119.66100064982311 87.25663716811687,119.63213493164221 87.00442477880279,119.54553775140084 86.3407079646131,119.48780627640372 86.20796460181009,119.41564190843201 86.12831858405843,119.27131309188553 86.12831858405843,119.11255126947071 86.19469026545994,118.88162475013814 83.95132743363502,119.11255126947071 83.47345132741611,119.02595385698078 82.84955752216047,118.98265513620572 82.62389380537206,118.92492349348322 82.35840707970783,118.89605766563909 82.02654867258389,118.79502723438782 81.46902654867154,118.7084296799585 81.40265486727003,118.67956381989643 80.63274336280301,118.60739915088925 80.5663716814015,118.57853327576595 80.16814159293426,118.52080151262635 80.00884955754736,118.46306973222818 79.74336283188313,118.44863678446563 79.59734513272997,118.4053379346733 79.26548672566423,118.39090498258884 78.86725663719699,118.31874020605756 78.69469026551815,118.31874020605756 78.24336283188313,118.23214243876282 78.00442477880279,118.17441057236283 77.60619469027733,118.17441057236283 77.19469026545994,118.11667868879158 76.83628318592673,118.11667868879158 76.26548672572244,118.05894678801997 76.13274336280301,118.07337976479903 75.94690265489044,118.05894678801997 75.86725663713878,118.08781274055946 75.69469026551815,118.0445138101204 75.37610619468614,118.05894678801997 75.05752212397056,118.11667868879158 74.96460176992696,118.08781274055946 74.53982300887583,118.0445138101204 74.46017699118238,118.01564785113442 73.96902654872974,117.98678188781196 73.7964601769927,117.92904994833225 73.0,117.94348293481744 73.33185840706574,117.87131799163762 73.53097345132846,117.74142102616315 73.62389380531386,117.61152397362457 73.7035398230073,117.61152397362457 73.7300884956494,117.69812201835157 73.7964601769927,117.68368901357462 73.7964601769927,117.61152397362457 73.7300884956494,117.6548230008193 73.76991150440881,117.71255502202257 73.83628318586852,117.71255502202257 73.84955752216047,117.6548230008193 73.7964601769927,117.62595698377118 73.75663716817508,117.68368901357462 73.7035398230073,117.81358601775719 73.66371681418968,118.030080831144 73.7035398230073,118.7084296799585 73.75663716817508,118.93935640575364 73.7300884956494,119.06925256807881 73.76991150440881,119.47337340493686 73.75663716817508,119.73316492639424 73.78318584075896,120.29604536120314 73.76991150440881,120.38264220605197 73.87610619474435,121.04655006389658 73.8628318583942,121.46509950078325 73.88938053097809,121.68159023404587 73.8628318583942,121.92694610606122 73.87610619474435,122.28776300036407 73.83628318586852,122.44652222107106 73.90265486727003,123.2980467301677 73.88938053097809,123.50010284401651 73.90265486727003,123.90421443966625 73.87610619474435,123.97637713588483 73.88938053097809,124.7557325429807 74.00884955748916,124.94335467283963 74.07522123894887,124.98665206164878 74.14159292040858,124.95778713685286 74.12831858405843,124.87119233670819 74.06194690265693,124.842327394741 74.00884955748916,124.87119233670819 73.92920353985392,124.88562480610562 73.88938053097809,124.92892220780777 73.82300884957658,124.95778713685286 73.78318584075896,125.01551698210824 73.71681415929925,125.0299494407518 73.62389380531386,124.90005727438256 73.61061946908012,124.82789492214215 73.65044247789774,124.77016502096376 73.7964601769927,124.7268675837986 73.87610619474435,124.7268675837986 74.08849557524081,124.61140770406928 74.23451327439398,124.5681102314702 74.44690265489044,124.43821775553806 75.33628318581032,124.01967474076082 75.62831858411664,123.90421443966625 75.69469026551815,123.84648426334024 76.05309734510956,123.65886107140977 76.4778761062189,123.50010284401651 76.61061946908012,123.41350739246991 76.71681415935745,123.3846422333445 76.87610619468614,123.3846422333445 77.28761061950354,123.3124793167517 77.51327433635015,123.2980467301677 77.92477876110934,123.3124793167517 78.25663716817508,123.2980467301677 78.62831858405843,123.35577706995537 79.07964601775166,123.3702096521738 79.87610619474435,123.47123769782775 80.28761061950354,123.50010284401651 80.52654867258389,123.57226569078921 80.73893805313855,123.5578331235738 80.80530973454006,123.60113082197495 80.87168141594157,123.58669825689867 80.93805309734307,123.62999594882422 80.9778761062189,123.71659130362968 81.0442477876204,123.77432151869289 81.1371681416058,123.90421443966625 81.37610619474435,124.04853980529879 82.34513274335768,124.40935274903313 82.43805309740128,124.4237852528313 82.50442477880279,124.40935274903313 82.71681415929925,124.45265025715344 82.94247787608765,124.45265025715344 83.64601769909495,124.65470516703499 83.72566371684661,124.62584019282076 83.80530973454006,124.65470516703499 83.89823008852545,124.65470516703499 84.15044247789774,124.71243510262866 84.48230088502169,124.842327394741 84.54867256642319,124.82789492214215 84.88053097348893,124.94335467283963 84.97345132741611,124.94335467283963 85.0663716814015,124.95778713685286 85.13274336280301,125.00108452243148 85.33185840706574,125.01551698210824 86.19469026545994,125.23200374869339 86.7256637167884,125.40519298783329 86.93805309740128,125.44849027341115 87.6814159292262,125.6938413757016 88.33185840712395,125.85259780581691 89.26106194686145,126.12681315139343 89.32743362832116,126.12681315139343 89.79203539824812,126.28556922679127 90.19026548677357,126.35773103623069 90.72123893810203,126.51648692239542 91.58407079649623,126.68967501356383 92.03539823013125,126.73297201216337 92.60619469027733,126.761836672551 93.56194690265693,126.891727590948 94.21238938055467,126.94945686006395 94.38495575223351,126.94945686006395 95.1814159292262,127.0504830396967 95.36725663719699,127.0504830396967 95.44690265489044,127.09377995766408 95.68584070797078,127.10821226151893 95.9115044248174,127.18037376462598 96.37610619468614,127.19480606201978 96.65486725664232,127.23810294775467 96.89380530972267,127.29583211372665 97.73008849559119,127.39685811274103 97.98230088496348,127.39685811274103 98.44690265489044,127.46901950839674 98.95132743363502,127.49788405909203 99.34955752216047,127.58447768550832 100.14601769915316,127.67107127318741 100.23893805308035,127.65663901122753 100.96902654872974,127.77209707659495 101.59292035398539,127.82982608347083 101.75221238937229,127.85869058046956 101.80530973454006,127.91641956153035 102.42920353985392,127.9885807637038 102.66814159293426,127.9885807637038 102.90707964601461,127.94528404560697 103.05309734516777,127.97414852543443 103.14601769909495,128.0174452370411 103.29203539824812,128.03187747210904 103.46460176992696,128.07517417085182 103.76991150446702,128.07517417085182 104.10176991153276,128.10403863129613 104.52654867258389,128.03187747210904 104.59292035398539,128.00301300092542 105.08407079643803,128.0896064015833 105.32300884957658,128.04630970607104 105.65486725664232,128.0607419390144 106.5442477876204,128.13290308741853 106.67699115048163,128.17619976357673 107.10176991153276,128.1473353139154" stroke="#4dd2ff" stroke-linecap="round" stroke-linejoin="round" stroke-width="0.5"><title>2023-04-01 11.2km</title></polyline><polyline fill="none" points="186.97207498384523,118.10235029447358 186.99301874596858,118.18584840239782 186.98603749193717,118.23898352638207 187.0,118.40597944988258 186.97905623787665,118.45152374514873 186.97905623787665,118.55020298169984 186.95113122172188,118.62611002172343 186.93716871362994,118.71719839509024 186.96509372981382,118.77033324195509 186.93018745962763,118.89937489752629 186.93716871362994,119.02082571818755 186.9162249515066,119.1043230734067 186.93018745962763,119.25613627124403 186.90924369747518,119.29408953535312 186.9162249515066,119.47626500630577 186.93018745962763,119.52939945730031 186.9232062055671,119.61289639575261 186.93716871362994,119.68880264407198 186.9232062055671,119.76470883582806 186.9162249515066,120.00760826945043 186.89528118941234,120.0759236308295 186.8813186813204,120.20496363291022 186.8813186813204,120.36436576280539 186.95113122172188,120.51617708325648 186.99301874596858,120.77425580892304 186.73471234648605,120.82738958306436 186.65093729802174,120.85775172727153 186.56018099546782,120.86534226191725 186.343762120232,120.91847598856111 186.23904330964433,120.95642863350076 186.21809954752098,120.98679073927633 186.12734324499615,121.0019717887626 185.96677440209896,121.00956231264718 185.5339366516273,121.10064855532983 185.44318034907337,121.1082390718584 185.29657401426812,121.18414420622139 185.170911441528,121.22209675220802 184.99638009053888,121.22968725971441 184.83581124761258,121.2752302928202 184.58448610216146,121.31318280488631 183.7886231415905,121.48017369001172 183.41163542342838,121.54848806413065 183.34880413705832,121.56366902993614 183.1742727860692,121.5864404744134 183.1393665158539,121.60162143456546 183.03464770523715,121.60162143456546 182.87407886233996,121.62439287055167 182.79728506787797,121.65475477729342 182.54595992245595,121.647164301452 182.39237233359017,121.69270714799495 182.21085972854053,121.68511667499843 182.1201034260157,121.70788809232909 181.7919844861317,121.72306903438584 181.74311570782447,121.74584044323274 181.58254686492728,121.76102137965063 181.12178409827175,121.79138324567612 181.0659340659331,121.7837927799992 180.8146089205111,121.7837927799992 180.64007756952196,121.80656417529099 180.31195862960885,121.82174510265031 180.23516483517596,121.83692602776864 180.0047834518482,121.81415463926533 179.9210084033839,121.82174510265031 179.641758241778,121.82174510265031 179.2717517776473,121.85969741115696 178.97853910794947,121.86728787117318 178.65740142209688,121.8900592478094 178.47588881707634,121.8976497055337 178.18965740143904,121.88246878948848 177.62417582416674,121.88246878948848 177.58228829994914,121.87487833060732 177.4845507433929,121.81415463926533 177.4007756948995,121.80656417529099 177.23322559794178,121.83692602776864 176.9958629605826,121.82174510265031 176.90510665802867,121.8293355654896 176.7166127989767,121.76102137965063 176.43736263737082,121.72306903438584 176.28377504847595,121.71547856363759 176.19301874595112,121.7306595045593 176.0603749192087,121.73824997418706 175.87188106012763,121.7002976204385 175.83697478991235,121.70788809232909 175.71829347123276,121.7002976204385 175.68338720104657,121.68511667499843 175.5297996121517,121.66234525256732 175.43904330962687,121.66993572726642 175.15281189401867,121.6395738250576 174.83167420816608,121.6319833480884 174.6780866192712,121.57125951198395 174.64318034908501,121.54848806413065 174.517517776374,121.54089758038026 174.4756302521273,121.51812612570939 174.23826761476812,121.4498117312396 174.09864253396518,121.38149729096767 173.97297996125417,121.33595430533023 173.84033613448264,121.31318280488631 173.77052359408117,121.34354480435286 173.7007110536797,121.4498117312396 173.5401422107534,121.4649927117498 173.4982546865358,121.48017369001172 173.36561085973517,121.48776417828049 173.34466709761182,121.51812612570939 173.2957983193628,121.54089758038026 173.03749191988027,121.57884999350063 172.93975436329492,121.5864404744134 172.79314802846056,121.6319833480884 172.74427925018244,121.6319833480884 172.69541047190432,121.57125951198395 172.6465416936262,121.54848806413065 172.49993535879184,121.54848806413065 172.45804783454514,121.48776417828049 172.36729153202032,121.47258320116089 172.25559146737214,121.42704025623243 172.12294764060061,121.41185927007609 172.04615384616773,121.37390679476812 171.92049127345672,121.35872580069554 171.65520361991366,121.38908778658515 171.35500969618442,121.38149729096767 171.22934712347342,121.35113530279341 171.1036845507624,121.35113530279341 170.99198448611423,121.31318280488631 170.92217194571276,121.30559230361541 170.6080155139207,121.24486827301007 170.4893341952411,121.26004928405746 170.37763413056382,121.32077330560423 169.97272139627603,121.25245877882116 169.88894634778262,121.26004928405746 169.6725274725468,121.23727776663873 169.44214608921902,121.19932522632007 169.25365223013796,121.19173471655085 168.84175824176054,121.1234201032712 168.75100193923572,121.1234201032712 168.68118939886335,121.14619164611213 168.45080801550648,121.10064855532983 168.22042663220782,121.077877002288 168.05985778928152,121.0247433587574 167.8434389140457,121.00956231264718 167.6898513251508,120.9488381056508 167.396638655453,120.8805233295061 166.92191338073462,120.83498011998017 166.88700711054844,120.81979904560285 166.80323206205503,120.83498011998017 166.48907563026296,120.76666526750341 166.3843568196462,120.72871255187783 166.23775048481184,120.72112200707488 166.15397543631843,120.70594091573003 165.8537815126183,120.67557872628822 165.818875242403,120.66039762817672 165.7769877181854,120.65280707825877 165.70717517775483,120.66039762817672 165.5675500969519,120.63003542515798 165.48377504845848,120.63762597675668 165.44188752424088,120.61485432025802 165.29528118940652,120.59208265865891 165.22546864897595,120.56931099196663 165.18358112475835,120.56931099196663 165.10678733029636,120.54653932019573 164.9601809954911,120.53894876181585 164.6809308338852,120.49340539959667 164.5552682611451,120.49340539959667 164.38073691015597,120.4402714513053 164.17828054301208,120.42509031810914 163.95488041371573,120.36436576280539 163.88506787334336,120.37195633419469 163.71053652232513,120.33400347158022 163.64072398192366,120.34918461830966 163.48713639305788,120.31123174722597 163.3754363283806,120.30364117130375 163.2986425339477,120.28086944015377 163.17996121526812,120.26568828322343 163.09618616677471,120.24291654359695 162.85882352941553,120.21255421618116 162.70523594054976,120.15182953420299 162.58655462187016,120.14423894639913 162.3561732385424,120.10628599896881 162.18862314158469,120.09110481601965 162.0699418229051,120.06833303737949 161.98616677441169,120.06833303737949 161.93031674210215,120.08351422371197 161.85352294766926,120.06074244336924 161.76974789917585,120.06074244336924 161.44162895929185,120.00001767091453 161.35785391082754,119.96965527111752 161.07162249516114,119.93929286226194 160.94595992242103,119.94688346533076 160.82029734973912,119.9241116544581 160.65972850681283,119.94688346533076 160.25481577246683,119.90133983849228 160.14311570784776,119.90893044436962 160.08726567550912,119.88615862500592 159.9965093729843,119.90133983849228 159.93367808661424,119.89374923204014 159.85688429218135,119.90133983849228 159.81499676793464,119.90893044436962 159.78707175177988,119.9241116544581 159.62650290885358,119.9241116544581 158.9842275371775,119.82543374851957 158.8655462184979,119.79507129669219 158.7817711700045,119.78748068231653 158.67007110538543,119.80266191049304 158.63516483517014,119.78748068231653 158.51648351649055,119.78748068231653 158.35591467356426,119.76470883582806 158.2511958629766,119.7571182191823 158.09760827408172,119.71157450752071 158.02081447964883,119.71157450752071 157.5949579832086,119.65844015151379 157.29476405947935,119.65084952698089 157.1551389786764,119.62807764994795 156.90381383322529,119.55976198828284 156.49191984487697,119.50662755312078 156.4570135746617,119.48385564385535 156.40814479635446,119.38517731153843 156.23361344536534,119.32445213646133 156.15681965093245,119.32445213646133 156.12191338074626,119.33204278532503 156.0590820943762,119.38517731153843 155.98926955397474,119.39276795589103 155.50756302522495,119.31686148702283 155.38888170654536,119.32445213646133 155.27020038786577,119.29408953535312 155.165481577249,119.29408953535312 154.963025210076,119.23336430598283 154.78151260502636,119.21818299299775 154.4673561732343,119.14986705651245 154.3486748545547,119.14227639407181 154.32074983837083,119.11950440337387 154.306787330308,119.08914174119127 154.3486748545547,118.86142148639192 154.3486748545547,118.81587737434165 154.32773109243135,118.77792393209529 154.16018099544453,118.74756116812205 154.0205559146707,118.68683561301441 153.86696832580492,118.69442630937556 153.7831932773115,118.70960770042439 153.71338073691004,118.68683561301441 153.51790562379756,118.70960770042439 153.46903684551944,118.70960770042439 153.42714932127274,118.68683561301441 153.2037491920055,118.68683561301441 153.1269553975435,118.70960770042439 153.0920491273573,118.70960770042439 152.9244990304287,118.73997047571174 152.63128636070178,118.90696557804768 152.58241758245276,118.95250964938168 152.45675500971265,118.99046302660281 152.42184873952647,119.01323504614265 152.37297996121924,119.08155107423227 152.33109243697254,119.32445213646133 152.28920491275494,119.39276795589103 152.20542986429064,119.46867436819593 152.17052359407535,119.49144628083741 152.03787976730382,119.48385564385535 151.96108597287093,119.49144628083741 151.91919844862423,119.50662755312078 151.67485455720453,119.50662755312078 151.51428571427823,119.48385564385535 151.44447317390586,119.50662755312078 151.16522301229998,119.48385564385535 151.0535229476518,119.49903691727377 150.90691661281744,119.57494325040898 150.66257272139774,119.57494325040898 150.62766645121155,119.56735261962604 150.5648351648415,119.52939945730031 150.49502262444003,119.56735261962604 150.46011635425384,119.55217135640123 150.42521008403855,119.56735261962604 150.31351001939038,119.57494325040898 150.25765998708084,119.52939945730031 150.21577246283414,119.52939945730031 150.0412411118159,119.54458072394482 149.94350355525967,119.55976198828284 149.89463477701065,119.57494325040898 149.82482223658008,119.63566827617615 149.73406593408436,119.79507129669219 149.66425339365378,119.98483647214744 149.66425339365378,120.11387658957392 149.70614091790048,120.18978246468032 149.7899159663939,120.26568828322343 149.94350355525967,120.33400347158022 149.97840982547496,120.37195633419469 149.97840982547496,120.44786201703391 149.9574660633807,120.48581483725138 149.94350355525967,120.53135820286116 149.85274725276395,120.63762597675668 149.76199095023912,120.70594091573003 149.63632837752812,120.75907472550898 149.4687782805413,120.75907472550898 149.29424692955217,120.6983503692245 149.16858435681206,120.67557872628822 149.0987718164397,120.64521652779513 148.42857142857974,120.43268088499462 148.31687136393157,120.36436576280539 148.27498383968486,120.30364117130375 148.23309631543816,120.28086944015377 148.19120879119146,120.21255421618116 148.15630252100527,120.19737304909358 148.07950872657239,120.17460129418032 147.70950226244167,120.12146717964788 147.6327084680088,120.09869540778163 147.5559146735468,120.05315184879146 147.50704589529778,120.06074244336924 147.30458952812478,119.98483647214744 147.21383322557085,119.93929286226194 146.948545572086,119.84061497102084 146.91363930187072,119.81025252372638 146.72514544278965,119.74952760199812 146.5017453134933,119.71916512754979 146.20853264382458,119.71916512754979 146.07588881708216,119.74193698423187 145.97815126049682,119.74193698423187 145.8943762120325,119.76470883582806 145.87343244990916,119.79507129669219 145.71984486101428,119.72675574701134 145.6081447963661,119.70398388693138 145.34983839688357,119.72675574701134 145.1962508080178,119.71916512754979 144.9937944408448,119.68121202178008 144.21189398833667,119.66603077550099 144.07925016159425,119.64325890186592 143.96056884291465,119.63566827617615 143.72320620555547,119.65844015151379 143.36018099545618,119.63566827617615 143.19263089849846,119.64325890186592 143.15772462831228,119.63566827617615 143.0809308338794,119.65844015151379 142.94828700710787,119.62807764994795 142.77375565611874,119.61289639575261 142.5503555268515,119.63566827617615 142.42469295411138,119.61289639575261 142.33393665161566,119.62807764994795 142.21525533290696,119.62048702312313 142.13148028444266,119.64325890186592 141.74751131222,119.59771513932355 141.38448610214982,119.59012451022863 141.34957983193453,119.60530576781457 141.26580478347023,119.59771513932355 141.15410471882205,119.58253388058802 141.11919844860677,119.55976198828284 140.79107950872276,119.55976198828284 140.51182934711687,119.53699009089905 140.3163542340044,119.55217135640123 140.0371040723985,119.54458072394482 139.53445378149627,119.59771513932355 139.35992243050714,119.57494325040898 139.17142857142608,119.58253388058802 139.12255979314796,119.56735261962604 139.00387847446837,119.58253388058802 138.87821590172825,119.56735261962604 138.71764705880196,119.52180882315588 138.46632191337994,119.50662755312078 137.83102779573528,119.51421818841482 137.6006464124075,119.50662755312078 137.5587588881608,119.51421818841482 137.2306399482768,119.47626500630577 137.16082740787533,119.49144628083741 137.09101486747386,119.47626500630577 136.87459599223803,119.49903691727377 136.44873949579778,119.50662755312078 136.40685197155108,119.49144628083741 136.32307692308677,119.49903691727377 136.23232062053285,119.48385564385535 135.83438914024737,119.46867436819593 135.50627020039246,119.49903691727377 135.31079508725088,119.55217135640123 134.75927601807052,119.59771513932355 134.1449256625492,119.67362139893521 134.04020685196156,119.71157450752071 133.92850678731338,119.71916512754979 133.30019392372924,119.87097740928584 133.09773755655624,119.90893044436962 133.06981254037237,119.9241116544581 133.04886877824902,119.95447406783205 133.04886877824902,120.0227894648342 133.03490627018618,120.05315184879146 133.0,120.06833303737949" stroke="#4dd2ff" stroke-linecap="round" stroke-linejoin="round" stroke-width="0.5"><title>2023-03-18 12.0km</title></polyline><polyline fill="none" points="67.0,172.15295837245503 66.93460207612952,172.15295837245503 66.88788927340647,172.13264123322006 66.77577854675474,172.15295837245503 66.62629757786635,172.23422689904692 66.55155709339306,172.31549537721003 66.50484429067001,172.40692235720053 66.29930795851396,172.6812029293069 66.2432525951881,172.7116785143662 66.12179930799175,172.83358078645688 65.95363321801415,172.8945318816186 65.87889273359906,172.97579996613786 65.77612456749193,173.03675099769316 65.62664359860355,173.18912845742307 65.48650519031798,173.40245661488734 65.45847750868415,173.51419980221544 65.36505190312164,173.5446752010539 65.46782006922876,173.65641827183572 65.33702422148781,173.60562597829266 65.23425605538068,173.63610135669296 65.20622837374685,173.7884781464454 65.17820069205482,173.8291119283167 65.17820069205482,173.87990413857915 65.21557093429146,173.99164693454804 65.18754325259943,174.15418174703518 65.19688581314404,174.40814200357272 65.1595155709656,174.6214682534919 65.19688581314404,174.7738439418681 65.21557093429146,175.12938655250036 65.15017301042099,175.47476991498843 65.09411764709512,175.6474612680904 65.13148788933177,175.79983580976113 65.0754325260059,176.06395127856376 65.05674740480026,176.29759145909338 65.06608996540308,176.63281362746784 65.03806228376925,176.74455416708952 65.06608996540308,176.9578767611747 65.03806228376925,177.14072443330224 65.03806228376925,177.31341367627465 65.12214532872895,177.64863334703114 65.04740484431386,177.8213219467143 65.04740484431386,177.97369405888458 65.0006920415326,178.0752753724082 65.01003460207721,178.4815998697086 65.0006920415326,178.5425484398802 64.97266435989877,178.58318080484605 64.96332179935416,178.5323903467288 64.96332179935416,178.5933388941994 64.9166089965729,178.50191606281442 64.86055363324704,178.51207415819954 64.84186851209961,178.61365507062146 64.84186851209961,179.07076824004616 64.78581314877374,179.58882797950355 64.80449826992117,180.29988716224761 64.7484429065953,180.51320419403055 64.75778546713991,180.60462567692593 64.71107266435865,180.86873183876014 64.72975778550608,181.33599533360393 64.69238754326943,182.0572032371565 64.72041522490326,182.0978345548574 64.70173010381404,182.13846586044383 64.68304498272482,182.6666717314074 64.61764705885435,183.02219376184803 64.61764705885435,183.73323504229484 64.54290657443926,184.3325383852498 64.56159169552848,184.3731690250279 64.54290657443926,184.6982137076193 64.57093425607309,185.34830074873753 64.52422145329183,185.93743945324968 64.53356401383644,186.03901483475784 64.52422145329183,186.15074766706675 64.47750865051057,186.24216537083703 64.4214532871847,186.82114273863408 64.38408304500626,186.91255999309942 64.38408304500626,187.0039771863012 64.34671280276962,187.18681138886313 64.31868512113579,187.58295132034982 64.34671280276962,187.77594215222052 64.45882352942135,187.79625696074072 64.496193771658,187.8165717662414 64.496193771658,187.86735876677994 64.44013840833213,187.86735876677994 64.46816608996596,187.8165717662414 64.496193771658,187.85720136816963 64.46816608996596,187.71499770849914 64.53356401383644,187.51184936606296 64.59896193770692,187.44074737472693 64.59896193770692,187.38996021539788 64.53356401383644,187.15633903878188 64.47750865051057,187.11570922809187 64.37474048446165,187.14618158724625 64.3280276816804,187.1360241349248 64.36539792391704,187.1664964895608 64.68304498272482,187.1360241349248 64.75778546713991,187.11570922809187 65.1688581315102,187.1360241349248 65.38373702421086,187.08523686213448 65.48650519031798,187.04460703026416 65.60795847757254,187.0547644893595 65.72006920416607,187.01413464843063 65.90692041523289,186.99381972340052 66.06574394466588,187.0039771863012 66.11245674744714,186.96334733020922 66.11245674744714,186.91255999309942 66.14048442908097,186.86177263705758 66.0003460207954,186.8820875817546 65.86020761250984,186.8820875817546 65.7574394463445,186.84145768937015 65.71072664362146,186.8109852621419 65.68269896192942,186.75004038724728 65.64532871969277,186.53673311068997 65.58927335642511,186.52657561303204 65.54256055364385,186.49610311543802 65.43979238753673,186.4859456147169 65.05674740480026,186.53673311068997 64.82318339101039,186.59767808089964 64.76712802768452,186.63830804589088 64.60830449825153,186.6586230238463 64.56159169552848,186.68909548511874 64.51487889274722,186.70941045554355 64.47750865051057,186.6586230238463 64.4121107266983,186.62815055579995 64.36539792391704,186.64846553525422 64.30934256059118,186.62815055579995 64.28131487889914,186.58752058774553 64.16920415230561,186.57736309386382 63.96366782009136,186.63830804589088 63.71141868515406,186.67893799879675 63.27231833914993,186.6992529707204 62.85190311417682,186.76019786827237 62.60899653978413,186.76019786827237 62.35674740484683,186.79067030685837 61.945674740476534,186.90240252341027 61.70276816614205,186.92271746203187 61.656055363302585,186.91255999309942 61.57197231834289,186.84145768937015 61.310380622860976,186.78051282810338 60.69377162627643,186.75004038724728 60.63771626295056,186.76019786827237 60.29204152250895,186.75004038724728 59.993079584790394,186.77035534856986 59.82491349481279,186.76019786827237 59.31107266433537,186.6992529707204 59.198961937683634,186.70941045554355 59.04948096885346,186.68909548511874 58.92802768165711,186.6992529707204 58.64775086508598,186.66878051170352 58.544982698978856,186.62815055579995 58.42352941178251,186.62815055579995 58.311418685130775,186.61799306490138 58.18996539793443,186.6586230238463 58.068512110738084,186.61799306490138 57.71349480969366,186.63830804589088 57.60138408310013,186.66878051170352 57.237024221452884,186.6586230238463 56.76055363321211,186.75004038724728 56.51764705881942,186.73988290545094 56.4148788927705,186.76019786827237 56.26539792388212,186.73988290545094 54.82664359861519,186.77035534856986 54.57439446367789,186.73988290545094 53.74290657439269,186.77035534856986 52.66851211077301,186.71956793958816 52.49100346019259,186.73988290545094 51.949134948139545,186.71956793958816 51.77162629761733,186.70941045554355 51.56608996540308,186.60783557328978 51.20173010387225,186.60783557328978 51.09896193770692,186.57736309386382 50.884083045006264,186.58752058774553 50.837370242225006,186.62815055579995 50.77197231835453,186.63830804589088 50.61314878897974,186.64846553525422 49.87508650519885,186.51641811457375 49.64152249135077,186.52657561303204 49.26782006921712,186.4859456147169 49.16505190311,186.49610311543802 48.98754325264599,186.47578811326093 48.641868512146175,186.51641811457375 48.47370242216857,186.47578811326093 48.25882352940971,186.47578811326093 48.1653979239054,186.4859456147169 48.04394463665085,186.46563061104825 47.93183391005732,186.4859456147169 47.62352941179415,186.4859456147169 47.51141868514242,186.50626061539515 47.18442906579003,186.45547310806433 47.034948096901644,186.40468558184511 46.82006920414278,186.29295295758493 46.54913494811626,186.31326798698137 46.446366782009136,186.35389803669386 45.78304498270154,186.28279544172983 45.315916955063585,186.2320078512421 44.81141868518898,186.14059014061786 44.260207612474915,186.07964496617205 44.16678200697061,186.03901483475784 43.98927335644839,186.0288573000289 43.36332179931924,185.95775453560782 43.19515570939984,185.98822715346614 42.92422145331511,185.90696682404086 42.550519031181466,185.85617909360008 42.23287197231548,185.7952337920724 41.9152249135077,185.77491868547077 41.55086505191866,185.7038157887 41.11176470591454,185.66318554533063 40.579238754406106,185.60224015756103 40.48581314878538,185.6327128548437 40.43910034606233,185.73428846329625 40.56989619380329,185.82570644623775 40.61660899652634,185.82570644623775 40.653979238821194,185.85617909360008 40.625951557129156,185.8968092794821 40.51384083047742,185.90696682404086 40.48581314878538,185.947596994818 40.28027681662934,185.92728191096103 40.18685121106682,185.95775453560782 40.14013840834377,185.947596994818 40.093425605562516,185.9679120756482 40.00934256060282,186.05932990198926 39.859861591714434,186.14059014061786 39.71038062282605,186.13043261344865 39.58892733568791,186.07964496617205 39.47681660903618,185.90696682404086 39.47681660903618,185.83586399610795 39.61695501732174,185.947596994818 39.8318339100224,185.95775453560782 39.87854671286186,185.98822715346614 39.92525951558491,185.9780696149246 40.102768166107126,186.19137776519347 40.1681660899776,186.22185033086134 40.3269896194106,186.20153528783703 40.420415224914905,186.13043261344865 40.4951557093882,185.9171243678793 40.51384083047742,185.81554889558174 40.45778546715155,185.7850762391463 40.364359861647245,185.61239772407134 40.26159169554012,185.57176745347533 40.14948096888838,185.5616098839164 39.96262975782156,185.50066445076664 39.81314878893318,185.4803493003128 39.76643598615192,185.4905068759399 39.336678200692404,185.4295614109942 39.10311418690253,185.40924624996842 38.3276816609432,185.1857792789524 38.05674740485847,185.13499127991963 37.53356401389465,184.95215432684927 37.47750865056878,184.9623119417738 37.393425605550874,184.92168147749908 37.02906574396184,184.8302628886231 36.851557093439624,184.75915949935006 36.1602076124982,184.5864796853566 35.65570934256539,184.4442726155321 35.60899653978413,184.41379965273518 35.50622837373521,184.4036419969343 35.15121107263258,184.2512770693429 34.861591695516836,184.19033105066774 34.4131487889681,183.96686208240135 33.9927335640532,183.87544285350305 33.749826989660505,183.8449697635806 33.60968858131673,183.81449666685512 33.553633217990864,183.78402356331208 32.86228373704944,183.67228879208415 32.684775086527225,183.61134251464682 32.62871972320136,183.6011847990958 32.44186851213453,183.46913442803634 32.22698961937567,183.38787259765377 32.133564013871364,183.32692619313457 32.04013840830885,183.3370839291165 31.72249134950107,183.2558220200881 31.348788927367423,183.23550653525308 31.031141868501436,183.18471780991968 30.834948096890002,183.18471780991968 30.255709342542104,183.14408681607165 30.12491349480115,183.16440231451998 29.966089965426363,183.1339290657197 29.71384083048906,183.15424456567416 29.583044982748106,183.16440231451998 29.25605536333751,183.26597976134508 29.20934256055625,183.26597976134508 29.059861591726076,183.32692619313457 28.901038062293082,183.3370839291165 28.742214532918297,183.46913442803634 28.471280276833568,183.6011847990958 28.359169550181832,183.62150022943388 28.284429065766744,183.69260421182116 27.957439446414355,183.8449697635806 27.714532871963456,183.98717745829344 27.28477508656215,184.17001570502907 27.125951557129156,184.22080406339956 27.069896193803288,184.21064639325778 26.96712802775437,184.2512770693429 26.911072664428502,184.34269604632573 26.864359861589037,184.34269604632573 26.266435986210126,184.66774080153118 25.96747404843336,184.73884423846175 25.93010380625492,184.76931712867372 25.902076124562882,184.8708933801463 25.902076124562882,184.82010526383965 25.93010380625492,184.77947475721157 26.023529411817435,184.74900186927698 26.051557093451265,184.70837134146132 25.995501730125397,184.70837134146132 25.94878892734414,184.72868660688255 25.94878892734414,184.78963238500728 25.986159169580787,184.8302628886231 26.088927335687913,184.82010526383965 26.14498269901378,184.85057813587628 25.66851211077301,184.94199671116075 25.481660899706185,184.92168147749908 25.425605536380317,184.94199671116075 24.79031141870655,184.93183909469371 24.192387543269433,184.85057813587628 23.71591695508687,184.70837134146132 23.585121107287705,184.6575831646478 23.622491349466145,184.62711024948658 23.650519031158183,184.5052185207678 23.622491349466145,184.39348434041312 23.575778546743095,184.35285370665952 23.248788927332498,184.18017337822675 23.17404844291741,184.09891197153047 23.033910034631845,184.00749283115147 22.921799308038317,183.98717745829344 22.88442906574346,183.96686208240135 22.83771626302041,183.9567043933348 22.650865051953588,183.87544285350305 22.34256055369042,183.78402356331208 22.29584775090916,183.8043389664308 22.183737024199218,183.78402356331208 21.959515570953954,183.8043389664308 21.305536332190968,183.81449666685512 21.137370242213365,183.8043389664308 20.92249134951271,183.77386586061039 20.810380622860976,183.78402356331208 20.502076124597806,183.75355045295873 20.287197231838945,183.77386586061039 20.249826989660505,183.8043389664308 20.221799307968467,183.96686208240135 20.13771626300877,184.05828125004336 19.483737024245784,184.05828125004336 19.511764705879614,184.09891197153047 19.390311418741476,184.00749283115147 19.362283737049438,184.09891197153047 19.29688581317896,184.09891197153047 19.184775086527225,184.02780820096814 19.082006920478307,183.99733514508262 18.95121107273735,184.00749283115147 18.95121107273735,184.04812356777256 17.774048442952335,183.46913442803634 17.839446366822813,183.55039620996104 17.876816609001253,183.72307733580237 17.68062283738982,183.73323504229484 17.577854671282694,183.77386586061039 17.531141868559644,183.74339274800877 17.419031141907908,183.763708157152 17.250865051930305,184.42395730774297 17.297577854711562,183.8043389664308 17.250865051930305,183.82465436651546 17.204152249149047,183.7941812652425 17.185467128059827,183.8449697635806 17.026643598626833,183.89575824298663 16.970588235300966,183.9567043933348 16.867820069252048,183.94654670350428 16.755709342600312,183.9567043933348 16.699653979274444,183.94654670350428 16.447404844337143,183.99733514508262 16.26055363327032,184.10906965003232 16.101730103837326,184.1497003563927 16.04567474051146,184.1497003563927 15.802768166118767,184.22080406339956 15.70000000006985,184.27159240285255 15.531833910034038,184.22080406339956 15.382352941203862,184.24111940144212 15.223529411829077,184.20048872232292 14.840484429092612,184.24111940144212 14.747058823530097,184.21064639325778 14.60692041524453,184.2512770693429 14.513494809740223,184.20048872232292 14.569550173007883,184.20048872232292 14.541522491374053,184.1598580311038 14.513494809740223,184.20048872232292 14.466782006958965,184.1598580311038 14.513494809740223,184.17001570502907 14.550865051918663,184.13954268091766 14.59757785469992,184.1598580311038 14.662975778570399,184.13954268091766 14.700346020807046,184.11922732776293 14.821799308003392,184.08875429230102 14.87785467132926,184.05828125004336 14.887197231815662,183.99733514508262 14.85916955024004,183.9567043933348 14.709688581351656,183.92623132158042 14.56020761252148,183.9770197707403 14.457439446414355,183.9567043933348 14.420069204177707,183.98717745829344 14.205190311477054,184.04812356777256 13.99965397932101,184.00749283115147 13.887543252611067,184.0176505164418 13.85017301037442,183.98717745829344 13.607266435981728,183.89575824298663 13.457785467151552,183.75355045295873 13.345674740499817,183.68244650234556 13.252249134995509,183.56055392927374 13.130795847740956,183.32692619313457 13.093425605620723,183.29645298064133 13.065397923928685,183.12377131461108 13.0,182.99172048126638 13.028027681692038,182.8495117485072 13.009342560602818,182.7479339915153 13.149480968888383,182.27051751999534 13.261591695540119,182.08767672657996 13.336332179955207,182.0165719073775 13.616608996584546,181.84388862067863 13.700692041544244,181.78294152610033 13.756747404870111,181.77278367437975 14.09307958476711,181.63057367048896 14.149134948151186,181.48836351834325 14.05570934258867,181.45788989501307 13.962283737026155,181.478205644642 13.980968858115375,181.43757414235006 14.223875432566274,181.33599533360393 14.410726643633097,181.2953637889077 14.513494809740223,181.23441644918057 14.662975778570399,181.18362697858538 14.971280276833568,180.94999517026736 14.980622837436385,180.88904767618806 15.017993079673033,180.86873183876014 15.120761245721951,180.70620503047394 15.242214532918297,180.57415185609716 15.298269896244165,180.43194060221867 15.335640138422605,180.3913087881374 15.363667820056435,180.29988716224761 15.354325259570032,180.2389393775884 15.363667820056435,180.12720170162356 15.42906574398512,180.05609586013452 15.419723183382303,180.00530595068994 15.382352941203862,179.9646740094904 15.43840830452973,179.88341009077703 15.47577854670817,179.86309410353715 15.643944636743981,179.93420004565996 15.70934256061446,179.93420004565996 15.765397923940327,179.95451602232788 15.821453287207987,179.93420004565996 16.00830449827481,179.94435803435772 16.120415224926546,179.92404205619096 16.26055363327032,179.94435803435772 16.419377162703313,180.09672777410742 16.53148788929684,179.9951479665324 16.5782006920781,179.61930202052463 16.643598615948576,179.47708977078582 16.727681660908274,179.39582556150708 16.671626297582407,179.32471933866327 16.21384083048906,179.07076824004616 16.139100346015766,179.04029407641792 16.06435986160068,179.05045213173435 15.96159169555176,179.0809262930852 15.70934256061446,179.04029407641792 15.72802768170368,178.9488715447078 15.690657439467032,178.9082392886994 15.671972318377811,178.77618437309138" stroke="#4dd2ff" stroke-linecap="round" stroke-linejoin="round" stroke-width="0.5"><title>2023-02-25 12.5km</title></polyline><polyline fill="none" points="127.0,192.2945029460825 124.63749999925494,192.66150207538158 119.23750000074506,190.45950688561425 115.86250000074506,187.15651225438341 115.86250000074506,180.91751634702086 105.73750000074506,175.04551297752187 97.30000000074506,172.10950866620988 96.62499999813735,172.47650930052623 95.27500000037253,171.00850659701973 92.91249999962747,171.00850659701973 90.54999999888241,172.10950866620988 87.17499999888241,171.3755073142238 84.8125,171.74250800348818 79.07499999925494,168.8065017219633 78.06250000186265,169.17350260308012 78.73750000074506,170.27450508158654 79.41249999962747,169.54050345579162 76.03750000149012,167.33849792461842 74.34999999962747,167.70549891516566 73.0,169.17350260308012" stroke="#4dd2ff" stroke-linecap="round" stroke-linejoin="round" stroke-width="0.5"><title>2022-10-26 2.2km</title></polyline><polyline fill="none" points="187.0,185.83474674756872 186.9138068635948,185.03806700528366 186.78451715875417,184.85061280155787 185.70710295299068,184.4757042263518 185.44852354354225,184.24138625332853 184.58659217879176,183.96020457032137 184.15562649653293,183.67902276164386 183.68156424583867,184.00706819287734 182.73343974468298,183.86647731479025 182.13008778938092,183.4447044916451 181.91460494836792,183.49156815255992 181.69912210688926,183.39784082723781 181.31125299283303,182.97606768953847 181.05267358361743,182.50743053806946 180.75099760573357,182.41370306588942 180.53551476472057,182.50743053806946 179.37190742231905,182.13252056535566 179.11332801287062,182.2262480794452 178.25139664812014,181.28897230909206 177.77733439742588,180.679742309032 177.21707901032642,180.11737563094357 176.87230646470562,179.92991995974444 176.35514764580876,179.83619210321922 175.70869912207127,179.3675526107545 174.50199521146715,178.85204876569333 173.8555466879625,178.28968045231886 172.9074221868068,177.9147679640446 171.65762170776725,176.93062161811395 170.7094972068444,176.69630083243828 170.23543495615013,176.50884414109169 168.7701516363304,175.4778313388233 168.33918595360592,175.4778313388233 167.90822027157992,175.05605288693914 167.8651237031445,175.24351001169998 167.95131683978252,175.4778313388233 167.7789305667393,175.99333795136772 167.8220271349419,175.57155984541168 167.43415802088566,175.14978145627538 166.39984038309194,174.63427415199112 166.0981644054409,174.25935948325787 165.0207501994446,173.41580066108145 164.1588188346941,172.9002919346094 163.9433359936811,172.4316472710343 163.64166001579724,172.15046030504163 162.9952114925254,171.8692732132622 161.9608938547317,171.11944035370834 160.06464485242032,170.08841871120967 159.46129289711826,169.2448542911443 159.0734237828292,168.9168011553702 157.22027134895325,168.2138295734767 157.00478850770742,168.02637035225052 155.9704708699137,167.60458689986262 155.1085395051632,166.94847874483094 154.37589784525335,166.6672893257928 153.98802873119712,166.7141542377649 152.52274541114457,167.1828031645855 152.0917797286529,167.13593828765443 150.7988826816436,166.6204244105029 150.32482043118216,166.2455049615237 150.1524341579061,166.2923699048697 149.54908220260404,166.01118019229034 148.8595371111296,165.58939538762206 148.55786113324575,165.30820536066312 146.44612928968854,164.4177694451064 145.9289704710245,164.3240392752923 143.77414205903187,163.5273322678986 143.42936951317824,164.04284868214745 142.86911412607878,164.46463452471653 142.73982442147098,164.88642008422175 142.52434158022515,165.027015207801 141.57621707906947,165.30820536066312 140.9728651237674,165.82372031413252 140.8435754191596,166.2923699048697 141.40383080602624,169.2448542911443 141.23144453321584,170.46333586773835 141.10215482860804,170.65079436218366 140.88667198712938,170.69765897718025 138.8180367120076,170.55706512206234 137.48204309656285,170.2758773174137 136.6201117320452,169.94782471976941 136.01675977674313,169.38544843980344 134.59457302489318,168.7293421436916 134.24980047903955,168.9636658995296 133.34477254585363,169.38544843980344 133.0,169.8540953747579 133.0,170.36960659961915 133.43096568225883,171.4006277808803 134.68076616129838,173.22834299132228 134.9393455707468,173.18147856509313 135.41340782120824,172.7128341110656 135.97366320854053,172.3379182962817 136.49082202720456,172.29105380375404 137.43894652859308,172.52537623164244 137.74062250601128,172.38478278531693 138.21468475670554,172.52537623164244 138.8611332802102,173.22834299132228 139.33519553067163,174.86859570635715 139.9385474859737,176.1339305904694 141.01596169220284,177.6804475451354 141.01596169220284,178.2428164035664 141.70550678367727,178.47713661257876 143.34317637677304,179.6018724006717 144.2482043094933,179.74246423266595 145.15323224267922,179.46128053724533 146.0151636074297,178.80518475873396 146.40303272171877,178.28968045231886 146.74780526733957,178.1022242361214 148.16999201918952,179.03950475825695 148.81644054269418,179.6018724006717 148.9457302475348,179.88305603328627 148.64405426988378,181.57015518698609 148.81644054269418,182.0856568031013 148.9026336793322,183.16352245223243 149.50598563463427,184.24138625332853 150.32482043118216,185.03806700528366 151.22984836390242,185.08493054745486 152.35035913810134,184.7100221120636 153.81564245792106,183.7258864052128 154.0742218673695,183.4447044916451 154.54828411829658,183.25724981271196 155.36711891461164,184.14765903970692 156.01356743834913,185.08493054745486 156.09976057475433,185.27238468133146 155.9273743017111,185.9753371856059 156.40143655240536,187.24064971215557 156.6169193936512,187.28751309012296 157.69433359941468,187.05319616524503 158.85794094158337,187.146922945627 160.36632083007134,187.70928333490156 161.44373503583483,188.2716432212037 162.60734237846918,188.59968625579495 162.82282521948218,188.8340026041842 163.038308060728,189.34949826344382 162.9952114925254,189.77126712474274 163.21069433377124,190.42735145770712 163.2968874699436,191.3177505286294 163.253790901741,192.2081483383663 163.46927374321967,192.6299152817228 163.9433359936811,192.9579560420243 164.24501197156496,192.91109308670275 164.63288108538836,192.6299152817228 165.10694333608262,191.6926550232456 165.27932960889302,190.47421459818725 165.71029529138468,189.72440393199213 165.9257781326305,189.02145562012447 165.9257781326305,188.22477991651976 166.18435754207894,187.70928333490156 166.27055067848414,187.146922945627 166.18435754207894,186.7720157400472 166.48603351949714,186.0222006579279 167.13248204323463,185.55356577743078 167.60654429369606,185.50670227012597 167.95131683978252,185.27238468133146 168.81324820430018,185.2255211531883 169.0718276137486,184.99120345967822 169.1149241819512,184.42884063866222 169.58898643264547,183.16352245223243 169.8906624102965,181.80447415582603 170.14924181974493,181.24210848397342 170.14924181974493,180.72660617611837 169.50279329624027,180.21110344544286 169.028731045546,179.5550084496499 167.95131683978252,178.85204876569333 167.52035115729086,178.75832074834034 167.17557861143723,178.38340853946283 167.13248204323463,178.00849610712612 167.003192338394,177.49299114733003 167.39106145268306,176.93062161811395 167.60654429369606,175.75901681632968 166.65841979254037,174.7748670951114 166.31364724668674,174.58740983059397 165.71029529138468,173.884444590949 165.15003990428522,173.36893624893855 164.46049481257796,172.9471563817351 163.68475658423267,172.15046030504163 163.0814046289306,171.8692732132622 162.26256983261555,171.2600340830395 161.8747007183265,171.16630493372213 161.65921787708066,170.88511740165995 160.45251396647654,170.2758773174137 158.8148443736136,169.0105306401383 158.16839585010894,168.77620690187905 156.0566640063189,167.51085720548872 154.33280127681792,166.7141542377649 153.98802873119712,166.7141542377649 153.212290502619,166.80788405105704 152.69513168395497,166.94847874483094 151.9624900240451,167.0422085232567 150.41101356735453,166.43296471389476 149.37669592979364,165.7768553358037 149.0750199521426,165.72999035392422 148.29928172379732,165.91745026025455 147.60973663209006,165.87058528885245 146.27374301687814,165.26134034380084 144.63607342378236,164.69895987043856 144.07581803691573,164.65209480834892 142.69672785326838,164.93328512879089 141.66241021547467,165.21447532367893 140.9728651237674,165.4956653926638 140.67118914588355,165.87058528885245 140.58499600947835,166.2923699048697 141.40383080602624,169.15112484118436 141.1883479647804,170.60392974381102 140.7573822827544,171.16630493372213 140.24022346385755,172.4785117530264 140.06783719081432,173.18147856509313 140.02474062261172,174.54054550570436 140.58499600947835,176.04020216793288 141.36073423805647,176.88375746796373 141.70550678367727,177.6804475451354 142.0071827613283,178.05536017328268 141.9209896249231,178.19595235126326 141.01596169220284,178.47713661257876 139.55067837191746,179.3206886423868 139.37829209910706,180.11737563094357 139.11971268965863,180.4454229209805 139.24900239426643,181.05465314822504 139.98164405440912,181.94506549520884 140.49880287330598,182.8354765807744 141.49002394266427,185.3661117273732 141.53312051086687,186.30338141846005 141.10215482860804,187.6155566383386 140.67118914588355,188.03732666303404 140.28332003206015,188.22477991651976 138.990422984818,188.36536981991958 136.749401436653,188.45909640478203 136.40462889056653,188.88086586340796 136.36153232259676,189.6306775357807 136.44772545900196,190.38048831373453 136.96488427789882,190.70853024790995 137.86991221061908,191.08343510591658 138.8611332802102,191.83324415108655 140.15403032721952,192.25501134601654 140.45570630487055,192.44246334175114 140.7573822827544,193.19227076601237 141.44692737422884,194.3638430760475 141.44692737422884,194.64502010552678 141.6193136475049,195.1136482085567 141.9640861931257,195.30109935207292 142.48124501202255,196.0509033667622 143.256983240135,196.3789423419512 143.9465283320751,196.4726677321014 144.46368715097196,196.3789423419512 145.06703910627402,196.14462880580686 145.9289704710245,195.25423657143256 146.70470869913697,193.47344831965165 147.56664006388746,192.6767782580573 147.65283320029266,192.5361893188092 147.52354349568486,192.44246334175114 147.9545091779437,192.0675592943444 148.29928172379732,192.0206962726661 148.8595371111296,191.6926550232456 150.1524341579061,191.36461360263638 151.35913806874305,190.7553933673771 152.0917797286529,189.8649935000576 152.56584197934717,189.02145562012447 152.8675179569982,188.45909640478203 152.8675179569982,188.03732666303404 153.212290502619,187.4749665671843 154.20351157221012,187.3343764647725 154.80686352751218,187.5218299278058 155.1516360733658,187.5218299278058 156.0566640063189,187.24064971215557 156.40143655240536,187.28751309012296 156.7893056664616,187.146922945627 158.08220271370374,187.00633276969893 159.28890662430786,187.24064971215557 159.67677573836409,187.56869328476023 160.58180367108434,187.8030100176693 160.8834796489682,188.13105329679092 162.00399042316712,188.7871393415262 162.90901835588738,188.7871393415262 163.51237031118944,188.50595969188726 164.1157222664915,187.66241998842452 164.58978451718576,185.9753371856059 164.46049481257796,184.52256781049073 164.54668794898316,183.91334094427293 165.06384676788002,183.0229313853779 165.88268156419508,182.31997557968134 166.35674381488934,181.7107465787558 166.35674381488934,180.91406160971383 166.0981644054409,180.35169514117297 165.10694333608262,179.18009671603795 164.24501197156496,178.8989127689856 163.7709497208707,178.52400064404355 163.0814046289306,177.58671935321763 162.65043894667178,176.18079479661537 162.00399042316712,175.57155984541168 161.52992817247286,175.33723855298012 160.9265762171708,175.3841028183815 160.36632083007134,175.57155984541168 160.15083798882551,175.75901681632968 158.85794094158337,176.3213873936329 158.47007182775997,176.4151157743181 157.09098164411262,176.50884414109169 156.57382282521576,176.46197995945113 156.18595371115953,176.3213873936329 155.53950518742204,175.6652883377974 154.28970470861532,173.60325827490306 152.8244213887956,172.29105380375404 152.26416600169614,171.9630022579222 151.70391061459668,171.3068986525177 150.971268954454,170.13528336794116 150.84197925007902,169.38544843980344 150.71268954500556,169.15112484118436 150.75578611320816,168.7293421436916 150.62649640860036,168.63561261701398 150.28172386274673,168.49501830060035 149.54908220260404,168.82307165657403 148.77334397449158,168.9168011553702 148.21308858739212,169.104260111053 147.99760574637912,169.38544843980344 147.43735035927966,171.58808599581243 147.006384676788,172.85342748399125 147.39425379107706,174.91546000668313 147.0925778131932,177.1649423164199 147.48044692748226,178.00849610712612 147.9545091779437,178.52400064404355 148.34237829223275,178.75832074834034 149.0750199521426,179.64873634820106 149.0750199521426,180.11737563094357 148.9457302475348,180.8203338998719 148.51476456527598,181.6170189876575 148.60095770168118,182.7417491574888 148.81644054269418,183.35097715916345 149.41979249799624,183.96020457032137 149.54908220260404,184.42884063866222 149.9369513168931,184.85061280155787 150.45411013578996,185.1786576214363 151.9193934558425,184.9443399104639 152.43655227450654,184.7100221120636 153.03990423004143,184.3819770476548 154.11731843580492,183.49156815255992 154.63447725470178,183.35097715916345 155.49640861945227,184.4757042263518 155.8411811653059,184.8974763576989 156.0566640063189,186.0222006579279 156.44453312060796,186.72515232366277 156.746209098259,187.05319616524503 157.17717478051782,186.959469370835 157.30646448535845,187.05319616524503 157.65123703121208,187.00633276969893 157.65123703121208,187.05319616524503 157.9098164406605,187.00633276969893 158.38387869112194,187.146922945627 159.46129289711826,187.19378633075394 160.23703112523071,187.56869328476023 161.65921787708066,188.31850652227877 161.9608938547317,188.55282297555823 162.43495610519312,188.6465495324228 162.69353551464155,188.6934128056164 163.55546687939204,188.36536981991958 163.98643256211653,187.89673668623436 164.1588188346941,187.24064971215557 164.58978451718576,186.6314254802419 164.67597765359096,185.83474674756872 164.50359138078056,184.3351134529803 164.67597765359096,183.63215911458246 165.15003990428522,182.97606768953847 165.88268156419508,182.46056680369657 166.52913008793257,181.80447415582603 167.34796488424763,181.94506549520884 168.46847565844655,182.60115799627965 169.24421388679184,182.46056680369657 169.37350359139964,181.89820171881001 170.0199521149043,180.8203338998719 170.0199521149043,180.5860145642655 169.63208300084807,180.21110344544286 168.33918595360592,179.133232733584 167.56344772549346,178.85204876569333 167.13248204323463,178.52400064404355 167.26177174784243,177.9147679640446 166.9169992019888,177.58671935321763 166.8739026337862,177.39926292741438 167.47725458885543,176.93062161811395 167.9944134077523,175.6652883377974 168.20989624899812,175.52469559380552 168.42537909024395,175.57155984541168 168.81324820430018,175.3841028183815 169.50279329624027,175.8527452807757 169.8906624102965,175.9464737313101 170.40782122896053,176.36825158580905 170.8818834796548,176.46197995945113 171.39904229831882,176.64943666488398 171.70071827620268,176.93062161811395 172.51955307251774,177.1649423164199 172.8212290504016,177.63358345103916 173.38148443726823,178.1022242361214 174.8898643257562,178.99264076532563 175.14844373520464,179.27382467046846 175.57940941746347,179.3206886423868 176.01037509995513,179.5550084496499 176.69992019142956,179.64873634820106 176.743016759865,179.74246423266595 177.17398244212382,179.97678388276836 177.34636871516705,180.25796734762844 177.7342378294561,180.30483124620514 177.9928172386717,180.16423953993944 177.9497206704691,180.35169514117297 178.0359138068743,180.4454229209805 178.25139664812014,180.4454229209805 178.8116520352196,180.72660617611837 179.58739026356488,181.57015518698609 181.44054269744083,182.41370306588942 181.52673583407886,182.8354765807744 181.91460494836792,183.21038613427663 183.29369513178244,183.67902276164386 183.9832402234897,183.49156815255992 184.2849162009079,183.7258864052128 185.06065442948602,184.00706819287734" stroke="#4dd2ff" stroke-linecap="round" stroke-linejoin="round" stroke-width="0.5"><title>2022-10-25 10.5km</title></polyline><polyline fill="none" points="67.0,233.91008601577778 66.65583881578641,233.82558445562609 66.47820723685436,233.81351280058152 66.27837171050487,233.97044424604974 66.16735197370872,234.127375539465 66.15625,234.22394856758183 66.13404605264077,234.27223505999427 65.98972039471846,234.46538088590023 65.95641447365051,234.54988211230375 65.93421052629128,234.57402531176922 65.75657894735923,234.68266966476222 65.60115131578641,234.73095602045942 65.27919407899026,234.8999581521348 64.87952302634949,235.05688854507753 64.76850328949513,235.12931790594303 64.64638157893205,235.26210498342698 64.61307565792231,235.35867733501073 64.60197368421359,235.4431780954328 64.46875,235.50353575446934 64.49095394741744,235.66046556273068 64.39103618421359,235.82946672468097 64.4021381578641,236.02261069387896 64.33552631578641,236.10711110798002 64.3244243421359,236.16746851963399 64.31332236842718,236.2640403315163 64.33552631578641,236.34854061968508 64.31332236842718,236.55375542177353 64.3244243421359,236.68654133167 64.28001644735923,236.86761285156535 64.30222039477667,236.92796997989353 64.22450657893205,237.15732686241972 64.21340460522333,237.3746120305732 64.22450657893205,237.44704035521136 64.18009868421359,237.70053923637897 64.24671052629128,237.8574669164227 64.26891447365051,238.07475114552653 64.24671052629128,238.31617772497702 64.22450657893205,238.36446299770614 64.20230263163103,238.52139003462798 64.22450657893205,238.64210303654545 64.18009868421359,238.75074466137448 64.14679276314564,239.12495414479054 64.09128289471846,239.33016543003032 64.09128289471846,239.41466411903093 64.15789473685436,239.49916276391014 64.23560855264077,239.7043735751795 64.23560855264077,239.7888720689807 64.28001644735923,240.2113638769515 64.24671052629128,240.35621795749466 64.26891447365051,240.476929592347 64.24671052629128,240.5131430652691 64.2578125,240.5734988354816 64.23560855264077,240.83906395733356 64.26891447365051,240.9477041089849 64.30222039477667,240.98391747669666 64.3244243421359,241.05634418783302 64.30222039477667,241.23741082397464 64.31332236842718,241.33397961386072 64.2578125,241.5150459397264 64.26891447365051,241.7564673928573 64.23560855264077,241.85303587336966 64.2578125,241.913391144466 64.2578125,242.17895407023025 64.22450657893205,242.37209047013312 64.23560855264077,242.50487161152705 64.18009868421359,242.86700144410133 64.20230263163103,243.04806605688646 64.16899671056308,243.12049184535863 64.1912006578641,243.15670472745842 64.14679276314564,243.28948522589053 64.16899671056308,243.37398185006168 64.13569078949513,243.45847843015508 64.12458881578641,243.53090403520036 64.15789473685436,243.59125868135015 64.18009868421359,243.73610974030453 64.15789473685436,243.88096066983417 64.12458881578641,243.90510247879138 64.14679276314564,243.90510247879138 63.95805921050487,243.7964643100131 63.78042763157282,243.92924428421247 63.59169407893205,243.95338608601014 63.49177631578641,244.00166967883706 63.44736842106795,244.04995325725758 63.35855263157282,244.11030771007063 63.31414473685436,244.11030771007063 63.22532894735923,244.1465203709231 63.11430921050487,244.1465203709231 62.98108552629128,244.1585912560986 62.79235197365051,244.2189456684282 62.65912828949513,244.29137093356985 62.53700657893205,244.29137093356985 62.43708881578641,244.32758355401165 62.17064144735923,244.3517252964666 61.94860197370872,244.40000877056445 61.73766447365051,244.56900081671483 61.78207236842718,244.49657567565737 61.69325657893205,244.49657567565737 61.68215460522333,244.4724339547829 61.56003289471846,244.5207173929375 61.29358552634949,244.54485910660878 61.24917763157282,244.56900081671483 61.11595394735923,244.56900081671483 60.79399671050487,244.65349677368067 60.68297697370872,244.6172842260712 60.08347039471846,244.79834688312258 59.80592105264077,244.83455939023406 59.43955592100974,244.91905520875298 59.38404605264077,244.9069843802281 59.30633223685436,244.9311260363611 59.28412828943692,244.95526768891432 59.17310855264077,244.99148016097024 58.82894736842718,245.0276926249353 58.58470394735923,245.0880467135721 58.50699013163103,245.13632996831439 58.45148026314564,245.1121883427404 58.31825657899026,245.14840077974077 58.17393092100974,245.13632996831439 57.9962993421359,245.1846132086648 57.91858552629128,245.1846132086648 57.85197368421359,245.2208256294689 57.53001644741744,245.26910884462995 57.45230263157282,245.2932504468481 57.40789473685436,245.41395840380574 57.3634868421359,245.43809998439974 57.30797697365051,245.43809998439974 56.84169407893205,245.5225954882044 56.51973684207769,245.64330327435164 56.43092105258256,245.64330327435164 56.31990131578641,245.70365713373758 56.08675986842718,245.75194020502386 55.98684210528154,245.76401097059716 55.89802631578641,245.7277986711706 55.72039473685436,245.7277986711706 55.17639802629128,245.81229402392637 54.68791118421359,245.81229402392637 54.47697368421359,245.83643554517766 53.921875,245.9571430975775 53.78865131578641,245.9450723463815 53.73314144735923,245.96921384785674 53.33347039471846,246.0174968400388 53.17804276314564,246.05370907472388 52.92269736842718,246.0778505600465 52.85608552629128,246.0174968400388 52.73396381578641,246.02956758583605 52.58963815792231,246.0174968400388 52.33429276320385,245.9450723463815 52.25657894735923,245.9450723463815 52.10115131578641,245.92093084129738 51.77919407893205,245.9812845972774 51.62376644735923,245.93300159428327 51.41282894735923,245.92093084129738 51.30180921056308,245.9571430975775 51.22409539477667,246.00542609333934 51.15748355264077,246.0174968400388 51.04646381578641,246.0899213013181 50.9021381578641,246.12613351982145 50.84662828949513,246.1623457302485 50.66899671056308,246.18648719940393 50.62458881578641,246.15027499437565 50.44695723685436,246.18648719940393 50.4025493421359,246.1623457302485 50.20271381578641,246.17441646527732 50.14720394735923,246.1623457302485 49.81414473685436,246.18648719940393 49.68092105264077,246.1623457302485 49.27014802629128,246.15027499437565 48.91488486842718,246.06577981781447 48.72615131578641,245.9450723463815 48.68174342100974,245.9450723463815 48.40419407893205,245.75194020502386 48.19325657893205,245.67951559266658 47.84909539471846,245.6070909479604 47.8046875,245.57087861346372 47.71587171056308,245.55880783349858 47.61595394735923,245.58294939252664 47.42722039477667,245.49845392021234 47.1052631578641,245.54673705264577 46.93873355258256,245.54673705264577 46.82771381578641,245.57087861346372 46.43914473685436,245.54673705264577 46.328125,245.57087861346372 46.23930921056308,245.55880783349858 46.19490131578641,245.54673705264577 46.15049342100974,245.51052470465947 46.03947368421359,245.49845392021234 46.03947368421359,245.47431234856776 45.91735197365051,245.49845392021234 45.82853618421359,245.4863831348339 45.45106907893205,245.38981681960286 45.3400493421359,245.38981681960286 45.24013157893205,245.3656752317911 45.04029605258256,245.3656752317911 44.95148026314564,245.34153364039958 44.640625,245.34153364039958 44.54070723685436,245.3053212465602 44.4296875,245.31739204539917 44.21875,245.26910884462995 44.12993421050487,245.20875482341216 43.93009868415538,245.23289643460885 43.88569078949513,245.2570380422112 43.69695723685436,245.54673705264577 43.59703947370872,245.7398694385338 43.51932565792231,245.80022326193284 43.30838815792231,245.82436478503223 43.11965460528154,245.81229402392637 42.83100328943692,245.8485063044791 42.68667763157282,245.83643554517766 42.62006578949513,245.8605770628783 42.3203125,245.81229402392637 42.02055921056308,245.80022326193284 41.92064144735923,245.76401097059716 41.50986842106795,245.76401097059716 41.40995065792231,245.7398694385338 41.29893092106795,245.66744482080685 41.15460526314564,245.46224156144308 40.99917763157282,245.1846132086648 40.83264802629128,245.17254239990143 40.55509868421359,245.2208256294689 40.34416118421359,245.23289643460885 39.91118421050487,245.1846132086648 39.82236842100974,245.20875482341216 39.46710526314564,245.12425915597123 39.3671875,245.0880467135721 39.31167763157282,245.00355098319415 39.3005756578641,244.94319686308154 39.26726973685436,244.9069843802281 39.15625,244.94319686308154 38.9453125,244.94319686308154 38.60115131578641,244.8707718892838 38.47902960522333,244.8707718892838 38.40131578949513,244.83455939023406 38.23478618415538,244.72592184458335 37.84621710528154,244.62935507616203 37.60197368421359,244.6172842260712 37.52425986842718,244.62935507616203 37.45764802634949,244.66556762106484 37.34662828949513,244.78627604561916 37.31332236836897,244.79834688312258 37.22450657893205,244.76213436789112 36.85814144735923,244.78627604561916 36.75822368421359,244.73799268659786 36.56949013157282,244.71385100166663 36.03659539477667,244.70178015787678 35.9255756578641,244.67763846756134 35.91447368421359,244.68970931317017 35.78125,244.6172842260712 34.97080592100974,244.4845048156567 34.81537828949513,244.49657567565737 34.71546052629128,244.54485910660878 34.515625,244.55692996209837 34.42680921050487,244.5207173929375 34.29358552634949,244.53278825023153 33.92722039471846,244.4724339547829 33.89391447370872,244.4845048156567 33.78289473685436,244.40000877056445 33.70518092106795,244.38793790337513 33.58305921050487,244.3396544256684 33.33881578949513,244.30344180794782 33.29440789471846,244.26722918210726 33.02796052634949,244.19480390621175 32.67269736842718,244.17066214037186 32.56167763157282,244.11030771007063 32.39514802634949,244.08616593162878 32.3396381578641,244.11030771007063 32.27302631578641,244.0982368212717 32.13980263157282,244.11030771007063 31.89555921050487,244.06202414959262 31.78453947365051,244.06202414959262 31.7068256578641,244.03788236399123 31.50699013157282,244.0258114698372 31.3515625,243.96545698557748 31.15172697365051,243.97752788422804 30.53001644735923,243.83267704104946 30.33018092106795,243.80853522126563 30.10814144735923,243.73610974030453 29.63075657893205,243.66368422702362 29.46422697370872,243.61540053346835 29.36430921050487,243.63954238205042 29.30879934207769,243.61540053346835 29.10896381578641,243.59125868135015 29.00904605264077,243.5550458963553 28.931332236796152,243.5550458963553 28.8203125,243.53090403520036 28.77590460522333,243.54297496622894 28.65378289471846,243.50676217048021 28.5427631578641,243.50676217048021 28.38733552629128,243.4826203021221 28.32072368421359,243.44640749286918 28.20970394735923,243.43433655465196 28.14309210522333,243.44640749286918 27.99876644735923,243.42226561554708 27.88774671050487,243.42226561554708 27.61019736842718,243.36191090646025 27.46587171050487,243.37398185006168 27.2771381578641,243.36191090646025 27.05509868421359,243.30155617491982 27.01069078949513,243.31362712303235 26.66652960528154,243.22913046737085 26.522203947301023,243.22913046737085 26.41118421050487,243.1929176014819 26.16694078949513,243.1687756863539 26.08922697365051,243.13256280694623 25.71175986842718,243.09634991949133 25.21217105264077,242.98771120843594 24.52384868421359,242.92735633750272 24.41282894735923,242.90321438283718 24.235197368368972,242.8066465282027 23.99095394735923,242.75836257930496 23.91324013157282,242.75836257930496 23.73560855264077,242.72214960817655 23.61348684207769,242.7342205994646 23.24712171050487,242.71007861602993 22.89185855264077,242.63765264410176 22.71422697370872,242.63765264410176 22.69202302629128,242.62558164565417 22.50328947365051,242.6135106462898 22.39226973685436,242.62558164565417 22.17023026314564,242.57729764278338 22.10361842106795,242.5893686448544 22.0037006578641,242.55315563596378 21.70394736842718,242.57729764278338 21.48190789477667,242.54108463120065 21.337582236796152,242.55315563596378 21.30427631578641,242.52901362552075 21.015625,242.56522663981013 20.57154605264077,242.55315563596378 20.43832236842718,242.5893686448544 19.9609375,242.52901362552075 19.69449013157282,242.52901362552075 19.594572368368972,242.50487161152705 19.51685855264077,242.50487161152705 19.51685855264077,242.49280060315505 19.439144736796152,242.49280060315505 19.15049342106795,242.45658757269848 19.117187499941792,242.43244554787816 19.0505756578641,242.44451656073215 18.7619243421359,242.42037453415105 18.50657894735923,242.3600194518658 18.42886513157282,242.3841614874982 18.22902960528154,242.33587741268275 18.0625,242.33587741268275 17.718338815844618,242.2513802471658 17.718338815844618,242.227238191801 17.72944078943692,242.23930921991996 17.70723684207769,242.2513802471658 17.59621710528154,242.227238191801 17.24095394735923,242.2513802471658 17.11883223685436,242.23930921991996 17.04111842106795,242.19102510198718 16.9412006578641,242.17895407023025 16.56373355264077,242.1668830376002 16.297286184271798,242.0823857839423 16.1640625,242.09445682288788 15.91981907893205,242.02203057582665 15.631167763203848,241.9978884862503 15.253700657864101,241.9013200920599 15.18708881578641,241.85303587336966 15.15378289471846,241.76853845606092 15.098273026291281,241.7323252637143 14.94284539471846,241.67196992518438 14.831825657922309,241.65989885479212 14.720805921009742,241.61161456414266 14.63199013157282,241.62368563815835 14.487664473708719,241.70818313100608 14.265625,241.72025419781858 13.67722039471846,241.64782778346853 13.6328125,241.62368563815835 13.410773026349489,241.57540133675502 13.08881578949513,241.55125918064732 13.0,241.5150459397264" stroke="#4dd2ff" stroke-linecap="round" stroke-linejoin="round" stroke-width="0.5"><title>2022-10-21 10.5km</title></polyline></svg>