<?xml version="1.0" encoding="utf-8" ?>
<svg baseProfile="full" height="300mm" version="1.1" viewBox="0,0,200,300" width="200mm" xmlns="http://www.w3.org/2000/svg" xmlns:ev="http://www.w3.org/2001/xml-events" xmlns:xlink="http://www.w3.org/1999/xlink"><defs /><rect fill="#222222" height="300" width="200" x="0" y="0" /><text fill="#FFFFFF" style="font-size:12px; font-family:Arial; font-weight:bold;" x="10" y="20">Over 10km Runs</text><text fill="#FFFFFF" style="font-size:4px; font-family:Arial" x="10" y="280">ATHLETE</text><text fill="#FFFFFF" style="font-size:9px; font-family:Arial" x="10" y="290">safeoy</text><text fill="#FFFFFF" style="font-size:4px; font-family:Arial" x="120" y="280">STATISTICS</text><text fill="#FFFFFF" style="font-size:3px; font-family:Arial" x="120" y="285">Number: 7</text><text fill="#FFFFFF" style="font-size:3px; font-family:Arial" x="120" y="290">Weekly: 1.2</text><text fill="#FFFFFF" style="font-size:3px; font-family:Arial" x="141" y="285">Total: 65.1 km</text><text fill="#FFFFFF" style="font-size:3px; font-family:Arial" x="141" y="290">Avg: 9.3 km</text><text fill="#FFFFFF" style="font-size:3px; font-family:Arial" x="167" y="285">Min: 2.2 km</text><text fill="#FFFFFF" style="font-size:3px; font-family:Arial" x="167" y="290">Max: 12.5 km</text><polyline fill="none" points="67.0,51.34009703654738 66.55398230091669,51.236174156321795 66.44247787614586,51.097610243727104 65.96460176992696,51.0110077563877 65.61415929201758,51.04564875521464 65.45486725668889,51.114930737312534 65.29557522124378,51.21885367175855 65.15221238933736,51.35741751201567 64.99292035400867,51.56526311764901 64.67433628323488,51.87703117747151 64.4831858407124,52.119517157174414 63.79823008849053,52.5525272058876 63.47964601771673,52.81233284791233 63.304424778791144,53.03749750275165 63.272566371713765,53.19338059758593 63.08141592924949,53.349263587850146 62.96991150447866,53.69566985860001 62.92212389380438,53.764951050819946 62.9061946903239,53.851552512001945 62.92212389380438,53.95547422286472 62.890265486727,54.145997238738346 62.890265486727,54.33652009848447 62.842477876110934,54.561683276842814 62.77876106201438,54.6482844412094 62.730973451340105,55.029329181066714 62.77876106201438,55.11593017121777 62.842477876110934,55.42769346853311 62.85840707970783,55.70481604842644 62.9061946903239,55.878017493116204 62.826548672572244,56.15513953616028 62.842477876110934,56.2590602170967 62.794690265494864,56.44958134488843 62.762831858417485,56.88258332721307 62.715044247801416,56.9865036829724 62.699115044262726,57.1770242144994 62.61946902656928,57.50610476480506 62.53982300887583,57.71394487237558 62.571681415895,57.90446480768151 62.53982300887583,58.09498458687449 62.5876106194919,58.37210398691241 62.55575221241452,58.49334362056106 62.571681415895,58.70118284544151 62.52389380527893,59.012941334280185 62.55575221241452,59.13418063370045 62.49203539825976,59.5325378865964 62.53982300887583,60.3638899546786 62.52389380527893,60.57172750715108 62.571681415895,60.97008229671337 62.507964601856656,61.73215042690572 62.46017699112417,61.90534738083079 62.44424778764369,62.217101572750835 62.38053097343072,63.221640014016884 62.41238938056631,63.4814337320131 62.33274336287286,64.4166887132742 62.253097345121205,64.76307849229488 62.300884955737274,64.97091211202496 62.2690265487181,65.14410665318428 62.2690265487181,65.38657879405946 62.237168141582515,65.49049534846563 61.9504424778861,65.52513418959279 61.69557522126706,65.61173126987705 61.48849557520589,65.62905068205146 61.21769911504816,65.71564772362763 60.83539823011961,65.76760593311337 60.75575221236795,65.81956413095759 60.43716814159416,65.88884171002428 60.35752212390071,65.94079988078738 59.959292035433464,66.02739680625382 59.73628318589181,66.11399369944411 59.449557522137184,66.18327119079186 58.828318584070075,66.23522929576575 57.569911504455376,66.52965833789494 57.092035398236476,66.56429702421883 56.78938053100137,66.6508937174367 56.13628318585688,66.75480970677745 54.861946902645286,67.03191878453072 54.67079646018101,67.0492380909418 54.3681415929459,67.17047319957055 54.17699115042342,67.20511179041932 53.651327433704864,67.27438895669184 53.55575221241452,67.30902753207192 53.109734513331205,67.34366610232973 52.93451327434741,67.39562394793029 52.72743362834444,67.36098538545775 52.24955752212554,67.46490105740668 51.93097345135175,67.44758178196207 51.72389380529057,67.49953960438143 51.43716814159416,67.48222033155616 50.959292035433464,67.62077447824413 50.75221238937229,67.60345521441195 50.17876106192125,67.93252100647078 50.06725663720863,68.03643642296083 49.700884955818765,68.1230325679062 49.30265486729331,68.15767101688834 48.93628318584524,68.22694789929665 48.5221238937811,68.22694789929665 48.04424778762041,68.31354397327232 47.27964601770509,68.29622476107033 46.18053097341908,68.50405522254005 45.893805309722666,68.45209762458398 45.702654867316596,68.4001400150446 45.52743362839101,68.27890554757323 45.288495575252455,68.22694789929665 45.01769911509473,68.24426711666456 44.428318584105,68.20962868061906 44.12566371681169,68.26158633276646 43.93451327440562,68.33086318425194 43.50442477874458,68.60797038364399 43.074336283199955,68.74652385954687 42.91504424775485,68.8677580831718 42.500884955748916,68.90239642118104 42.19823008851381,68.97167308171629 42.10265486728167,68.9370347540098 41.76814159291098,68.9370347540098 41.16283185844077,68.97167308171629 40.63716814154759,68.9370347540098 39.96814159292262,68.9889922436123 39.45840707962634,68.9370347540098 39.29911504429765,68.79848139167007 39.17168141598813,68.64260876034677 39.107964601775166,68.4001400150446 39.09203539817827,68.19230946064636 39.107964601775166,68.08839411380177 38.99646017700434,67.98447872049292 38.83716814161744,67.89788252393191 38.1044247787795,67.81128629512386 38.00884955748916,67.77664779458428 37.387610619480256,67.74200928887876 37.18053097341908,67.69005152062164 36.973451327416115,67.70737077802187 36.861946902645286,67.67273226196994 36.67079646023922,67.69005152062164 36.224778761097696,67.58613594934286 35.46017699112417,67.53417814624845 35.36460176995024,67.49953960438143 34.44070796464803,67.48222033155616 34.122123893816024,67.4302625052369 33.66017699113581,67.27438895669184 33.484955752268434,67.23975037616037 33.373451327497605,67.25706966707367 33.26194690261036,67.23975037616037 33.18230088497512,67.29170824505854 33.11858407082036,67.3783046673343 33.03893805312691,67.5514974152029 33.007079645991325,67.72469003408332 32.87964601768181,67.880563280778 32.815929203585256,68.03643642296083 32.65663716814015,68.15767101688834 32.54513274336932,68.17499023942219 31.4778761062189,68.15767101688834 30.88849557522917,68.08839411380177 29.80530973454006,68.05375565454597 29.614159292017575,68.00179795594886 29.454867256630678,67.79396704552346 29.311504424840678,67.65541300202312 29.21592920355033,67.51685887596977 29.136283185856882,67.44758178196207 29.088495575182606,67.36098538545775 28.992920354008675,67.30902753207192 28.658407079637982,67.32634681780473 28.371681415941566,67.39562394793029 27.431858407042455,67.25706966707367 27.01769911503652,67.34366610232973 26.890265486727003,67.34366610232973 26.380530973430723,67.29170824505854 25.82300884957658,67.18779249567888 25.647787610650994,67.18779249567888 25.44070796458982,67.1358346035704 24.596460176981054,67.0492380909418 23.879646017681807,66.9106836036517 23.003539822995663,66.7721290338377 22.923893805244006,66.68553238571621 22.892035398224834,66.61625504404947 21.95221238938393,66.51233899279032 21.5221238937811,66.40842289509601 20.582300884940196,66.28718738911266 20.502654867246747,66.25254866153409 20.120353982259985,66.23522929576575 19.945132743334398,66.3045067510102 19.84955752210226,66.3218261115544 19.546902654867154,66.21790992871684 18.925663716741838,66.18327119079186 18.734513274335768,66.07935494605044 18.463716814178042,65.9927580399526 17.173451327427756,65.7849253336899 16.791150442440994,65.73296712808951 16.599999999976717,65.73296712808951 16.090265486738645,65.6463700929744 15.660176991077606,65.6810089108767 15.293805309687741,65.55977302558313 14.831858407065738,65.45585650215799 14.274336283211596,65.36925936379703 13.892035398166627,65.33462049944501 13.525663716776762,65.23070387534972 13.191150442522485,65.21338443353307 13.0,65.14410665318428" stroke="#4dd2ff" stroke-linecap="round" stroke-linejoin="round" stroke-width="0.5"><title>2023-04-22 6.2km</title></polyline><polyline fill="none" points="186.9070796460146,51.74441627347551 186.89380530978087,51.90318419938558 186.9336283186567,51.97535139536194 186.98672566370806,52.14855255612929 186.94690265483223,52.3217535619915 186.96017699118238,52.53825460158987 186.867256637197,52.855789021923556 186.8407079646131,53.08672281888721 186.8407079646131,53.404256340145366 186.81415929208742,53.505289624125 186.81415929208742,53.736222646795795 186.867256637197,54.16922132227046 186.82743362832116,54.31355399901804 186.867256637197,54.42902006296208 186.7743362832116,54.64551874740573 186.7743362832116,54.70325168907584 186.7743362832116,54.89088363062183 186.82743362832116,54.948616499154014 186.82743362832116,55.02078256063396 186.81415929208742,55.107381798894494 186.85398230090505,55.16511460291804 186.9070796460146,55.52594423817936 186.867256637197,55.59811008456745 186.867256637197,55.74244169672602 186.80088495573727,55.87234005573555 186.8407079646131,56.03110459847085 186.81415929208742,56.11770338509814 186.81415929208742,56.20430213306099 186.7743362832116,56.44966504198965 187.0,56.86822458116512 186.98672566370806,56.95482299363357 187.0,57.02698830778536 186.80088495573727,57.45997962811089 186.82743362832116,57.63317588526115 186.81415929208742,57.705340946718934 186.92035398230655,58.03729988320265 186.88053097343072,58.35482529019646 186.78761061950354,58.61461841793789 186.76106194686145,58.9610087130859 186.681415929168,59.2208010279719 186.7079646018101,59.27853260622942 186.7743362832116,59.24966681926162 186.7477876106277,59.3073983888753 186.78761061950354,59.37956282673986 186.85398230090505,59.43729435764544 186.82743362832116,59.538324495384586 186.89380530978087,59.855847442377126 186.72123893804383,59.91357883140154 186.01769911509473,60.02904155780561 185.31415929202922,60.20223551838717 184.42477876105113,60.36099651292898 183.80088495573727,60.505324576908606 183.72123893804383,60.57748856853868 183.54867256636498,60.620786950632464 183.2699115044088,60.678518111715675 183.03097345132846,60.678518111715675 181.9557522123796,60.96717365909717 181.26548672566423,61.06820299907122 180.85398230084684,61.169232286381884 180.64159292035038,61.18366503743164 180.15044247789774,61.270261521000066 180.0707964602043,61.29912700694695 179.63274336286122,61.37129070299852 179.55309734516777,61.38572343894339 179.39380530978087,61.37129070299852 178.87610619474435,61.4434543720854 178.7035398230073,61.5011852880416 177.7477876106277,61.61664706839656 177.66814159293426,61.65994521824177 177.60176991153276,61.717676069718436 177.2699115044088,61.90530121813936 177.16371681418968,62.00633006900898 176.31415929208742,62.13622422835033 175.59734513272997,62.179522262114915 175.39823008852545,62.20838761259802 175.0663716814597,62.20838761259802 174.44247787614586,62.25168563025363 173.96460176992696,62.33828163651924 173.7256637168466,62.28055096996832 173.28761061950354,62.09292618490872 172.96902654872974,62.064060817239806 172.62389380531386,61.91973391434294 172.49115044245264,61.89086852087348 171.9336283185985,61.91973391434294 171.867256637197,61.90530121813936 171.2300884956494,61.96303199652175 170.8451327434159,61.977464688388864 170.64601769909495,61.91973391434294 170.03539823007304,61.91973391434294 169.17256637167884,61.847570422585704 169.0929203539854,61.86200312312576 168.9336283185985,61.81870501837693 168.30973451328464,61.876435822516214 167.06194690265693,61.674377932737116 166.4778761061607,61.68881064612651 166.29203539824812,61.65994521824177 166.21238938055467,61.674377932737116 165.8407079646131,61.65994521824177 165.1106194690219,61.558916186811985 164.95132743369322,61.558916186811985 164.28761061944533,61.5300507396023 164.1150442478247,61.486752560696914 163.90265486721182,61.5011852880416 163.7035398230073,61.45788710268971 163.39823008852545,61.327992488615564 163.2256637168466,61.31355974829057 163.1592920353869,61.327992488615564 163.02654867258389,61.51561801436765 162.89380530972267,61.804272314635455 162.78761061950354,61.977464688388864 162.66814159293426,62.04962813180464 162.33628318586852,62.064060817239806 161.69911504432093,62.04962813180464 161.12831858405843,61.977464688388864 160.42477876105113,61.977464688388864 160.11946902656928,61.934166609469685 160.05309734516777,61.876435822516214 159.66814159293426,61.3424252277764 159.5884955751826,61.31355974829057 159.44247787608765,61.31355974829057 159.2964601769927,61.3568579658895 159.12389380537206,61.37129070299852 158.5663716814015,61.3424252277764 158.39380530978087,61.29912700694695 158.1150442477665,61.3424252277764 157.87610619468614,61.327992488615564 157.80973451322643,61.3568579658895 157.19911504426273,61.29912700694695 157.0000000000582,61.29912700694695 156.7743362832116,61.21253053624241 156.08407079649623,61.15479953426984 155.7256637168466,61.08263575761521 155.38053097348893,60.9816064251645 154.94247787608765,60.95274089193845 154.80973451328464,60.86614426643064 154.33185840706574,60.765114821100724 153.7743362832116,60.70738368583261 153.69469026551815,60.678518111715675 153.42920353985392,60.64965253333503 153.2699115044088,60.591921363637084 153.11061946908012,60.591921363637084 152.52654867258389,60.505324576908606 152.23451327439398,60.43316055832838 152.07522123894887,60.505324576908606 151.83628318586852,60.534190176738775 151.75663716811687,60.51975737736211 151.11946902656928,60.418727751413826 150.98672566376626,60.317698072773055 150.8407079646131,60.27439962294011 150.49557522131363,60.23110116343014 150.12389380531386,60.14450421536458 149.4336283186567,60.08677289518528 148.8628318584524,59.942444519430865 148.45132743363502,59.956877361866646 148.17256637167884,59.855847442377126 147.58849557529902,59.74038461277087 147.25663716811687,59.71151889458997 147.0044247788028,59.6249217143486 146.3407079646131,59.567190239351476 146.2079646018101,59.49502587137977 146.12831858405843,59.35069705483329 146.12831858405843,59.19193523241847 146.19469026545994,58.9610087130859 143.95132743363502,59.19193523241847 143.47345132741611,59.105337819928536 142.84955752216047,59.06203909915348 142.62389380537206,59.00430745643098 142.35840707970783,58.97544162858685 142.02654867258389,58.874411197335576 141.46902654867154,58.78781364290626 141.40265486727003,58.75894778284419 140.632743362803,58.68678311383701 140.5663716814015,58.65791723871371 140.16814159293426,58.60018547557411 140.00884955754736,58.542453695175936 139.74336283188313,58.52802074741339 139.59734513272997,58.48472189762106 139.26548672566423,58.470288945536595 138.867256637197,58.398124169005314 138.69469026551815,58.398124169005314 138.24336283188313,58.31152640171058 138.0044247788028,58.25379453531059 137.60619469027733,58.25379453531059 137.19469026545994,58.19606265173934 136.83628318592673,58.19606265173934 136.26548672572244,58.138330750967725 136.132743362803,58.15276372774679 135.94690265489044,58.138330750967725 135.86725663713878,58.167196703507216 135.69469026551815,58.123897773068165 135.37610619468614,58.138330750967725 135.05752212397056,58.19606265173934 134.96460176992696,58.167196703507216 134.53982300887583,58.123897773068165 134.46017699118238,58.095031814082176 133.96902654872974,58.06616585075972 133.7964601769927,58.00843391128001 133.0,58.0228668977652 133.33185840706574,57.950701954585384 133.53097345132846,57.82080498911091 133.62389380531386,57.69090793657233 133.7035398230073,57.69090793657233 133.7300884956494,57.77750598129933 133.7964601769927,57.76307297652238 133.7964601769927,57.69090793657233 133.7300884956494,57.734206963767065 133.7699115044088,57.79193898497033 133.83628318586852,57.79193898497033 133.84955752216047,57.734206963767065 133.7964601769927,57.705340946718934 133.75663716817508,57.76307297652238 133.7035398230073,57.89296998070495 133.66371681418968,58.109464794091764 133.7035398230073,58.78781364290626 133.75663716817508,59.0187403687014 133.7300884956494,59.14863653102657 133.7699115044088,59.552757367884624 133.75663716817508,59.812548889342 133.78318584075896,60.3754293241509 133.7699115044088,60.46202616899973 133.87610619474435,61.125934026844334 133.8628318583942,61.54448346373101 133.8893805309781,61.76097419699363 133.8628318583942,62.00633006900898 133.87610619474435,62.367146963311825 133.83628318586852,62.52590618401882 133.90265486727003,63.37743069311546 133.8893805309781,63.57948680696427 133.90265486727003,63.98359840261401 133.87610619474435,64.05576109883259 133.8893805309781,64.83511650592845 134.00884955748916,65.02273863578739 134.07522123894887,65.06603602459654 134.14159292040858,65.03717109980062 134.12831858405843,64.95057629965595 134.06194690265693,64.92171135768876 134.00884955748916,64.95057629965595 133.92920353985392,64.96500876905338 133.8893805309781,65.00830617075553 133.82300884957658,65.03717109980062 133.78318584075896,65.094900945056 133.71681415929925,65.10933340369957 133.62389380531386,64.97944123733032 133.61061946908012,64.90727888508991 133.65044247789774,64.84954898391152 133.7964601769927,64.80625154674635 133.87610619474435,64.80625154674635 134.0884955752408,64.69079166701704 134.23451327439398,64.64749419441796 134.44690265489044,64.51760171848582 135.33628318581032,64.09905870370858 135.62831858411664,63.98359840261401 135.69469026551815,63.925868226288 136.05309734510956,63.73824503435753 136.4778761062189,63.57948680696427 136.61061946908012,63.49289135541767 136.71681415935745,63.46402619629225 136.87610619468614,63.46402619629225 137.28761061950354,63.391863279699464 137.51327433635015,63.37743069311546 137.92477876110934,63.391863279699464 138.25663716817508,63.37743069311546 138.62831858405843,63.435161032903125 139.07964601775166,63.44959361512156 139.87610619474435,63.550621660775505 140.28761061950354,63.57948680696427 140.52654867258389,63.65164965373697 140.73893805313855,63.63721708652156 140.80530973454006,63.68051478492271 140.87168141594157,63.66608221984643 140.93805309734307,63.709379911771975 140.9778761062189,63.79597526657744 141.0442477876204,63.853705481640645 141.1371681416058,63.98359840261401 141.37610619474435,64.12792376824655 142.34513274335768,64.48873671198089 142.43805309740128,64.50316921577905 142.5044247788028,64.48873671198089 142.71681415929925,64.5320342201012 142.94247787608765,64.5320342201012 143.64601769909495,64.73408912998275 143.7256637168466,64.70522415576852 143.80530973454006,64.73408912998275 143.89823008852545,64.73408912998275 144.15044247789774,64.79181906557642 144.4823008850217,64.92171135768876 144.5486725664232,64.90727888508991 144.88053097348893,65.02273863578739 144.97345132741611,65.02273863578739 145.0663716814015,65.03717109980062 145.132743362803,65.08046848537924 145.33185840706574,65.094900945056 146.19469026545994,65.31138771164115 146.7256637167884,65.48457695078105 146.93805309740128,65.52787423635891 147.6814159292262,65.77322533864935 148.33185840712395,65.93198176876467 149.26106194686145,66.2061971143412 149.32743362832116,66.2061971143412 149.79203539824812,66.36495318973903 150.19026548677357,66.43711499917845 150.72123893810203,66.59587088534317 151.58407079649623,66.76905897651159 152.03539823013125,66.81235597511113 152.60619469027733,66.84122063549876 153.56194690265693,66.97111155389575 154.21238938055467,67.0288408230117 154.3849557522335,67.0288408230117 155.1814159292262,67.12986700264446 155.367256637197,67.12986700264446 155.44690265489044,67.17316392061184 155.68584070797078,67.18759622446669 155.9115044248174,67.25975772757374 156.37610619468614,67.27419002496754 156.65486725664232,67.31748691070243 156.89380530972267,67.3752160766744 157.7300884955912,67.47624207568879 157.98230088496348,67.47624207568879 158.44690265489044,67.5484034713445 158.95132743363502,67.57726802203979 159.34955752216047,67.66386164845608 160.14601769915316,67.75045523613517 160.23893805308035,67.73602297417528 160.96902654872974,67.8514810395427 161.5929203539854,67.9092100464186 161.7522123893723,67.93807454341731 161.80530973454006,67.9958035244781 162.42920353985392,68.06796472665155 162.66814159293426,68.06796472665155 162.9070796460146,68.02466800855473 163.05309734516777,68.05353248838219 163.14601769909495,68.09682919998886 163.29203539824812,68.1112614350568 163.46460176992696,68.15455813379958 163.76991150446702,68.15455813379958 164.10176991153276,68.1834225942439 164.52654867258389,68.1112614350568 164.5929203539854,68.08239696387318 165.08407079643803,68.16899036453106 165.32300884957658,68.1256936690188 165.65486725664232,68.14012590196216 166.5442477876204,68.21228705036629 166.67699115048163,68.25558372652449 167.10176991153276,68.22671927686315 167.5663716814015,68.25558372652449" stroke="#4dd2ff" stroke-linecap="round" stroke-linejoin="round" stroke-width="0.5"><title>2023-04-01 11.2km</title></polyline><polyline fill="none" points="66.98605911966297,118.03707884272444 66.97211823932594,118.17350061452453 66.99302955981693,118.25686938498984 66.98605911966297,118.30992220338521 67.0,118.4766594524117 66.9790886794799,118.52213320017472 66.9790886794799,118.62065958389576 66.95120691880584,118.69644904492452 66.9372660384397,118.78739632361248 66.96514779914287,118.84044886530319 66.93029559831484,118.96929063706921 66.9372660384397,119.09055333202559 66.9163547179487,119.17392135094997 66.93029559831484,119.32549939215824 66.90938427776564,119.36339386717009 66.9163547179487,119.54528715073684 66.93029559831484,119.5983392971757 66.92332515813177,119.68170689998078 66.9372660384397,119.75749557052768 66.92332515813177,119.83328418460587 66.9163547179487,120.0758073702309 66.89544339745771,120.14401691202511 66.88150251709158,120.27285703285452 66.88150251709158,120.43201225097437 66.95120691880584,120.58358841770678 66.99302955981693,120.84126738285704 66.73512327353819,120.8943188534904 66.6514779914869,120.92463396714447 66.56086226925254,120.93221274414827 66.3447786239849,120.98526416735695 66.2402220214426,121.02315802415251 66.2193107009225,121.05347309943318 66.12869497868815,121.068630633672 65.96837485476863,121.07620939993649 65.53620756423334,121.16715455123631 65.44559184196987,121.17473331016663 65.29921259844559,121.25052086848154 65.1737446753541,121.28841462647688 64.99948367109755,121.29599337639229 64.83916354717803,121.3414658639449 64.58822770105326,121.37935958807066 63.79359752160963,121.54609180653642 63.41719375242246,121.61430036259844 63.35445979089127,121.62945781329472 63.18019878663472,121.6521939851009 63.14534658577759,121.66735143015103 63.040789983206196,121.66735143015103 62.88046985931578,121.69008759348071 62.80379501741845,121.72040247004043 62.552859171293676,121.71282375173905 62.399509487557225,121.75829605301988 62.21827804311761,121.7507173375634 62.12766232091235,121.77345348227391 61.800051632890245,121.78861090925056 61.75125855166698,121.81134704549186 61.590938427776564,121.82650446683692 61.13088937653811,121.85681930273859 61.07512585516088,121.84924059459445 60.8241900090361,121.84924059459445 60.64992900477955,121.87197671729518 60.322318316757446,121.88713412959623 60.24564347488922,121.90229153967084 60.01561894925544,121.87955542373675 59.93197366723325,121.88713412959623 59.65315606040531,121.88713412959623 59.28372273137211,121.92502765048994 58.990964244207134,121.93260635297338 58.6703239963681,121.95534245705494 58.48909255195758,121.96292115726828 58.20330450497568,121.94776375625952 57.63869885113672,121.94776375625952 57.59687621015473,121.94018505489657 57.49929004776641,121.87955542373675 57.415644765715115,121.87197671729518 57.24835420164163,121.90229153967084 57.01135923585389,121.88713412959623 56.92074351359042,121.89471283491002 56.732541629025945,121.82650446683692 56.453724022198,121.78861090925056 56.30037433843245,121.78103219604236 56.20975861622719,121.79618962188397 56.07732025301084,121.80376833397895 55.88911836841726,121.76587476792338 55.85426616753102,121.77345348227391 55.7357686846517,121.76587476792338 55.70091648379457,121.7507173375634 55.54756680005812,121.727981187767 55.45695107782376,121.73555990491877 55.17116303084185,121.70524503289198 54.850522783002816,121.69766631347738 54.69717309923726,121.63703653778066 54.662320898409234,121.61430036259844 54.53685297534685,121.60672163640265 54.49503033430665,121.58398545441742 54.258035368518904,121.51577687803365 54.118626565119484,121.44756825592776 53.9931586420571,121.40209581576346 53.86072027881164,121.37935958807066 53.79101587712648,121.40967455720966 53.72131147541222,121.51577687803365 53.5609913514927,121.53093434340553 53.51916871048161,121.54609180653642 53.38673034720705,121.55367053723603 53.36581902668695,121.58398545441742 53.317025945550995,121.60672163640265 53.05911965924315,121.64461526174273 52.96153349682572,121.6521939851009 52.815154253243236,121.69766631347738 52.76636117207818,121.69766631347738 52.717568090884015,121.63703653778066 52.66877500968985,121.61430036259844 52.522395766107365,121.61430036259844 52.48057312509627,121.55367053723603 52.38995740286191,121.53851307525474 52.278430360136554,121.49304067574121 52.1459919968911,121.47788320472318 52.06931715502287,121.43998951730464 51.943849231960485,121.42483203838492 51.678972505469574,121.45514699396153 51.379243578150636,121.44756825592776 51.25377565508825,121.4172532980665 51.12830773202586,121.4172532980665 51.016780689300504,121.37935958807066 50.94707628758624,121.37178084439074 50.63340647993027,121.31115087449871 50.51490899705095,121.32630837035686 50.40338195426739,121.38693833120487 49.999096424435265,121.31872962271882 49.91545114238397,121.32630837035686 49.69936749708722,121.30357212571835 49.46934297148255,121.26567837338371 49.28114108685986,121.25809962121275 48.86988511681557,121.18989082636108 48.779269394581206,121.18989082636108 48.70956499292515,121.21262709637813 48.47954046726227,121.16715455123631 48.24951594165759,121.14441827103292 48.08919581773807,121.09136693080654 47.87311217247043,121.07620939993649 47.71976248870487,121.0155792539299 47.4270040015399,120.94737029646785 46.95301406996441,120.9018976327643 46.91816186910728,120.88674007367081 46.83451658705599,120.9018976327643 46.52084677940002,120.8336885990866 46.416290176828625,120.79579467172152 46.26991093327524,120.78821588456049 46.186265651194844,120.77305830852856 45.88653672390501,120.74274314971262 45.85168452304788,120.72758556692133 45.809861882036785,120.72000677465985 45.74015748029342,120.72758556692133 45.600748676894,120.69727039455756 45.51710339484271,120.70484918848524 45.47528075383161,120.6821128049778 45.32890151027823,120.65937641638448 45.25919710853486,120.63664002269797 45.21737446752377,120.63664002269797 45.14069962562644,120.61390362394741 44.99432038210216,120.60632482323854 44.71550277527422,120.56085200708912 44.590034852182725,120.56085200708912 44.41577384795528,120.50780036256765 44.21363108299556,120.4926427447499 43.99057699754485,120.43201225097437 43.92087259585969,120.43959106466355 43.74661159157404,120.40169699053513 43.67690718988888,120.41685462187161 43.52355750615243,120.37896053927398 43.41203046339797,120.37138172105915 43.33535562152974,120.3486452630168 43.21685813862132,120.33348762149399 43.133212856570026,120.31075115499698 42.89621789078228,120.28043585841806 42.74286820704583,120.21980523816455 42.62437072413741,120.21222640807537 42.39434619853273,120.17433224926208 42.227055634430144,120.15917458176409 42.108558151550824,120.13643807630433 42.02491286949953,120.13643807630433 41.9691493481223,120.15159574717836 41.892474506254075,120.1288592400233 41.80882922420278,120.1288592400233 41.48121853620978,120.06822852943151 41.39757325418759,120.03791316059505 41.11178520717658,120.00759778270003 40.98631728408509,120.01517662802507 40.860849361051805,119.99244009038375 40.70052923713229,120.01517662802507 40.296243707241956,119.96970354766381 40.1847166645166,119.97728239579737 40.12895314313937,119.95454584967229 40.03833742093411,119.96970354766381 39.975603459373815,119.96212469896273 39.89892861750559,119.96970354766381 39.857105976494495,119.97728239579737 39.82922421582043,119.99244009038375 39.66890409190091,119.99244009038375 39.02762359622284,119.89391503520892 38.90912611334352,119.86359961442213 38.82548083126312,119.8560207578048 38.71395378856687,119.87117847046466 38.67910158770974,119.8560207578048 38.560604104801314,119.8560207578048 38.400283980881795,119.83328418460587 38.29572737833951,119.82570532572572 38.14237769457395,119.78023216066504 38.065702852705726,119.78023216066504 37.6405060023244,119.72718010906829 37.34077707500546,119.71960124231555 37.20136827157694,119.6968646386158 36.95043242545216,119.6286547970085 36.53917645540787,119.57560266637302 36.50432425455074,119.55286603049171 36.45553117332747,119.4543405496006 36.28127016907092,119.39370943701215 36.204595327202696,119.39370943701215 36.16974312637467,119.40128832805931 36.107009164843475,119.4543405496006 36.037304763129214,119.46191943614394 35.55634439139976,119.38613054539019 35.43784690849134,119.39370943701215 35.31934942561202,119.36339386717009 35.214792823040625,119.36339386717009 35.01265005808091,119.30276270037575 34.83141861364129,119.2876049030383 34.51774880598532,119.2193947870328 34.399251323076896,119.21181588243053 34.37136956237373,119.18907916523312 34.3574286820658,119.15876353441854 34.399251323076896,118.93139601526491 34.399251323076896,118.88592245044129 34.3783400025859,118.84802779756865 34.21104943845421,118.81771206511621 34.071640635083895,118.75708057308657 33.91829095131834,118.76465951155842 33.83464566926705,118.77981738683593 33.76494126758189,118.75708057308657 33.569768942834344,118.77981738683593 33.52097586161108,118.77981738683593 33.47915322057088,118.75708057308657 33.25609913514927,118.75708057308657 33.17942429325194,118.77981738683593 33.144572092423914,118.77981738683593 32.97728152835043,118.81013313058793 32.68452304115635,118.9768695597304 32.635729959991295,119.02234308390325 32.5102620368998,119.06023767184524 32.475409836071776,119.08297441782634 32.42661675484851,119.1511846252979 32.384794113837415,119.39370943701215 32.34297147282632,119.46191943614394 32.25932619080413,119.537708270429 32.2244739899179,119.56044490967906 32.09203562667244,119.55286603049171 32.01536078483332,119.56044490967906 31.97353814379312,119.57560266637302 31.72957273782231,119.57560266637302 31.56925261390279,119.55286603049171 31.499548212217633,119.57560266637302 31.22073060538969,119.55286603049171 31.109203562664334,119.56802378832072 30.962824319081847,119.64381254355249 30.718858913111035,119.64381254355249 30.684006712283008,119.63623367055698 30.62127275072271,119.5983392971757 30.551568349037552,119.63623367055698 30.51671614818042,119.62107592290704 30.48186394732329,119.63623367055698 30.370336904597934,119.64381254355249 30.314573383249808,119.5983392971757 30.27275074220961,119.5983392971757 30.098489737923956,119.61349704823806 30.000903575564735,119.6286547970085 29.952110494399676,119.64381254355249 29.88240609265631,119.70444350706384 29.791790370480157,119.86359961442213 29.722085968736792,120.05307084613742 29.722085968736792,120.18191108214523 29.76390860977699,120.25769938005396 29.847553891828284,120.33348762149399 30.000903575564735,120.40169699053513 30.035755776421865,120.43959106466355 30.035755776421865,120.51537917061069 30.01484445593087,120.55327320242213 30.000903575564735,120.59874602196214 29.910287853359478,120.70484918848524 29.81967213115422,120.77305830852856 29.694204208091833,120.82610981474136 29.526913643989246,120.82610981474136 29.352652639732696,120.7654795196795 29.227184716641204,120.74274314971262 29.157480314956047,120.71242798186722 28.48831805860391,120.50022155394981 28.376791015878553,120.43201225097437 28.334968374838354,120.37138172105915 28.293145733798156,120.3486452630168 28.25132309278706,120.28043585841806 28.216470891959034,120.26527820675255 28.13979605009081,120.24254172499059 27.77036272105761,120.18948991448997 27.693687879189383,120.16675341579685 27.617013037292054,120.12128040317475 27.568219956126995,120.1288592400233 27.366077191167278,120.05307084613742 27.275461468932917,120.00759778270003 27.01058474247111,119.9090727422008 26.97573254161398,119.87875732593966 26.787530657020397,119.81812646630715 26.56447657154058,119.78781102292851 26.27171808440471,119.78781102292851 26.13927972118836,119.8105476063065 26.041693558800034,119.8105476063065 25.95804827674874,119.83328418460587 25.937136956257746,119.86359961442213 25.78378727249219,119.79538988461718 25.67226022973773,119.77265329784859 25.41435394345899,119.79538988461718 25.26100425972254,119.78781102292851 25.058861494762823,119.74991670600866 24.278172195656225,119.7347589752826 24.145733832439873,119.71202237497346 24.027236349560553,119.70444350706384 23.79024138377281,119.72718010906829 23.427778494893573,119.70444350706384 23.260487930790987,119.71202237497346 23.225635729933856,119.70444350706384 23.14896088806563,119.72718010906829 23.01652252484928,119.6968646386158 22.842261520563625,119.68170689998078 22.619207435142016,119.70444350706384 22.493739512050524,119.68170689998078 22.40312378987437,119.6968646386158 22.284626306936843,119.68928576957114 22.200981024914654,119.71202237497346 21.81760681551532,119.66654915911931 21.455143926665187,119.65897028780455 21.420291725808056,119.6741280298229 21.336646443785867,119.66654915911931 21.22511940106051,119.65139141595137 21.190267200174276,119.6286547970085 20.862656512181275,119.6286547970085 20.583838905353332,119.605918172987 20.388666580605786,119.62107592290704 20.109848973777844,119.61349704823806 19.60797728149919,119.66654915911931 19.433716277242638,119.64381254355249 19.245514392649056,119.65139141595137 19.196721311454894,119.63623367055698 19.078223828575574,119.65139141595137 18.952755905484082,119.63623367055698 18.792435781564564,119.59076042082597 18.541499935439788,119.57560266637302 17.90718987994478,119.58318154387234 17.677165354311,119.57560266637302 17.635342713299906,119.58318154387234 17.3077320252778,119.54528715073684 17.238027623592643,119.56044490967906 17.16832322187838,119.54528715073684 16.952239576610737,119.56802378832072 16.527042726200307,119.57560266637302 16.485220085189212,119.56044490967906 16.401574803167023,119.56802378832072 16.310959080903558,119.55286603049171 15.913643991196295,119.537708270429 15.586033303203294,119.56802378832072 15.390860978426645,119.62107592290704 14.840196204953827,119.66654915911931 14.22679746997892,119.74233784093667 14.12224086743663,119.78023216066504 14.01071382468217,119.78781102292851 13.383374209370231,119.93938814945432 13.181231444439618,119.97728239579737 13.153349683736451,119.99244009038375 13.132438363216352,120.02275547278259 13.132438363216352,120.09096505014895 13.11849748287932,120.12128040317475 13.083645282051293,120.13643807630433 13.048793081194162,120.12128040317475 13.0,120.12128040317475" stroke="#4dd2ff" stroke-linecap="round" stroke-linejoin="round" stroke-width="0.5"><title>2023-03-18 12.0km</title></polyline><polyline fill="none" points="187.0,112.33367299995007 186.51851851854008,112.22292513593129 186.45370370370802,112.22292513593129 186.40740740741603,112.2027891508842 186.29629629629198,112.22292513593129 186.148148148146,112.30346904603357 186.0740740740439,112.38401290813636 186.0277777777519,112.47462469556922 185.8240740741021,112.74645969330595 185.76851851854008,112.77666354818939 185.648148148146,112.89747890015133 185.48148148151813,112.95788653561613 185.40740740741603,113.03843000758206 185.30555555556202,113.09883758000797 185.15740740741603,113.24985639298393 185.01851851848187,113.46128244753345 184.99074074072996,113.57202929643245 184.898148148146,113.60223296674667 185.0,113.71297970013256 184.87037037039408,113.66264028712612 184.76851851854008,113.69284393718408 184.74074074072996,113.84386208615615 184.71296296297805,113.8841335640609 184.71296296297805,113.93447289453616 184.75,114.0452193555684 184.72222222218988,114.20630495504884 184.73148148145992,114.45800081972266 184.69444444443798,114.669424983731 184.73148148145992,114.82044204114936 184.75,115.17281451875897 184.68518518516794,115.5151183313792 184.62962962960592,115.68626991247584 184.66666666668607,115.83728583339689 184.61111111112405,116.09904636318242 184.59259259252576,116.33060333222238 184.601851851854,116.66283655122243 184.5740740740439,116.77358077602548 184.601851851854,116.98500131680339 184.5740740740439,117.16621865988418 184.5740740740439,117.3373681496596 184.65740740741603,117.66959889332065 184.58333333331393,117.84074774554028 184.58333333331393,117.99176125862869 184.53703703702195,118.09243684027751 184.54629629629198,118.49513841681619 184.53703703702195,118.55554354980995 184.50925925927004,118.59581362345489 184.5,118.54547602951061 184.5,118.60588113999256 184.45370370370802,118.51527346416697 184.398148148146,118.52534098669275 184.37962962960592,118.62601617081236 184.37962962960592,119.07905357122945 184.3240740740439,119.59249412234203 184.34259259258397,120.29721327122388 184.28703703702195,120.50862829929247 184.29629629629198,120.59923463864834 184.25,120.86098594444775 184.26851851854008,121.32408316669898 184.23148148145992,122.0388605471162 184.25925925927004,122.07912958283123 184.24074074072996,122.11939860654093 184.22222222218988,122.64289482295862 184.15740740741603,122.9952469038908 184.15740740741603,123.69994831008808 184.08333333337214,124.29390807043092 184.101851851854,124.33417643426947 184.08333333337214,124.65632291324437 184.11111111112405,125.30061356784427 184.06481481483206,125.88449932094954 184.0740740740439,125.98516902347183 184.06481481483206,126.09590560968354 184.01851851848187,126.18650820360926 183.96296296291985,126.76032322175888 183.9259259258979,126.85092537038872 183.9259259258979,126.9415274583007 183.88888888887595,127.12273145192012 183.86111111106584,127.5153392715365 183.88888888887595,127.70660933468025 184.0,127.72674300978542 184.03703703702195,127.74687668190745 184.03703703702195,127.79721084910852 183.98148148145992,127.79721084910852 184.00925925927004,127.74687668190745 184.03703703702195,127.78714401715115 184.00925925927004,127.64620829134219 184.0740740740439,127.44487128529727 184.13888888887595,127.37440326233627 184.13888888887595,127.32406893775624 184.0740740740439,127.09253080318013 184.01851851848187,127.0522632610373 183.91666666662786,127.08246391877037 183.87037037039408,127.07239703358937 183.90740740741603,127.10259768684045 184.22222222218988,127.07239703358937 184.29629629629198,127.0522632610373 184.7037037036498,127.07239703358937 184.91666666662786,127.02206259655941 185.01851851848187,126.98179503342544 185.13888888887595,126.99186192532943 185.25,126.95159435320966 185.43518518516794,126.93146056262776 185.59259259258397,126.9415274583007 185.63888888887595,126.90125987116335 185.63888888887595,126.85092537038872 185.66666666668607,126.80059085085668 185.5277777777519,126.82072466093086 185.38888888887595,126.82072466093086 185.28703703702195,126.7804570378139 185.24074074072996,126.75025631261815 185.21296296297805,126.68985484195582 185.1759259258979,126.47844948212878 185.12037037039408,126.46838255200419 185.0740740740439,126.43818175706838 184.97222222218988,126.42811482390971 184.59259259252576,126.47844948212878 184.36111111106584,126.53885104726214 184.30555555550382,126.57911874232377 184.148148148146,126.59925258536532 184.101851851854,126.62945334429969 184.05555555556202,126.64958717987611 184.01851851848187,126.59925258536532 183.95370370370802,126.56905181970797 183.90740740741603,126.58918566422653 183.851851851854,126.56905181970797 183.8240740740439,126.52878412159771 183.71296296297805,126.51871719522023 183.50925925927004,126.57911874232377 183.25925925927004,126.61938642542373 182.8240740740439,126.63952026246989 182.40740740735782,126.6999217555931 182.16666666662786,126.6999217555931 181.91666666668607,126.73012249205203 181.50925925921183,126.84085846798553 181.26851851854008,126.86099227203522 181.22222222218988,126.85092537038872 181.13888888887595,126.7804570378139 180.87962962960592,126.72005558066303 180.26851851848187,126.68985484195582 180.21296296291985,126.6999217555931 179.87037037033588,126.68985484195582 179.5740740740439,126.70998866851005 179.40740740741603,126.6999217555931 178.898148148146,126.63952026246989 178.78703703702195,126.64958717987611 178.63888888887595,126.62945334429969 178.51851851848187,126.63952026246989 178.24074074072996,126.60931950576924 178.13888888887595,126.56905181970797 178.01851851848187,126.56905181970797 177.90740740741603,126.55898489628453 177.78703703702195,126.59925258536532 177.66666666668607,126.55898489628453 177.31481481477385,126.57911874232377 177.20370370370802,126.60931950576924 176.84259259258397,126.59925258536532 176.37037037033588,126.68985484195582 176.12962962960592,126.67978792755457 176.0277777777519,126.6999217555931 175.87962962960592,126.67978792755457 174.45370370370802,126.70998866851005 174.20370370370802,126.67978792755457 173.37962962960592,126.70998866851005 172.31481481483206,126.65965409651108 172.13888888887595,126.67978792755457 171.601851851854,126.65965409651108 171.4259259259561,126.64958717987611 171.22222222218988,126.54891797215532 170.86111111112405,126.54891797215532 170.75925925927004,126.51871719522023 170.54629629629198,126.52878412159771 170.4999999999418,126.56905181970797 170.43518518516794,126.57911874232377 170.27777777781012,126.58918566422653 169.54629629629198,126.45831562110106 169.31481481477385,126.46838255200419 168.94444444443798,126.42811482390971 168.84259259258397,126.43818175706838 168.66666666668607,126.41804789003072 168.3240740741021,126.45831562110106 168.15740740741603,126.41804789003072 167.94444444443798,126.41804789003072 167.851851851854,126.42811482390971 167.73148148145992,126.40798095539503 167.62037037033588,126.42811482390971 167.31481481477385,126.42811482390971 167.2037037036498,126.44824868946307 166.87962962960592,126.39791401999537 166.73148148145992,126.34757933179935 166.51851851848187,126.23684295178828 166.25,126.25697684580518 166.148148148146,126.29724462484592 165.49074074072996,126.22677600363386 165.02777777781012,126.17644125174411 164.52777777781012,126.08583865102264 163.98148148145992,126.02543688348669 163.88888888887595,125.98516902347183 163.71296296297805,125.97510205661092 163.09259259258397,125.90463326745521 162.9259259259561,125.93483418158576 162.65740740741603,125.85429839556309 162.28703703708015,125.80396350497904 161.97222222218988,125.74356161148171 161.65740740741603,125.72342764095083 161.29629629629198,125.65295872062416 160.86111111112405,125.61269074965821 160.33333333337214,125.55228877069021 160.24074074072996,125.58248976354662 160.19444444443798,125.68315969099058 160.3240740740439,125.77376256159914 160.37037037033588,125.77376256159914 160.40740740741603,125.80396350497904 160.37962962960592,125.84423141895968 160.26851851848187,125.85429839556309 160.24074074072996,125.89456629459164 160.03703703702195,125.87443234660168 159.94444444443798,125.90463326745521 159.898148148146,125.89456629459164 159.851851851854,125.91470023958391 159.76851851848187,126.00530295498902 159.62037037033588,126.08583865102264 159.47222222218988,126.07577169165597 159.351851851854,126.02543688348669 159.24074074072996,125.85429839556309 159.24074074072996,125.78382954347035 159.37962962966412,125.89456629459164 159.59259259258397,125.90463326745521 159.63888888887595,125.93483418158576 159.68518518516794,125.92476721094863 159.86111111112405,126.13617343669466 159.9259259258979,126.16637429910043 160.08333333331393,126.14624039157934 160.1759259258979,126.07577169165597 160.25,125.86436537145346 160.26851851848187,125.76369557895669 160.21296296291985,125.7334946265837 160.12037037039408,125.56235576905601 160.01851851848187,125.52208777110354 159.90740740741603,125.51202076971822 159.7222222222481,125.4516187457848 159.5740740740439,125.43148473178735 159.5277777777519,125.44155173918261 159.1018518517958,125.38114968373702 158.87037037033588,125.3610156592622 158.101851851854,125.13954119210393 157.83333333331393,125.08920603531442 157.31481481483206,124.90799931569927 157.25925925927004,124.91806636204274 157.1759259258979,124.87779817214323 156.81481481483206,124.78719470099895 156.63888888887595,124.71672529256466 155.95370370370802,124.54558514769451 155.45370370370802,124.40464604213776 155.40740740735782,124.37444478613907 155.30555555556202,124.36437769929034 154.9537037036498,124.213371306716 154.66666666662786,124.15296870247403 154.22222222218988,123.93149225587695 153.80555555556202,123.84088815041468 153.56481481477385,123.81068676843279 153.4259259258979,123.7804853796988 153.37037037033588,123.75028398421273 152.68518518516794,123.63954547637695 152.50925925927004,123.5791426156793 152.45370370370802,123.56907546961156 152.26851851848187,123.43820250240242 152.05555555550382,123.3576652288175 151.96296296291985,123.29726224216574 151.87037037033588,123.30732940848975 151.55555555556202,123.22679205694294 151.18518518516794,123.20665771154745 150.87037037033588,123.1563218349329 150.6759259258979,123.1563218349329 150.1018518517958,123.11605312018219 149.97222222218988,123.13618747906003 149.81481481477385,123.10598593961913 149.56481481477385,123.1261203000031 149.43518518516794,123.13618747906003 149.11111111112405,123.23685922849108 149.06481481477385,123.23685922849108 148.91666666662786,123.29726224216574 148.75925925927004,123.30732940848975 148.601851851854,123.43820250240242 148.33333333331393,123.56907546961156 148.22222222218988,123.58920976099034 148.148148148146,123.65967975725653 147.8240740740439,123.81068676843279 147.58333333331393,123.9516264933045 147.15740740741603,124.13283449503797 147.0,124.1831700079565 146.94444444443798,124.17310290689784 146.84259259258397,124.213371306716 146.78703703702195,124.30397516250378 146.74074074072996,124.30397516250378 146.148148148146,124.62612171345245 145.8518518517958,124.69659116912226 145.81481481483206,124.72679235317628 145.78703703702195,124.82746291790681 145.78703703702195,124.77712764488388 145.81481481483206,124.73685941300937 145.90740740741603,124.7066582312109 145.93518518516794,124.6663899783307 145.87962962960592,124.6663899783307 145.83333333331393,124.68652410626964 145.83333333331393,124.74692647210759 145.87037037033588,124.78719470099895 145.9722222222481,124.77712764488388 146.02777777781012,124.80732881093718 145.55555555556202,124.89793226860638 145.37037037033588,124.87779817214323 145.31481481477385,124.89793226860638 144.68518518516794,124.88786522073497 144.09259259258397,124.80732881093718 143.62037037039408,124.6663899783307 143.49074074072996,124.6160546453466 143.5277777777519,124.58585343656159 143.55555555550382,124.46504853395163 143.5277777777519,124.3543106117213 143.48148148145992,124.31404225384904 143.15740740735782,124.14290159913071 143.08333333331393,124.0623647454413 142.94444444443798,123.97176072771981 142.83333333337214,123.9516264933045 142.79629629629198,123.93149225587695 142.75,123.92142513605359 142.56481481483206,123.84088815041468 142.25925925927004,123.75028398421273 142.21296296291985,123.77041824862681 142.1018518517958,123.75028398421273 141.87962962966412,123.77041824862681 141.23148148145992,123.7804853796988 141.06481481477385,123.77041824862681 140.851851851854,123.74021685087791 140.74074074072996,123.75028398421273 140.43518518516794,123.72008258198184 140.22222222218988,123.74021685087791 140.18518518516794,123.77041824862681 140.15740740741603,123.93149225587695 140.0740740740439,124.02209630062134 139.4259259259561,124.02209630062134 139.45370370370802,124.0623647454413 139.33333333331393,123.97176072771981 139.30555555550382,124.0623647454413 139.24074074072996,124.0623647454413 139.12962962960592,123.99189495912287 139.0277777777519,123.96169361086504 138.898148148146,123.97176072771981 138.898148148146,124.01202918753552 137.73148148145992,123.43820250240242 137.79629629629198,123.51873972798057 137.83333333331393,123.68988117299159 137.63888888887595,123.69994831008808 137.53703703702195,123.74021685087791 137.49074074072996,123.71001544641331 137.37962962960592,123.73014971679368 137.21296296291985,124.38451187221654 137.25925925927004,123.77041824862681 137.21296296291985,123.79055251002137 137.16666666662786,123.76035111678357 137.148148148146,123.81068676843279 136.99074074072996,123.86102240131004 136.93518518516794,123.92142513605359 136.83333333331393,123.91135801547352 136.72222222218988,123.92142513605359 136.66666666662786,123.91135801547352 136.41666666668607,123.96169361086504 136.23148148145992,124.07243185479456 136.0740740741021,124.11270028462604 136.01851851854008,124.11270028462604 135.7777777777519,124.1831700079565 135.6759259259561,124.23350550213945 135.50925925921183,124.1831700079565 135.36111111112405,124.2033042078765 135.20370370370802,124.16303580504609 134.8240740740439,124.2033042078765 134.73148148145992,124.17310290689784 134.59259259258397,124.213371306716 134.5,124.16303580504609 134.55555555550382,124.16303580504609 134.5277777777519,124.12276739021763 134.5,124.16303580504609 134.45370370370802,124.12276739021763 134.5,124.13283449503797 134.53703703702195,124.10263317827048 134.58333333331393,124.12276739021763 134.648148148146,124.10263317827048 134.68518518516794,124.08249896338384 134.80555555556202,124.052297635375 134.86111111112405,124.02209630062134 134.87037037033588,123.96169361086504 134.84259259258397,123.92142513605359 134.69444444443798,123.89122377207241 134.54629629629198,123.94155937497999 134.44444444443798,123.92142513605359 134.40740740741603,123.9516264933045 134.19444444443798,124.01202918753552 133.99074074072996,123.97176072771981 133.87962962960592,123.98182784379605 133.84259259258397,123.9516264933045 133.6018518517958,123.86102240131004 133.45370370370802,123.72008258198184 133.34259259258397,123.649612617206 133.25,123.52880687778088 133.12962962960592,123.29726224216574 133.09259259258397,123.26706073869718 133.06481481483206,123.09591875830665 133.0,122.96504533294501 133.0277777777519,122.824104579282 133.00925925927004,122.723432522449 133.148148148146,122.25027285074611 133.25925925927004,122.06906232503388 133.33333333331393,121.99859149942495 133.61111111112405,121.82744791280857 133.69444444443798,121.76704424226045 133.75,121.75697696123098 134.08333333331393,121.61603494777228 134.13888888887595,121.47509278737562 134.04629629629198,121.44489087673719 133.95370370370802,121.4650254845692 133.97222222218988,121.42475626590749 134.21296296291985,121.32408316669898 134.398148148146,121.28381390601135 134.5,121.22340999249718 134.648148148146,121.17307337727107 134.95370370370802,120.9415247057841 134.96296296297805,120.88112063929293 135.0000000000582,120.86098594444775 135.101851851854,120.69990827779839 135.22222222218988,120.56903253227938 135.2777777777519,120.42808927997976 135.31481481483206,120.38781975230086 135.34259259252576,120.29721327122388 135.33333333331393,120.23680891674303 135.34259259252576,120.12606753007276 135.40740740741603,120.05559569127945 135.39814814808778,120.00525864111114 135.36111111112405,119.96498898745631 135.41666666668607,119.88444964415248 135.4537037036498,119.86431480082683 135.62037037039408,119.9347867393517 135.68518518516794,119.9347867393517 135.74074074072996,119.95492157219269 135.79629629629198,119.9347867393517 135.98148148145992,119.94485415613599 136.09259259258397,119.92471932180342 136.23148148145992,119.94485415613599 136.38888888887595,120.0958653179623 136.5,119.99519122883066 136.54629629629198,119.62269644694607 136.61111111112405,119.48175220767007 136.69444444443798,119.40121257639112 136.63888888887595,119.33074035964091 136.18518518516794,119.07905357122945 136.11111111106584,119.04885112511693 136.03703703702195,119.05891860792326 135.93518518516794,119.08912105178752 135.68518518516794,119.04885112511693 135.70370370370802,118.95824374628864 135.66666666662786,118.91797378063347 135.648148148146,118.78709630940284 135.54629629629198,118.56561106934532" stroke="#4dd2ff" stroke-linecap="round" stroke-linejoin="round" stroke-width="0.5"><title>2023-02-25 12.5km</title></polyline><polyline fill="none" points="67.0,191.74400148703717 63.60571428760886,191.07291738921776 61.445714285597205,191.4084594505839 56.50857142917812,189.39520670543425 53.42285714484751,186.37532590003684 53.42285714484751,180.67110107047483 44.16571428626776,175.30241227545775 36.451428573578596,172.61806547641754 35.83428571373224,172.9536089138128 34.600000001490116,171.61143501335755 32.440000001341105,171.61143501335755 30.280000001192093,172.61806547641754 27.19428571499884,171.94697852618992 25.03428571484983,172.2825220131781 19.78857143037021,169.59817341342568 18.86285714432597,169.93371707573533 19.48000000230968,170.94034791341983 20.097142858430743,170.26926071289927 17.011428574100137,168.25599851296283 15.468571430072188,168.59154227538966 14.234285715967417,169.93371707573533 13.308571429923177,170.94034791341983 13.0,172.61806547641754" stroke="#4dd2ff" stroke-linecap="round" stroke-linejoin="round" stroke-width="0.5"><title>2022-10-26 2.2km</title></polyline><polyline fill="none" points="187.0,186.3228634336847 186.91542678140104,186.3228634336847 185.98512137820944,185.7250882338849 185.90054815961048,184.9433813293581 185.77368833194487,184.7594501490821 184.71652310108766,184.39158762380248 184.4628034455236,184.1616734341369 183.61707126069814,183.8857762933476 183.19420516840182,183.60987902921624 182.72905246680602,183.93175915873144 181.7987470633816,183.79381055239355 181.2067345341202,183.37996454816312 180.9953014878556,183.4259474511491 180.78386844159104,183.33398164174287 180.40328895836137,182.9201353288372 180.14956930303015,182.4603057667846 179.85356303839944,182.36833981325617 179.64212999213487,182.4603057667846 178.5003915426787,182.09244187030708 178.24667188711464,182.1844078649301 177.40093970228918,181.26474730088376 176.93578700069338,180.66696719906759 176.38606108073145,180.11516966758063 176.04776820680127,179.93123704742175 175.540328895906,179.8392707167077 174.90602975711226,179.37943885766435 173.72200469858944,178.8736234168755 173.08770555979572,178.32182428089436 172.15740015660413,177.953957916121 170.931088488549,176.9883076644619 170.0007830853574,176.7583907149383 169.5356303837616,176.57445709372405 168.09788566967472,175.56282119621756 167.67501957714558,175.56282119621756 167.25215348484926,175.14896966901142 167.20986687554978,175.33290371543262 167.2944400939159,175.56282119621756 167.12529365695082,176.0686393523938 167.1675802662503,175.65478816459654 166.78700078302063,175.24093669903232 165.77212216123007,174.73511786403833 165.47611589659937,174.3672493598424 164.41895066550933,173.53954442311078 163.57321848068386,173.03372419270454 163.36178543465212,172.5738872596412 163.06577916978858,172.29798493511043 162.43148003146052,172.02208248723764 161.41660140943713,171.2863420228241 159.5559906028211,170.27469745115377 158.9639780735597,169.44698702171445 158.58339859033003,169.1250993325375 156.76507439324632,168.4353394326754 156.55364134698175,168.25140332913725 155.5387627251912,167.83754689543275 154.69303054036573,167.19376966892742 153.97415818320587,166.91786493750988 153.5935786999762,166.96384906803723 152.15583398588933,167.42369018419413 151.732967893593,167.3777060880093 150.4643696162384,166.87188080366468 149.9992169146426,166.50400760903722 149.8300704776775,166.54999177035643 149.23805794818327,166.27408675092738 148.56147220055573,165.86022899032105 148.2654659356922,165.5843236623914 146.19342208304442,164.71062264265493 145.68598277214915,164.61865404219134 143.57165230996907,163.83692038495792 143.2333594362717,164.34274815872777 142.68363351607695,164.75660693767713 142.5567736881785,165.17046543891774 142.34534064191394,165.30841821088688 141.41503523872234,165.5843236623914 140.82302270946093,166.0901500027976 140.69616288179532,166.54999177035643 141.24588880175725,169.44698702171445 141.07674236502498,170.64256839640439 140.94988253712654,170.82650378684048 140.73844949086197,170.87248762598028 138.70869224751368,170.73453609854914 137.39780736109242,170.4586329511949 136.55207517626695,170.13674579001963 135.9600626467727,169.5849388371571 134.56460454198532,168.94116343458882 134.22631166805513,169.1710832983954 133.3382928739302,169.5849388371571 133.0,170.04477799887536 133.0,170.55060068075545 133.42286609229632,171.562244799803 134.64917776035145,173.3556098418776 134.90289741568267,173.30962618795456 135.36805011727847,172.8497894605389 135.91777603770606,172.48191983177094 136.4252153483685,172.43593611282995 137.35552075179294,172.66585467359982 137.65152701642364,172.52790354733588 138.11667971801944,172.66585467359982 138.75097885658033,173.3556098418776 139.21613155817613,174.9650355677586 139.80814408743754,176.2065896866261 140.8653093187604,177.72404132655356 140.8653093187604,178.27584099740488 141.54189506662078,178.50575738103362 143.14878621767275,179.60935483005596 144.03680501156487,179.74730437237304 144.9248238056898,179.47140525694704 145.77055599051528,178.8276401743642 146.15113547374494,178.32182428089436 146.48942834767513,178.1378911259235 147.88488645269535,179.0575563524617 148.51918559125625,179.60935483005596 148.64604541892186,179.88525388384005 148.35003915429115,181.54064561414998 148.51918559125625,182.0464588679024 148.60375880962238,183.10406705766218 149.19577133911662,184.1616734341369 149.9992169146426,184.9433813293581 150.88723570876755,184.98936411581235 151.9866875486914,184.62150172778638 153.4244322630111,183.6558619151474 153.67815191834234,183.37996454816312 154.14330462017097,183.19603290152736 154.94675019569695,184.06970773427747 155.58104933449067,184.98936411581235 155.6656225528568,185.17329522763612 155.4964761158917,185.86303640838014 155.9616288174875,187.10456858988618 156.17306186375208,187.15055121527985 157.23022709484212,186.92063805408543 158.37196554406546,187.0126033287961 159.85199686768465,187.56439468963072 160.90916209854186,188.11618555686437 162.05090054823086,188.43806333473185 162.2623335942626,188.66797593032243 162.47376664052717,189.17378333915258 162.43148003146052,189.58762545598438 162.64291307749227,190.23137930815574 162.7274862958584,191.1050441756379 162.68519968679175,191.97870780574158 162.89663273305632,192.3925480406615 163.36178543465212,192.71442358702188 163.65779169951566,192.6684413763578 164.03837118227966,192.3925480406615 164.5035238841083,191.47290269704536 164.67267032107338,190.27736170048593 165.09553641360253,189.54164301231503 165.30696945963427,188.85190594516462 165.30696945963427,188.07020300341537 165.56068911519833,187.56439468963072 165.64526233356446,187.0126033287961 165.56068911519833,186.64474214741495 165.8566953795962,185.90901912632398 166.49099451838993,185.44919179257704 166.95614721998572,185.40320904029068 167.2944400939159,185.17329522763612 168.14017227874137,185.12731245491887 168.3938919340726,184.89739853946958 168.43617854337208,184.34560479264474 168.90133124496788,183.10406705766218 169.1973375098314,181.77056078088935 169.45105716516264,181.21876423677895 169.45105716516264,180.7129503043252 168.81675802660175,180.20713595702546 168.35160532500595,179.5633716424345 167.2944400939159,178.8736234168755 166.8715740016196,178.78165692841867 166.5332811276894,178.4137908378616 166.49099451838993,178.04592452791985 166.3641346907243,177.54010799335083 166.74471417395398,176.9883076644619 166.95614721998572,175.83872206014348 166.02584181679413,174.8730684965849 165.68754894286394,174.68913431296824 165.09553641360253,173.99938063620357 164.54581049317494,173.49356078298297 163.8692247455474,173.07970786711667 163.10806577908807,172.29798493511043 162.51605324982665,172.02208248723764 161.71260767430067,171.4242934267968 161.332028191071,171.3323258276214 161.12059514480643,171.05642294773133 159.93657008605078,170.4586329511949 158.3296789349988,169.21706726081902 157.69537979643792,168.98714741430013 155.62333594355732,167.74557876150357 153.9318715739064,166.96384906803723 153.5935786999762,166.96384906803723 152.83241973351687,167.05581731867278 152.32498042285442,167.19376966892742 151.60610806569457,167.28573788533686 150.08379013300873,166.68794423370855 149.06891151121818,166.04416580713587 148.77290524658747,165.99818160803989 148.01174628012814,166.1821183837601 147.3351605325006,166.13613419490866 146.02427564607933,165.5383394289529 144.41738449479453,164.98652836150723 143.8676585748326,164.94054408365628 142.51448707911186,165.21644969959743 141.49960845708847,165.49235519225476 140.82302270946093,165.76826056139544 140.5270164445974,166.13613419490866 140.44244322623126,166.54999177035643 141.24588880175725,169.35501912760083 141.03445575549267,170.78051994438283 140.61158966342919,171.3323258276214 140.10415035230108,172.61987096827943 139.9350039155688,173.30962618795456 139.89271730626933,174.6431507585221 140.44244322623126,176.11462280061096 141.2036021926906,176.94232428137911 141.54189506662078,177.72404132655356 141.8379013312515,178.0919078285806 141.75332811265253,178.22985771030653 140.8653093187604,178.50575738103362 139.4275646044407,179.33345565298805 139.2584181674756,180.11516966758063 139.0046985121444,180.43705162091646 139.13155833981,181.03483194572618 139.85043069696985,181.9085098397918 140.35787000786513,182.78218649624614 141.3304620203562,185.2652607630007 141.3727486296557,186.18491536204237 140.94988253712654,187.47242949710926 140.5270164445974,187.8862727554515 140.14643696160056,188.07020300341537 138.87783868424594,188.20815065334318 136.67893500393257,188.3001157362596 136.34064213000238,188.71395843918435 136.2983555207029,189.44967811455717 136.38292873930186,190.1853969123913 136.89036805019714,190.50727361044846 137.77838684408925,190.87513248837786 138.75097885658033,191.6108495859662 140.01957713393494,192.02469006780302 140.31558339856565,192.20861908158986 140.61158966342919,192.94433458871208 141.28817541105673,194.0938883118797 141.28817541105673,194.36978088656906 141.45732184825465,194.82960157032358 141.795614721952,195.01352974795736 142.30305403308012,195.74924190953607 143.0642129990738,196.07111570431152 143.740798747167,196.16307961498387 144.24823805782944,196.07111570431152 144.84025058732368,195.84120586817153 145.68598277214915,194.96754770865664 146.44714173837565,193.22022767772432 147.2928739232011,192.43853027193109 147.37744714156725,192.3005835680524 147.25058731413446,192.20861908158986 147.67345340643078,191.84076099906815 148.01174628012814,191.7947787232697 148.56147220055573,191.47290269704536 149.8300704776775,191.1510265027755 151.01409553643316,190.55325598217314 151.732967893593,189.67959033319494 152.1981205951888,188.85190594516462 152.49412685981952,188.3001157362596 152.49412685981952,187.8862727554515 152.83241973351687,187.33448168257019 153.80501174624078,187.19653383735567 154.3970242755022,187.380464290909 154.73531714943238,187.380464290909 155.62333594355732,187.10456858988618 155.9616288174875,187.15055121527985 156.34220830071718,187.0126033287961 157.6108065780718,186.8746554114623 158.7948316365946,187.10456858988618 159.17541111982428,187.42644689569715 160.0634299137164,187.65635986853158 160.35943617857993,187.97823788633104 161.45888801873662,188.62199341808446 162.34690681262873,188.62199341808446 162.93891934212297,188.34609827247914 163.5309318716172,187.51841209514532 163.996084573213,185.86303640838014 163.8692247455474,184.43757045146776 163.95379796391353,183.8397934245877 164.4612372748088,182.96611826610751 165.2646828503348,182.27637384599075 165.7298355519306,181.6785947244498 165.7298355519306,180.89688269142061 165.47611589659937,180.34508536558133 164.5035238841083,179.1955060181208 163.65779169951566,178.9196066558361 163.19263899768703,178.55174064758467 162.51605324982665,177.6320746668498 162.0931871572975,176.2525731245987 161.45888801873662,175.65478816459654 160.99373531714082,175.4248707179795 160.40172278764658,175.47085421410156 159.85199686768465,175.65478816459654 159.64056382142007,175.83872206014348 158.37196554406546,176.39052341756178 157.99138606106862,176.48249026248232 156.63821456534788,176.57445709372405 156.1307752544526,176.5284736798494 155.75019577122293,176.39052341756178 155.11589663266204,175.7467551191803 153.8895849646069,173.72347894945415 152.45184025052004,172.43593611282995 151.90211433032528,172.11404998361832 151.35238841036335,171.47027722129133 150.6335160532035,170.32068133127177 150.50665622553788,169.5849388371571 150.37979639763944,169.35501912760083 150.42208300693892,168.94116343458882 150.2952231792733,168.8491954652127 149.95693030534312,168.71124348521698 149.23805794818327,169.03313139046077 148.47689898195677,169.1250993325375 147.927173061762,169.30903517547995 147.71574001573026,169.5849388371571 147.1660140955355,171.7461799159646 146.74314800323918,172.98774051479995 147.12372748646885,175.01101909810677 146.82772122160532,177.2182245281292 147.20830070483498,178.04592452791985 147.67345340643078,178.55174064758467 148.05403288966045,178.78165692841867 148.77290524658747,179.65533801430138 148.77290524658747,180.11516966758063 148.64604541892186,180.8049165047123 148.22317932662554,181.58662865427323 148.30775254499167,182.69022059068084 148.51918559125625,183.28799873171374 149.11119812051766,183.8857762933476 149.23805794818327,184.34560479264474 149.61863743141294,184.7594501490821 150.12607674230821,185.08132967865095 151.56382145662792,184.8514157461468 152.07126076729037,184.62150172778638 152.6632732967846,184.29962195822736 153.72043852787465,183.4259474511491 154.22787783876993,183.28799873171374 155.0736100235954,184.39158762380248 155.41190289752558,184.80543294921517 155.62333594355732,185.90901912632398 156.003915426787,186.59875948436093 156.29992169165052,186.92063805408543 156.722787783714,186.82867276557954 156.84964761161245,186.92063805408543 157.1879404853098,186.8746554114623 157.1879404853098,186.92063805408543 157.44166014087386,186.8746554114623 157.90681284246966,187.0126033287961 158.9639780735597,187.05858596111648 159.7251370397862,187.42644689569715 161.12059514480643,188.1621681068209 161.41660140943713,188.3920808052644 161.88175411103293,188.48404586070683 162.135473766597,188.53002838324755 162.98120595142245,188.20815065334318 163.4040720439516,187.74832503357902 163.57321848068386,187.10456858988618 163.996084573213,186.5067941477755 164.08065779157914,185.7250882338849 163.91151135484688,184.25363912025932 164.08065779157914,183.56389613979263 164.54581049317494,182.9201353288372 165.2646828503348,182.4143227916793 165.89898198912852,181.77056078088935 166.70242756442167,181.9085098397918 167.8018794048112,182.552271706576 168.56303837127052,182.4143227916793 168.68989819893613,181.8625268235337 169.32419733749703,180.8049165047123 169.32419733749703,180.57500097807497 168.94361785426736,180.20713595702546 167.67501957714558,179.14952279964928 166.91386061068624,178.8736234168755 166.49099451838993,178.55174064758467 166.61785434605554,177.953957916121 166.27956147235818,177.6320746668498 166.23727486282587,177.44814130623126 166.8292873923201,176.9883076644619 167.3367267032154,175.7467551191803 167.54815974924713,175.60880468209507 167.7595927955117,175.65478816459654 168.14017227874137,175.47085421410156 168.81675802660175,175.93068898731144 169.1973375098314,176.0226559008006 169.70477682049386,176.43650684179738 170.1699295223225,176.5284736798494 170.67736883298494,176.71240731485886 170.97337509784847,176.9883076644619 171.77682067337446,177.2182245281292 172.072826938238,177.67805799847702 172.62255285819992,178.1378911259235 174.10258418158628,179.0115731236874 174.35630383715034,179.2874724448193 174.77916992944665,179.33345565298805 175.2020360219758,179.5633716424345 175.87862176960334,179.65533801430138 175.92090837913565,179.74730437237304 176.34377447119914,179.9772202075692 176.51292090839706,180.253119096742 176.89350039162673,180.2991022329079 177.14722004695795,180.16115281399107 177.10493343765847,180.34508536558133 177.18950665625744,180.43705162091646 177.40093970228918,180.43705162091646 177.95066562248394,180.7129503043252 178.71182458894327,181.54064561414998 180.53014878625982,182.36833981325617 180.61472200462595,182.78218649624614 180.9953014878556,183.1500499813701 182.34847298357636,183.60987902921624 183.02505873143673,183.4259474511491 183.3210649958346,183.6558619151474 184.08222396229394,183.93175915873144 185.01252936548553,184.43757045146776" stroke="#4dd2ff" stroke-linecap="round" stroke-linejoin="round" stroke-width="0.5"><title>2022-10-25 10.5km</title></polyline><polyline fill="none" points="67.0,234.15960279387946 66.94513310299953,234.14767098451557 66.51717130659381,233.9806255600124 66.17699654540047,233.8971027824009 66.00142247509211,233.88517095347925 65.80390164599521,234.04028466020827 65.69416785205249,234.19539821663057 65.68319447262911,234.290852638238 65.66124771384057,234.33857982765767 65.51859378168592,234.52948844322236 65.48567364353221,234.6130108909274 65.46372688474366,234.63687443944218 65.2881528144353,234.74426036364457 65.1345255029155,234.7919874179206 64.8162975005107,234.95903199593886 64.4212558423169,235.1141446623369 64.31152204837417,235.18573507307156 64.19081487500807,235.31698407628573 64.15789473685436,235.41243782920355 64.14692135743098,235.49595981634047 64.01524080464151,235.55561835192202 64.03718756348826,235.71073044039076 63.93842714896891,235.87777405993256 63.94940052827587,236.06868084028247 63.88356025196845,236.15220248512924 63.87258687260328,236.2118607761804 63.8616134931799,236.30731399563956 63.88356025196845,236.3908355159947 63.8616134931799,236.5936733126582 63.87258687260328,236.7249211618182 63.82869335496798,236.90389532819972 63.850640113814734,236.96355333921383 63.773826458025724,237.19025357830105 63.76285307860235,237.4050219298515 63.773826458025724,237.4766113163496 63.729932940448634,237.72717391705373 63.79577321675606,237.88228390195582 63.81771997560281,238.09705132531235 63.79577321675606,238.33568145790196 63.773826458025724,238.38340744175366 63.75187969923718,238.53851679099898 63.773826458025724,238.65783157281112 63.729932940448634,238.76521480044175 63.69701280223671,239.13508981108316 63.64214590523625,239.33792413162882 63.64214590523625,239.42144407132582 63.70798618166009,239.50496396742528 63.7847998374491,239.70779781950114 63.7847998374491,239.7913175662543 63.82869335496798,240.20891564672638 63.79577321675606,240.35209188077715 63.81771997560281,240.47140531135665 63.79577321675606,240.50719932321226 63.80674659617944,240.5668559918413 63.7847998374491,240.8293450698111 63.81771997560281,240.9367268413189 63.850640113814734,240.97252074917196 63.87258687260328,241.04410854086746 63.850640113814734,241.2230778800731 63.8616134931799,241.31852811254794 63.80674659617944,241.49749714507197 63.81771997560281,241.73612221069925 63.7847998374491,241.8315721373947 63.80674659617944,241.8912283126847 63.80674659617944,242.1537152200035 63.773826458025724,242.34461451874813 63.7847998374491,242.47585765464464 63.729932940448634,242.83379293317557 63.75187969923718,243.0127602724533 63.718959561083466,243.08434715218027 63.7409063198138,243.12014058005298 63.69701280223671,243.2513830804237 63.718959561083466,243.33490097921458 63.686039422871545,243.4184188344516 63.67506604344817,243.49000553287624 63.70798618166009,243.549661090452 63.729932940448634,243.69283433791134 63.70798618166009,243.8360074574448 63.67506604344817,243.8598696315603 63.69701280223671,243.8598696315603 63.51046535256319,243.75248981993354 63.33489128225483,243.88373180216877 63.148343832523096,243.90759396919748 63.04958341794554,243.9553182926029 63.00568990042666,244.00304260177654 62.91790286521427,244.06269796825654 62.87400934769539,244.06269796825654 62.786222312483005,244.09849117744307 62.67648851854028,244.09849117744307 62.544807965809014,244.11042224541598 62.35826051613549,244.17007757189276 62.22657996340422,244.24166393435735 62.10587279009633,244.24166393435735 62.00711237551877,244.2774571035843 61.74375127005624,244.30131921195425 61.52428368217079,244.34904341801303 61.31578947365051,244.5160780273436 61.3596829912276,244.44449178753712 61.27189595607342,244.44449178753712 61.260922576650046,244.42062970048573 61.140215403342154,244.46835387100873 60.876854297937825,244.49221595094423 60.83296078030253,244.5160780273436 60.70128022757126,244.5160780273436 60.383052225166466,244.59959526665625 60.27331843122374,244.56380216940306 59.680755943933036,244.74276757560438 59.406421459047124,244.77856063282525 59.04429993900703,244.86207773530623 58.989433042064775,244.85014672331454 58.912619386275765,244.8740087463666 58.89067262748722,244.89787076588254 58.780938833602704,244.93366378844075 58.44076407235116,244.96945680303907 58.19934972561896,245.0291118095629 58.122536069888156,245.07683579881268 58.0676691729459,245.05297380595584 57.93598862021463,245.0887667938805 57.793334688059986,245.07683579881268 57.61776061775163,245.12455977381615 57.54094696196262,245.12455977381615 57.475106685596984,245.1603527457337 57.15687868319219,245.20807669585338 57.08006502740318,245.23193866560177 57.03617150982609,245.35124846090912 56.992277992249,245.3751104092953 56.93741109530674,245.3751104092953 56.4765291606891,245.4586272007 56.1583011582843,245.57793682716147 56.070514123130124,245.57793682716147 55.9607803291874,245.63759160709742 55.73033936187858,245.68531541500124 55.63157894735923,245.6972463647544 55.54379191220505,245.6614535128174 55.368217841896694,245.6614535128174 54.830522251548246,245.74497015491943 54.34769355820026,245.74497015491943 54.139199349679984,245.7688320446614 53.59053037996637,245.8881414400821 53.45884982729331,245.87621050453163 53.40398293029284,245.90007237471582 53.00894127204083,245.94779610444675 52.855313960579224,245.98358889239898 52.602926234481856,246.00745074660517 52.53708595811622,245.94779610444675 52.41637878475012,245.95972703465668 52.273724852711894,245.94779610444675 52.021337126614526,245.87621050453163 51.944523470825516,245.87621050453163 51.7908961593057,245.85234863078222 51.4726681568427,245.91200330850552 51.31904084532289,245.86427956810803 51.11054663686082,245.85234863078222 51.000812842918094,245.8881414400821 50.92399918718729,245.93586517334916 50.85815891076345,245.94779610444675 50.74842511682073,246.01938167234766 50.60577118472429,246.05517444430734 50.55090428778203,246.09096720827802 50.37533021741547,246.11482904652075 50.33143669983838,246.07903628789063 50.15586262953002,246.11482904652075 50.11196911195293,246.09096720827802 49.91444828285603,246.10289812783594 49.85958138591377,246.09096720827802 49.5303800040856,246.11482904652075 49.39869945135433,246.09096720827802 48.99268441373715,246.07903628789063 48.64153627312044,245.99551981993136 48.45498882344691,245.87621050453163 48.411095305811614,245.87621050453163 48.13676082098391,245.68531541500124 47.92826661246363,245.61372969776858 47.588091851212084,245.54214394856535 47.5441983336932,245.50635106195114 47.456411298539024,245.49442009798076 47.35765088396147,245.51828202506294 47.17110343428794,245.43476526477025 46.85287543182494,245.48248913312273 46.68827474088175,245.48248913312273 46.57854094699724,245.50635106195114 46.1944726681686,245.48248913312273 46.08473887422588,245.50635106195114 45.9969518390717,245.49442009798076 45.95305832149461,245.48248913312273 45.90916480385931,245.44669623317895 45.799431009974796,245.43476526477025 45.799431009974796,245.41090332523163 45.6787238366087,245.43476526477025 45.59093680145452,245.42283429543022 45.21784190204926,245.32738650895772 45.108108108106535,245.32738650895772 45.00934769352898,245.30352455342654 44.81182686443208,245.30352455342654 44.7240398292779,245.2796625943738 44.41678520623827,245.2796625943738 44.318024791718926,245.24386964911537 44.2082909977762,245.2558006317413 43.999796789255925,245.20807669585338 43.912009754101746,245.14842175596277 43.714488925004844,245.1722837346024 43.670595407427754,245.19614570967678 43.48404795775423,245.48248913312273 43.38528754317667,245.67338446434587 43.30847388744587,245.7330392087024 43.09997967892559,245.75690110026335 42.91343222919386,245.74497015491943 42.62812436494278,245.78076298821543 42.48547043284634,245.7688320446614 42.41963015648071,245.7926939308818 42.12334891280625,245.74497015491943 41.82706766919,245.7330392087024 41.728307254612446,245.6972463647544 41.32229221705347,245.6972463647544 41.22353180247592,245.67338446434587 41.113798008533195,245.60179874180176 40.97114407637855,245.39897235415992 40.81751676485874,245.12455977381615 40.652916073973756,245.11262878136768 40.378581589087844,245.1603527457337 40.17008738062577,245.1722837346024 39.74212558422005,245.12455977381615 39.65433854906587,245.14842175596277 39.30319040839095,245.0649048028281 39.2044299938716,245.0291118095629 39.14956309692934,244.94559479420423 39.138589717505965,244.8859397565684 39.10566957935225,244.85014672331454 38.99593578540953,244.8859397565684 38.78744157694746,244.8859397565684 38.44726681569591,244.81435368207167 38.32655964232981,244.81435368207167 38.24974598659901,244.77856063282525 38.08514529565582,244.67118143712287 37.70107701688539,244.57573320269876 37.4596626702114,244.56380216940306 37.38284901442239,244.57573320269876 37.31700873805676,244.6115262972744 37.20727494411403,244.73083655475057 37.17435480590211,244.74276757560438 37.08656777074793,244.70697451035085 36.72444625076605,244.73083655475057 36.625685836188495,244.68311246242956 36.43913838651497,244.6592504109285 35.9124161755899,244.64731938384648 35.802682381588966,244.62345732701942 35.7917090022238,244.63538835589134 35.66002844949253,244.56380216940306 34.858971753681544,244.43256074443343 34.70534444221994,244.44449178753712 34.606584027642384,244.49221595094423 34.40906319854548,244.50414698956592 34.3212761633913,244.46835387100873 34.189595610660035,244.48028491143486 33.827474090619944,244.42062970048573 33.79455395246623,244.43256074443343 33.68482015852351,244.34904341801303 33.6080065027345,244.33711236782256 33.4872993293684,244.28938815819856 33.245884982752614,244.2535949916346 33.201991465175524,244.21780181706708 32.93863035971299,244.1462154439796 32.587482219038066,244.12235331250122 32.47774842509534,244.06269796825654 32.31314773421036,244.03883582430717 32.258280837209895,244.06269796825654 32.19244056090247,244.05076689671841 32.06076000811299,244.06269796825654 31.819345661439,244.01497367682168 31.709611867496278,244.01497367682168 31.632798211765476,243.99111152581463 31.435277382668573,243.9791804489505 31.28165007114876,243.9195250513876 31.08412924199365,243.93145613267552 30.469619995972607,243.78828309848905 30.272099166817497,243.76442091369245 30.05263157893205,243.69283433791134 29.580776264949236,243.62124773018877 29.416175574064255,243.57352330721915 29.3174151594867,243.59738552049384 29.262548262544442,243.57352330721915 29.06502743344754,243.549661090452 28.966267018928193,243.51386775856372 28.889453363139182,243.51386775856372 28.77971956919646,243.49000553287624 28.73582605161937,243.5019366461638 28.61511887825327,243.4661433036381 28.505385084310547,243.4661433036381 28.351757772790734,243.44228107083472 28.285917496483307,243.4064877149649 28.176183702482376,243.394556594576 28.110343426116742,243.4064877149649 27.967689494020306,243.38262547328486 27.857955700019374,243.38262547328486 27.58362121519167,243.32296985349967 27.440967283095233,243.33490097921458 27.2544198333635,243.32296985349967 27.034952245478053,243.26331421150826 26.991058727900963,243.2752453416906 26.650883966707624,243.19172741177317 26.508230034494773,243.19172741177317 26.398496240610257,243.15593399992213 26.157081893936265,243.13207172088732 26.080268238147255,243.09627829567762 25.707173338741995,243.06048486252257 25.213371266028844,242.95310451490514 24.53302174352575,242.89344873515074 24.423287949583028,242.8695864170295 24.24771387927467,242.77413710896508 24.00629953260068,242.72641243360704 23.929485876869876,242.72641243360704 23.75391180656152,242.69061891775345 23.63320463319542,242.70255009060202 23.271083113213535,242.67868774403178 22.919934972538613,242.60710068298795 22.744360902288463,242.60710068298795 22.72241414344171,242.59516950303805 22.535866693709977,242.5832383222005 22.42613289982546,242.59516950303805 22.206665311940014,242.54744477434724 22.14082503557438,242.5593759578478 22.042064620996825,242.52358240466856 21.745783377380576,242.54744477434724 21.52631578949513,242.51165121849044 21.383661857340485,242.52358240466856 21.35074171918677,242.4997200314101 21.06543385493569,242.5355135899299 20.626498679164797,242.52358240466856 20.49481812643353,242.5593759578478 20.022962812450714,242.4997200314101 19.759601706988178,242.4997200314101 19.660841292410623,242.47585765464464 19.58402763667982,242.47585765464464 19.58402763667982,242.4639264649013 19.50721398089081,242.4639264649013 19.22190611663973,242.4281328904035 19.18898597842781,242.40427050294238 19.123145702120382,242.4162016971095 18.8378378378693,242.3923393078876 18.585450111771934,242.3326833192259 18.508636455982924,242.35654571736814 18.31111562694423,242.30882091756212 18.14651493600104,242.30882091756212 17.8063401748077,242.2253024836973 17.8063401748077,242.2014400660264 17.817313554114662,242.2133712752984 17.795366795384325,242.2253024836973 17.6856330014416,242.2014400660264 17.334484860824887,242.2253024836973 17.213777687458787,242.2133712752984 17.136964031727985,242.16564643285528 17.03820361715043,242.1537152200035 16.66510871774517,242.1417840062786 16.40174761234084,242.05826548529149 16.270067059551366,242.07019670525915 16.028652712877374,241.99860937225458 15.743344848684501,241.97474692077958 15.370249949221034,241.87929707941657 15.3044096728554,241.8315721373947 15.271489534643479,241.74805345464847 15.216622637643013,241.71225972012326 15.0629953261232,241.65260347817093 14.953261532238685,241.64067222713493 14.843527738237754,241.59294721398328 14.755740703083575,241.6048784686136 14.613086771045346,241.6883972260257 14.393619183101691,241.7003284735256 13.812030075176153,241.6287409751676 13.768136557657272,241.6048784686136 13.548668969771825,241.55715344483906 13.230440967308823,241.53329092760396 13.142653932096437,241.49749714507197 13.0,241.49749714507197" stroke="#4dd2ff" stroke-linecap="round" stroke-linejoin="round" stroke-width="0.5"><title>2022-10-21 10.5km</title></polyline></svg>