<?xml version="1.0" encoding="utf-8" ?>
<svg baseProfile="full" height="200mm" version="1.1" viewBox="0,0,200,200" width="200mm" xmlns="http://www.w3.org/2000/svg" xmlns:ev="http://www.w3.org/2001/xml-events" xmlns:xlink="http://www.w3.org/1999/xlink"><defs /><rect fill="#1a1a1a" height="200" width="200" x="0" y="0" /><text alignment-baseline="middle" fill="#e1ed5e" style="dominant-baseline: central; font-size:9.0px; font-family:Arial;" text-anchor="middle" x="100.0" y="100.0">2023</text><line stroke="#e1ed5e" stroke-width="0.3" x1="100.0" x2="100.0" y1="15.0" y2="10.0" /><path d="M 100.0 14.0 a86.0,86.0 0 0,1 42.46469731375804,11.215312516191453" fill="none" id="id13" stroke="none" /><text fill="#e1ed5e" style="font-size:6.75px; font-family:Arial;" text-anchor="middle"><textPath startOffset="22.20632615414155" xlink:href="#id13">January</textPath></text><path d="M 100.0 79.0 l 0.0 -25.340403428274612 a46.34040342827461,46.34040342827461 0 0,0 0.7976738686159536,0.006865830821805469 l -0.43619338934342516 25.336648974061365" fill="#d6ff1c" stroke="none" /><path d="M 100.72285384407766 79.0124445844662 l 0.28167403554765685 -8.178208469952278 a29.183057743918276,29.183057743918276 0 0,0 0.5018918496727427,0.021612518804458702 l -0.42240671760973114 8.172148224623625" fill="#ff4006" stroke="none" /><path d="M 101.08401301168833 79.027996857942 l 1.0061947210475075 -19.46648114349169 a40.492468184572765,40.492468184572765 0 0,0 0.695772345578497,0.041970887957152515 l -1.3411291154656164 19.446276986154235" fill="#ffde14" stroke="none" /><path d="M 105.01212808612495 79.60689891045804 l 0.9413430762444008 -3.8300905691008102 a24.944074106137997,24.944074106137997 0 0,0 0.4160803542553414,0.1060681467152309 l -1.0071323191847672 3.813319426216711" fill="#ff0100" stroke="none" /><path d="M 105.36241919743992 79.69619591428918 l 1.9942692219179206 -7.55092992269522 a28.809843303610077,28.809843303610077 0 0,0 0.4783834843382368,0.1307602773104532 l -2.1239505954798683 7.515483104558473" fill="#ff3b05" stroke="none" /><path d="M 105.71112130821622 79.79150937346287 l 6.427156929894512 -22.742143541269552 a44.6328889273656,44.6328889273656 0 0,0 0.737526146145695,0.21530410635847766 l -6.817673293763634 22.628141105992373" fill="#ebff1a" stroke="none" /><path d="M 106.40334571778207 80.00007090966166 l 4.762180018059637 -14.873984144277685 a36.617738723920006,36.617738723920006 0 0,0 0.5986427959314646,0.19736311772423112 l -5.01750563623352 14.789807302294218" fill="#ffaa0f" stroke="none" /><path d="M 107.08798089147638 80.2323363322302 l 6.583099113220221 -18.35959932090409 a40.50415548437365,40.50415548437365 0 0,0 0.6542726390454844,0.24097413459438927 l -6.8981540780382815 18.243561918503374" fill="#ffde14" stroke="none" /><path d="M 108.09893153111575 80.62456947434976 l 9.023291693314466 -21.58681804442985 a44.39680547138776,44.39680547138776 0 0,0 0.7025609314459977,0.3007999256863429 l -9.393536382550778 21.42829859078072" fill="#eeff19" stroke="none" /><path d="M 108.43124777332544 80.76684994638697 l 9.470333864340287 -21.603487071858254 a44.588087611462214,44.588087611462214 0 0,0 0.7002832665538128,0.31419668893543456 l -9.84079924936088 21.437270052406287" fill="#ecff1a" stroke="none" /><path d="M 110.05341064243156 81.56283822128135 l 5.6230814438325325 -10.312287636723486 a32.745736299887454,32.745736299887454 0 0,0 0.49255187060637506,0.27410458271785243 l -5.7997574035109425 10.213967656445453" fill="#ff740a" stroke="none" /><path d="M 110.36928655335952 81.73862282372117 l 11.570083202287655 -20.376103238216416 a44.431867370790414,44.431867370790414 0 0,0 0.6618301569643049,0.38337474509447306 l -11.919110091717288 20.173924335731893" fill="#eeff19" stroke="none" /><line stroke="#e1ed5e" stroke-width="0.3" x1="143.23703022742887" x2="145.7803849466894" y1="26.81831364943548" y2="22.513508569990506" /><path d="M 143.74570117128098 25.957352633546492 a86.0,86.0 0 0,1 28.547481713284135,27.462654790039103" fill="none" id="id14" stroke="none" /><text fill="#e1ed5e" style="font-size:6.75px; font-family:Arial;" text-anchor="middle"><textPath startOffset="19.985693538727396" xlink:href="#id14">February</textPath></text><path d="M 111.2981086023043 82.29822771554956 l 12.609190549636262 -19.755963379160832 a44.43693186737079,44.43693186737079 0 0,0 0.6412312204186034,0.41707462276707313 l -12.947388795839146 19.535989832234232" fill="#eeff19" stroke="none" /><path d="M 111.60114157652 82.49532879139004 l 12.916182489732153 -19.488903420570768 a44.38044325166652,44.38044325166652 0 0,0 0.6331510694455313,0.4275064284150958 l -13.249738253584226 19.263685079857" fill="#eeff19" stroke="none" /><path d="M 111.90073688211348 82.69761687909136 l 22.11270154926262 -32.14947425807677 a60.01999826854818,60.01999826854818 0 0,0 0.8461929756933477,0.5928122561037731 l -22.66282566453962 31.764077159209066" fill="#3cff2e" stroke="none" /><path d="M 112.48926042617603 83.11751280151076 l 18.55317116292154 -25.079441372919295 a52.19613020517704,52.19613020517704 0 0,0 0.7177063502701483,0.5405615434104171 l -18.982123666950073 24.75636324000303" fill="#91ff24" stroke="none" /><path d="M 112.77801427241765 83.33499621200491 l 23.7275953215909 -30.94537676075956 a59.9950653623063,59.9950653623063 0 0,0 0.8141257371113997,0.6354380512639106 l -24.256753613861733 30.532360320272428" fill="#3cff2e" stroke="none" /><path d="M 114.94478906791727 85.2469230424477 l 27.776325779105598 -27.420010409976115 a60.03051683836898,60.03051683836898 0 0,0 0.7196107788852251,0.7416221632145078 l -28.244200821693934 26.937824051211493" fill="#3cff2e" stroke="none" /><path d="M 115.19652480421416 85.50635884689758 l 14.479427454689949 -13.80971165015694 a41.0090468357718,41.0090468357718 0 0,0 0.4827988796498369,0.51501618263206 l -14.714993656310249 13.558426050646826" fill="#ffe515" stroke="none" /><path d="M 115.4437574822437 85.77008943001954 l 9.785165657553788 -9.016072181884923 a34.30560124664531,34.30560124664531 0 0,0 0.3964034430947114,0.43771858262289975 l -9.938912741264534 8.846300811992474" fill="#ff8a0c" stroke="none" /><path d="M 115.68641384162765 86.03803664274999 l 17.991835745568967 -16.0139439100269 a45.086356159639855,45.086356159639855 0 0,0 0.5109961717914898,0.5841569589776862 l -18.264823780938304 15.701871394846265" fill="#e6ff1a" stroke="none" /><path d="M 116.15771136456269 86.58626213691792 l 7.015856243719549 -5.824392725861068 a30.118431304648947,30.118431304648947 0 0,0 0.3277193794954941,0.4017452092858624 l -7.115074115291452 5.702763346967105" fill="#ff4e07" stroke="none" /><path d="M 116.82858285166822 87.43820079747576 l 25.014662235293795 -18.672348520872486 a52.21521946151849,52.21521946151849 0 0,0 0.531444980701553,0.7248903564270364 l -25.332369828508973 18.238995720773953" fill="#91ff24" stroke="none" /><path d="M 117.04232023915458 87.72973835380427 l 49.11557194416952 -35.362609679925065 a81.52151328889275,81.52151328889275 0 0,0 0.810119573232475,1.145856684558605 l -49.717004137205876 34.511926495034665" fill="#4aeaff" stroke="none" /><path d="M 117.2510076193507 88.02491185347247 l 25.638090500539654 -17.79712816938447 a52.20976538827807,52.20976538827807 0 0,0 0.5061252802966085,0.7426763962559401 l -25.940640246504994 17.353173749858126" fill="#91ff24" stroke="none" /><path d="M 117.65298651832404 88.62581576622439 l 32.76621528941948 -21.111950035114802 a59.97870314258506,59.97870314258506 0 0,0 0.5517252504811146,0.8726968491556285 l -33.12476813614654 20.54480553824497" fill="#3cff2e" stroke="none" /><line stroke="#e1ed5e" stroke-width="0.3" x1="172.23445277983987" x2="176.4835382374775" y1="55.19839476539836" y2="52.563006222186495" /><path d="M 173.08426987136738 54.67131705675599 a86.0,86.0 0 0,1 12.851231095245387,41.99856678651699" fill="none" id="id15" stroke="none" /><text fill="#e1ed5e" style="font-size:6.75px; font-family:Arial;" text-anchor="middle"><textPath startOffset="22.20632615414155" xlink:href="#id15">March</textPath></text><path d="M 117.84615892207809 88.93136811851018 l 27.62372722473659 -17.132923066544897 a53.505497359535966,53.505497359535966 0 0,0 0.47870655517595084,0.7868677092956246 l -27.914549578198763 16.654887584042193" fill="#82ff25" stroke="none" /><path d="M 118.21658344932153 89.55222093294921 l 18.939213418448496 -10.862229904424991 a42.83304475802961,42.83304475802961 0 0,0 0.36131174186019777,0.6427332725217221 l -19.123382801601128 10.534613121968475" fill="#fffc17" stroke="none" /><path d="M 118.3937258080291 89.86733742301442 l 17.079092054060983 -9.408462358916656 a40.49909098779327,40.49909098779327 0 0,0 0.331112662458027,0.6135014762364799 l -17.238512815737476 9.113079899347717" fill="#ffde14" stroke="none" /><path d="M 119.47837535516314 92.15188598940014 l 34.0563820165245 -13.721799892483297 a57.71682105445416,57.71682105445416 0 0,0 0.36335885827250075,0.9247086608582402 l -34.287534424678704 13.133542226729272" fill="#54ff2b" stroke="none" /><path d="M 119.7369772167798 92.82701384747503 l 18.318283577590567 -6.657392010787393 a40.49052030127262,40.49052030127262 0 0,0 0.2324289275583941,0.6571078774235742 l -18.43016558595877 6.341086506937204" fill="#ffde14" stroke="none" /><path d="M 120.08093135843002 93.85539295169968 l 15.166309858102627 -4.640771525354683 a36.86044498311834,36.86044498311834 0 0,0 0.18043030352871925,0.6083212867902438 l -15.243946058743049 4.379020851817909" fill="#ffad10" stroke="none" /><path d="M 120.28053869075195 94.5502522615342 l 50.82487549130592 -13.65756376051569 a73.62791100337634,73.62791100337634 0 0,0 0.3183659236111178,1.2267937733072622 l -51.05243774678734 12.780673561659576" fill="#3fffc2" stroke="none" /><path d="M 120.37134235888165 94.90015583598534 l 14.14759833806152 -3.5417669365185276 a35.58419184486192,35.58419184486192 0 0,0 0.1436367760795586,0.595467168273781 l -14.206467914401898 3.2977145365853406" fill="#ff9c0e" stroke="none" /><path d="M 120.53481517161879 95.60439243477599 l 20.502942615080237 -4.388785042134668 a41.967405419444205,41.967405419444205 0 0,0 0.14512869191337205,0.7076990431754645 l -20.575450602908607 4.035210342795791" fill="#fff116" stroke="none" /><path d="M 120.6074358757038 95.95851677861258 l 22.984285709073987 -4.507625577926247 a44.42212795428967,44.42212795428967 0 0,0 0.14070027063158003,0.7516264718058209 l -23.058471703615425 4.111321028657863" fill="#eeff19" stroke="none" /><path d="M 120.67395015179393 96.31383870115 l 23.320421342243037 -4.158026598375659 a44.68820881308977,44.68820881308977 0 0,0 0.12850655915324072,0.7584529864616485 l -23.3885397629165 3.7559878235981725" fill="#ebff1a" stroke="none" /><path d="M 120.78858239683441 97.02765380044208 l 51.96657103388155 -7.4301670488188245 a73.49506536230629,73.49506536230629 0 0,0 0.16828270438692983,1.253901612765379 l -52.086769737326314 6.534547093988781" fill="#3fffc1" stroke="none" /><path d="M 120.83666639777658 97.38593545837742 l 35.97589339774663 -4.513356670828992 a57.25789974893949,57.25789974893949 0 0,0 0.11426944601114042,0.9789908302487889 l -36.04825319676136 3.893422102255351" fill="#59ff2a" stroke="none" /><path d="M 120.91429891909075 98.10471618934814 l 23.326930146663134 -2.113919918148498 a44.422517530949705,44.422517530949705 0 0,0 0.06245703619708732,0.7621340394759566 l -23.359861666679716 1.7120719614647726" fill="#eeff19" stroke="none" /><path d="M 120.94382443527127 98.46500227214037 l 23.38433934219492 -1.7138659593286893 a44.44706086053156,44.44706086053156 0 0,0 0.04935615194563671,0.7635178250490688 l -23.41037608514497 1.3110890700265854" fill="#eeff19" stroke="none" /><path d="M 120.96714384426684 98.82574320788733 l 21.253942279674533 -1.1903188277073182 a42.28724785732837,42.28724785732837 0 0,0 0.03444677278927123,0.7271169301315059 l -21.2712826606973 0.8242907909528127" fill="#fff517" stroke="none" /><line stroke="#e1ed5e" stroke-width="0.3" x1="184.98032266829074" x2="189.97916517819016" y1="98.17113171792111" y2="98.06355123074" /><path d="M 185.9800911702706 98.14961562048488 a86.0,86.0 0 0,1 -9.607161424134198,41.387399972396054" fill="none" id="id16" stroke="none" /><text fill="#e1ed5e" style="font-size:6.75px; font-family:Arial;" text-anchor="middle"><textPath startOffset="21.466115282336823" xlink:href="#id16">April</textPath></text><path d="M 120.99513854157772 99.54816195383933 l 62.98541562473312 -1.355514138482002 a84.0,84.0 0 0,0 0.018667971529137795,1.4458549677581491 l -62.99941660337998 0.27112291266339017" fill="#4dd2ff" stroke="none" /><path d="M 120.99980553446 99.90962569577887 l 23.423858924468067 -0.10080640742119833 a44.424075837589825,44.424075837589825 0 0,0 -0.003290983580564866,0.7647086835642585 l -23.422123643598 -0.3024117543467449" fill="#eeff19" stroke="none" /><path d="M 120.9904718944345 100.63252640178507 l 24.033761925210506 0.7242328342290935 a45.044671457016705,45.044671457016705 0 0,0 -0.03002520603888187,0.7748171538596758 l -24.017734586320422 -1.1378272351027754" fill="#e6ff1a" stroke="none" /><path d="M 120.9764740272857 100.99374915477107 l 23.83016899865668 1.1289414164488623 a44.85689550688252,44.85689550688252 0 0,0 -0.04317721647861366,0.7709582050390652 l -23.807205431290537 -1.5389713378233507" fill="#e8ff1a" stroke="none" /><path d="M 120.95626037817324 101.35467743843564 l 23.364013063942306 1.5103220134639888 a44.41277811444897,44.41277811444897 0 0,0 -0.055882782717187135,0.7624761710984368 l -23.33455372256078 -1.9122713210591957" fill="#eeff19" stroke="none" /><path d="M 120.89721153311464 102.0752229133903 l 12.168567461313227 1.208414336948096 a33.228421781663926,33.228421781663926 0 0,0 -0.061421469443643364,0.5686865241092156 l -12.145963690368532 -1.417697182942103" fill="#ff7b0b" stroke="none" /><path d="M 120.8583938346157 102.4346265915055 l 11.641381299969328 1.3588014829657893 a32.72041381698554,32.72041381698554 0 0,0 -0.07011282088490127,0.5588681670724822 l -11.616266969837579 -1.5589874043256664" fill="#ff740a" stroke="none" /><path d="M 120.76222939487914 103.15116336523771 l 31.29818070912508 4.750245196380967 a52.65660981733183,52.65660981733183 0 0,0 -0.14372307123864844,0.8949637017974487 l -31.211775883525146 -5.2882881278716205" fill="#8bff24" stroke="none" /><path d="M 120.70491114924044 103.5080841355445 l 30.807316069777116 5.219759504597292 a52.24638559432084,52.24638559432084 0 0,0 -0.15786757337515323,0.885405189284804 l -30.712902054062774 -5.7492834446153145" fill="#90ff24" stroke="none" /><path d="M 120.64145759157962 103.86396538481128 l 11.49656457583132 2.1520925723472764 a32.69626006406372,32.69626006406372 0 0,0 -0.1083181430524776,0.5523118778068171 l -11.45781649980318 -2.3496681772220382" fill="#ff730a" stroke="none" /><path d="M 120.49622156327973 104.57218783832717 l 46.31935171878453 10.332674046968917 a68.4578391481257,68.4578391481257 0 0,0 -0.26646214426595427,1.147911943535499 l -46.13462900858802 -11.12845464785298" fill="#39ff88" stroke="none" /><path d="M 120.41448212921028 104.9243191809786 l 44.44366849731028 10.720566305290138 a66.71837936109429,66.71837936109429 0 0,0 -0.2789104207844764,1.1141084877361487 l -44.25254676223074 -11.484002632423682" fill="#36ff73" stroke="none" /><path d="M 120.23288151984713 105.62410040840565 l 30.702147179816254 8.53422476297088 a52.86620206042767,52.86620206042767 0 0,0 -0.2512588678808545,0.8746650811599932 l -30.5506956750493 -9.061447319635455" fill="#89ff24" stroke="none" /><path d="M 120.13307415673323 105.97154293290107 l 29.993815994235845 8.896274783312895 a52.285343260323785,52.285343260323785 0 0,0 -0.2633518812985319,0.8606491855214771 l -29.836237340431182 -9.41125094138643" fill="#90ff24" stroke="none" /><path d="M 120.02730092923936 106.31721596034902 l 29.744468971653166 9.382304424531865 a52.189117825296506,52.189117825296506 0 0,0 -0.27761566065293963,0.8544131484535902 l -29.578561059983983 -9.89291647296325" fill="#91ff24" stroke="none" /><path d="M 119.79798401119884 107.00284435728193 l 45.67061937386802 16.15438415320226 a69.44346809800018,69.44346809800018 0 0,0 -0.4083135019885969,1.1235033938014294 l -45.3857816108742 -16.93813534400982" fill="#3aff93" stroke="none" /><path d="M 119.67450827220406 107.3425965602758 l 39.68431803220877 14.810328830014711 a63.35789109168037,63.35789109168037 0 0,0 -0.39012084528789864,1.0184824232239804 l -39.42350290732737 -15.491234820071835" fill="#32ff4a" stroke="none" /><path d="M 119.41010516605496 108.01547362559984 l 29.056464368013383 11.998972792908832 a52.4364990044152,52.4364990044152 0 0,0 -0.3516966397372548,0.8313069668309846 l -28.84561674708382 -12.49735428540598" fill="#8eff24" stroke="none" /><path d="M 119.26925614724726 108.34839909993367 l 28.639714508425183 12.408147205965207 a52.212102848238246,52.212102848238246 0 0,0 -0.3643880551112864,0.8215988686388194 l -28.421885368582622 -12.899294411096713" fill="#91ff24" stroke="none" /><path d="M 119.12269723197855 108.67885076344098 l 28.415145112685032 12.896235340802761 a52.204700891697684,52.204700891697684 0 0,0 -0.3784228855238418,0.815089229338029 l -28.188947610321357 -13.38344463741962" fill="#91ff24" stroke="none" /><path d="M 118.81262510543309 109.33194174019688 l 42.2483114281381 20.957138020850515 a68.16059215652325,68.16059215652325 0 0,0 -0.5304235542083156,1.046575993748633 l -41.88130920414351 -21.681268226301842" fill="#38ff84" stroke="none" /><path d="M 118.64920377521936 109.65438752849418 l 41.59554095306448 21.5333306804146 a67.83880183533893,67.83880183533893 0 0,0 -0.5457712102432872,1.032393450529596 l -41.2187172345963 -22.24613914603033" fill="#38ff80" stroke="none" /><line stroke="#e1ed5e" stroke-width="0.3" x1="174.80103733775053" x2="179.2010983576182" y1="140.37084112569926" y2="142.7455964860345" /><path d="M 175.68104954172406 140.8457921977663 a86.0,86.0 0 0,1 -30.038265399797805,32.042727171017184" fill="none" id="id17" stroke="none" /><text fill="#e1ed5e" style="font-size:6.75px; font-family:Arial;" text-anchor="middle"><textPath startOffset="22.206326154141568" xlink:href="#id17">May</textPath></text><path d="M 118.12598468904814 110.60418214915192 l 27.053464242539523 15.82699464414712 a52.34300060600813,52.34300060600813 0 0,0 -0.4616630826462852,0.7737738813260737 l -26.77702028419501 -16.2903306193593" fill="#8fff24" stroke="none" /><path d="M 117.94076556474637 110.91462005526583 l 3.9136771511901127 2.380963006849207 a25.581031945286124,25.581031945286124 0 0,0 -0.23209957806478304,0.37421842195495386 l -3.8721129334573665 -2.4479777601694344" fill="#ff0a01" stroke="none" /><path d="M 117.55443506779139 111.5257021239791 l 3.260804104786136 2.1409436789777514 a24.90083109687473,24.90083109687473 0 0,0 -0.238332843960189,0.35627526429557066 l -3.223468155415226 -2.196755857479129" fill="#ff0000" stroke="none" /><path d="M 117.35343817320211 111.8261652097733 l 3.2385987859260146 2.2070672052571703 a24.919141199896114,24.919141199896114 0 0,0 -0.24460996005929628,0.35237889133831374 l -3.200127918704582 -2.2624873587825034" fill="#ff0000" stroke="none" /><path d="M 117.14729908036423 112.12312394758627 l 3.192493418699721 2.2570897746263627 a24.909791360055408,24.909791360055408 0 0,0 -0.250545300140539,0.34798550858400085 l -3.1531683261835792 -2.3117088886614945" fill="#ff0000" stroke="none" /><path d="M 116.93607887273984 112.41649034213515 l 6.42981165756745 4.713942049268382 a28.972686347502382,28.972686347502382 0 0,0 -0.2983341426773483,0.3996673371851308 l -6.34771624819501 -4.823922265962827" fill="#ff3d05" stroke="none" /><path d="M 116.71984013943494 112.70617746262583 l 3.1302786404487666 2.3788430739358333 a24.931607653017053,24.931607653017053 0 0,0 -0.26260484041148596,0.3394521557205722 l -3.088866982819212 -2.4323732237696585" fill="#ff0100" stroke="none" /><path d="M 116.498646956653 112.99209946851258 l 9.203244283233348 7.247228543948661 a32.71418059042507,32.71418059042507 0 0,0 -0.3521947739665653,0.4394171329454074 l -9.077131597211928 -7.404573510472319" fill="#ff740a" stroke="none" /><path d="M 116.0416608686014 113.55231037782055 l 20.857710407729723 17.621003681079316 a48.30464894814302,48.30464894814302 0 0,0 -0.5420643974849478,0.6305433568404291 l -20.551303500673995 -17.977424137081275" fill="#beff1e" stroke="none" /><path d="M 115.80600337817218 113.82643327865902 l 6.120410883026599 5.353880464748564 a29.13163362479439,29.13163362479439 0 0,0 -0.3334062065241063,0.3745854074447617 l -6.027345826854154 -5.4584400419341925" fill="#ff4006" stroke="none" /><path d="M 115.56566222782051 114.09645910891815 l 23.113151663539515 20.9315602853685 a52.18249502207601,52.18249502207601 0 0,0 -0.6086804569239465,0.6606024201406905 l -22.749424798619845 -21.326313960310525" fill="#91ff24" stroke="none" /><path d="M 115.32070863581623 114.36230785411682 l 22.91484002103803 21.481381483921883 a52.409228638213136,52.409228638213136 0 0,0 -0.6226551996436254,0.652851487483658 l -22.541678270015442 -21.87264008798805" fill="#8eff24" stroke="none" /><path d="M 115.07121518719521 114.62390073753431 l 22.402442362860413 21.737536709790273 a52.21521946151849,52.21521946151849 0 0,0 -0.6314544998588223,0.6396600745410205 l -22.024947237946055 -22.11993727831196" fill="#91ff24" stroke="none" /><path d="M 114.81725581225074 114.88116024355365 l 22.114557761366296 22.209934277447438 a52.34222145268808,52.34222145268808 0 0,0 -0.6439340669075567,0.6302250146245774 l -21.728973742082943 -22.587309394994588" fill="#8fff24" stroke="none" /><path d="M 114.0293411484842 115.62618273729858 l 16.89387245302061 18.816759482681547 a46.28781057917064,46.28781057917064 0 0,0 -0.5974602392712167,0.5271891956459736 l -16.567469860842806 -19.10477182009981" fill="#d7ff1c" stroke="none" /><path d="M 113.48314897796784 116.09983520530334 l 10.022940426236737 11.968101027339193 a36.61072634403948,36.61072634403948 0 0,0 -0.48662606372843953,0.4004601211147598 l -9.815444233963607 -12.138856267311132" fill="#ffaa0f" stroke="none" /><path d="M 113.20401910651253 116.32954008644616 l 2.4649451055969593 3.048421816724112 a24.9203099298762,24.9203099298762 0 0,0 -0.33588128594346917,0.26684440741478355 l -2.412106326936139 -3.090400138144022" fill="#ff0000" stroke="none" /><path d="M 111.45004920935366 117.60387380957326 l 10.995556302896336 16.905113863102017 a41.166435806423685,41.166435806423685 0 0,0 -0.5973410540516259,0.3812513229095389 l -10.702933446797779 -17.091879614835364" fill="#ffe715" stroke="none" /><path d="M 111.1453310114006 117.79835938074945 l 6.203214706284691 9.906125223689571 a32.6880789542031,32.6880789542031 0 0,0 -0.4794575348642619,0.2945219778742759 l -6.03177797148812 -10.011435668392226" fill="#ff730a" stroke="none" /><line stroke="#e1ed5e" stroke-width="0.3" x1="143.8653032363475" x2="146.44561519142675" y1="172.8068346515853" y2="177.08958963109032" /><path d="M 144.38136562736335 173.6633856474863 a86.0,86.0 0 0,1 -40.68145358897372,12.25698825130547" fill="none" id="id18" stroke="none" /><text fill="#e1ed5e" style="font-size:6.75px; font-family:Arial;" text-anchor="middle"><textPath startOffset="21.466115282336833" xlink:href="#id18">June</textPath></text><path d="M 110.8373102113329 117.98757091392108 l 15.237869068495405 25.291538684569428 a50.527183793610945,50.527183793610945 0 0,0 -0.7488420468107506,0.442429080664062 l -14.800259150656272 -25.55008633752724" fill="#a4ff21" stroke="none" /><path d="M 110.21172684928248 118.3499491758327 l 3.7893782634687967 6.809318303254785 a28.792701930568782,28.792701930568782 0 0,0 -0.43514984654419286,0.23727839191330624 l -3.671605605055955 -6.873537346927862" fill="#ff3b05" stroke="none" /><path d="M 109.89434966115114 118.52300852407294 l 15.995337061510327 29.944541569931243 a54.948878884945024,54.948878884945024 0 0,0 -0.8381250382294115,0.43846740776602955 l -15.47752112075442 -30.21543839664199" fill="#72ff27" stroke="none" /><path d="M 109.2508944713604 118.85261126421891 l 6.883511209535332 14.02806629867211 a36.62591983378063,36.62591983378063 0 0,0 -0.5683772998413394,0.27285564415547253 l -6.6410212416937595 -14.144476219327142" fill="#ffaa0f" stroke="none" /><path d="M 108.92500713936063 119.00905698771935 l 13.272936121674897 28.26955712097632 a52.23041295125963,52.23041295125963 0 0,0 -0.8171124880367933,0.37509626642097954 l -12.784355637870684 -28.493840457731373" fill="#90ff24" stroke="none" /><path d="M 108.59647513512805 119.15986991738527 l 6.379180563468662 14.217951876126897 a36.58345597783742,36.58345597783742 0 0,0 -0.5767631392300084,0.2528360107321948 l -6.1334967495809 -14.325652440153547" fill="#ffa90f" stroke="none" /><path d="M 107.93186726928326 119.44442032107085 l 1.4717563679218466 3.607908258741059 a24.896545753614404,24.896545753614404 0 0,0 -0.3982011903808786,0.15845247158853573 l -1.4094341014991016 -3.6327075747356634" fill="#ff0000" stroke="none" /><path d="M 107.59598834532513 119.57807347666477 l 5.641400201901125 14.540273450006758 a36.59631200761839,36.59631200761839 0 0,0 -0.589252519053529,0.22280488237227272 l -5.3902774620873215 -14.63522658248566" fill="#ffaa0f" stroke="none" /><path d="M 106.91757812671514 119.82793768551818 l 5.142690660981407 14.74055631811944 a36.611895074019564,36.611895074019564 0 0,0 -0.596826658017302,0.20247600656647405 l -4.888194270026879 -14.826895311584037" fill="#ffaa0f" stroke="none" /><path d="M 106.57524785965236 119.94407469862006 l 4.9161275057367195 14.911622541866835 a36.70110812916631,36.70110812916631 0 0,0 -0.6016861019229205,0.19264088921487163 l -4.658720058722859 -14.994036277741413" fill="#ffab0f" stroke="none" /><path d="M 106.2309692047433 120.05430185196036 l 9.255367004488015 29.78829096400955 a52.1930135918968,52.1930135918968 0 0,0 -0.8602527696921846,0.2591871027471812 l -8.741239260355586 -29.943193435862458" fill="#91ff24" stroke="none" /><path d="M 105.53697534728816 120.25689768951611 l 2.0880499188630606 7.6390828790175895 a28.919314345078348,28.919314345078348 0 0,0 -0.4813131786163545,0.12711918505998526 l -1.9562462974352086 -7.673893413381159" fill="#ff3d05" stroke="none" /><path d="M 105.18746579009965 120.34920634021253 l 3.8576391715361953 15.13260976824071 a36.61656999393992,36.61656999393992 0 0,0 -0.6121012676353765,0.15043959923492306 l -3.596584619157608 -15.196770625789663" fill="#ffaa0f" stroke="none" /><path d="M 104.48393922423573 120.51570834832081 l 3.3303883656466193 15.237779322910576 a36.597480737598474,36.597480737598474 0 0,0 -0.616595294054105,0.12921353891278758 l -3.0676016101631367 -15.292848842549905" fill="#ffaa0f" stroke="none" /><path d="M 104.13013068566511 120.58985236759428 l 6.134283790315985 30.58111407029075 a52.1902865552766,52.1902865552766 0 0,0 -0.8823448539002932,0.16910349124844268 l -5.606971321843987 -30.68217475988766" fill="#91ff24" stroke="none" /><path d="M 103.7750983002368 120.6578951692458 l 4.262620425112491 23.32568820333395 a44.71197298935158,44.71197298935158 0 0,0 -0.7582959603653089,0.13183947260147746 l -3.860475493275132 -23.395606254456435" fill="#eaff1a" stroke="none" /><path d="M 103.06178313531738 120.77559828337769 l 2.278360162827905 15.45971526910804 a36.62669898710068,36.62669898710068 0 0,0 -0.6245225574517633,0.0865531358003107 l -2.0119090141893112 -15.496642970400954" fill="#ffaa0f" stroke="none" /><path d="M 102.70371172650421 120.8252237178851 l 2.0105046102105195 15.485825608933782 a36.61579084061986,36.61579084061986 0 0,0 -0.6257334864754721,0.07576761101344164 l -1.7436437006836671 -15.518138748672575" fill="#ffaa0f" stroke="none" /><path d="M 101.98527174616119 120.90594882070398 l 1.476708063632322 15.550507511686313 a36.62046576054021,36.62046576054021 0 0,0 -0.6280508966957082,0.05419087406725677 l -1.208812849195072 -15.573622638032234" fill="#ffaa0f" stroke="none" /><path d="M 101.62511606390274 120.93702456842531 l 2.4158469683895825 31.124329181300798 a52.21794649813869,52.21794649813869 0 0,0 -0.8967493363277266,0.061845084541369486 l -1.8797348712829256 -31.161302610358455" fill="#90ff24" stroke="none" /><path d="M 101.26447882468166 120.96189622390904 l 1.4085637604473298 23.35046407652521 a44.39290970478747,44.39290970478747 0 0,0 -0.7631604800605387,0.03944667968949796 l -1.0064152119733114 -23.37125056297691" fill="#eeff19" stroke="none" /><line stroke="#e1ed5e" stroke-width="0.3" x1="102.19456741930631" x2="102.32365962044197" y1="184.97166512339345" y2="189.96999836594603" /><path d="M 102.22038585953345 185.97133177190398 a86.0,86.0 0 0,1 -42.740103519485714,-10.115201625700543" fill="none" id="id19" stroke="none" /><text fill="#e1ed5e" style="font-size:6.75px; font-family:Arial;" text-anchor="middle"><textPath startOffset="22.20632615414155" xlink:href="#id19">July</textPath></text><path d="M 100.54218724476979 120.99299961872073 l 0.10078378234277818 3.9022568765768297 a24.903558133494936,24.903558133494936 0 0,0 -0.42862617974030387,0.007379188395973357 l -0.033597912709806374 -3.903413542251963" fill="#ff0000" stroke="none" /><path d="M 100.18074693466247 120.99922214144158 l 0.033812510156256234 3.9283455249569648 a24.92849103973682,24.92849103973682 0 0,0 -0.4291188896374206,0.0 l 0.03381251015625353 -3.9283455249569648" fill="#ff0000" stroke="none" /><path d="M 99.45781275523022 120.99299961872073 l -0.4026523328089808 15.590334060191976 a36.59553285429833,36.59553285429833 0 0,0 -0.6295819638038069,-0.021684075810025787 l 0.6709546482874308 -15.581093185955856" fill="#ffaa0f" stroke="none" /><path d="M 99.09653310690486 120.98055641714683 l -0.6716250666010672 15.596661824231191 a36.611115920699504,36.611115920699504 0 0,0 -0.6293833179080665,-0.03253192846341331 l 0.9399964529226227 -15.582790089005575" fill="#ffaa0f" stroke="none" /><line stroke="#e1ed5e" stroke-width="0.3" x1="58.666819895761336" x2="56.23545636021788" y1="174.27360380694188" y2="178.64263932499728" /><path d="M 58.180547188652646 175.14741091055294 a86.0,86.0 0 0,1 -31.652253787137756,-30.449443065178592" fill="none" id="id20" stroke="none" /><text fill="#e1ed5e" style="font-size:6.75px; font-family:Arial;" text-anchor="middle"><textPath startOffset="22.20632615414155" xlink:href="#id20">August</textPath></text><line stroke="#e1ed5e" stroke-width="0.3" x1="26.63291911575756" x2="22.317208475507996" y1="142.92168965132927" y2="145.44649492493687" /><path d="M 25.769776987707644 143.4266507060508 a86.0,86.0 0 0,1 -11.730757126820373,-40.83630448921669" fill="none" id="id21" stroke="none" /><text fill="#e1ed5e" style="font-size:6.75px; font-family:Arial;" text-anchor="middle"><textPath startOffset="21.46611528233685" xlink:href="#id21">September</textPath></text><line stroke="#e1ed5e" stroke-width="0.3" x1="15.007084014347285" x2="10.007500721073583" y1="101.09737516637583" y2="101.16192664675087" /><path d="M 14.007167355692545 101.11028546245083 a86.0,86.0 0 0,1 10.666146001902534,-42.60595125391555" fill="none" id="id22" stroke="none" /><text fill="#e1ed5e" style="font-size:6.75px; font-family:Arial;" text-anchor="middle"><textPath startOffset="22.20632615414155" xlink:href="#id22">October</textPath></text><line stroke="#e1ed5e" stroke-width="0.3" x1="26.266209847984243" x2="21.928928074336255" y1="57.711370442889674" y2="55.22380399835377" /><path d="M 25.398753493254645 57.213857153982495 a86.0,86.0 0 0,1 29.58750427330803,-30.492523968695096" fill="none" id="id23" stroke="none" /><text fill="#e1ed5e" style="font-size:6.75px; font-family:Arial;" text-anchor="middle"><textPath startOffset="21.46611528233685" xlink:href="#id23">November</textPath></text><line stroke="#e1ed5e" stroke-width="0.3" x1="56.762969772571076" x2="54.21961505331055" y1="26.818313649435495" y2="22.513508569990535" /><path d="M 56.25429882871897 25.957352633546506 a86.0,86.0 0 0,1 42.265352541879196,-11.944610805530505" fill="none" id="id24" stroke="none" /><text fill="#e1ed5e" style="font-size:6.75px; font-family:Arial;" text-anchor="middle"><textPath startOffset="22.20632615414155" xlink:href="#id24">December</textPath></text></svg>