<?xml version="1.0" encoding="utf-8" ?>
<svg baseProfile="full" height="200mm" version="1.1" viewBox="0,0,200,200" width="200mm" xmlns="http://www.w3.org/2000/svg" xmlns:ev="http://www.w3.org/2001/xml-events" xmlns:xlink="http://www.w3.org/1999/xlink"><defs /><rect fill="#1a1a1a" height="200" width="200" x="0" y="0" /><text alignment-baseline="middle" fill="#e1ed5e" style="dominant-baseline: central; font-size:9.0px; font-family:Arial;" text-anchor="middle" x="100.0" y="100.0">2024</text><line stroke="#e1ed5e" stroke-width="0.3" x1="100.0" x2="100.0" y1="15.0" y2="10.0" /><path d="M 100.0 14.0 a86.0,86.0 0 0,1 42.35913384403234,11.155469271406648" fill="none" id="id25" stroke="none" /><text fill="#e1ed5e" style="font-size:6.75px; font-family:Arial;" text-anchor="middle"><textPath startOffset="22.145653131862478" xlink:href="#id25">January</textPath></text><path d="M 101.08105385017728 79.02784411241856 l 0.9478439890993999 -18.38792016997109 a39.41233326889619,39.41233326889619 0 0,0 0.675369082021426,0.04062852688503353 l -1.2633574232532883 18.368939665261365" fill="#ff980e" stroke="none" /><path d="M 101.44090949804482 79.04949213459386 l 0.6118622765647481 -8.896343215940389 a29.917359365938527,29.917359365938527 0 0,0 0.5120584071699937,0.0396365591986598 l -0.7644896785099753 8.884528889746674" fill="#ff0100" stroke="none" /><path d="M 102.51750503828377 79.15144685158666 l 2.2597477289181898 -18.713952866793324 a39.84989367871641,39.84989367871641 0 0,0 0.6784390850207173,0.08783752237960339 l -2.5806646358296987 18.672403748213323" fill="#ff9f0e" stroke="none" /><path d="M 102.87502721639298 79.19773525538626 l 4.639932355527485 -33.57223914487937 a54.891358979315676,54.891358979315676 0 0,0 0.9323033174761064,0.1370164820410229 l -5.215560778611273 33.487641589539464" fill="#90ff24" stroke="none" /><path d="M 103.23170211078529 79.25015418208739 l 9.695106332355895 -62.24953745373786 a84.0,84.0 0 0,0 1.422889987787718,0.23413600601732654 l -10.762273823196683 62.07393544922487" fill="#4dd2ff" stroke="none" /><path d="M 103.58742460773223 79.30868818359171 l 3.252518394525224 -18.759661776493118 a40.03953218635221,40.03953218635221 0 0,0 0.6762205405411319,0.12322990857799004 l -3.5740736686174093 18.701063693983762" fill="#ffa20f" stroke="none" /><path d="M 103.94208987418118 79.37332000966035 l 3.45405063455912 -18.073052462884114 a39.400154649139765,39.400154649139765 0 0,0 0.6632425304330816,0.13266708127701562 l -3.7637896505231585 18.011095984944237" fill="#ff980e" stroke="none" /><path d="M 104.29559338865022 79.4440306129975 l 3.795107113575923 -18.16096138270096 a39.553257297506285,39.553257297506285 0 0,0 0.6634354173959625,0.14459266137101928 l -4.10630494759102 18.093137263196223" fill="#ff9b0e" stroke="none" /><path d="M 104.9986988182912 79.60360301121754 l 4.284184856139498 -17.480936194716076 a38.99826019717766,38.99826019717766 0 0,0 0.64884693744346,0.1649343542019163 l -4.583637086808352 17.404816608678892" fill="#ff920d" stroke="none" /><path d="M 105.3480935250658 79.69241777938227 l 4.717224963238775 -17.912071534490074 a39.52281074811522,39.52281074811522 0 0,0 0.6546080316920334,0.17841632995028162 l -5.0240143958655015 17.82845471039565" fill="#ff9a0e" stroke="none" /><path d="M 105.69591212413111 79.78721728523813 l 9.456038366745016 -33.55614424592713 a55.863038855596365,55.863038855596365 0 0,0 0.9207824560858131,0.2680263533392808 l -10.030680835212433 33.38887419828533" fill="#84ff25" stroke="none" /><path d="M 106.04205211174951 79.88797359093562 l 15.430083925714163 -51.36173102588244 a74.62942199884013,74.62942199884013 0 0,0 1.2237781204131728,0.37912958994542717 l -16.309502678998967 51.08928484813037" fill="#40ffc4" stroke="none" /><path d="M 106.38641147887787 79.99465700312896 l 10.780144763447346 -33.76864993149172 a56.44761260390489,56.44761260390489 0 0,0 0.9205725633764829,0.30261048647634514 l -11.358240064471572 33.57861852361335" fill="#7dff26" stroke="none" /><path d="M 106.72888874123014 80.10723608172694 l 5.589227460128689 -16.52355784523534 a38.44326309684902,38.44326309684902 0 0,0 0.6233194851538975,0.21682287325566008 l -5.8720527173276045 16.42517653941109" fill="#ff8a0c" stroke="none" /><path d="M 107.06938296918511 80.22567764915836 l 7.080022867884974 -19.80408404116008 a42.0316064179393,42.0316064179393 0 0,0 0.6773310278683227,0.24872533544556538 l -7.418943047407422 19.679627856705793" fill="#ffbf11" stroke="none" /><path d="M 107.40779381753099 80.34994680014964 l 12.798804465579522 -33.95034943439392 a57.28271795863135,57.28271795863135 0 0,0 0.9171446979739092,0.354771271688419 l -13.379721426046958 33.725638274567466" fill="#73ff27" stroke="none" /><path d="M 107.74402155503746 80.48000691201159 l 19.87951560798763 -50.10936559287494 a74.9086603518268,74.9086603518268 0 0,0 1.191210140128245,0.48445479373102346 l -20.736780209306318 49.76072354256462" fill="#40ffc7" stroke="none" /><path d="M 108.07796709384702 80.6158196554323 l 13.785704136822089 -33.080671418995614 a56.83819833752175,56.83819833752175 0 0,0 0.89740728377279,0.3830498063069612 l -14.351546495765309 32.83914696302925" fill="#78ff26" stroke="none" /><path d="M 108.4095320186766 80.7573450057729 l 7.308496662001945 -16.723270626835127 a39.25053160641794,39.25053160641794 0 0,0 0.6150868515458837,0.2751205251075713 l -7.59449691640346 16.595346350817703" fill="#ff960d" stroke="none" /><path d="M 108.73861861582097 80.90454125486305 l 7.254952678672937 -15.85338091339793 a38.434564082737296,38.434564082737296 0 0,0 0.5975866166877435,0.2797007105270349 l -7.526028009232185 15.72650397130036" fill="#ff8a0c" stroke="none" /><path d="M 109.3889696526874 81.21577127319529 l 7.8077199930007195 -15.620670170277174 a38.46327082930601,38.46327082930601 0 0,0 0.5880718679594448,0.3002736859580459 l -8.074719082673743 15.484338532646294" fill="#ff8a0c" stroke="none" /><path d="M 109.71004243097381 81.37971332152246 l 8.072707944670588 -15.480481910346759 a38.45892132225015,38.45892132225015 0 0,0 0.5827647094059407,0.31028938340586676 l -8.337261469863089 15.33962205921832" fill="#ff8a0c" stroke="none" /><path d="M 110.02825361518725 81.54914285379988 l 21.67355654851204 -39.87690290571282 a66.38623622656098,66.38623622656098 0 0,0 0.9966022284221614,0.5527984563954849 l -22.3549029650903 39.49897153388419" fill="#34ff5c" stroke="none" /><path d="M 110.34350942703115 81.72400993836675 l 23.26668342105903 -41.110000234465055 a68.23738642953799,68.23738642953799 0 0,0 1.0144869531820222,0.5857143155090039 l -23.96896284210145 40.70453902167988" fill="#37ff74" stroke="none" /><line stroke="#e1ed5e" stroke-width="0.3" x1="143.13028292997686" x2="145.6673583964461" y1="26.7553504044142" y2="22.446841604673864" /><path d="M 143.63769802327073 25.89364864446614 a86.0,86.0 0 0,1 29.32050498858742,28.57503671076993" fill="none" id="id26" stroke="none" /><text fill="#e1ed5e" style="font-size:6.75px; font-family:Arial;" text-anchor="middle"><textPath startOffset="20.669276256404974" xlink:href="#id26">February</textPath></text><path d="M 110.65571695917076 81.90426304109057 l 24.047973640023002 -40.838716629960985 a68.39309878213803,68.39309878213803 0 0,0 1.0065745957662142,0.6044191235204079 l -24.74548099234665 40.41988350590466" fill="#37ff76" stroke="none" /><path d="M 111.5731344415666 82.4767994020092 l 15.645832024866792 -23.68978382464006 a49.39010245505509,49.39010245505509 0 0,0 0.7034649035988763,0.47332258178248254 l -16.05019321656267 23.41771156880046" fill="#d7ff1c" stroke="none" /><path d="M 111.8722381534696 82.67804972795209 l 16.761819322224092 -24.4559953241643 a50.648849797023004,50.648849797023004 0 0,0 0.7129546964953748,0.49769774900586444 l -17.179169109893227 24.16465275935331" fill="#c7ff1e" stroke="none" /><path d="M 112.16784306229584 82.88440491214696 l 20.189291397376206 -28.39876672463976 a55.843901024550554,55.843901024550554 0 0,0 0.7765466454269234,0.5621598857194452 l -20.6738190531771 28.048006067547238" fill="#84ff25" stroke="none" /><path d="M 113.31354834802062 83.75963576809568 l 11.15737192961276 -13.610179590828325 a38.59897544944906,38.59897544944906 0 0,0 0.5088184323553567,0.4244744330254811 l -11.389364696130007 13.416642973890974" fill="#ff8c0c" stroke="none" /><path d="M 114.13192950727249 84.46653392183569 l 13.315492608837927 -14.636058908091131 a40.786777498550165,40.786777498550165 0 0,0 0.5138555738170404,0.47561704770677615 l -13.564777953968932 14.405324114251979" fill="#ffad10" stroke="none" /><path d="M 115.41159269507618 85.73525988315684 l 19.68977694215319 -18.224563586355387 a47.82949932341001,47.82949932341001 0 0,0 0.5525498334971968,0.6073490594972958 l -19.99972447649227 17.88387695130042" fill="#edff1a" stroke="none" /><path d="M 115.8921839302757 86.27271002978787 l 20.54801318725094 -17.74888439314978 a48.15223274695535,48.15223274695535 0 0,0 0.5349608418635974,0.6301825265754183 l -20.84966859262165 17.39353508412481" fill="#e8ff1a" stroke="none" /><path d="M 116.35404254752997 86.82634096563983 l 15.329289777920037 -12.348190741604846 a40.68412913203171,40.68412913203171 0 0,0 0.43344787747377017,0.5476472335631045 l -15.539004086035366 12.083223564127064" fill="#ffab0f" stroke="none" /><path d="M 116.7966241395341 87.39550010848427 l 15.048357690612399 -11.292568155548134 a39.814227720858305,39.814227720858305 0 0,0 0.4055325191105358,0.5501827469488256 l -15.23999222930676 11.032579099330432" fill="#ff9e0e" stroke="none" /><path d="M 117.01052211995028 87.68569379921539 l 15.980570730925097 -11.568700822716611 a40.72849410400155,40.72849410400155 0 0,0 0.4051222608541639,0.5698551947420643 l -16.176808090309223 11.292668401265043" fill="#ffac0f" stroke="none" /><path d="M 117.42321728460499 88.27688183743584 l 15.390324157448717 -10.35529694147572 a39.54977769186159,39.54977769186159 0 0,0 0.37417020349958197,0.5665413779489994 l -15.565818799869023 10.089575685187663" fill="#ff9a0e" stroke="none" /><path d="M 117.62189284568427 88.57770195909679 l 15.924962621362903 -10.322368371227443 a39.9777691861589,39.9777691861589 0 0,0 0.3683329078945425,0.5790805096800903 l -16.099813220883334 10.047474186868682" fill="#ffa10e" stroke="none" /><line stroke="#e1ed5e" stroke-width="0.3" x1="172.87174338648825" x2="177.1583165268699" y1="56.24261187166439" y2="53.66864786411523" /><path d="M 173.72905801456457 55.72781907015455 a86.0,86.0 0 0,1 12.242430191666344,42.057860355516425" fill="none" id="id27" stroke="none" /><text fill="#e1ed5e" style="font-size:6.75px; font-family:Arial;" text-anchor="middle"><textPath startOffset="22.145653131862474" xlink:href="#id27">March</textPath></text><path d="M 118.70294669586156 90.45014215332178 l 13.785875845992676 -7.039166435218263 a36.47902571041949,36.47902571041949 0 0,0 0.27998535856936624,0.5601582718949428 l -13.90468111777378 6.80147630715957" fill="#ff6b09" stroke="none" /><path d="M 118.8641267826498 90.77261029715802 l 14.234442578474042 -6.962779162145594 a36.84612410593466,36.84612410593466 0 0,0 0.27304862736508223,0.5705666146003604 l -14.351870463799036 6.7174000454801295" fill="#ff710a" stroke="none" /><path d="M 119.0197475246899 91.09779779509293 l 16.43342743379009 -7.691673811408901 a39.144403634254786,39.144403634254786 0 0,0 0.2796318409106001,0.6110460379021084 l -16.56304373955574 7.408438791292109" fill="#ff940d" stroke="none" /><path d="M 119.16976305983485 91.42560881287824 l 15.976214258132229 -7.145957428421036 a38.50154649139765,38.50154649139765 0 0,0 0.2646818477764864,0.6056438656379622 l -16.096529987925685 6.870651493007224" fill="#ff8b0c" stroke="none" /><path d="M 119.31412917781788 91.75594674310238 l 16.058126814834548 -6.854259462008445 a38.45979122366131,38.45979122366131 0 0,0 0.2539704317735432,0.6094365815671496 l -16.173423091144574 6.577590371000017" fill="#ff8a0c" stroke="none" /><path d="M 119.4528033332814 92.08871423366111 l 16.16536498587272 -6.574313209737004 a38.451092209549586,38.451092209549586 0 0,0 0.24341614987320248,0.6135677088784509 l -16.27583981071205 6.295844483644988" fill="#ff8a0c" stroke="none" /><path d="M 119.58574465831526 92.42381321644754 l 16.3878016218819 -6.339153717419128 a38.57113860429152,38.57113860429152 0 0,0 0.23357453908600875,0.6195842152502463 l -16.494206844782347 6.056901221974725" fill="#ff8c0c" stroke="none" /><path d="M 119.71291397450082 92.76114493625339 l 34.11203508757549 -12.526411785077084 a57.33926155035762,57.33926155035762 0 0,0 0.33136585864558404,0.9268892820608652 l -34.32204111626502 11.938987546635301" fill="#72ff27" stroke="none" /><path d="M 119.83427380445688 93.10060997987247 l 33.97449902328423 -11.81809436589545 a56.971293253431284,56.971293253431284 0 0,0 0.3133816629832039,0.9264572023375369 l -34.1723661078398 11.233135489083752" fill="#77ff27" stroke="none" /><path d="M 119.94978838288452 93.4421083053983 l 34.13269902425834 -11.220096130822133 a56.92953798569495,56.92953798569495 0 0,0 0.2972136227491,0.9310174400919098 l -34.3202773627847 10.632509657038836" fill="#77ff27" stroke="none" /><path d="M 120.05942366710727 93.78553927170692 l 16.681933233306676 -5.168105558305975 a38.46414073071718,38.46414073071718 0 0,0 0.18998296307087395,0.6323914954529084 l -16.768192516381177 4.880976459262343" fill="#ff8a0c" stroke="none" /><path d="M 120.16314734710363 94.1308016681162 l 34.77671009187902 -10.12299346654245 a57.22008505702687,57.22008505702687 0 0,0 0.26643172383317915,0.9454721956373299 l -34.945360307786785 9.524513347002106" fill="#74ff27" stroke="none" /><path d="M 120.26092885502905 94.47779374421319 l 33.61760950905204 -9.16262896256141 a55.843901024550554,55.843901024550554 0 0,0 0.24414559747396386,0.9270606004301987 l -33.769944587330734 8.584187857758412" fill="#84ff25" stroke="none" /><path d="M 120.35273937422433 94.82641323984039 l 33.881232383748845 -8.612476780420353 a55.95872801082544,55.95872801082544 0 0,0 0.2286646125529062,0.9330296512062083 l -34.02408452281804 8.02959130460605" fill="#83ff25" stroke="none" /><path d="M 120.43855184770803 95.1765574152323 l 35.34146266792728 -8.340488959817115 a57.31229460661125,57.31229460661125 0 0,0 0.2177570766102245,0.9594778584217161 l -35.47943060609517 7.732576767456372" fill="#73ff27" stroke="none" /><path d="M 120.51834098615036 95.52812308129327 l 35.51002877828738 -7.739245496671531 a57.34361105741349,57.34361105741349 0 0,0 0.2013642451890868,0.9636008079071235 l -35.63765073430083 7.128528237479004" fill="#72ff27" stroke="none" /><path d="M 120.592083275326 95.88100663000786 l 35.11049431232334 -7.023082189206859 a56.80601198530834,56.80601198530834 0 0,0 0.18306064055762133,0.9578506254611655 l -35.225881245163116 6.419328998712379" fill="#79ff26" stroke="none" /><path d="M 120.65975698304385 96.23510406497455 l 17.367751852222742 -3.1649829377291367 a38.65377923835299,38.65377923835299 0 0,0 0.11335714519089775,0.6538138899720156 l -17.419523814905876 2.8663760148365287" fill="#ff8d0d" stroke="none" /><path d="M 120.7213421655516 96.59031103205396 l 17.192917217530535 -2.82908798547234 a38.42412526580321,38.42412526580321 0 0,0 0.10151014931614984,0.6517679770774193 l -17.23894885898495 2.5335318264634794" fill="#ff890c" stroke="none" /><path d="M 120.77682067341334 96.94652285012252 l 17.288866933564137 -2.5408680644033135 a38.47457954765127,38.47457954765127 0 0,0 0.09042530828139335,0.6542724854072441 l -17.32993675840074 2.2437072707959835" fill="#ff8a0c" stroke="none" /><path d="M 120.82617615685814 97.30363454192243 l 34.61415036625413 -4.481494764344248 a55.90305432051034,55.90305432051034 0 0,0 0.11504825616405491,0.95276460098117 l -34.685980708677846 3.8866364864396648" fill="#84ff25" stroke="none" /><path d="M 120.86939407059847 97.66154086499901 l 34.737850181113124 -3.892448569015404 a55.95524840518075,55.95524840518075 0 0,0 0.09876796126067242,0.9554904301253824 l -34.79955053485546 3.2955536166070902" fill="#83ff25" stroke="none" /><path d="M 120.9064616781168 98.02013634271609 l 17.402806360847137 -1.6480638560017786 a38.48066885752948,38.48066885752948 0 0,0 0.056633241454957226,0.6581641112634009 l -17.428533224999835 1.3490786973627158" fill="#ff8a0c" stroke="none" /><path d="M 120.93736805541906 98.37931529534042 l 45.22051723405158 -3.500354028454573 a66.35578967716992,66.35578967716992 0 0,0 0.07816092335129439,1.1364426715631484 l -45.27394211856794 2.7235679327370903" fill="#34ff5b" stroke="none" /><path d="M 120.96210409425399 98.7389718711861 l 10.381772799048662 -0.624541671374684 a31.400541271989173,31.400541271989173 0 0,0 0.02774972077197185,0.5383371695787722 l -10.390964109277206 0.44623270841918117" fill="#ff1a02" stroke="none" /><line stroke="#e1ed5e" stroke-width="0.3" x1="184.99686870605535" x2="189.99668451229388" y1="99.2704041080226" y2="99.22748670261217" /><path d="M 185.99683186730306 99.26182062694052 a86.0,86.0 0 0,1 -10.086455211305974,41.156179273409016" fill="none" id="id28" stroke="none" /><text fill="#e1ed5e" style="font-size:6.75px; font-family:Arial;" text-anchor="middle"><textPath startOffset="21.40746469413373" xlink:href="#id28">April</textPath></text><path d="M 120.592083275326 104.11899336999214 l 18.14595237010895 3.629698681057249 a39.50541271989175,39.50541271989175 0 0,0 -0.13872474137109939,0.6638481063823781 l -18.08096991791349 -3.9406632387250364" fill="#ff9a0e" stroke="none" /><path d="M 120.43855184770803 104.8234425847677 l 42.433799892593136 10.014261233405218 a64.59945872801083,64.59945872801083 0 0,0 -0.26397330186471757,1.0771011527182122 l -42.25563906421212 -10.74121821073153" fill="#31ff43" stroke="none" /><path d="M 120.26092885502905 105.52220625578681 l 42.06502530504777 11.465009701749526 a64.59945872801083,64.59945872801083 0 0,0 -0.3007920231233739,1.0674047761321142 l -41.862014789849816 -12.185422401784649" fill="#31ff43" stroke="none" /><line stroke="#e1ed5e" stroke-width="0.3" x1="174.33088141563837" x2="178.70328620479359" y1="141.23008692659167" y2="143.65538615756765" /><path d="M 175.20536237346943 141.71514677278685 a86.0,86.0 0 0,1 -30.301960400862466,31.631185727798858" fill="none" id="id29" stroke="none" /><text fill="#e1ed5e" style="font-size:6.75px; font-family:Arial;" text-anchor="middle"><textPath startOffset="22.145653131862474" xlink:href="#id29">May</textPath></text><path d="M 115.6541949942343 113.99807769240083 l 8.614757138648589 7.703368954608198 a32.55664024743862,32.55664024743862 0 0,0 -0.37611027509011424,0.4134110771466031 l -8.481249162716594 -7.850117607312473" fill="#ff2d04" stroke="none" /><path d="M 113.59037401385872 116.0094264158162 l 12.124598263088924 14.282746267050069 a39.73506669244152,39.73506669244152 0 0,0 -0.5237945854407919,0.4369680725746968 l -11.877629343486237 -14.488776523536636" fill="#ff9d0e" stroke="none" /><path d="M 111.27062007382361 117.71928675628689 l 8.702508554420154 13.681788895799114 a37.214962304272184,37.214962304272184 0 0,0 -0.5419843056373811,0.3382382917036548 l -8.466360119993057 -13.829162984344316" fill="#ff770a" stroke="none" /><path d="M 110.96478420261333 117.91015095944535 l 6.329330915885367 10.338486383414057 a33.12207616470133,33.12207616470133 0 0,0 -0.48747375130089876,0.2927139813976841 l -6.1509244080270316 -10.445614365347664" fill="#ff3605" stroke="none" /><line stroke="#e1ed5e" stroke-width="0.3" x1="143.1302829299769" x2="145.66735839644613" y1="173.24464959558577" y2="177.55315839532614" /><path d="M 143.63769802327073 174.10635135553383 a86.0,86.0 0 0,1 -40.68552437913181,11.842963189579606" fill="none" id="id30" stroke="none" /><text fill="#e1ed5e" style="font-size:6.75px; font-family:Arial;" text-anchor="middle"><textPath startOffset="21.407464694133747" xlink:href="#id30">June</textPath></text><path d="M 109.3889696526874 118.78422872680471 l 5.405314693037311 10.814250262839959 a33.08988981248792,33.08988981248792 0 0,0 -0.5102772223248417,0.2496021597567762 l -5.218877221450399 -10.905446172693958" fill="#ff3605" stroke="none" /><path d="M 105.69591212413111 120.21278271476187 l 8.315471720917099 29.50867559096763 a51.65793543398415,51.65793543398415 0 0,0 -0.8555995587263971,0.23319746441311962 l -7.807690761256006 -29.647073549524894" fill="#b9ff1f" stroke="none" /><path d="M 104.9986988182912 120.39639698878246 l 2.1035782481160554 8.583317100150824 a29.837328436110575,29.837328436110575 0 0,0 -0.4985218650730465,0.11764980275257626 l -1.9559242293031298 -8.618163046549626" fill="#ff0000" stroke="none" /><path d="M 104.64783097203109 120.47920084513623 l 2.2838048240962427 10.062865445237886 a31.318770539338878,31.318770539338878 0 0,0 -0.5253165737731681,0.11449030225474724 l -2.1107258337039387 -10.100587205626352" fill="#ff1902" stroke="none" /><path d="M 104.29559338865022 120.5559693870025 l 2.2993423725444515 11.003185623933877 a32.24086603518268,32.24086603518268 0 0,0 -0.5427266406172677,0.10856052806950592 l -2.1101192463962253 -11.041035548666246" fill="#ff2803" stroke="none" /><path d="M 103.94208987418118 120.62667999033965 l 2.2678638054442644 11.866421738111503 a33.081190798376184,33.081190798376184 0 0,0 -0.5587023499502097,0.1018141795154297 l -2.063826721942997 -11.903604091558297" fill="#ff3505" stroke="none" /><path d="M 102.51750503828377 120.84855314841334 l 1.1570400596403736 9.58195150016484 a30.651556156968876,30.651556156968876 0 0,0 -0.522921530052806,0.05859444815235193 l -0.9923826279867685 -9.600401708824162" fill="#ff0e01" stroke="none" /><path d="M 102.15924093988457 120.88869738790638 l 3.911749603638876 37.84262896202937 a59.04426831625749,59.04426831625749 0 0,0 -1.0090958894436723,0.0955624298833569 l -3.2615541508101886 -37.90420314741792" fill="#5eff2a" stroke="none" /><path d="M 101.80034050326958 120.92268563240118 l 3.6423447369453887 42.329566966659605 a63.48598492170888,63.48598492170888 0 0,0 -1.0866110180044783,0.08411056500191881 l -2.915164724165675 -42.38585529865658" fill="#30ff34" stroke="none" /><path d="M 101.08105385017728 120.97215588758144 l 1.9051368623384644 36.95914616796183 a58.008215735549975,58.008215735549975 0 0,0 -0.9949078562597478,0.04272562417282177 l -1.270403245477887 -36.986404360560485" fill="#6aff28" stroke="none" /><line stroke="#e1ed5e" stroke-width="0.3" x1="101.45913802915013" x2="101.54496967792366" y1="184.9874750549273" y2="189.98673829345242" /><path d="M 101.47630435890484 185.9873277026323 a86.0,86.0 0 0,1 -42.54439059252881,-10.42667462771756" fill="none" id="id31" stroke="none" /><text fill="#e1ed5e" style="font-size:6.75px; font-family:Arial;" text-anchor="middle"><textPath startOffset="22.145653131862474" xlink:href="#id31">July</textPath></text><path d="M 100.0 121.0 l 1.7234778972496894e-15 14.073265029963267 a35.07326502996327,35.07326502996327 0 0,0 -0.6020792330785916,-0.005168126094364544 l 0.24158630822973767 -14.071191302063337" fill="#ff5507" stroke="none" /><path d="M 99.63950707515114 120.99690560180557 l -0.2341048679761157 13.63543491423211 a34.6374444229654,34.6374444229654 0 0,0 -0.5944225621262521,-0.015310216638380383 l 0.46814074417311174 -13.629406980243681" fill="#ff4e07" stroke="none" /><path d="M 99.27912038922189 120.98762331915562 l -1.76249301541018 51.313061095103805 a72.34332109027643,72.34332109027643 0 0,0 -1.240771459490458,-0.053284065181531524 l 2.6430902355014765 -51.27524446149644" fill="#3cffa8" stroke="none" /><path d="M 98.91894614982273 120.97215588758144 l -0.5231815801118863 10.149582885087984 a31.163058186738837,31.163058186738837 0 0,0 -0.5340096425391989,-0.032124694032235425 l 0.6973355747835316 -10.139106213231058" fill="#ff1602" stroke="none" /><path d="M 98.55909050195518 120.95050786540614 l -2.455626370124906 35.70426848570906 a56.78861395708487,56.78861395708487 0 0,0 -0.9719804095198129,-0.0752374309305697 l 3.068175774419955 -35.656853287783434" fill="#79ff26" stroke="none" /><path d="M 98.19965949673042 120.92268563240118 l -1.223287893532255 14.216459601845157 a35.268992847477286,35.268992847477286 0 0,0 -0.6027646158062082,-0.05708243580885644 l 1.4671520727234786 -14.193365410531117" fill="#ff5808" stroke="none" /><path d="M 97.48249496171623 120.84855314841334 l -1.4068021995987985 11.650340309799343 a32.73497003672917,32.73497003672917 0 0,0 -0.5573084660890957,-0.07215473863942971 l 1.6065884875786882 -11.624473974959518" fill="#ff3004" stroke="none" /><path d="M 96.76829788921471 120.74984581791261 l -4.207120857017868 27.012733886921378 a48.338391648946455,48.338391648946455 0 0,0 -0.8188120655124845,-0.134735213785543 l 4.6702104255834165 -26.936532674640166" fill="#e6ff1a" stroke="none" /><path d="M 96.41257539226777 120.69131181640829 l -5.9508886146462565 34.323144142169646 a55.83520201043882,55.83520201043882 0 0,0 -0.9429907999172777,-0.17184433642122512 l 6.539214148114591 -34.21593163181706" fill="#85ff25" stroke="none" /><path d="M 92.25597844496254 119.51999308798841 l -10.460556138530414 26.36743481012181 a49.36661511695341,49.36661511695341 0 0,0 -0.7850362325921493,-0.31926740154417493 l 10.911646832313005 -26.183980151998345" fill="#d8ff1c" stroke="none" /><line stroke="#e1ed5e" stroke-width="0.3" x1="58.13341422392154" x2="55.67067388415222" y1="173.97424548756322" y2="178.32567169271397" /><path d="M 57.64086615596768 174.84453072859336 a86.0,86.0 0 0,1 -31.369924170532247,-30.572349798747897" fill="none" id="id32" stroke="none" /><text fill="#e1ed5e" style="font-size:6.75px; font-family:Arial;" text-anchor="middle"><textPath startOffset="22.145653131862474" xlink:href="#id32">August</textPath></text><line stroke="#e1ed5e" stroke-width="0.3" x1="26.387840678322732" x2="22.057713659400548" y1="142.50000000000003" y2="145.00000000000006" /><path d="M 25.521815274538298 143.00000000000003 a86.0,86.0 0 0,1 -11.493303480769221,-40.785679425670985" fill="none" id="id33" stroke="none" /><text fill="#e1ed5e" style="font-size:6.75px; font-family:Arial;" text-anchor="middle"><textPath startOffset="21.40746469413373" xlink:href="#id33">September</textPath></text><line stroke="#e1ed5e" stroke-width="0.3" x1="15.003131293944662" x2="10.003315487706104" y1="100.72959589197737" y2="100.7725132973878" /><path d="M 14.003168132696942 100.73817937305945 a86.0,86.0 0 0,1 10.791469493833604,-42.45332614584628" fill="none" id="id34" stroke="none" /><text fill="#e1ed5e" style="font-size:6.75px; font-family:Arial;" text-anchor="middle"><textPath startOffset="22.145653131862435" xlink:href="#id34">October</textPath></text><path d="M 80.68587082218212 91.75594674310238 l -10.471265196181285 -4.469560452332547 a32.38526966943746,32.38526966943746 0 0,0 0.2226350315242864,-0.5094325215405889 l 10.392996282640022 4.648655043649002" fill="#ff2a04" stroke="none" /><path d="M 81.63589988554816 89.8137432299009 l -15.134369602207315 -8.394779698480644 a38.3066885752948,38.3066885752948 0 0,0 0.3239042755947365,-0.5723078190676522 l 14.98803196159121 8.653344287647402" fill="#ff880c" stroke="none" /><line stroke="#e1ed5e" stroke-width="0.3" x1="26.387840678322718" x2="22.05771365940052" y1="57.49999999999999" y2="54.99999999999999" /><path d="M 25.521815274538284 56.99999999999999 a86.0,86.0 0 0,1 29.574782752854787,-30.34633250058573" fill="none" id="id35" stroke="none" /><text fill="#e1ed5e" style="font-size:6.75px; font-family:Arial;" text-anchor="middle"><textPath startOffset="21.40746469413373" xlink:href="#id35">November</textPath></text><path d="M 81.81346652052679 89.5 l -13.32914046224847 -7.695582833945489 a36.391165667890974,36.391165667890974 0 0,0 0.3169952818895165,-0.5383272904364464 l 13.195071470229173 7.923261292675508" fill="#ff6a09" stroke="none" /><path d="M 84.34580500576568 86.00192230759919 l -12.325230631109811 -11.021297231481968 a37.53421612217282,37.53421612217282 0 0,0 0.43361367277797297,-0.47661738431816447 l 12.134219257489972 11.231252191357791" fill="#ff7c0b" stroke="none" /><path d="M 85.60350026404147 84.71141617570332 l -11.478118406754598 -12.189363986063828 a37.74299246085444,37.74299246085444 0 0,0 0.4755081974601903,-0.4401232886439604 l 11.267180437980453 12.384605020840153" fill="#ff7f0b" stroke="none" /><path d="M 85.86807049272753 84.46653392183569 l -9.757435628423039 -10.725131006773196 a35.49951672143824,35.49951672143824 0 0,0 0.4542838892342027,-0.40622345500669355 l 9.571886712365444 10.89104999166329" fill="#ff5c08" stroke="none" /><path d="M 86.40962598614128 83.9905735841838 l -6.979652192309812 -8.22201273245516 a31.785037695727816,31.785037695727816 0 0,0 0.41899591541946063,-0.3495412947490425 l 6.837481942728442 8.340616211116085" fill="#ff2003" stroke="none" /><path d="M 86.68645165197937 83.75963576809568 l -22.311434866512496 -27.216322748581415 a56.192731490431086,56.192731490431086 0 0,0 0.7512412417891935,-0.6051467668081139 l 21.84094285436806 27.59531780918293" fill="#80ff25" stroke="none" /><path d="M 87.54013794807813 83.09580414077388 l -15.560461785424625 -21.110754885143283 a47.22578774405568,47.22578774405568 0 0,0 0.6567060391101234,-0.47540452859009774 l 15.195774735940534 21.37476018510646" fill="#f5ff19" stroke="none" /><line stroke="#e1ed5e" stroke-width="0.3" x1="56.869717070023135" x2="54.33264160355391" y1="26.7553504044142" y2="22.446841604673864" /><path d="M 56.362301976729285 25.89364864446614 a86.0,86.0 0 0,1 42.16139366436587,-11.88097634709845" fill="none" id="id36" stroke="none" /><text fill="#e1ed5e" style="font-size:6.75px; font-family:Arial;" text-anchor="middle"><textPath startOffset="22.145653131862474" xlink:href="#id36">December</textPath></text></svg>