<?xml version="1.0" encoding="utf-8" ?>
<svg baseProfile="full" height="200mm" version="1.1" viewBox="0,0,200,200" width="200mm" xmlns="http://www.w3.org/2000/svg" xmlns:ev="http://www.w3.org/2001/xml-events" xmlns:xlink="http://www.w3.org/1999/xlink"><defs /><rect fill="#1a1a1a" height="200" width="200" x="0" y="0" /><text alignment-baseline="middle" fill="#e1ed5e" style="dominant-baseline: central; font-size:9.0px; font-family:Arial;" text-anchor="middle" x="100.0" y="100.0">2023</text><line stroke="#e1ed5e" stroke-width="0.3" x1="100.0" x2="100.0" y1="15.0" y2="10.0" /><path d="M 100.0 14.0 a86.0,86.0 0 0,1 42.46469731375804,11.215312516191453" fill="none" id="id13" stroke="none" /><text fill="#e1ed5e" style="font-size:6.75px; font-family:Arial;" text-anchor="middle"><textPath startOffset="22.20632615414155" xlink:href="#id13">January</textPath></text><path d="M 100.0 79.0 l 0.0 -25.340403428274612 a46.34040342827461,46.34040342827461 0 0,0 0.7976738686159536,0.006865830821805469 l -0.43619338934342516 25.336648974061365" fill="#d6ff1c" stroke="none" /><path d="M 100.72285384407766 79.0124445844662 l 0.28167403554765685 -8.178208469952278 a29.183057743918276,29.183057743918276 0 0,0 0.5018918496727427,0.021612518804458702 l -0.42240671760973114 8.172148224623625" fill="#ff4006" stroke="none" /><path d="M 101.08401301168833 79.027996857942 l 1.0061947210475075 -19.46648114349169 a40.492468184572765,40.492468184572765 0 0,0 0.695772345578497,0.041970887957152515 l -1.3411291154656164 19.446276986154235" fill="#ffdd14" stroke="none" /><path d="M 105.01212808612495 79.60689891045804 l 0.9413430762444008 -3.8300905691008102 a24.944074106137997,24.944074106137997 0 0,0 0.4160803542553414,0.1060681467152309 l -1.0071323191847672 3.813319426216711" fill="#ff0000" stroke="none" /><path d="M 105.36241919743992 79.69619591428918 l 1.9942692219179206 -7.55092992269522 a28.809843303610077,28.809843303610077 0 0,0 0.4783834843382368,0.1307602773104532 l -2.1239505954798683 7.515483104558473" fill="#ff3a05" stroke="none" /><path d="M 105.71112130821622 79.79150937346287 l 6.427156929894512 -22.742143541269552 a44.6328889273656,44.6328889273656 0 0,0 0.737526146145695,0.21530410635847766 l -6.817673293763634 22.628141105992373" fill="#ecff1a" stroke="none" /><path d="M 106.40334571778207 80.00007090966166 l 4.762180018059637 -14.873984144277685 a36.617738723920006,36.617738723920006 0 0,0 0.5986427959314646,0.19736311772423112 l -5.01750563623352 14.789807302294218" fill="#ffa90f" stroke="none" /><path d="M 107.08798089147638 80.2323363322302 l 6.583099113220221 -18.35959932090409 a40.50415548437365,40.50415548437365 0 0,0 0.6542726390454844,0.24097413459438927 l -6.8981540780382815 18.243561918503374" fill="#ffdd14" stroke="none" /><path d="M 108.09893153111575 80.62456947434976 l 9.023291693314466 -21.58681804442985 a44.39680547138776,44.39680547138776 0 0,0 0.7025609314459977,0.3007999256863429 l -9.393536382550778 21.42829859078072" fill="#efff19" stroke="none" /><path d="M 108.43124777332544 80.76684994638697 l 9.470333864340287 -21.603487071858254 a44.588087611462214,44.588087611462214 0 0,0 0.7002832665538128,0.31419668893543456 l -9.84079924936088 21.437270052406287" fill="#ecff1a" stroke="none" /><path d="M 110.05341064243156 81.56283822128135 l 5.6230814438325325 -10.312287636723486 a32.745736299887454,32.745736299887454 0 0,0 0.49255187060637506,0.27410458271785243 l -5.7997574035109425 10.213967656445453" fill="#ff730a" stroke="none" /><path d="M 110.36928655335952 81.73862282372117 l 11.570083202287655 -20.376103238216416 a44.431867370790414,44.431867370790414 0 0,0 0.6618301569643049,0.38337474509447306 l -11.919110091717288 20.173924335731893" fill="#eeff19" stroke="none" /><line stroke="#e1ed5e" stroke-width="0.3" x1="143.23703022742887" x2="145.7803849466894" y1="26.81831364943548" y2="22.513508569990506" /><path d="M 143.74570117128098 25.957352633546492 a86.0,86.0 0 0,1 28.547481713284135,27.462654790039103" fill="none" id="id14" stroke="none" /><text fill="#e1ed5e" style="font-size:6.75px; font-family:Arial;" text-anchor="middle"><textPath startOffset="19.985693538727396" xlink:href="#id14">February</textPath></text><path d="M 111.2981086023043 82.29822771554956 l 12.609190549636262 -19.755963379160832 a44.43693186737079,44.43693186737079 0 0,0 0.6412312204186034,0.41707462276707313 l -12.947388795839146 19.535989832234232" fill="#eeff19" stroke="none" /><path d="M 111.60114157652 82.49532879139004 l 12.916182489732153 -19.488903420570768 a44.38044325166652,44.38044325166652 0 0,0 0.6331510694455313,0.4275064284150958 l -13.249738253584226 19.263685079857" fill="#efff19" stroke="none" /><path d="M 111.90073688211348 82.69761687909136 l 22.11270154926262 -32.14947425807677 a60.01999826854818,60.01999826854818 0 0,0 0.8461929756933477,0.5928122561037731 l -22.66282566453962 31.764077159209066" fill="#3cff2e" stroke="none" /><path d="M 112.48926042617603 83.11751280151076 l 18.55317116292154 -25.079441372919295 a52.19613020517704,52.19613020517704 0 0,0 0.7177063502701483,0.5405615434104171 l -18.982123666950073 24.75636324000303" fill="#91ff24" stroke="none" /><path d="M 112.77801427241765 83.33499621200491 l 23.7275953215909 -30.94537676075956 a59.9950653623063,59.9950653623063 0 0,0 0.8141257371113997,0.6354380512639106 l -24.256753613861733 30.532360320272428" fill="#3cff2e" stroke="none" /><path d="M 114.94478906791727 85.2469230424477 l 27.776325779105598 -27.420010409976115 a60.03051683836898,60.03051683836898 0 0,0 0.7196107788852251,0.7416221632145078 l -28.244200821693934 26.937824051211493" fill="#3cff2e" stroke="none" /><path d="M 115.19652480421416 85.50635884689758 l 14.479427454689949 -13.80971165015694 a41.0090468357718,41.0090468357718 0 0,0 0.4827988796498369,0.51501618263206 l -14.714993656310249 13.558426050646826" fill="#ffe415" stroke="none" /><path d="M 115.4437574822437 85.77008943001954 l 9.785165657553788 -9.016072181884923 a34.30560124664531,34.30560124664531 0 0,0 0.3964034430947114,0.43771858262289975 l -9.938912741264534 8.846300811992474" fill="#ff890c" stroke="none" /><path d="M 115.68641384162765 86.03803664274999 l 17.991835745568967 -16.0139439100269 a45.086356159639855,45.086356159639855 0 0,0 0.5109961717914898,0.5841569589776862 l -18.264823780938304 15.701871394846265" fill="#e6ff1a" stroke="none" /><path d="M 116.15771136456269 86.58626213691792 l 7.015856243719549 -5.824392725861068 a30.118431304648947,30.118431304648947 0 0,0 0.3277193794954941,0.4017452092858624 l -7.115074115291452 5.702763346967105" fill="#ff4d07" stroke="none" /><path d="M 116.82858285166822 87.43820079747576 l 25.014662235293795 -18.672348520872486 a52.21521946151849,52.21521946151849 0 0,0 0.531444980701553,0.7248903564270364 l -25.332369828508973 18.238995720773953" fill="#91ff24" stroke="none" /><path d="M 117.04232023915458 87.72973835380427 l 49.11557194416952 -35.362609679925065 a81.52151328889275,81.52151328889275 0 0,0 0.810119573232475,1.145856684558605 l -49.717004137205876 34.511926495034665" fill="#4aeaff" stroke="none" /><path d="M 117.2510076193507 88.02491185347247 l 25.638090500539654 -17.79712816938447 a52.20976538827807,52.20976538827807 0 0,0 0.5061252802966085,0.7426763962559401 l -25.940640246504994 17.353173749858126" fill="#91ff24" stroke="none" /><path d="M 117.65298651832404 88.62581576622439 l 32.76621528941948 -21.111950035114802 a59.97870314258506,59.97870314258506 0 0,0 0.5517252504811146,0.8726968491556285 l -33.12476813614654 20.54480553824497" fill="#3cff2e" stroke="none" /><line stroke="#e1ed5e" stroke-width="0.3" x1="172.23445277983987" x2="176.4835382374775" y1="55.19839476539836" y2="52.563006222186495" /><path d="M 173.08426987136738 54.67131705675599 a86.0,86.0 0 0,1 12.851231095245387,41.99856678651699" fill="none" id="id15" stroke="none" /><text fill="#e1ed5e" style="font-size:6.75px; font-family:Arial;" text-anchor="middle"><textPath startOffset="22.20632615414155" xlink:href="#id15">March</textPath></text><path d="M 117.84615892207809 88.93136811851018 l 27.62372722473659 -17.132923066544897 a53.505497359535966,53.505497359535966 0 0,0 0.47870655517595084,0.7868677092956246 l -27.914549578198763 16.654887584042193" fill="#82ff25" stroke="none" /><path d="M 118.21658344932153 89.55222093294921 l 18.939213418448496 -10.862229904424991 a42.83304475802961,42.83304475802961 0 0,0 0.36131174186019777,0.6427332725217221 l -19.123382801601128 10.534613121968475" fill="#fffc17" stroke="none" /><path d="M 118.3937258080291 89.86733742301442 l 17.079092054060983 -9.408462358916656 a40.49909098779327,40.49909098779327 0 0,0 0.331112662458027,0.6135014762364799 l -17.238512815737476 9.113079899347717" fill="#ffdd14" stroke="none" /><path d="M 119.47837535516314 92.15188598940014 l 34.0563820165245 -13.721799892483297 a57.71682105445416,57.71682105445416 0 0,0 0.36335885827250075,0.9247086608582402 l -34.287534424678704 13.133542226729272" fill="#54ff2b" stroke="none" /><path d="M 119.7369772167798 92.82701384747503 l 18.318283577590567 -6.657392010787393 a40.49052030127262,40.49052030127262 0 0,0 0.2324289275583941,0.6571078774235742 l -18.43016558595877 6.341086506937204" fill="#ffdd14" stroke="none" /><path d="M 120.08093135843002 93.85539295169968 l 15.166309858102627 -4.640771525354683 a36.86044498311834,36.86044498311834 0 0,0 0.18043030352871925,0.6083212867902438 l -15.243946058743049 4.379020851817909" fill="#ffad10" stroke="none" /><path d="M 120.28053869075195 94.5502522615342 l 50.82487549130592 -13.65756376051569 a73.62791100337634,73.62791100337634 0 0,0 0.3183659236111178,1.2267937733072622 l -51.05243774678734 12.780673561659576" fill="#3fffc2" stroke="none" /><path d="M 120.37134235888165 94.90015583598534 l 14.14759833806152 -3.5417669365185276 a35.58419184486192,35.58419184486192 0 0,0 0.1436367760795586,0.595467168273781 l -14.206467914401898 3.2977145365853406" fill="#ff9b0e" stroke="none" /><path d="M 120.53481517161879 95.60439243477599 l 20.502942615080237 -4.388785042134668 a41.967405419444205,41.967405419444205 0 0,0 0.14512869191337205,0.7076990431754645 l -20.575450602908607 4.035210342795791" fill="#fff016" stroke="none" /><path d="M 120.6074358757038 95.95851677861258 l 22.984285709073987 -4.507625577926247 a44.42212795428967,44.42212795428967 0 0,0 0.14070027063158003,0.7516264718058209 l -23.058471703615425 4.111321028657863" fill="#eeff19" stroke="none" /><path d="M 120.67395015179393 96.31383870115 l 23.320421342243037 -4.158026598375659 a44.68820881308977,44.68820881308977 0 0,0 0.12850655915324072,0.7584529864616485 l -23.3885397629165 3.7559878235981725" fill="#ebff1a" stroke="none" /><path d="M 120.78858239683441 97.02765380044208 l 51.96657103388155 -7.4301670488188245 a73.49506536230629,73.49506536230629 0 0,0 0.16828270438692983,1.253901612765379 l -52.086769737326314 6.534547093988781" fill="#3fffc1" stroke="none" /><path d="M 120.83666639777658 97.38593545837742 l 35.97589339774663 -4.513356670828992 a57.25789974893949,57.25789974893949 0 0,0 0.11426944601114042,0.9789908302487889 l -36.04825319676136 3.893422102255351" fill="#59ff2a" stroke="none" /><path d="M 120.91429891909075 98.10471618934814 l 23.326930146663134 -2.113919918148498 a44.422517530949705,44.422517530949705 0 0,0 0.06245703619708732,0.7621340394759566 l -23.359861666679716 1.7120719614647726" fill="#eeff19" stroke="none" /><path d="M 120.94382443527127 98.46500227214037 l 23.38433934219492 -1.7138659593286893 a44.44706086053156,44.44706086053156 0 0,0 0.04935615194563671,0.7635178250490688 l -23.41037608514497 1.3110890700265854" fill="#eeff19" stroke="none" /><path d="M 120.96714384426684 98.82574320788733 l 21.253942279674533 -1.1903188277073182 a42.28724785732837,42.28724785732837 0 0,0 0.03444677278927123,0.7271169301315059 l -21.2712826606973 0.8242907909528127" fill="#fff517" stroke="none" /><line stroke="#e1ed5e" stroke-width="0.3" x1="184.98032266829074" x2="189.97916517819016" y1="98.17113171792111" y2="98.06355123074" /><path d="M 185.9800911702706 98.14961562048488 a86.0,86.0 0 0,1 -9.607161424134198,41.387399972396054" fill="none" id="id16" stroke="none" /><text fill="#e1ed5e" style="font-size:6.75px; font-family:Arial;" text-anchor="middle"><textPath startOffset="21.466115282336823" xlink:href="#id16">April</textPath></text><path d="M 120.99513854157772 99.54816195383933 l 62.98541562473312 -1.355514138482002 a84.0,84.0 0 0,0 0.018667971529137795,1.4458549677581491 l -62.99941660337998 0.27112291266339017" fill="#4dd2ff" stroke="none" /><path d="M 120.99980553446 99.90962569577887 l 23.423858924468067 -0.10080640742119833 a44.424075837589825,44.424075837589825 0 0,0 -0.003290983580564866,0.7647086835642585 l -23.422123643598 -0.3024117543467449" fill="#eeff19" stroke="none" /><path d="M 120.9904718944345 100.63252640178507 l 24.033761925210506 0.7242328342290935 a45.044671457016705,45.044671457016705 0 0,0 -0.03002520603888187,0.7748171538596758 l -24.017734586320422 -1.1378272351027754" fill="#e6ff1a" stroke="none" /><path d="M 120.9764740272857 100.99374915477107 l 23.83016899865668 1.1289414164488623 a44.85689550688252,44.85689550688252 0 0,0 -0.04317721647861366,0.7709582050390652 l -23.807205431290537 -1.5389713378233507" fill="#e9ff1a" stroke="none" /><path d="M 120.95626037817324 101.35467743843564 l 23.364013063942306 1.5103220134639888 a44.41277811444897,44.41277811444897 0 0,0 -0.055882782717187135,0.7624761710984368 l -23.33455372256078 -1.9122713210591957" fill="#eeff19" stroke="none" /><path d="M 120.89721153311464 102.0752229133903 l 12.168567461313227 1.208414336948096 a33.228421781663926,33.228421781663926 0 0,0 -0.061421469443643364,0.5686865241092156 l -12.145963690368532 -1.417697182942103" fill="#ff7a0b" stroke="none" /><line stroke="#e1ed5e" stroke-width="0.3" x1="174.80103733775053" x2="179.2010983576182" y1="140.37084112569926" y2="142.7455964860345" /><path d="M 175.68104954172406 140.8457921977663 a86.0,86.0 0 0,1 -30.038265399797805,32.042727171017184" fill="none" id="id17" stroke="none" /><text fill="#e1ed5e" style="font-size:6.75px; font-family:Arial;" text-anchor="middle"><textPath startOffset="22.206326154141568" xlink:href="#id17">May</textPath></text><line stroke="#e1ed5e" stroke-width="0.3" x1="143.8653032363475" x2="146.44561519142675" y1="172.8068346515853" y2="177.08958963109032" /><path d="M 144.38136562736335 173.6633856474863 a86.0,86.0 0 0,1 -40.68145358897372,12.25698825130547" fill="none" id="id18" stroke="none" /><text fill="#e1ed5e" style="font-size:6.75px; font-family:Arial;" text-anchor="middle"><textPath startOffset="21.466115282336833" xlink:href="#id18">June</textPath></text><line stroke="#e1ed5e" stroke-width="0.3" x1="102.19456741930631" x2="102.32365962044197" y1="184.97166512339345" y2="189.96999836594603" /><path d="M 102.22038585953345 185.97133177190398 a86.0,86.0 0 0,1 -42.740103519485714,-10.115201625700543" fill="none" id="id19" stroke="none" /><text fill="#e1ed5e" style="font-size:6.75px; font-family:Arial;" text-anchor="middle"><textPath startOffset="22.20632615414155" xlink:href="#id19">July</textPath></text><line stroke="#e1ed5e" stroke-width="0.3" x1="58.666819895761336" x2="56.23545636021788" y1="174.27360380694188" y2="178.64263932499728" /><path d="M 58.180547188652646 175.14741091055294 a86.0,86.0 0 0,1 -31.652253787137756,-30.449443065178592" fill="none" id="id20" stroke="none" /><text fill="#e1ed5e" style="font-size:6.75px; font-family:Arial;" text-anchor="middle"><textPath startOffset="22.20632615414155" xlink:href="#id20">August</textPath></text><line stroke="#e1ed5e" stroke-width="0.3" x1="26.63291911575756" x2="22.317208475507996" y1="142.92168965132927" y2="145.44649492493687" /><path d="M 25.769776987707644 143.4266507060508 a86.0,86.0 0 0,1 -11.730757126820373,-40.83630448921669" fill="none" id="id21" stroke="none" /><text fill="#e1ed5e" style="font-size:6.75px; font-family:Arial;" text-anchor="middle"><textPath startOffset="21.46611528233685" xlink:href="#id21">September</textPath></text><line stroke="#e1ed5e" stroke-width="0.3" x1="15.007084014347285" x2="10.007500721073583" y1="101.09737516637583" y2="101.16192664675087" /><path d="M 14.007167355692545 101.11028546245083 a86.0,86.0 0 0,1 10.666146001902534,-42.60595125391555" fill="none" id="id22" stroke="none" /><text fill="#e1ed5e" style="font-size:6.75px; font-family:Arial;" text-anchor="middle"><textPath startOffset="22.20632615414155" xlink:href="#id22">October</textPath></text><line stroke="#e1ed5e" stroke-width="0.3" x1="26.266209847984243" x2="21.928928074336255" y1="57.711370442889674" y2="55.22380399835377" /><path d="M 25.398753493254645 57.213857153982495 a86.0,86.0 0 0,1 29.58750427330803,-30.492523968695096" fill="none" id="id23" stroke="none" /><text fill="#e1ed5e" style="font-size:6.75px; font-family:Arial;" text-anchor="middle"><textPath startOffset="21.46611528233685" xlink:href="#id23">November</textPath></text><line stroke="#e1ed5e" stroke-width="0.3" x1="56.762969772571076" x2="54.21961505331055" y1="26.818313649435495" y2="22.513508569990535" /><path d="M 56.25429882871897 25.957352633546506 a86.0,86.0 0 0,1 42.265352541879196,-11.944610805530505" fill="none" id="id24" stroke="none" /><text fill="#e1ed5e" style="font-size:6.75px; font-family:Arial;" text-anchor="middle"><textPath startOffset="22.20632615414155" xlink:href="#id24">December</textPath></text></svg>