<?xml version="1.0" encoding="utf-8" ?>
<svg baseProfile="full" height="200mm" version="1.1" viewBox="0,0,200,200" width="200mm" xmlns="http://www.w3.org/2000/svg" xmlns:ev="http://www.w3.org/2001/xml-events" xmlns:xlink="http://www.w3.org/1999/xlink"><defs /><rect fill="#1a1a1a" height="200" width="200" x="0" y="0" /><text alignment-baseline="middle" fill="#e1ed5e" style="dominant-baseline: central; font-size:9.0px; font-family:Arial;" text-anchor="middle" x="100.0" y="100.0">2022</text><line stroke="#e1ed5e" stroke-width="0.3" x1="100.0" x2="100.0" y1="15.0" y2="10.0" /><path d="M 100.0 14.0 a86.0,86.0 0 0,1 42.46469731375804,11.215312516191453" fill="none" id="id1" stroke="none" /><text fill="#e1ed5e" style="font-size:6.75px; font-family:Arial;" text-anchor="middle"><textPath startOffset="22.20632615414155" xlink:href="#id1">January</textPath></text><line stroke="#e1ed5e" stroke-width="0.3" x1="143.23703022742887" x2="145.7803849466894" y1="26.81831364943548" y2="22.513508569990506" /><path d="M 143.74570117128098 25.957352633546492 a86.0,86.0 0 0,1 28.547481713284135,27.462654790039103" fill="none" id="id2" stroke="none" /><text fill="#e1ed5e" style="font-size:6.75px; font-family:Arial;" text-anchor="middle"><textPath startOffset="19.985693538727396" xlink:href="#id2">February</textPath></text><line stroke="#e1ed5e" stroke-width="0.3" x1="172.23445277983987" x2="176.4835382374775" y1="55.19839476539836" y2="52.563006222186495" /><path d="M 173.08426987136738 54.67131705675599 a86.0,86.0 0 0,1 12.851231095245387,41.99856678651699" fill="none" id="id3" stroke="none" /><text fill="#e1ed5e" style="font-size:6.75px; font-family:Arial;" text-anchor="middle"><textPath startOffset="22.20632615414155" xlink:href="#id3">March</textPath></text><line stroke="#e1ed5e" stroke-width="0.3" x1="184.98032266829074" x2="189.97916517819016" y1="98.17113171792111" y2="98.06355123074" /><path d="M 185.9800911702706 98.14961562048488 a86.0,86.0 0 0,1 -9.607161424134198,41.387399972396054" fill="none" id="id4" stroke="none" /><text fill="#e1ed5e" style="font-size:6.75px; font-family:Arial;" text-anchor="middle"><textPath startOffset="21.466115282336823" xlink:href="#id4">April</textPath></text><line stroke="#e1ed5e" stroke-width="0.3" x1="174.80103733775053" x2="179.2010983576182" y1="140.37084112569926" y2="142.7455964860345" /><path d="M 175.68104954172406 140.8457921977663 a86.0,86.0 0 0,1 -30.038265399797805,32.042727171017184" fill="none" id="id5" stroke="none" /><text fill="#e1ed5e" style="font-size:6.75px; font-family:Arial;" text-anchor="middle"><textPath startOffset="22.206326154141568" xlink:href="#id5">May</textPath></text><line stroke="#e1ed5e" stroke-width="0.3" x1="143.8653032363475" x2="146.44561519142675" y1="172.8068346515853" y2="177.08958963109032" /><path d="M 144.38136562736335 173.6633856474863 a86.0,86.0 0 0,1 -40.68145358897372,12.25698825130547" fill="none" id="id6" stroke="none" /><text fill="#e1ed5e" style="font-size:6.75px; font-family:Arial;" text-anchor="middle"><textPath startOffset="21.466115282336833" xlink:href="#id6">June</textPath></text><line stroke="#e1ed5e" stroke-width="0.3" x1="102.19456741930631" x2="102.32365962044197" y1="184.97166512339345" y2="189.96999836594603" /><path d="M 102.22038585953345 185.97133177190398 a86.0,86.0 0 0,1 -42.740103519485714,-10.115201625700543" fill="none" id="id7" stroke="none" /><text fill="#e1ed5e" style="font-size:6.75px; font-family:Arial;" text-anchor="middle"><textPath startOffset="22.20632615414155" xlink:href="#id7">July</textPath></text><line stroke="#e1ed5e" stroke-width="0.3" x1="58.666819895761336" x2="56.23545636021788" y1="174.27360380694188" y2="178.64263932499728" /><path d="M 58.180547188652646 175.14741091055294 a86.0,86.0 0 0,1 -31.652253787137756,-30.449443065178592" fill="none" id="id8" stroke="none" /><text fill="#e1ed5e" style="font-size:6.75px; font-family:Arial;" text-anchor="middle"><textPath startOffset="22.20632615414155" xlink:href="#id8">August</textPath></text><line stroke="#e1ed5e" stroke-width="0.3" x1="26.63291911575756" x2="22.317208475507996" y1="142.92168965132927" y2="145.44649492493687" /><path d="M 25.769776987707644 143.4266507060508 a86.0,86.0 0 0,1 -11.730757126820373,-40.83630448921669" fill="none" id="id9" stroke="none" /><text fill="#e1ed5e" style="font-size:6.75px; font-family:Arial;" text-anchor="middle"><textPath startOffset="21.46611528233685" xlink:href="#id9">September</textPath></text><path d="M 80.20201598880116 107.00284435728193 l -3.2044867456497634 1.133475100902424 a24.39904414614032,24.39904414614032 0 0,0 -0.13664530037176423,-0.3971552051276219 l 3.223522876964756 -1.0781471926855053" fill="#ff0300" stroke="none" /><path d="M 80.0844068197444 106.66101706037122 l -15.450351085798292 5.167561480079734 a37.29162485220036,37.29162485220036 0 0,0 -0.1983696889612284,-0.6105191259905508 l 15.53701302577577 -4.90084345411138" fill="#ffbb11" stroke="none" /><path d="M 79.97269907076064 106.31721596034903 l -14.97853782076489 4.7246834967102735 a36.70602525759368,36.70602525759368 0 0,0 -0.18488165523653244,-0.6042039464939718 l 15.057646248507552 -4.466152577664254" fill="#ffb310" stroke="none" /><path d="M 79.86692584326677 105.97154293290107 l -15.174072121734877 4.500684914607192 a36.82746440388303,36.82746440388303 0 0,0 -0.17503105296773477,-0.6093060572976071 l 15.249295811588716 -4.238821381804989" fill="#ffb410" stroke="none" /><path d="M 79.76711848015287 105.62410040840567 l -7.592532380394724 2.110483591747633 a28.88039903421003,28.88039903421003 0 0,0 -0.12901551378173282,-0.4801147217310062 l 7.6277359705182315 -1.9794779368410877" fill="#ff4606" stroke="none" /><path d="M 79.58551787078972 104.9243191809786 l -20.666612940956835 4.985137407203539 a42.25936230040837,42.25936230040837 0 0,0 -0.1644883980271911,-0.708611713639802 l 20.749361904914583 -4.628657036215163" fill="#fffb17" stroke="none" /><path d="M 79.50377843672027 104.57218783832718 l -15.352462770968913 3.424745548982179 a36.72981230686685,36.72981230686685 0 0,0 -0.1323426931271403,-0.6182610031388355 l 15.409139502820494 -3.1599707264271797" fill="#ffb310" stroke="none" /><path d="M 79.35854240842038 103.8639653848113 l -13.734446002978062 2.5710114559310955 a34.97301352304681,34.97301352304681 0 0,0 -0.10567438715033256,-0.5926780830098148 l 13.776666832467583 -2.334214622188067" fill="#ff9b0e" stroke="none" /><path d="M 79.29508885075956 103.50808413554451 l -7.088916550386285 1.2010926059695428 a28.189948630307125,28.189948630307125 0 0,0 -0.07694278095878757,-0.47912277047799784 l 7.108541085706364 -1.0788906057983314" fill="#ff3b05" stroke="none" /><path d="M 79.23777060512086 103.15116336523772 l -20.742631292750698 3.148188885942615 a41.980177458939025,41.980177458939025 0 0,0 -0.1022836008656283,-0.7153712662260786 l 20.793748944632927 -2.790672147736136" fill="#fff717" stroke="none" /><path d="M 79.1416061653843 102.43462659150553 l -28.68617227858615 3.34829797498842 a49.88092068002743,49.88092068002743 0 0,0 -0.09220297808605957,-0.8536850647702521 l 28.73955755817326 -2.8540165883333857" fill="#a7ff21" stroke="none" /><path d="M 79.10278846688536 102.07522291339032 l -31.471956782858744 3.1253608043122387 a52.62675993362677,52.62675993362677 0 0,0 -0.08176044235542902,-0.9022196684043934 l 31.521091821491247 -2.583159747359279" fill="#88ff25" stroke="none" /><path d="M 79.07016306316243 101.71520430193888 l -29.81383452259349 2.4432496719763197 a50.91377939846785,50.91377939846785 0 0,0 -0.06406272681487557,-0.874085009315498 l 29.851473808072697 -1.9296915261640613" fill="#9bff22" stroke="none" /><path d="M 79.04373962182676 101.35467743843564 l -23.731570299881476 1.5340820491705107 a44.781102510855206,44.781102510855206 0 0,0 -0.043104261572566825,-0.7696555461833235 l 23.754460912341575 -1.1253547866517495" fill="#e4ff1b" stroke="none" /><path d="M 79.0235259727143 100.99374915477108 l -28.42181652703929 1.346468244094057 a49.45369275558161,49.45369275558161 0 0,0 -0.032964105771912465,-0.850657097261674 l 28.440782765662405 -0.8570338998183862" fill="#acff21" stroke="none" /><path d="M 79.0095281055655 100.63252640178507 l -24.128207796740877 0.7270788639697838 a45.139160199914556,45.139160199914556 0 0,0 -0.016718550404111514,-0.7768453429966669 l 24.137148409829997 -0.311643705182988" fill="#dfff1b" stroke="none" /><line stroke="#e1ed5e" stroke-width="0.3" x1="15.007084014347285" x2="10.007500721073583" y1="101.09737516637583" y2="101.16192664675087" /><path d="M 14.007167355692545 101.11028546245083 a86.0,86.0 0 0,1 10.666146001902534,-42.60595125391555" fill="none" id="id10" stroke="none" /><text fill="#e1ed5e" style="font-size:6.75px; font-family:Arial;" text-anchor="middle"><textPath startOffset="22.20632615414155" xlink:href="#id10">October</textPath></text><path d="M 79.00019446554 99.90962569577889 l -21.439444558148743 -0.09226632511670066 a42.43964309489979,42.43964309489979 0 0,0 0.00943169105955189,-0.7304948666505015 l 21.434679859971478 0.4612974498276741" fill="#fffd17" stroke="none" /><path d="M 79.00486145842228 99.54816195383935 l -16.54788576693244 -0.35612836553630506 a37.55171745675308,37.55171745675308 0 0,0 0.01947021778021022,-0.646121739646993 l 16.53930385469658 0.6409202526082926" fill="#ffbe11" stroke="none" /><path d="M 79.01574976396665 99.18683210126434 l -21.91083239325177 -0.8490742026214807 a42.92727760499986,42.92727760499986 0 0,0 0.034968134675260984,-0.738122055527442 l 21.89297065034301 1.2261073647719318" fill="#fbff18" stroke="none" /><path d="M 79.03285615573316 98.82574320788736 l -15.670202022059577 -0.8776036113861159 a36.69475770793796,36.69475770793796 0 0,0 0.040747622046922255,-0.6303476777414546 l 15.652773809008242 1.1472103533805824" fill="#ffb310" stroke="none" /><path d="M 79.05617556472873 98.46500227214037 l -17.728572908218627 -1.2993481308256092 a38.77612451934064,38.77612451934064 0 0,0 0.05451833771014229,-0.6652618099493646 l 17.703580086688987 1.6043238579827521" fill="#ffce13" stroke="none" /><path d="M 79.08570108090925 98.10471618934814 l -24.0116591467176 -2.17597104372088 a45.11005236330396,45.11005236330396 0 0,0 0.07673622528773288,-0.772723316489756 l 23.97064579574764 2.5889698909150662" fill="#e0ff1b" stroke="none" /><path d="M 79.12142395522702 97.74499172005258 l -22.969898095063197 -2.4808832883449288 a44.1034845940602,44.1034845940602 0 0,0 0.08801721288803417,-0.754077728818586 l 22.923790529171573 2.8759047554883765" fill="#ecff1a" stroke="none" /><path d="M 79.16333360222342 97.38593545837743 l -17.62078512280799 -2.2106160700445763 a38.75891020736663,38.75891020736663 0 0,0 0.08874683213944523,-0.6612669813743959 l 17.580122291610714 2.5136013934836314" fill="#ffce13" stroke="none" /><path d="M 79.21141760316559 97.0276538004421 l -28.586753667838753 -4.087326735431333 a49.877477817632624,49.877477817632624 0 0,0 0.12883615341516685,-0.8488692782697923 l 28.512161620984283 4.578795126093217" fill="#a7ff21" stroke="none" /><path d="M 79.26566170972629 96.67025291283419 l -21.90946885680811 -3.518462421418504 a43.190187096966504,43.190187096966504 0 0,0 0.12419880949424238,-0.733028404126534 l 21.845658185793646 3.895076613860866" fill="#f7ff18" stroke="none" /><path d="M 79.32604984820605 96.31383870115002 l -23.564704238130005 -4.201582191292244 a44.93634430611171,44.93634430611171 0 0,0 0.14232897198372532,-0.7603270595548279 l 23.488889542236418 4.606587328309645" fill="#e2ff1b" stroke="none" /><path d="M 79.3925641242962 95.95851677861259 l -24.99324485138654 -4.901618053025057 a46.46935703426965,46.46935703426965 0 0,0 0.1606970202955315,-0.783615741346158 l 24.905168535176013 5.331109450534617" fill="#cfff1d" stroke="none" /><path d="M 79.46518482838121 95.60439243477599 l -4.236403598942015 -0.9068290877333359 a25.332372842621943,25.332372842621943 0 0,0 0.09494285396530933,-0.42561019790365606 l 4.220166357974668 0.9796174551869512" fill="#ff1101" stroke="none" /><path d="M 79.54389044137918 95.25157060432595 l -14.267223297773628 -3.311817543196688 a35.64656260246615,35.64656260246615 0 0,0 0.14388853772088658,-0.5965108828135453 l 14.208101959791927 3.55691365766963" fill="#ffa40f" stroke="none" /><path d="M 79.71946130924805 94.55025226153421 l -33.625718736395854 -9.035839108234528 a55.81860636109814,55.81860636109814 0 0,0 0.2573323592525233,-0.9257614121179997 l 33.465199606576974 9.61331182377147" fill="#65ff29" stroke="none" /><path d="M 79.81627453868168 94.20196356495316 l -20.32110065821232 -5.8374992387987925 a42.142930953966,42.142930953966 0 0,0 0.20628784669029576,-0.6955000678578215 l 20.217606914410318 6.186428693403153" fill="#fffa17" stroke="none" /><path d="M 79.91906864156998 93.8553929516997 l -19.55827206077984 -5.984677414217233 a41.4534195125344,41.4534195125344 0 0,0 0.21465866909734538,-0.6805266418096313 l 19.452357907914287 6.32045422245328" fill="#fff116" stroke="none" /><path d="M 80.14247586403 93.16781622104843 l -31.222875268609254 -10.742548793180656 a54.01924127857875,54.01924127857875 0 0,0 0.3100882434821063,-0.8766612212558679 l 31.033333944317338 11.278407640863136" fill="#78ff26" stroke="none" /><path d="M 80.2630227832202 92.82701384747504 l -20.74968302192722 -7.541032618664072 a43.077511600409366,43.077511600409366 0 0,0 0.2592761811933168,-0.6947312615908952 l 20.616802252232272 7.897087017284309" fill="#f9ff18" stroke="none" /><path d="M 80.38941819471856 92.48833698450439 l -11.227327467676977 -4.30053026163121 a33.02278847013702,33.02278847013702 0 0,0 0.20789645888783984,-0.5290738115187767 l 11.151637458907446 4.49315307804575" fill="#ff800b" stroke="none" /><path d="M 80.52162464483688 92.15188598940014 l -3.3867441385888677 -1.3645673029568552 a24.65131206343213,24.65131206343213 0 0,0 0.16196887878829716,-0.39222048724208236 l 3.3627535729143707 1.4226623606522488" fill="#ff0701" stroke="none" /><path d="M 80.65960295795068 91.81776055985345 l -30.359905478624494 -12.844204566547019 a53.965094442733225,53.965094442733225 0 0,0 0.369299305506566,-0.8523937137675984 l 30.134315463275247 13.364897424901217" fill="#79ff26" stroke="none" /><path d="M 80.803312248108 91.48605970444005 l -9.525767147414514 -4.224781577462508 a31.42060550659261,31.42060550659261 0 0,0 0.22353169820445196,-0.49252246674409145 l 9.45163313224671 4.38812605304867" fill="#ff6a09" stroke="none" /><path d="M 80.95270993114464 91.15688171328213 l -30.555851870888883 -14.18621816903627 a54.68840853313196,54.68840853313196 0 0,0 0.4037614111855689,-0.8504245039544419 l 30.307132265861565 14.710085088631244" fill="#71ff27" stroke="none" /><path d="M 81.26839172434947 90.50648371742162 l -30.196838517122714 -15.304301367296162 a54.85366592808243,54.85366592808243 0 0,0 0.43410294446827424,-0.8385487165206328 l 29.928926139494326 15.821822806077131" fill="#6fff27" stroke="none" /><path d="M 81.43458229118936 90.18545643968196 l -29.378012315508933 -15.530584127352437 a54.23050783462338,54.23050783462338 0 0,0 0.4433780462130497,-0.8215121821776679 l 29.10632617007741 16.033977292862577" fill="#76ff27" stroke="none" /><line stroke="#e1ed5e" stroke-width="0.3" x1="26.266209847984243" x2="21.928928074336255" y1="57.711370442889674" y2="55.22380399835377" /><path d="M 25.398753493254645 57.213857153982495 a86.0,86.0 0 0,1 29.58750427330803,-30.492523968695096" fill="none" id="id11" stroke="none" /><text fill="#e1ed5e" style="font-size:6.75px; font-family:Arial;" text-anchor="middle"><textPath startOffset="21.46611528233685" xlink:href="#id11">November</textPath></text><path d="M 81.78341655067845 89.55222093294921 l -29.831119251871787 -17.109077788020098 a55.38918752421927,55.38918752421927 0 0,0 0.4814647772140571,-0.8229793733593991 l 29.5321948001874 17.62003657373339" fill="#69ff28" stroke="none" /><path d="M 82.54541684631803 88.32363383020206 l -14.114481835589691 -9.441981900011283 a37.98144928112239,37.98144928112239 0 0,0 0.36819494438476796,-0.540280648014825 l 13.949862425536184 9.683540571296524" fill="#ffc412" stroke="none" /><path d="M 83.39014120810768 87.1503855733568 l -3.618279901766119 -2.799150926440247 a25.57462516021979,25.57462516021979 0 0,0 0.27236478844866263,-0.3458756222524846 l 3.569561032723485 2.8610189426457797" fill="#ff1502" stroke="none" /><path d="M 83.6137871275137 86.86637796730984 l -19.802320553935292 -15.871647436134895 a46.37796468706219,46.37796468706219 0 0,0 0.5046397554962633,-0.6186286709620697 l 19.526182306362635 16.210160276705047" fill="#d0ff1d" stroke="none" /><path d="M 83.84228863543731 86.58626213691792 l -24.20261181942032 -20.0924179930369 a52.45586876384846,52.45586876384846 0 0,0 0.58273321156753,-0.6897723189793507 l 23.853167994365666 20.506049261645366" fill="#8aff24" stroke="none" /><path d="M 84.07557802195018 86.31012108654704 l -23.92223400187159 -20.565423804790168 a52.54694812356548,52.54694812356548 0 0,0 0.5955524379791215,-0.6808193882587198 l 23.564689700314627 20.97415874925183" fill="#89ff25" stroke="none" /><path d="M 84.31358615837235 86.03803664274999 l -23.931510790467655 -21.30065419117316 a53.03802549606034,53.03802549606034 0 0,0 0.6128578178946376,-0.6767329095426472 l 23.56130933195697 21.70943988798536" fill="#83ff25" stroke="none" /><path d="M 84.5562425177563 85.77008943001954 l -11.528381410006299 -10.622274836264891 a36.67597845851177,36.67597845851177 0 0,0 0.43178573207865406,-0.4605989135919705 l 11.343828355957188 10.81914316673491" fill="#ffb210" stroke="none" /><path d="M 84.80347519578584 85.50635884689758 l -11.388900170728785 -10.862130278448602 a36.73826296910863,36.73826296910863 0 0,0 0.44039684184747724,-0.4538676574991334 l 11.20023906517819 11.05656213149786" fill="#ffb310" stroke="none" /><path d="M 85.05521093208273 85.24692304244772 l -28.990452535383067 -28.618562319285903 a61.73657383027136,61.73657383027136 0 0,0 0.7530809540782407,-0.7498469851330897 l 28.493535781137513 29.113345155069105" fill="#30ff39" stroke="none" /><path d="M 85.31137513191541 84.99185889309783 l -26.311543132962296 -26.883888425651847 a58.61702751309083,58.61702751309083 0 0,0 0.727177041751977,-0.6995437380237792 l 25.84488284759789 27.33281525043794" fill="#47ff2c" stroke="none" /><path d="M 85.57189188830299 84.74124197986013 l -21.523245644005364 -22.762374286872397 a52.32691791778862,52.32691791778862 0 0,0 0.6597978728544814,-0.6132102154483874 l 21.128239887356024 23.129489088395434" fill="#8bff24" stroke="none" /><path d="M 85.83668400450813 84.49514656593479 l -21.109241569943077 -23.108691266255803 a52.29874904364934,52.29874904364934 0 0,0 0.6698947073913034,-0.6014380825794309 l 20.708335874955804 23.468628357604516" fill="#8bff24" stroke="none" /><path d="M 86.10567301691215 84.25364557470407 l -10.354167937477902 -11.734314178802258 a36.64937452182467,36.64937452182467 0 0,0 0.4766272122679646,-0.41332642171623507 l 10.150646926563164 11.910805593938173" fill="#ffb210" stroke="none" /><path d="M 86.37877921826538 84.01681056812374 l -2.070731973018885 -2.4298043411633867 a24.192472402452232,24.192472402452232 0 0,0 0.31927435184116,-0.26738308782815706 l 2.0286000842186147 2.4650885863853564" fill="#ff0000" stroke="none" /><path d="M 86.65592168130627 83.78471172551755 l -28.022524692784597 -34.05205704134283 a65.09993740250192,65.09993740250192 0 0,0 0.8713986265479549,-0.7046104209559627 l 27.432222667672143 34.52937355956292" fill="#35ff62" stroke="none" /><path d="M 86.93701828274178 83.55741782278169 l -19.66397792359749 -24.75136074887051 a52.611736534085836,52.611736534085836 0 0,0 0.7139348632735207,-0.5572374850321354 l 19.235010505164542 25.08617662312587" fill="#88ff25" stroke="none" /><path d="M 87.22198572758235 83.33499621200491 l -9.53180471072758 -12.431318217697523 a36.6650238963465,36.6650238963465 0 0,0 0.5041507939338379,-0.3797159258488945 l 9.31640776303535 12.593550733052272" fill="#ffb210" stroke="none" /><path d="M 87.51073957382395 83.11751280151077 l -9.307659088412718 -12.581724621474777 a36.65031348429598,36.65031348429598 0 0,0 0.5104074207421194,-0.37083269777867645 l 9.089706351316817 12.740076554070122" fill="#ffb210" stroke="none" /><path d="M 87.80319425747018 82.90503203632743 l -9.102612959939167 -12.7581663773875 a36.672535596116965,36.672535596116965 0 0,0 0.5170283725009526,-0.3622114160435006 l 8.881653447854555 12.912962636194942" fill="#ffb210" stroke="none" /><path d="M 88.09926311788651 82.69761687909137 l -31.013774619916777 -45.090670923565014 a75.72680166529217,75.72680166529217 0 0,0 1.0803521088823134,-0.7294585665052471 l 30.233017816627925 45.61784140236893" fill="#42ffda" stroke="none" /><path d="M 88.39885842347998 82.49532879139004 l -17.371799740562686 -26.211872405369117 a52.445853164154485,52.445853164154485 0 0,0 0.7568010890292518,-0.4922444800964716 l 16.918031625749148 26.507015809625123" fill="#8aff24" stroke="none" /><path d="M 88.70189139769569 82.29822771554957 l -16.849665737025607 -26.399900766142412 a52.31878024303727,52.31878024303727 0 0,0 0.7633082017958164,-0.4779835259385133 l 16.392738382857548 26.686028633403854" fill="#8bff24" stroke="none" /><path d="M 89.00827224532344 82.1063720568725 l -16.406663298536944 -26.708697249827743 a52.34538417972438,52.34538417972438 0 0,0 0.7718150762120577,-0.4650099475199398 l 15.944486156107239 26.987153806806305" fill="#8bff24" stroke="none" /><line stroke="#e1ed5e" stroke-width="0.3" x1="56.762969772571076" x2="54.21961505331055" y1="26.818313649435495" y2="22.513508569990535" /><path d="M 56.25429882871897 25.957352633546506 a86.0,86.0 0 0,1 42.265352541879196,-11.944610805530505" fill="none" id="id12" stroke="none" /><text fill="#e1ed5e" style="font-size:6.75px; font-family:Arial;" text-anchor="middle"><textPath startOffset="22.20632615414155" xlink:href="#id12">December</textPath></text><path d="M 89.3179101791058 81.91981866633112 l -15.951491292362899 -26.999010488026272 a52.35915562930357,52.35915562930357 0 0,0 0.7799102364858563,-0.45177434869511024 l 15.484384323411723 27.26958899411143" fill="#8bff24" stroke="none" /><path d="M 89.63071344664047 81.73862282372117 l -15.46939340309423 -27.243188445845302 a52.32879584273124,52.32879584273124 0 0,0 0.7871145740278898,-0.43802840825565603 l 14.998154739994295 27.50543225166114" fill="#8bff24" stroke="none" /><path d="M 89.94658935756843 81.56283822128135 l -30.16023192729471 -55.31148533615593 a84.0,84.0 0 0,0 1.2754198138867787,-0.6812850939930022 l 29.20366706687963 55.822449156650684" fill="#4dd2ff" stroke="none" /><path d="M 90.58718382345135 81.22770947309562 l -14.058057747733221 -28.03644938291051 a52.363537454169695,52.363537454169695 0 0,0 0.8092129745168474,-0.3970772922220525 l 13.573373506205947 28.274281835267395" fill="#8bff24" stroke="none" /><path d="M 90.91171255644093 81.06846463323043 l -13.566736292220853 -28.260456056530092 a52.3482010671383,52.3482010671383 0 0,0 0.8156891423065114,-0.3829769895101984 l 13.078268938614732 28.489798028680298" fill="#8bff24" stroke="none" /><path d="M 91.56875222667455 80.76684994638697 l -12.569213336151712 -28.672572868147448 a52.306573730910245,52.306573730910245 0 0,0 0.8277297154819175,-0.3543906667182495 l 12.073799862879486 28.884683062828486" fill="#8bff24" stroke="none" /><path d="M 91.90106846888425 80.62456947434976 l -12.088767632766988 -28.920491117812652 a52.34538417972438,52.34538417972438 0 0,0 0.8343259255974738,-0.3403424937276084 l 11.589157837581133 29.124294497723838" fill="#8bff24" stroke="none" /><path d="M 92.57280143429618 80.3572730644239 l -11.082128861544854 -29.308928415806328 a52.33411663006866,52.33411663006866 0 0,0 0.8453646345713802,-0.31135492923826563 l 10.575981901200905 29.495346612850916" fill="#8bff24" stroke="none" /><path d="M 92.91201910852362 80.23233633223022 l -10.575136777638434 -29.492989648491616 a52.33161273014517,52.33161273014517 0 0,0 0.8505581514852102,-0.29674303790609574 l 10.065896622089939 29.670653539569923" fill="#8bff24" stroke="none" /><path d="M 93.25333710446033 80.11325718540243 l -2.128312950433602 -6.2735033496682195 a27.62469322257882,27.62469322257882 0 0,0 0.45162055779023824,-0.14889219734975614 l 2.020009570400954 6.30920927127721" fill="#ff3304" stroke="none" /><path d="M 93.59665428221793 80.00007090966166 l -4.779556803139476 -14.928258032449865 a36.67472650855002,36.67472650855002 0 0,0 0.6028881925040501,-0.1873202961203501 l 4.521883237924698 15.00831846345274" fill="#ffb210" stroke="none" /><path d="M 93.94186890950719 79.89281104454417 l -9.034195588222952 -29.984870752964753 a52.316276343113785,52.316276343113785 0 0,0 0.8644885553973923,-0.25236791515755097 l 8.516716815102138 30.135936997041" fill="#8bff24" stroke="none" /><path d="M 94.28887869178378 79.79150937346287 l -2.478764995328509 -8.770974467206672 a30.11450870900112,30.11450870900112 0 0,0 0.5000472738961563,-0.1366818093510254 l 2.32741983220863 8.812342817383993" fill="#ff5708" stroke="none" /><path d="M 99.27714615592234 79.0124445844662 l -0.2156107327115584 -6.260106711809236 a27.26381864610554,27.26381864610554 0 0,0 0.46916275626570275,-0.012117089829386378 l 0.10782134125097663 6.262890593780981" fill="#ff2e04" stroke="none" /><path d="M 99.63851952072746 79.00311137660856 l -0.27015406664113184 -15.692119419105259 a36.69444472044752,36.69444472044752 0 0,0 0.6316345459136637,-0.005436677950821757 l 3.844030298258227e-15 15.694444720447521" fill="#ffb310" stroke="none" /></svg>