<?xml version="1.0" encoding="utf-8" ?>
<svg baseProfile="full" height="200mm" version="1.1" viewBox="0,0,200,200" width="200mm" xmlns="http://www.w3.org/2000/svg" xmlns:ev="http://www.w3.org/2001/xml-events" xmlns:xlink="http://www.w3.org/1999/xlink"><defs /><rect fill="#1a1a1a" height="200" width="200" x="0" y="0" /><text alignment-baseline="middle" fill="#e1ed5e" style="dominant-baseline: central; font-size:9.0px; font-family:Arial;" text-anchor="middle" x="100.0" y="100.0">2024</text><line stroke="#e1ed5e" stroke-width="0.3" x1="100.0" x2="100.0" y1="15.0" y2="10.0" /><path d="M 100.0 14.0 a86.0,86.0 0 0,1 42.35913384403234,11.155469271406648" fill="none" id="id25" stroke="none" /><text fill="#e1ed5e" style="font-size:6.75px; font-family:Arial;" text-anchor="middle"><textPath startOffset="22.145653131862478" xlink:href="#id25">January</textPath></text><path d="M 101.08105385017728 79.02784411241856 l 0.9478439890993999 -18.38792016997109 a39.41233326889619,39.41233326889619 0 0,0 0.675369082021426,0.04062852688503353 l -1.2633574232532883 18.368939665261365" fill="#ff970e" stroke="none" /><path d="M 101.44090949804482 79.04949213459386 l 0.6118622765647481 -8.896343215940389 a29.917359365938527,29.917359365938527 0 0,0 0.5120584071699937,0.0396365591986598 l -0.7644896785099753 8.884528889746674" fill="#ff0000" stroke="none" /><path d="M 102.51750503828377 79.15144685158666 l 2.2597477289181898 -18.713952866793324 a39.84989367871641,39.84989367871641 0 0,0 0.6784390850207173,0.08783752237960339 l -2.5806646358296987 18.672403748213323" fill="#ff9e0e" stroke="none" /><path d="M 102.87502721639298 79.19773525538626 l 4.639932355527485 -33.57223914487937 a54.891358979315676,54.891358979315676 0 0,0 0.9323033174761064,0.1370164820410229 l -5.215560778611273 33.487641589539464" fill="#91ff24" stroke="none" /><path d="M 103.23170211078529 79.25015418208739 l 9.695106332355895 -62.24953745373786 a84.0,84.0 0 0,0 1.422889987787718,0.23413600601732654 l -10.762273823196683 62.07393544922487" fill="#4dd2ff" stroke="none" /><path d="M 103.58742460773223 79.30868818359171 l 3.252518394525224 -18.759661776493118 a40.03953218635221,40.03953218635221 0 0,0 0.6762205405411319,0.12322990857799004 l -3.5740736686174093 18.701063693983762" fill="#ffa10e" stroke="none" /><path d="M 103.94208987418118 79.37332000966035 l 3.45405063455912 -18.073052462884114 a39.400154649139765,39.400154649139765 0 0,0 0.6632425304330816,0.13266708127701562 l -3.7637896505231585 18.011095984944237" fill="#ff970e" stroke="none" /><path d="M 104.29559338865022 79.4440306129975 l 3.795107113575923 -18.16096138270096 a39.553257297506285,39.553257297506285 0 0,0 0.6634354173959625,0.14459266137101928 l -4.10630494759102 18.093137263196223" fill="#ff9a0e" stroke="none" /><path d="M 104.9986988182912 79.60360301121754 l 4.284184856139498 -17.480936194716076 a38.99826019717766,38.99826019717766 0 0,0 0.64884693744346,0.1649343542019163 l -4.583637086808352 17.404816608678892" fill="#ff910d" stroke="none" /><path d="M 105.3480935250658 79.69241777938227 l 4.717224963238775 -17.912071534490074 a39.52281074811522,39.52281074811522 0 0,0 0.6546080316920334,0.17841632995028162 l -5.0240143958655015 17.82845471039565" fill="#ff990e" stroke="none" /><path d="M 105.69591212413111 79.78721728523813 l 9.456038366745016 -33.55614424592713 a55.863038855596365,55.863038855596365 0 0,0 0.9207824560858131,0.2680263533392808 l -10.030680835212433 33.38887419828533" fill="#85ff25" stroke="none" /><path d="M 106.04205211174951 79.88797359093562 l 15.430083925714163 -51.36173102588244 a74.62942199884013,74.62942199884013 0 0,0 1.2237781204131728,0.37912958994542717 l -16.309502678998967 51.08928484813037" fill="#40ffc4" stroke="none" /><path d="M 106.38641147887787 79.99465700312896 l 10.780144763447346 -33.76864993149172 a56.44761260390489,56.44761260390489 0 0,0 0.9205725633764829,0.30261048647634514 l -11.358240064471572 33.57861852361335" fill="#7eff26" stroke="none" /><path d="M 106.72888874123014 80.10723608172694 l 5.589227460128689 -16.52355784523534 a38.44326309684902,38.44326309684902 0 0,0 0.6233194851538975,0.21682287325566008 l -5.8720527173276045 16.42517653941109" fill="#ff890c" stroke="none" /><path d="M 107.06938296918511 80.22567764915836 l 7.080022867884974 -19.80408404116008 a42.0316064179393,42.0316064179393 0 0,0 0.6773310278683227,0.24872533544556538 l -7.418943047407422 19.679627856705793" fill="#ffbe11" stroke="none" /><path d="M 107.40779381753099 80.34994680014964 l 12.798804465579522 -33.95034943439392 a57.28271795863135,57.28271795863135 0 0,0 0.9171446979739092,0.354771271688419 l -13.379721426046958 33.725638274567466" fill="#73ff27" stroke="none" /><path d="M 107.74402155503746 80.48000691201159 l 19.87951560798763 -50.10936559287494 a74.9086603518268,74.9086603518268 0 0,0 1.191210140128245,0.48445479373102346 l -20.736780209306318 49.76072354256462" fill="#40ffc7" stroke="none" /><path d="M 108.07796709384702 80.6158196554323 l 13.785704136822089 -33.080671418995614 a56.83819833752175,56.83819833752175 0 0,0 0.89740728377279,0.3830498063069612 l -14.351546495765309 32.83914696302925" fill="#79ff26" stroke="none" /><path d="M 108.4095320186766 80.7573450057729 l 7.308496662001945 -16.723270626835127 a39.25053160641794,39.25053160641794 0 0,0 0.6150868515458837,0.2751205251075713 l -7.59449691640346 16.595346350817703" fill="#ff950d" stroke="none" /><path d="M 108.73861861582097 80.90454125486305 l 7.254952678672937 -15.85338091339793 a38.434564082737296,38.434564082737296 0 0,0 0.5975866166877435,0.2797007105270349 l -7.526028009232185 15.72650397130036" fill="#ff890c" stroke="none" /><path d="M 109.3889696526874 81.21577127319529 l 7.8077199930007195 -15.620670170277174 a38.46327082930601,38.46327082930601 0 0,0 0.5880718679594448,0.3002736859580459 l -8.074719082673743 15.484338532646294" fill="#ff890c" stroke="none" /><path d="M 109.71004243097381 81.37971332152246 l 8.072707944670588 -15.480481910346759 a38.45892132225015,38.45892132225015 0 0,0 0.5827647094059407,0.31028938340586676 l -8.337261469863089 15.33962205921832" fill="#ff890c" stroke="none" /><path d="M 110.02825361518725 81.54914285379988 l 21.67355654851204 -39.87690290571282 a66.38623622656098,66.38623622656098 0 0,0 0.9966022284221614,0.5527984563954849 l -22.3549029650903 39.49897153388419" fill="#34ff5b" stroke="none" /><path d="M 110.34350942703115 81.72400993836675 l 23.26668342105903 -41.110000234465055 a68.23738642953799,68.23738642953799 0 0,0 1.0144869531820222,0.5857143155090039 l -23.96896284210145 40.70453902167988" fill="#37ff74" stroke="none" /><line stroke="#e1ed5e" stroke-width="0.3" x1="143.13028292997686" x2="145.6673583964461" y1="26.7553504044142" y2="22.446841604673864" /><path d="M 143.63769802327073 25.89364864446614 a86.0,86.0 0 0,1 29.32050498858742,28.57503671076993" fill="none" id="id26" stroke="none" /><text fill="#e1ed5e" style="font-size:6.75px; font-family:Arial;" text-anchor="middle"><textPath startOffset="20.669276256404974" xlink:href="#id26">February</textPath></text><path d="M 110.65571695917076 81.90426304109057 l 24.047973640023002 -40.838716629960985 a68.39309878213803,68.39309878213803 0 0,0 1.0065745957662142,0.6044191235204079 l -24.74548099234665 40.41988350590466" fill="#37ff76" stroke="none" /><path d="M 111.5731344415666 82.4767994020092 l 15.645832024866792 -23.68978382464006 a49.39010245505509,49.39010245505509 0 0,0 0.7034649035988763,0.47332258178248254 l -16.05019321656267 23.41771156880046" fill="#d8ff1c" stroke="none" /><path d="M 111.8722381534696 82.67804972795209 l 16.761819322224092 -24.4559953241643 a50.648849797023004,50.648849797023004 0 0,0 0.7129546964953748,0.49769774900586444 l -17.179169109893227 24.16465275935331" fill="#c7ff1e" stroke="none" /><path d="M 112.16784306229584 82.88440491214696 l 20.189291397376206 -28.39876672463976 a55.843901024550554,55.843901024550554 0 0,0 0.7765466454269234,0.5621598857194452 l -20.6738190531771 28.048006067547238" fill="#85ff25" stroke="none" /><path d="M 113.31354834802062 83.75963576809568 l 11.15737192961276 -13.610179590828325 a38.59897544944906,38.59897544944906 0 0,0 0.5088184323553567,0.4244744330254811 l -11.389364696130007 13.416642973890974" fill="#ff8b0c" stroke="none" /><path d="M 114.13192950727249 84.46653392183569 l 13.315492608837927 -14.636058908091131 a40.786777498550165,40.786777498550165 0 0,0 0.5138555738170404,0.47561704770677615 l -13.564777953968932 14.405324114251979" fill="#ffac0f" stroke="none" /><path d="M 115.41159269507618 85.73525988315684 l 19.68977694215319 -18.224563586355387 a47.82949932341001,47.82949932341001 0 0,0 0.5525498334971968,0.6073490594972958 l -19.99972447649227 17.88387695130042" fill="#edff1a" stroke="none" /><path d="M 115.8921839302757 86.27271002978787 l 20.54801318725094 -17.74888439314978 a48.15223274695535,48.15223274695535 0 0,0 0.5349608418635974,0.6301825265754183 l -20.84966859262165 17.39353508412481" fill="#e9ff1a" stroke="none" /><path d="M 116.35404254752997 86.82634096563983 l 15.329289777920037 -12.348190741604846 a40.68412913203171,40.68412913203171 0 0,0 0.43344787747377017,0.5476472335631045 l -15.539004086035366 12.083223564127064" fill="#ffab0f" stroke="none" /><line stroke="#e1ed5e" stroke-width="0.3" x1="172.87174338648825" x2="177.1583165268699" y1="56.24261187166439" y2="53.66864786411523" /><path d="M 173.72905801456457 55.72781907015455 a86.0,86.0 0 0,1 12.242430191666344,42.057860355516425" fill="none" id="id27" stroke="none" /><text fill="#e1ed5e" style="font-size:6.75px; font-family:Arial;" text-anchor="middle"><textPath startOffset="22.145653131862474" xlink:href="#id27">March</textPath></text><line stroke="#e1ed5e" stroke-width="0.3" x1="184.99686870605535" x2="189.99668451229388" y1="99.2704041080226" y2="99.22748670261217" /><path d="M 185.99683186730306 99.26182062694052 a86.0,86.0 0 0,1 -10.086455211305974,41.156179273409016" fill="none" id="id28" stroke="none" /><text fill="#e1ed5e" style="font-size:6.75px; font-family:Arial;" text-anchor="middle"><textPath startOffset="21.40746469413373" xlink:href="#id28">April</textPath></text><line stroke="#e1ed5e" stroke-width="0.3" x1="174.33088141563837" x2="178.70328620479359" y1="141.23008692659167" y2="143.65538615756765" /><path d="M 175.20536237346943 141.71514677278685 a86.0,86.0 0 0,1 -30.301960400862466,31.631185727798858" fill="none" id="id29" stroke="none" /><text fill="#e1ed5e" style="font-size:6.75px; font-family:Arial;" text-anchor="middle"><textPath startOffset="22.145653131862474" xlink:href="#id29">May</textPath></text><line stroke="#e1ed5e" stroke-width="0.3" x1="143.1302829299769" x2="145.66735839644613" y1="173.24464959558577" y2="177.55315839532614" /><path d="M 143.63769802327073 174.10635135553383 a86.0,86.0 0 0,1 -40.68552437913181,11.842963189579606" fill="none" id="id30" stroke="none" /><text fill="#e1ed5e" style="font-size:6.75px; font-family:Arial;" text-anchor="middle"><textPath startOffset="21.407464694133747" xlink:href="#id30">June</textPath></text><line stroke="#e1ed5e" stroke-width="0.3" x1="101.45913802915013" x2="101.54496967792366" y1="184.9874750549273" y2="189.98673829345242" /><path d="M 101.47630435890484 185.9873277026323 a86.0,86.0 0 0,1 -42.54439059252881,-10.42667462771756" fill="none" id="id31" stroke="none" /><text fill="#e1ed5e" style="font-size:6.75px; font-family:Arial;" text-anchor="middle"><textPath startOffset="22.145653131862474" xlink:href="#id31">July</textPath></text><line stroke="#e1ed5e" stroke-width="0.3" x1="58.13341422392154" x2="55.67067388415222" y1="173.97424548756322" y2="178.32567169271397" /><path d="M 57.64086615596768 174.84453072859336 a86.0,86.0 0 0,1 -31.369924170532247,-30.572349798747897" fill="none" id="id32" stroke="none" /><text fill="#e1ed5e" style="font-size:6.75px; font-family:Arial;" text-anchor="middle"><textPath startOffset="22.145653131862474" xlink:href="#id32">August</textPath></text><line stroke="#e1ed5e" stroke-width="0.3" x1="26.387840678322732" x2="22.057713659400548" y1="142.50000000000003" y2="145.00000000000006" /><path d="M 25.521815274538298 143.00000000000003 a86.0,86.0 0 0,1 -11.493303480769221,-40.785679425670985" fill="none" id="id33" stroke="none" /><text fill="#e1ed5e" style="font-size:6.75px; font-family:Arial;" text-anchor="middle"><textPath startOffset="21.40746469413373" xlink:href="#id33">September</textPath></text><line stroke="#e1ed5e" stroke-width="0.3" x1="15.003131293944662" x2="10.003315487706104" y1="100.72959589197737" y2="100.7725132973878" /><path d="M 14.003168132696942 100.73817937305945 a86.0,86.0 0 0,1 10.791469493833604,-42.45332614584628" fill="none" id="id34" stroke="none" /><text fill="#e1ed5e" style="font-size:6.75px; font-family:Arial;" text-anchor="middle"><textPath startOffset="22.145653131862435" xlink:href="#id34">October</textPath></text><line stroke="#e1ed5e" stroke-width="0.3" x1="26.387840678322718" x2="22.05771365940052" y1="57.49999999999999" y2="54.99999999999999" /><path d="M 25.521815274538284 56.99999999999999 a86.0,86.0 0 0,1 29.574782752854787,-30.34633250058573" fill="none" id="id35" stroke="none" /><text fill="#e1ed5e" style="font-size:6.75px; font-family:Arial;" text-anchor="middle"><textPath startOffset="21.40746469413373" xlink:href="#id35">November</textPath></text><line stroke="#e1ed5e" stroke-width="0.3" x1="56.869717070023135" x2="54.33264160355391" y1="26.7553504044142" y2="22.446841604673864" /><path d="M 56.362301976729285 25.89364864446614 a86.0,86.0 0 0,1 42.16139366436587,-11.88097634709845" fill="none" id="id36" stroke="none" /><text fill="#e1ed5e" style="font-size:6.75px; font-family:Arial;" text-anchor="middle"><textPath startOffset="22.145653131862474" xlink:href="#id36">December</textPath></text></svg>