<?xml version="1.0" encoding="utf-8" ?>
<svg baseProfile="full" height="200mm" version="1.1" viewBox="0,0,200,200" width="200mm" xmlns="http://www.w3.org/2000/svg" xmlns:ev="http://www.w3.org/2001/xml-events" xmlns:xlink="http://www.w3.org/1999/xlink"><defs /><rect fill="#1a1a1a" height="200" width="200" x="0" y="0" /><text alignment-baseline="middle" fill="#e1ed5e" style="dominant-baseline: central; font-size:9.0px; font-family:Arial;" text-anchor="middle" x="100.0" y="100.0">2024</text><line stroke="#e1ed5e" stroke-width="0.3" x1="100.0" x2="100.0" y1="15.0" y2="10.0" /><path d="M 100.0 14.0 a86.0,86.0 0 0,1 42.35913384403234,11.155469271406648" fill="none" id="id25" stroke="none" /><text fill="#e1ed5e" style="font-size:6.75px; font-family:Arial;" text-anchor="middle"><textPath startOffset="22.145653131862478" xlink:href="#id25">January</textPath></text><path d="M 101.08105385017728 79.02784411241856 l 0.9478439890993999 -18.38792016997109 a39.41233326889619,39.41233326889619 0 0,0 0.675369082021426,0.04062852688503353 l -1.2633574232532883 18.368939665261365" fill="#ff970e" stroke="none" /><path d="M 101.44090949804482 79.04949213459386 l 0.6118622765647481 -8.896343215940389 a29.917359365938527,29.917359365938527 0 0,0 0.5120584071699937,0.0396365591986598 l -0.7644896785099753 8.884528889746674" fill="#ff0000" stroke="none" /><path d="M 102.51750503828377 79.15144685158666 l 2.2597477289181898 -18.713952866793324 a39.84989367871641,39.84989367871641 0 0,0 0.6784390850207173,0.08783752237960339 l -2.5806646358296987 18.672403748213323" fill="#ff9e0e" stroke="none" /><path d="M 102.87502721639298 79.19773525538626 l 4.639932355527485 -33.57223914487937 a54.891358979315676,54.891358979315676 0 0,0 0.9323033174761064,0.1370164820410229 l -5.215560778611273 33.487641589539464" fill="#91ff24" stroke="none" /><path d="M 103.23170211078529 79.25015418208739 l 9.695106332355895 -62.24953745373786 a84.0,84.0 0 0,0 1.422889987787718,0.23413600601732654 l -10.762273823196683 62.07393544922487" fill="#4dd2ff" stroke="none" /><path d="M 103.58742460773223 79.30868818359171 l 3.252518394525224 -18.759661776493118 a40.03953218635221,40.03953218635221 0 0,0 0.6762205405411319,0.12322990857799004 l -3.5740736686174093 18.701063693983762" fill="#ffa10e" stroke="none" /><path d="M 103.94208987418118 79.37332000966035 l 3.45405063455912 -18.073052462884114 a39.400154649139765,39.400154649139765 0 0,0 0.6632425304330816,0.13266708127701562 l -3.7637896505231585 18.011095984944237" fill="#ff970e" stroke="none" /><path d="M 104.29559338865022 79.4440306129975 l 3.795107113575923 -18.16096138270096 a39.553257297506285,39.553257297506285 0 0,0 0.6634354173959625,0.14459266137101928 l -4.10630494759102 18.093137263196223" fill="#ff9a0e" stroke="none" /><path d="M 104.9986988182912 79.60360301121754 l 4.284184856139498 -17.480936194716076 a38.99826019717766,38.99826019717766 0 0,0 0.64884693744346,0.1649343542019163 l -4.583637086808352 17.404816608678892" fill="#ff910d" stroke="none" /><path d="M 105.3480935250658 79.69241777938227 l 4.717224963238775 -17.912071534490074 a39.52281074811522,39.52281074811522 0 0,0 0.6546080316920334,0.17841632995028162 l -5.0240143958655015 17.82845471039565" fill="#ff990e" stroke="none" /><path d="M 105.69591212413111 79.78721728523813 l 9.456038366745016 -33.55614424592713 a55.863038855596365,55.863038855596365 0 0,0 0.9207824560858131,0.2680263533392808 l -10.030680835212433 33.38887419828533" fill="#85ff25" stroke="none" /><path d="M 106.04205211174951 79.88797359093562 l 15.430083925714163 -51.36173102588244 a74.62942199884013,74.62942199884013 0 0,0 1.2237781204131728,0.37912958994542717 l -16.309502678998967 51.08928484813037" fill="#40ffc4" stroke="none" /><path d="M 106.38641147887787 79.99465700312896 l 10.780144763447346 -33.76864993149172 a56.44761260390489,56.44761260390489 0 0,0 0.9205725633764829,0.30261048647634514 l -11.358240064471572 33.57861852361335" fill="#7eff26" stroke="none" /><path d="M 107.06938296918511 80.22567764915836 l 7.080022867884974 -19.80408404116008 a42.0316064179393,42.0316064179393 0 0,0 0.6773310278683227,0.24872533544556538 l -7.418943047407422 19.679627856705793" fill="#ffbe11" stroke="none" /><path d="M 107.40779381753099 80.34994680014964 l 6.652101062236758 -17.64548838473211 a39.857722791416975,39.857722791416975 0 0,0 0.6381558074437313,0.24685237546736927 l -6.954029132174015 17.528696121126703" fill="#ff9e0e" stroke="none" /><line stroke="#e1ed5e" stroke-width="0.3" x1="143.13028292997686" x2="145.6673583964461" y1="26.7553504044142" y2="22.446841604673864" /><path d="M 143.63769802327073 25.89364864446614 a86.0,86.0 0 0,1 29.32050498858742,28.57503671076993" fill="none" id="id26" stroke="none" /><text fill="#e1ed5e" style="font-size:6.75px; font-family:Arial;" text-anchor="middle"><textPath startOffset="20.669276256404974" xlink:href="#id26">February</textPath></text><line stroke="#e1ed5e" stroke-width="0.3" x1="172.87174338648825" x2="177.1583165268699" y1="56.24261187166439" y2="53.66864786411523" /><path d="M 173.72905801456457 55.72781907015455 a86.0,86.0 0 0,1 12.242430191666344,42.057860355516425" fill="none" id="id27" stroke="none" /><text fill="#e1ed5e" style="font-size:6.75px; font-family:Arial;" text-anchor="middle"><textPath startOffset="22.145653131862474" xlink:href="#id27">March</textPath></text><line stroke="#e1ed5e" stroke-width="0.3" x1="184.99686870605535" x2="189.99668451229388" y1="99.2704041080226" y2="99.22748670261217" /><path d="M 185.99683186730306 99.26182062694052 a86.0,86.0 0 0,1 -10.086455211305974,41.156179273409016" fill="none" id="id28" stroke="none" /><text fill="#e1ed5e" style="font-size:6.75px; font-family:Arial;" text-anchor="middle"><textPath startOffset="21.40746469413373" xlink:href="#id28">April</textPath></text><line stroke="#e1ed5e" stroke-width="0.3" x1="174.33088141563837" x2="178.70328620479359" y1="141.23008692659167" y2="143.65538615756765" /><path d="M 175.20536237346943 141.71514677278685 a86.0,86.0 0 0,1 -30.301960400862466,31.631185727798858" fill="none" id="id29" stroke="none" /><text fill="#e1ed5e" style="font-size:6.75px; font-family:Arial;" text-anchor="middle"><textPath startOffset="22.145653131862474" xlink:href="#id29">May</textPath></text><line stroke="#e1ed5e" stroke-width="0.3" x1="143.1302829299769" x2="145.66735839644613" y1="173.24464959558577" y2="177.55315839532614" /><path d="M 143.63769802327073 174.10635135553383 a86.0,86.0 0 0,1 -40.68552437913181,11.842963189579606" fill="none" id="id30" stroke="none" /><text fill="#e1ed5e" style="font-size:6.75px; font-family:Arial;" text-anchor="middle"><textPath startOffset="21.407464694133747" xlink:href="#id30">June</textPath></text><line stroke="#e1ed5e" stroke-width="0.3" x1="101.45913802915013" x2="101.54496967792366" y1="184.9874750549273" y2="189.98673829345242" /><path d="M 101.47630435890484 185.9873277026323 a86.0,86.0 0 0,1 -42.54439059252881,-10.42667462771756" fill="none" id="id31" stroke="none" /><text fill="#e1ed5e" style="font-size:6.75px; font-family:Arial;" text-anchor="middle"><textPath startOffset="22.145653131862474" xlink:href="#id31">July</textPath></text><line stroke="#e1ed5e" stroke-width="0.3" x1="58.13341422392154" x2="55.67067388415222" y1="173.97424548756322" y2="178.32567169271397" /><path d="M 57.64086615596768 174.84453072859336 a86.0,86.0 0 0,1 -31.369924170532247,-30.572349798747897" fill="none" id="id32" stroke="none" /><text fill="#e1ed5e" style="font-size:6.75px; font-family:Arial;" text-anchor="middle"><textPath startOffset="22.145653131862474" xlink:href="#id32">August</textPath></text><line stroke="#e1ed5e" stroke-width="0.3" x1="26.387840678322732" x2="22.057713659400548" y1="142.50000000000003" y2="145.00000000000006" /><path d="M 25.521815274538298 143.00000000000003 a86.0,86.0 0 0,1 -11.493303480769221,-40.785679425670985" fill="none" id="id33" stroke="none" /><text fill="#e1ed5e" style="font-size:6.75px; font-family:Arial;" text-anchor="middle"><textPath startOffset="21.40746469413373" xlink:href="#id33">September</textPath></text><line stroke="#e1ed5e" stroke-width="0.3" x1="15.003131293944662" x2="10.003315487706104" y1="100.72959589197737" y2="100.7725132973878" /><path d="M 14.003168132696942 100.73817937305945 a86.0,86.0 0 0,1 10.791469493833604,-42.45332614584628" fill="none" id="id34" stroke="none" /><text fill="#e1ed5e" style="font-size:6.75px; font-family:Arial;" text-anchor="middle"><textPath startOffset="22.145653131862435" xlink:href="#id34">October</textPath></text><line stroke="#e1ed5e" stroke-width="0.3" x1="26.387840678322718" x2="22.05771365940052" y1="57.49999999999999" y2="54.99999999999999" /><path d="M 25.521815274538284 56.99999999999999 a86.0,86.0 0 0,1 29.574782752854787,-30.34633250058573" fill="none" id="id35" stroke="none" /><text fill="#e1ed5e" style="font-size:6.75px; font-family:Arial;" text-anchor="middle"><textPath startOffset="21.40746469413373" xlink:href="#id35">November</textPath></text><line stroke="#e1ed5e" stroke-width="0.3" x1="56.869717070023135" x2="54.33264160355391" y1="26.7553504044142" y2="22.446841604673864" /><path d="M 56.362301976729285 25.89364864446614 a86.0,86.0 0 0,1 42.16139366436587,-11.88097634709845" fill="none" id="id36" stroke="none" /><text fill="#e1ed5e" style="font-size:6.75px; font-family:Arial;" text-anchor="middle"><textPath startOffset="22.145653131862474" xlink:href="#id36">December</textPath></text></svg>